<svg xmlns:ns0="http://www.w3.org/2000/svg" xmlns="http://www.w3.org/2000/svg" version="1.1" xmlns:xlink="http://www.w3.org/1999/xlink" viewBox="0 0 6400 6400"><defs><g id="white-pawn"><ns0:g stroke="#000" stroke-miterlimit="10"><ns0:path d="m497.9 240c0 53.6-44 93.9-98.1 93.9s-98.1-40.3-98.1-93.9 44-93.9 98.1-93.9c54.2.1 98.1 40.4 98.1 93.9zm28.5 97.6v55.3c-30.2 3-42.8 12.1-42.8 28 0 56.9 36 123.4 109.1 187.9v60.9c0 17.4-87.5 30.8-192.7 30.8s-192.7-13.4-192.7-30.8l-.1-60.6c73.1-64.5 108.1-131.1 108.1-188 0-15.9-13.6-25.2-43.8-28.2v-55.3z" fill="#fff" stroke-width="30.24" /><ns0:path d="m207.2 608c0 17.4 87.5 30.3 192.7 30.3s192.6-12.9 192.6-30.2" fill="none" stroke-width="16.2" /><ns0:path d="m272.6 386.7h252.7" fill="none" stroke-width="14.04" /></ns0:g></g><g id="white-knight"><ns0:g stroke="#000" stroke-miterlimit="10"><ns0:path d="M645.254 692.2V280.6c-57.2-41.8-142.3-85.8-196.6-98.1-42.6-9.7-101.3-2.1-148.6 13.2-13.3-34.9-48-58.6-81.5-60.4 6.3 29.6 5.9 74.3 24.3 97.7-7 16.2-32.1 69.4-48.7 119.3v39.4c-13.9 59.1-34.9 166.2-43.4 212.8l120.9 51.5 22.4-58.1c15.2-22.7 45.7-60.9 65.1-78.2 24.4-10.3 55.8-29.4 66.6-59.2 14-38.4 6.3-84.3-10.5-119.9 31 30.2 50 77 50 127.8 0 68.1-38.1 145.9-104.7 223.7h284.7z" fill="#fff" stroke-linecap="round" stroke-width="29.16" /><ns0:path d="M179.754 574.8c19.4-10.9 33.9 3.8 22.4 25.2z" stroke-width="9.169" /><ns0:path d="M231.454 357.9c-6.9 9.5-.6 29.3 6 34.5 4.5-.6 14.1-4.4 18.6-8l21.5-24.9-4.5-3.7c-8.8-.1-30.7-.1-41.6 2.1z" stroke-width=".952" /><ns0:path d="M320.054 186c-12.5-17.9-9.9-49.7 7-75.1 28.2 14.3 39.7 47.4 35.1 70.6" fill="#fff" stroke-linecap="square" stroke-width="23.76" /></ns0:g></g><g id="white-bishop"><ns0:path d="M238.9 701.8c-41.8 0-77-14.8-101.8-42.8-22.9-25.8-35.5-62.1-35.5-102.2 0-58.9 41.1-72.9 77.1-78.5l15.6-2.5-4.8 15c-6.5 20.5-10.2 43-10.2 61.3 0 54.3 24.5 88.1 64.2 88.1 29.5 0 57.2-24.2 71.4-61.1-33-6.6-49.5-16.4-50.1-29.9l-7.3-55.7v-.5c0-9.1 5.9-15.3 13.2-20.3-1.6-4.4-3.3-9.1-5.1-13.8-16.6-44.9-37.3-100.8-37.3-143.6 0-50.2 22.1-95.1 62.3-126.5 22.9-32 69.2-68.5 105.3-90.6l5.1-3.1 5.1 3.1c36 22 82.3 58.5 105.3 90.7 40.2 31.4 62.3 76.1 62.3 126 0 43-20.7 99.4-37.4 144.6-1.7 4.5-3.3 9-4.9 13.2 7.2 5 13.2 11.3 13.2 20.3v.6l-7.2 55.5c-.5 13.5-17 23.4-50 29.9 14.1 36.9 41.9 61.1 71.4 61.1 39.5 0 64.2-33.8 64.2-88.1 0-18.5-3.7-40.8-10.2-61.3l-4.8-15 15.6 2.5c25.2 4 42.6 10.8 54.9 21.6 14.9 13.1 22.2 31.8 22.2 56.9 0 40.1-12.6 76.4-35.5 102.2-24.8 28-59.9 42.8-101.8 42.8-65.4 0-118.6-45.1-137.4-115.8-8.2.3-16.5.5-24.8.5s-16.6-.2-24.8-.5c-19 70.8-72.1 115.9-137.5 115.9z" fill="#fff" /><ns0:path d="M401.1 106.4c33.5 20.5 80.6 56.8 103.2 89.3C540.2 223.2 564 264 564 315c0 48.3-28.5 117.6-44.4 161.9 9.7 5.4 15.2 10.2 15.2 16.2l-7.2 55.4c0 9.5-21 17.9-53.1 23.1 13.2 44.7 45.9 78.4 84.2 78.4 45.7 0 73.9-38.9 73.9-97.8 0-20-4-43.3-10.7-64.3 41.5 6.6 68.9 21.9 68.9 68.9 0 75-45.6 135.2-127.5 135.2-62 0-113.6-43.6-129.9-116.1-10.4.6-21.2 1-32.4 1s-22-.3-32.4-1c-16.2 72.5-68 116.1-130 116.1-82 0-127.5-60.3-127.5-135.2 0-47 27.4-62.4 68.9-68.9-6.6 21-10.7 44.4-10.7 64.3 0 59 28.1 97.8 73.9 97.8 38.3 0 71.1-33.7 84.2-78.4-32.2-5.2-53.1-13.5-53.1-23L267 493c0-5.9 5.5-10.8 15.2-16.2-15.8-44.3-44.4-113.3-44.4-161.6 0-51 23.9-92.2 59.7-119.7 23-32.4 70.1-68.5 103.6-89.1m0-22.8l-10.2 6.3C357 110.6 309.1 147 283.6 182c-41.9 33.3-65 80.5-65 133.3 0 44.6 21 101.3 37.8 147 .9 2.5 1.7 4.9 2.6 7.1-6 5.5-11.3 13.2-11.3 23.7v1.3l.2 1.3 7.1 54.8c.3 5.5 2.6 12.9 10.3 19.8 4.1 3.7 9.4 6.8 16.1 9.7 5.6 2.4 12.2 4.5 19.8 6.5-5.3 10.7-12 20.1-19.7 27.4-8.1 7.8-21.3 17.1-38.1 17.1-16.1 0-29.1-6.4-38.4-19-10.4-13.9-15.9-34.6-15.9-59.4 0-17.5 3.6-38.8 9.7-58.4l9.4-29.9-31 4.9c-27.1 4.3-46 11.9-59.7 23.9-17 14.8-25.5 36.4-25.5 64.3 0 21 3.1 40.8 9.5 59.1 6.5 18.9 16.1 35.5 28.5 49.6 26.7 30.1 64.4 46 109.1 46 67.6 0 123-44.8 144.6-115.5 5.8.2 11.7.2 17.6.2s11.8-.1 17.6-.2c21.7 70.6 77 115.5 144.6 115.5 44.7 0 82.4-15.9 109.1-46 12.4-14 22-30.7 28.5-49.6 6.3-18.3 9.5-38.1 9.5-59.1 0-27.8-8.5-49.5-25.5-64.3-13.7-12-32.7-19.7-59.7-23.9l-31-4.9 9.4 29.9c6.2 19.7 9.7 40.9 9.7 58.4 0 24.8-5.5 45.5-15.9 59.4-9.4 12.6-22.4 19-38.4 19-16.8 0-30-9.3-38.1-17.1-7.7-7.3-14.4-16.7-19.7-27.5 7.6-1.9 14.1-4.1 19.8-6.5 6.7-2.9 12-6 16.1-9.7 7.7-6.9 9.8-14.3 10.2-19.8l7.1-54.5.1-1.3v-1.4c0-10.5-5.3-18.1-11.3-23.7.8-2.2 1.6-4.3 2.4-6.5 17-46 38-103.1 38-148 0-52.6-23-99.7-65-132.8-11.4-15.7-28-32.6-49.4-50.4-18.2-15.2-38.8-30-58-41.8z" /><ns0:g stroke="#000" stroke-miterlimit="10"><ns0:path d="M527.8 548.5l7.2-55.7c0-19.7-58.9-35.2-133.9-35.2-75.1 0-133.9 15.7-133.9 35.2l7.2 55.7" fill="none" stroke-linecap="round" stroke-width="16.906" /><ns0:ellipse cx="401.1" cy="548.5" fill="none" rx="126.7" ry="28.4" stroke-linecap="round" stroke-width="15.911" /><ns0:path d="M333.9 527.1c0 64.4-40.4 121.9-90.5 121.9-45.7 0-73.9-38.9-73.9-97.8 0-20 4-43.3 10.7-64.3-41.5 6.6-68.9 21.9-68.9 68.9 0 75 45.6 135.2 127.5 135.2 74.5 0 134.2-63.2 135.2-163.6m94.4-.3c0 64.4 40.4 121.9 90.5 121.9 45.7 0 73.9-38.9 73.9-97.8 0-20-4-43.3-10.7-64.3 41.5 6.6 68.9 21.9 68.9 68.9 0 75-45.6 135.2-127.5 135.2-74.5 0-134.2-63.2-135.2-163.6" fill="#fff" stroke-width="18.36" /><ns0:g fill="none"><ns0:path d="M519.8 476.2c15.8-44.7 44.4-113.3 44.4-161.6 0-51-23.9-92.4-59.7-119.9-22.7-32.4-69.9-69.2-103.2-89.7-33.5 20.5-80.6 57.2-103.2 89.7-35.9 27.4-59.7 68.8-59.7 119.8 0 48.3 28.6 117 44.4 161.7" stroke-width="20.52" /><ns0:path d="M401.1 211.2v184.7m-70.2-94h140.4" stroke-width="19.44" /></ns0:g></ns0:g></g><g id="white-rook"><ns0:path d="M400.4 708.3c-57.1 0-110.8-5.8-151.2-16.5-45.5-12-68.5-28.4-68.5-48.6V582c0-28.4 44.1-46.2 74.7-55.3l8.1-172.4c-3.2-2.6-5.6-5.3-7.3-8.1l-.2-.3-24.7-52.8c-19.3-9.5-19.3-19-19.3-22.2V145.3h74.5v50.8h43.2v-50.3l137.2.1v50.2H510v-50.8h75.6v125.4c0 7.8-4.2 14.5-13 19.9l-24 55.4-.4.8c-2.1 3.1-5 6-8.5 8.6l7.6 170.9c21.1 6 38.8 13.5 51.5 21.6 16.5 10.5 24.8 21.9 24.8 34.1 0 .8 0 1.6-.1 2.5l-.1 58.6c0 20.2-23.4 36.6-69.6 48.6-40.9 10.7-95.5 16.6-153.4 16.6z" fill="#fff" /><ns0:path d="M576 155v115.7c0 4.5-3.2 9-10.9 13.1l-24.9 57.7c-2.2 3.2-5.6 6.2-10.4 9L538 534c47.2 12.5 76 30.8 76 48.2 0 .6 0 1.3-.1 1.9l-.1 59.3c0 30.6-95 55.4-213.3 55.4-116.6 0-210-24.7-210-55.4v-61.2c0-17.2 28.2-35.3 74.4-47.8l8.6-184.7c-4.1-2.6-7.2-5.3-8.9-8.1l-26-55.7c-10.4-4.5-16.8-9.6-16.8-15V155H277v50.8h62.6v-50.3l117.7.1v50.2H520V155zm19.5-19.4h-95.1v50.7h-23.8v-50.2h-19.4l-117.5-.1H320v50.3h-23.8v-50.7h-93.9v135.1c0 15.4 12.5 24.6 21.6 29.5l23.1 49.4.3.8.4.8c1.5 2.6 3.5 5.1 5.8 7.5l-7.6 160.8c-18.7 5.9-34.2 12.9-46.2 20.5-8.3 5.3-14.9 11.1-19.5 17.1-6.2 7.9-9.3 16.2-9.3 24.9v61.3c0 18.3 13.9 30.8 25.5 38 12.2 7.7 29.1 14.4 50.2 20 41.1 10.9 95.7 16.8 153.7 16.8 58.8 0 114-5.9 155.8-16.8 21.4-5.6 38.6-12.3 50.9-19.9 11.9-7.3 25.9-19.9 25.9-38.1l.1-58.2c.1-1.1.1-2.1.1-3 0-8.7-3.1-17.3-9.4-25.2-4.8-6-11.4-11.8-19.9-17.2-12.3-7.8-28.2-14.7-47.3-20.6l-7-159.1c2.7-2.4 5-5 6.8-7.8l1-1.4.6-1.6 22.5-52.1c12.3-8.7 14.9-18.9 14.9-26.4V135.6z" /><ns0:g fill="#fff" stroke="#000" stroke-miterlimit="10"><ns0:path d="M191 581.6v61.6c0 30.6 93.1 55.4 209.6 55.4 118.3 0 213.2-24.8 213.2-55.4l-.3-61.3" stroke-linecap="round" stroke-width="18.36" /><ns0:path d="M613.9 582c0 30.6-94.5 55.4-211.1 55.4S191.7 612.6 191.7 582s87.5-64 211.1-64c121.6-.1 211.1 33.3 211.1 64z" stroke-width="21.6" /><ns0:path d="M275.8 260.9l-10.5 280.6c0 19.7 62.1 34.1 136.8 34.1 74.8 0 136.1-14.4 136.1-33.9l-14.9-280.8z" stroke-width="15.12" /><ns0:path d="M231.3 268.1l33.8 73.1c9.5 16.5 61.6 28.5 137.6 28.5s126.4-11.7 137.6-28.5l32.8-73.1" stroke-width="15.12" /><ns0:path d="M522 154v50.8h-63.7v-49.1l-116.6-.1v49.2H278V154h-55.1v116.7c0 20.1 83.1 36.4 178.5 36.4 95.5 0 176.8-16.3 176.8-36.4V154z" stroke-linecap="square" stroke-width="19.44" /></ns0:g></g><g id="white-queen"><ns0:g fill="#fff" stroke="#000" stroke-miterlimit="10"><ns0:path d="M401.1 704.4c-62 0-120.5-5.5-164.8-15.4-49.6-11.1-74.1-25.8-75-44.7l-10.2-54v-.9c0-5.4 1.6-13.2 8.6-21.4-8-46.5-25.9-125.2-44.6-195.5-18.4-6.9-30.8-24.5-30.8-44.6 0-26.4 21.4-47.7 47.7-47.7s47.7 21.4 47.7 47.7c0 11.1-3.7 21.5-10.6 29.9C190.2 424.9 216 494.5 234 533l5.3-1.3c-.5-55.3-9.1-164.3-20.6-261.6-18.6-8-31-26.6-31-47.1 0-28.3 23-51.3 51.3-51.3s51.3 23 51.3 51.3c0 13.8-5.4 26.7-15 36.3 17.9 93.5 47.7 211.6 65.3 258.9l5.4-.3c8.6-66 19.4-184.5 24.6-294.5-14.9-10-23.8-26.6-23.8-44.6 0-29.8 24.2-54 54-54s54 24.2 54 54c0 18-8.9 34.6-23.5 44.6 5.2 110.1 16 228.5 24.6 294.5l5.4.3c17.6-47.3 47.4-165.3 65.3-258.9-9.6-9.6-15-22.5-15-36.3 0-28.3 23-51.3 51.3-51.3s51.3 23 51.3 51.3c0 20.6-12.4 39.1-31 47.1-11.6 97.3-20.2 206.3-20.6 261.6l5.3 1.3c18-38.4 43.8-108.1 64.9-175.2-6.9-8.4-10.6-18.9-10.6-29.9 0-26.4 21.4-47.7 47.7-47.7s47.7 21.4 47.7 47.7c0 20.1-12.4 37.7-30.8 44.6-18.7 70.3-36.5 148.9-44.6 195.5 5.7 6.7 8.6 13.8 8.6 21.3v.9l-10.3 54.3c-1.2 18.9-25.7 33.5-75 44.6-43.8 9.8-102.3 15.3-164.4 15.3zm-189.4-90.7c1.4 3 13.7 12.4 54.6 20.3 36.5 7 84.2 11 134.6 11 50.3 0 98.2-3.9 134.6-11 40.9-8 53.4-17.3 54.6-20.3-1.4-3-13.7-12.4-54.6-20.3-36.5-7-84.2-11-134.6-11-50.3 0-98.2 3.9-134.6 11-40.8 7.9-53.1 17.3-54.6 20.3z" stroke-width="20.52" /><ns0:path d="M592.9 607.6c-41.8 13.8-112.3 23.2-191.8 23.2-80.4 0-148.9-9.5-190.6-23.5C197 610.8 171 628.4 171 643c0 28.5 103 51.6 230 51.6s230-23.1 230-51.6c.1-14.2-24.4-31.7-38.1-35.4z" stroke-width="16.2" /><ns0:path d="M401.1 591.4c127.1 0 230.1 23.1 230.1 51.6l10.2-60.3c0-6.3-3.2-12.3-9.4-18.1 7.5-44.9 26.1-121.9 47-199.9 16.6-4 29.1-19 29.1-36.9 0-21-17-38-38-38-21.1 0-38 17-38 38 0 10.8 4.5 20.6 11.8 27.5-20.8 67-50.1 141.4-70.4 182.4l-20.4-4.9c-.3-54.2 9.2-167.8 21.5-269.9 17.4-5 30.2-21 30.2-40 0-23-18.6-41.6-41.6-41.6S521.5 200 521.5 223c0 13.3 6.3 25.1 15.9 32.7-18 95.8-51.2 221.4-69.4 266.1l-20.4-1.3c-9.1-66.5-20.8-188.6-26-302.6 14.1-7.5 23.8-22.1 23.8-39.2 0-24.4-19.9-44.3-44.3-44.3s-44.3 19.9-44.3 44.3c0 17.1 9.6 31.9 23.8 39.2-5.1 114-16.8 236.1-26 302.6l-20.4 1.3c-18.1-44.7-51.4-170.3-69.4-266.1 9.7-7.6 15.9-19.4 15.9-32.7 0-23-18.6-41.6-41.6-41.6S197.3 200 197.3 223c0 19 12.7 35 30.2 40 12.3 102 21.8 215.5 21.5 269.8l-20.4 4.9c-20.3-41.1-49.7-115.5-70.4-182.4 7.2-6.9 11.8-16.6 11.8-27.5 0-21-17-38-38-38-21.1 0-38 17-38 38 0 17.9 12.4 32.9 29.1 36.9 20.8 78 39.5 155 47 199.9-6 5.7-9.4 11.8-9.4 18.1l10.2 60.3c0-28.5 103.1-51.6 230.2-51.6z" stroke-width="17.28" /></ns0:g><ns0:circle cx="401.1" cy="112.9" r="25.9" /><ns0:circle cx="226.1" cy="164.8" r="23" /><ns0:circle cx="114.9" cy="273.8" r="22.4" /><ns0:circle cx="576" cy="164.8" r="23" /><ns0:circle cx="688.4" cy="273.8" r="22.4" /></g><g id="white-king"><ns0:path d="M405.3 700c-59.8 0-116.1-5.3-158.7-14.8-47.4-10.6-71.1-24.6-72.1-42.8L158.1 576v-1.1c0-9.1 5.2-18 15.2-26.5-6.2-21.9-21.6-45.5-36.6-68.4-18.4-28-35.7-54.4-35.7-77.7 0-25.5 18.4-41.4 47.8-41.4h1.3c2.2 0 4.5.1 7 .1 6 .1 12.9.2 19.3.2-5.4-26.7-3.8-45.9 5-59.9 13.3-21.5 36.9-24 53.6-24 14.1 0 29.8 2.1 46.4 4.4 1.8-16.3 7.5-28.5 17.2-36.9 7.8-6.8 17-10.3 27-10.3 21.3 0 42.2 14.9 60.8 28 7 5 13.6 9.7 19 12.5 5.4-2.9 12.1-7.6 19-12.5 18.5-13.1 39.5-28 60.7-28 10.2 0 19.2 3.5 27 10.3 9.6 8.4 15.3 20.5 17.1 36.9 16.6-2.3 32.3-4.4 46.4-4.4 16.6 0 40.3 2.5 53.6 24 8.6 14 10.3 33.3 4.9 60 6.6 0 13.6-.1 19.8-.2 2.3 0 4.4-.1 6.5-.1h1.3c29.5 0 47.1 15.4 47.1 41.4 0 23.2-17.6 49.7-36.3 77.7-15.2 22.8-30.8 46.3-37 68.1 10.7 8.2 16.1 17.3 16.1 26.8v1.1l-15.8 67.2c-1.6 17.9-25.5 31.9-72.8 42.3-42.3 9.2-98.4 14.4-157.7 14.4z" fill="#fff" /><ns0:path d="M325.6 243.8c28.2 0 60.4 33.6 79.8 41.5 19.4-8 51.6-41.5 79.8-41.5 7.3 0 14.5 2.3 21.1 8 10.2 8.9 14.3 22.9 14.6 40.4 20-2.8 38.8-5.7 55-5.7 20.2 0 36.4 4.5 45.8 19.7s7.9 38 1.2 64.3c2.5 0 5.1.1 7.8.1 10.3 0 21.7-.2 30.1-.3h1.2c21.4 0 37.9 9.2 37.9 32.2 0 39.1-60.9 95.7-73.9 146.7v3.3c10.8 6.9 16.5 14.5 16.5 22.5l-15.6 66.9c-1.3 27.2-100 49.1-221.5 49.1-122.3 0-221.5-22.2-221.5-49.7L167.6 575c0-7.9 5.8-15.6 15.6-22.5v-3.6c-11.9-51-72.8-107.6-72.8-146.7 0-23 17.3-32.2 38.7-32.2h1.2c8.5.1 20.3.4 30.6.4 2.6 0 5.1 0 7.5-.1-6.7-26.4-8.1-49.1 1.3-64.3 9.4-15.1 25.5-19.7 45.8-19.7 16.2 0 35 2.9 55 5.7.3-17.5 4.4-31.6 14.6-40.4 6-5.5 13.1-7.8 20.5-7.8m0-18.3c-12.4 0-23.5 4.2-33 12.5-9.4 8.1-15.6 19.3-18.7 33.5-13.7-1.8-26.7-3.2-38.9-3.2-13.3 0-24.3 1.7-33.7 5.4-11.9 4.6-21.2 12.3-27.8 22.9-8.6 14-11.3 32-8.1 55.5-2.8 0-5.6-.1-8.2-.1-2.5 0-4.9-.1-7-.1h-1.4c-15.2 0-28.5 3.8-38.2 11-8.5 6.4-18.8 18.4-18.8 39.4 0 26 18.1 53.6 37.3 82.7 13.4 20.4 27.3 41.4 34 60.5-9.2 9.2-13.6 19-13.6 29.4v2.3l.3 2.2 15.8 64.6c1.1 12.9 10.2 24 27 32.8 12.6 6.7 30.1 12.5 52.1 17.5 43.1 9.6 100.2 15 160.6 15 60 0 116.7-5.3 159.7-14.8 21.8-4.9 39.4-10.7 52.1-17.3 17-8.9 26.4-19.8 27.8-32.5l15.1-65.6.3-2.1v-2.2c0-10.8-4.8-20.7-14.4-29.8 6.8-19 20.7-39.9 34.2-60 19.4-29.2 37.8-56.7 37.8-82.7 0-21.1-9.8-33-18.1-39.3-9.8-7.5-22.6-11.2-38-11.2h-1.4c-2.1 0-4.2.1-6.5.1-2.8 0-5.7.1-8.7.1 3.3-23.5.6-41.6-8-55.5-6.6-10.6-15.9-18.3-27.8-22.9-9.3-3.7-20.3-5.4-33.6-5.4-12.2 0-25.2 1.4-38.9 3.2-3.1-14.1-9.3-25.4-18.7-33.5-9.5-8.3-20.6-12.5-33-12.5-24.2 0-47.4 16.4-66.1 29.7-4.8 3.3-9.6 6.8-13.7 9.4-4.1-2.6-9-6-13.7-9.4-18.7-13.2-41.9-29.6-66.1-29.6z" /><ns0:g stroke="#000" stroke-miterlimit="10"><ns0:g fill="none" stroke-linecap="round"><ns0:g stroke-width="18.36"><ns0:path d="M187.4 370.4c-11.9.3-25.9-.1-37.5-.3-21.9-.3-39.4 8.7-39.4 32.2 0 39.1 60.6 95.7 73.3 146.7" /><ns0:path d="M289.5 292.4c-45.6-6.3-83.3-13.8-100.3 13.7-27 43.6 35.6 150.7 55.1 222.4" /><ns0:path d="M404.3 285.7c-24.3-9-67.9-61.7-99.8-33.9-43.6 37.9 22.9 173.9 38.1 260.5m280.7-141.9c11.9.3 25.9-.1 37.5-.3 21.9-.3 39.4 8.7 39.4 32.2 0 39.1-60.6 95.7-73.3 146.7" /><ns0:path d="M521.3 292.4c45.6-6.3 83.3-13.8 100.3 13.7 27 43.6-35.6 150.7-55.1 222.4" /><ns0:path d="M406.5 285.7c24.3-9 67.9-61.7 99.8-33.9 43.6 37.9-22.9 173.9-38.1 260.5" /></ns0:g><ns0:path d="M405.4 271.7v184.5" stroke-width="15.12" /></ns0:g><ns0:path d="M632.9 552.5l27.8-68.8c-11.1 14.6-24.8 16.8-33.9 14.3-27-8-26.5-40.6-24.4-66.5-16.4 29.5-39.3 44.7-63.9 39.5-24.9-5.3-40-40.5-39-68.6-17.5 35.6-49.4 54.1-94.1 54.1s-76.6-18.5-94.1-54.1c1.1 28.1-14 63.3-39 68.6-24.6 5.2-47.4-10-63.9-39.5 1.9 25.9 2.6 58.5-24.4 66.5-9.1 2.7-22.9.3-33.9-14.3l27.8 68.8" fill="#fff" stroke-width="18.36" /><ns0:g fill="none"><ns0:g stroke-linecap="round" stroke-width="21.6"><ns0:path d="M167.9 574.8c0-34.3 106.3-61.7 237.4-61.7s237.4 27.3 237.4 61.7m-475 1.9l16.2 65m459.2-65l-16.2 65" /><ns0:ellipse cx="405.4" cy="641.1" rx="221.4" ry="49.7" /></ns0:g><ns0:path d="M404.3 94.6v189m-61.5-124.2H468" stroke-width="30.24" /></ns0:g></ns0:g></g><g id="black-pawn"><ns0:path d="M489.3 418.3c.1-17 12-25.1 65.1-29.9V330h-90.7c32-19.5 52.8-53.5 52.8-92.9 0-61.9-51.3-110.4-116.7-110.4s-116.7 48.5-116.7 110.4c0 39.4 20.7 73.3 52.8 92.9h-91.4v58.4c53.7 4.8 65.2 12.9 65.2 29.8 0 60.7-37.6 131.5-115.5 200.1l.1 64c0 18.6 93.2 32 205.3 32s205.4-13.5 205.4-32l.1-64c-77.9-68.5-115.8-139.4-115.8-200z" /><ns0:path d="M232.1 627.2c0 13.7 76 25.7 167.6 25.7 91.5 0 167.4-11 167.4-24.6" fill="none" stroke="#f2f2f2" stroke-linecap="round" stroke-miterlimit="10" stroke-width="19.44" /><ns0:path d="M400.9 150.3c-24-.2-47.6 8.6-66.3 27.3-26.7 26.8-32.5 63.2-20 95.3" fill="none" stroke="#f2f2f2" stroke-linecap="round" stroke-miterlimit="10" stroke-width="16.2" /></g><g id="black-knight"><ns0:path d="M137.8 605.9c8-43 28.9-151 43.3-212v-40l.5-1.6c13.9-41.9 33.6-85.5 44.1-109 1-2.2 1.8-4 2.6-5.7-11.9-19-15.2-45.7-18.4-69.4-1.3-9.9-2.5-19.3-4.2-27.3l-2.9-13.7 14 .8c33.7 1.7 66.1 22.4 83.6 51.9-5.9-21.6-.9-49.4 14.4-72.1l5.8-8.7 9.4 4.8c27.5 13.9 41.8 43.2 42.6 68.7 10.7-1.1 21.2-1.6 31.1-1.6 16.7 0 32 1.5 45.3 4.5 53 12 139.4 55 200.9 99.9l4.4 3.2v428.3H334.8L350 689c66.7-78.1 102.1-153 102.1-216.9 0-22-3.9-43.7-11.1-63.5 1.4 21.1-1 41.3-7.5 59.1-12.6 34.9-49.1 55.3-70.8 64.7-17.7 16.2-46 51.2-61.3 74l-25.9 67.4-139.1-59.3z" /><ns0:path d="M177.4 578.1c19.4-10.9 33.9 3.8 22.4 25.2zm51.6-217c-6.9 9.5-.6 29.3 6 34.5 4.5-.6 14.1-4.4 18.6-8l21.5-24.9-4.5-3.7c-8.7-.1-30.7-.1-41.6 2.1zm90.8-160.8l.6-2.9c31.1-5.1 73-6 97.3-6 45.7 0 148 58.8 209.5 104.1v55.1c-45-43.5-141.2-118.8-196.3-135.8-37.2-11.5-74.1-15.7-111.1-14.5z" fill="#f2f2f2" /></g><g id="black-bishop"><ns0:path d="M237.8 702.4c-42 0-77.3-14.9-102.2-43-23-25.9-35.6-62.3-35.6-102.5 0-59.2 41.5-73.3 77.5-79.1l16.4-2.6-5 15.8c-6.5 20.5-10.2 42.9-10.2 61.2 0 54 24.4 87.6 63.6 87.6 29.2 0 56.6-23.8 70.7-60.2-11.8-2.4-21.5-5.2-29.1-8.4-13.4-5.6-20.1-13-20.5-21.8l-7-55.7v-.6c0-9.1 5.6-15.6 12.9-20.5-1.6-4.3-3.3-8.9-5.1-13.5-16.6-44.9-37.3-100.9-37.3-143.7 0-50.4 22.1-95.4 62.4-126.9 10.9-15.3 27.2-32 48.5-49.7 17.8-14.8 38-29.3 56.9-40.9l5.4-3.2 5.4 3.2c36.1 22.1 82.4 58.6 105.4 90.7 40.3 31.5 62.5 76.4 62.5 126.5 0 43.1-20.7 99.5-37.5 144.7-1.6 4.4-2.9 8.6-4.4 12.7 7.2 5 13.3 11.4 13.3 20.5v.6l-7.6 55.6c-.6 13.7-17.1 23.7-50 30.3 14.1 36.4 41.5 60.2 70.6 60.2 39.2 0 63.5-33.6 63.5-87.6 0-18.4-3.7-40.7-10.2-61.2l-5-15.8 16.3 2.6c25.3 4 42.8 10.9 55.2 21.7 15 13.2 22.4 32 22.4 57.3 0 40.2-12.6 76.6-35.6 102.5-24.8 28.1-60.3 43-102.2 43-65.6 0-118.8-45.1-137.8-115.7-8 .3-16.2.5-24.4.5s-16.4-.2-24.4-.5c-18.9 70.7-72.3 115.9-137.8 115.9z" /><ns0:path d="M400 106.5c33.5 20.5 80.6 56.7 103.2 89.2C539.1 223.2 563 264 563 315c0 48.3-28.5 117.6-44.4 161.9 9.7 5.4 15.2 10.2 15.2 16.2l-7.2 55.4c0 9.5-21 17.9-53.1 23.1 13.2 44.7 45.9 78.4 84.2 78.4 45.7 0 73.9-38.9 73.9-97.8 0-20-4-43.3-10.7-64.3 41.5 6.6 68.9 21.9 68.9 68.9 0 75-45.6 135.2-127.5 135.2-62 0-113.6-43.6-129.9-116.1-10.4.6-21.2 1-32.4 1s-22-.3-32.4-1c-16.3 72.5-68 116.1-130 116.1-82 0-127.5-60.3-127.5-135.2 0-47 27.4-62.4 68.9-68.9-6.6 21-10.7 44.4-10.7 64.3 0 59 28.1 97.8 73.9 97.8 38.3 0 71.1-33.7 84.2-78.4-32.2-5.2-53.1-13.5-53.1-23L266 493c0-5.9 5.5-10.8 15.2-16.2-15.8-44.3-44.4-113.3-44.4-161.6 0-51 23.9-92.2 59.7-119.7 22.9-32.4 70-68.4 103.5-89m0-24L389.3 89c-34 20.8-82 57.1-107.6 92.1-42.1 33.5-65.2 80.9-65.2 134 0 44.7 21.1 101.6 37.9 147.3.9 2.2 1.6 4.3 2.4 6.5-6 5.7-11.2 13.5-11.2 24.1v1.3l.2 1.3 7.1 54.8c.3 5.7 2.7 13.4 10.6 20.4 4.2 3.8 9.5 6.9 16.4 9.8 5.3 2.3 11.6 4.3 18.6 6.2-5.2 10.2-11.6 19-18.9 26-8 7.7-21 16.7-37.4 16.7-15.8 0-28.4-6.3-37.6-18.6-10.3-13.8-15.7-34.1-15.7-58.8 0-17.4 3.6-38.6 9.7-58.1l9.9-31.6-32.7 5.2c-37 5.8-86.2 21.5-86.2 89.2 0 21.1 3.2 41 9.5 59.4 6.5 19 16.2 35.7 28.7 49.9 26.9 30.3 64.9 46.4 109.8 46.4 67.9 0 123.4-44.7 145.5-115.5 5.5.1 11.1.2 16.8.2 5.6 0 11.2-.1 16.8-.2 21.9 70.7 77.5 115.5 145.5 115.5 45 0 82.9-16.1 109.8-46.4 12.5-14.1 22.1-30.9 28.7-49.9 6.3-18.4 9.5-38.3 9.5-59.4 0-67.7-49.1-83.4-86.2-89.2l-32.7-5.2 9.9 31.6c6.2 19.5 9.7 40.7 9.7 58.1 0 24.6-5.4 44.9-15.7 58.8-9.2 12.3-21.8 18.6-37.6 18.6-16.4 0-29.4-9.1-37.4-16.7-7.2-7-13.7-15.9-18.9-26 7.1-1.8 13.3-3.9 18.7-6.2 6.8-2.9 12.2-6.2 16.4-9.9 7.9-7.1 10.2-14.7 10.6-20.4l7.1-54.5.1-1.3v-1.4c0-10.6-5.2-18.4-11.1-24 .6-1.9 1.4-3.9 2.2-5.8 17-46 38-103.4 38-148.3 0-52.9-23.1-100.2-65.2-133.6-11.1-15.7-27.7-32.6-49.1-50.4-18.3-15.2-38.9-30-58.1-41.9z" /><ns0:g fill="none" stroke="#f2f2f2" stroke-miterlimit="10"><ns0:g stroke-width="15.12"><ns0:g stroke-linecap="round"><ns0:path d="M526.7 548.5l7.2-55.7c0-19.7-58.9-35.2-133.9-35.2-75.1 0-133.9 15.7-133.9 35.2l7.2 55.7" /><ns0:path d="M273.4 548.5c0-15.7 56.7-28.4 126.7-28.4s126.7 12.7 126.7 28.4" /><ns0:path d="M169.8 491.2c-35.2 6.3-58.5 21.1-58.5 66.2 0 72 38.8 126.7 108.3 126.7 63.3 0 113.9-59.6 114.8-156.2m295.7-36.7c35.2 6.3 58.5 21.1 58.5 66.2 0 72-38.8 126.7-108.3 126.7-63.3 0-113.9-59.6-114.8-156.2" /></ns0:g><ns0:path d="M518.7 476.2c15.8-44.7 44.4-113.3 44.4-161.6 0-51-23.9-92.1-59.7-119.7-22.7-32.4-69.9-69-103.2-89.5-33.5 20.5-80.6 57.1-103.2 89.5-35.9 27.4-59.7 68.6-59.7 119.7 0 48.3 28.6 116.9 44.4 161.6" /></ns0:g><ns0:path d="M398.9 211.2v184.7m-69.1-94h140.4" stroke-width="17.28" /></ns0:g></g><g id="black-rook"><ns0:path d="M398.3 708.2c-56.2 0-108.6-5.8-148.3-16.5-44.6-12.1-67.1-28.4-67.1-48.5V582c0-28.3 43.1-46.1 73.2-55.2l7.9-172.5c-3.2-2.6-5.6-5.3-7.2-8.2l-.2-.3-24.3-52.8c-7-3.5-19-10.7-19-22.2V145.3h73.4v50.8h42.1v-50.2l135 .1v50.1h42.1v-50.8h74.5v125.4c0 7.7-4.1 14.4-12.7 19.8L544.1 346l-.4.8c-2.1 3.1-4.9 6-8.4 8.7l7.5 171.1c20.6 6 38 13.5 50.5 21.6 16.2 10.5 24.3 21.8 24.3 34 0 .8 0 1.6-.1 2.5l-.1 58.8c0 20.2-23 36.5-68.4 48.5-40.4 10.3-93.8 16.2-150.7 16.2z" /><ns0:path d="M570.6 155v115.7c0 4.5-3.1 9-10.7 13.1l-24.5 57.7c-2.1 3.2-5.5 6.2-10.2 9l8 183.5c46.3 12.5 74.6 30.8 74.6 48.2 0 .6 0 1.3-.1 1.9l-.1 59.3c0 30.6-93.1 55.4-209.2 55.4-114.5 0-205.8-24.7-205.8-55.4v-61.2c0-17.2 27.4-35.3 72.8-47.8l8.4-184.7c-4-2.6-7.1-5.3-8.7-8.1l-25.6-55.7c-10.2-4.5-16.6-9.6-16.6-15V155h54v50.8h61.6v-50.3l115.6.1v50.2h61.6V155zm19.5-19.4h-92.9v50.7h-23.8v-50h-19.3l-115-.1H320v50.1h-23.8v-50.7h-92.7v135.1c0 15.3 12.4 24.4 21.3 29.3l22.8 49.5.3.8.4.8c1.5 2.7 3.5 5.2 5.7 7.5l-7.3 161.1c-18.4 5.9-33.5 12.9-45.4 20.6-12.9 8.4-28.1 22.6-28.1 41.8v61.2c0 18 13.5 30.6 24.8 37.8 12 7.7 28.5 14.4 49.4 20 40.4 10.9 94 16.8 151 16.8 57.7 0 112.1-6 153.1-16.8 21.1-5.6 37.9-12.3 50.1-20 11.6-7.2 25.4-19.8 25.4-37.9l.1-58.2c.1-1.1.1-2.1.1-3 0-8.6-3.1-17.1-9.2-24.9-4.6-6-11.2-11.9-19.5-17.2-12.1-7.8-27.6-14.8-46.4-20.7l-6.9-159.5c2.7-2.5 4.9-5.1 6.7-7.8l1-1.4.6-1.5 22.1-52.1c12.1-8.6 14.7-18.8 14.7-26.1V135.6z" /><ns0:g fill="none" stroke="#f2f2f2" stroke-linecap="round" stroke-miterlimit="10"><ns0:path d="M606.1 586.6c-8.9 28.4-96.9 50.8-205.4 50.8-114.5 0-208.3-25.1-208.3-55.6" stroke-linejoin="round" stroke-width="16.051" /><ns0:path d="M534.3 541.2c0 19.7-60.9 33.9-134.4 33.9h.1c-73.4 0-134.4-14.3-134.4-33.9l6.5-190.7" stroke-width="12.96" /><ns0:path d="M534.6 341.3C525.2 357.9 472.9 370 400 370h.1c-72.9 0-125.3-12.1-134.7-28.6l-24.5-54.5" stroke-width="10.8" /><ns0:path d="M572.8 270.6V154h-57.2v50.8H454v-49.1l-115.6-.1v49.2h-61.6V154H224v116.6c0 20.1 81.5 36.4 175.3 36.4 93.7 0 173.5-16.2 173.5-36.4z" stroke-width="15.12" /></ns0:g></g><g id="black-queen"><ns0:path d="M400 704.4c-62 0-120.5-5.5-164.8-15.4-49.7-11.1-74.2-25.8-75-44.8L150 587v-.9c0-5.4 1.6-13.2 8.6-21.4-7.5-43.1-24.6-117.2-44.6-192.2-18.4-6.9-30.8-24.5-30.8-44.6 0-26.4 21.4-47.7 47.7-47.7s47.7 21.4 47.7 47.7c0 11.1-3.7 21.5-10.6 29.9 21.1 67.1 46.9 136.7 64.9 175.2l5.3-1.3c-.5-55.3-9.1-164.3-20.6-261.6-18.6-8-31-26.6-31-47.1 0-28.3 23-51.3 51.3-51.3s51.3 23 51.3 51.3c0 13.8-5.4 26.7-15 36.3 17.9 93.5 47.7 211.6 65.3 258.9l5.4-.3c8.6-66 19.4-184.5 24.6-294.5-14.9-9.9-23.8-26.5-23.8-44.5 0-29.8 24.2-54 54-54s54 24.2 54 54c0 18-8.9 34.6-23.5 44.6 5.2 110.1 16 228.5 24.6 294.5l5.4.3c17.6-47.3 47.4-165.3 65.3-258.9-9.6-9.6-15-22.5-15-36.3 0-28.3 23-51.3 51.3-51.3s51.3 23 51.3 51.3c0 20.6-12.4 39.1-31 47.1-11.6 97.3-20.2 206.3-20.6 261.6l5.3 1.3c18-38.4 43.8-108.1 64.9-175.2-6.9-8.4-10.6-18.9-10.6-29.9 0-26.4 21.4-47.7 47.7-47.7s47.7 21.4 47.7 47.7c0 20.1-12.4 37.7-30.8 44.6-19.9 75.1-37 149.1-44.6 192.2 5.7 6.7 8.6 13.8 8.6 21.3v.9l-10.3 57.7c-1.2 18.9-25.7 33.5-75 44.6-43.8 9.6-102.3 15.1-164.4 15.1zm-185-71.7c10.8 7.2 34.9 14.3 66.2 19.1 34.3 5.4 75.4 8.2 118.8 8.2 98 0 163.9-13.8 184.2-26.9l3.3-2.9c-4.2-4.2-17-11.4-48.7-17.7-35.3-6.9-84.7-10.7-138.9-10.7-50.3 0-98.2 3.9-134.6 11-33.2 6.5-47.5 13.8-52.6 17.9z" /><ns0:path d="M400 134.5c24.4 0 44.3 19.9 44.3 44.3 0 17.1-9.6 31.9-23.8 39.2 5.1 114 16.8 242.6 26 309.1l20.4 1.3c18.1-44.7 51.4-176.8 69.4-272.6-9.7-7.6-15.9-19.4-15.9-32.7 0-23 18.6-41.6 41.6-41.6s41.6 18.6 41.6 41.6c0 19-12.7 35-30.2 40-12.3 102.1-21.8 222-21.5 276.4l20.4 4.9c20.3-41.1 49.7-121.9 70.4-188.9-7.2-6.9-11.8-16.6-11.8-27.5 0-21 17-38 38-38s38 17 38 38c0 17.9-12.4 32.9-29.1 36.9-20.8 78-39.5 158.2-47 203.1 6 5.7 9.4 11.8 9.4 18.1l-10.2 57-.1.1c0 28.5-103 51.6-230 51.6-127.1 0-230-23.4-230-51.5l-10.2-57.1c0-6.3 3.2-12.5 9.4-18.3-7.5-44.9-26.1-125.2-47-203.1-16.6-4-29.1-19-29.1-36.9 0-21 17-38 38-38 21.1 0 38 17 38 38 0 10.8-4.5 20.6-11.8 27.5 20.8 67 50.1 147.9 70.4 188.9l20.4-4.9c.3-54.2-9.2-174.3-21.5-276.4-17.4-5-30.2-21-30.2-40 0-23 18.6-41.6 41.6-41.6s41.6 18.6 41.6 41.6c0 13.3-6.3 25.1-15.9 32.7 18 95.8 51.2 227.9 69.4 272.6l20.4-1.3c9.1-66.5 20.8-195 26-309.1-14.1-7.5-23.8-22.1-23.8-39.2.1-24.3 20-44.2 44.4-44.2m0 535.3c89.4 0 165-12.1 190.2-28.8l9-7.9c0-25.6-89.1-41-199-41s-199 18.4-199 41l8.1 7.2c24 17 100.3 29.5 190.7 29.5m0-554.7c-35.1 0-63.7 28.6-63.7 63.7 0 19.3 8.6 37.3 23.2 49.2-4.4 92.8-12.9 190.8-20.5 257.8-17-55.4-39.6-148.1-54.3-223.5 9.2-10.9 14.4-24.7 14.4-39.3 0-33.7-27.3-61-61-61s-61 27.3-61 61c0 13.5 4.3 26.4 12.6 37.2 5.2 6.7 11.7 12.3 19.1 16.4 9.1 77.4 16.2 161.5 18.9 219.2-15.3-37.6-33.2-87.4-48.6-136.3 6.2-9.3 9.6-20.4 9.6-31.6 0-31.6-25.8-57.5-57.5-57.5-31.6 0-57.6 25.7-57.6 57.3 0 22.5 12.9 42.2 32.3 51.6 18.7 70.8 34.8 140.2 42.4 182.6-6.5 9.1-8.1 17.7-8.1 24v1.7l.3 1.7 9.9 55.8c.4 5.7 2.6 13.5 9.7 21.4 4.6 5 10.7 9.4 18.7 13.6 13.1 6.9 31.3 13.1 54.1 18.1 45 10.2 104.3 15.7 167 15.7 62.9 0 122.1-5.5 167-15.7 22.8-5.1 41-11.2 54.1-18.3 8-4.2 14-8.7 18.7-13.7 4.1-4.5 6.6-9.1 8-13.2l.3-.3.3-1.8c.5-1.9.9-3.8 1-5.5l10-56.4.3-1.7V586c0-6.2-1.6-14.8-8.1-23.9 7.6-42.4 23.8-111.8 42.4-182.6 19.4-9.4 32.3-29.3 32.3-51.6 0-31.6-25.8-57.5-57.5-57.5-31.6 0-57.5 25.8-57.5 57.5 0 11.3 3.3 22.4 9.6 31.6-15.4 48.9-33.4 98.7-48.6 136.3 2.7-57.8 9.8-141.8 18.9-219.2 7.3-4.1 13.9-9.6 19.1-16.4 8.2-10.7 12.6-23.5 12.6-37.2 0-33.7-27.3-61-61-61s-61 27.3-61 61c0 14.6 5.1 28.4 14.4 39.3-14.7 75.4-37.4 168-54.3 223.5-7.7-67-16.1-164.9-20.5-257.8 14.5-11.9 23.1-29.8 23.1-49.1.2-35.2-28.4-63.8-63.5-63.8zM234 631c8.5-3 21.6-6.7 41.3-10 34.7-6 78.9-9.3 124.7-9.3 48 0 91.2 2.9 125.1 8.4 21.1 3.5 34.3 7.1 42.7 10.4-9.5 3.6-25.5 8.1-51.5 12.1-33.7 5.2-73.9 7.9-116.2 7.9-42.9 0-83.4-2.8-117.3-8.1-24-3.8-39.2-8.1-48.8-11.4z" /><ns0:circle cx="400" cy="112.9" r="25.9" /><ns0:circle cx="225" cy="164.8" r="23" /><ns0:circle cx="113.8" cy="273.8" r="22.4" /><ns0:circle cx="575" cy="164.8" r="23" /><ns0:circle cx="687.3" cy="273.8" r="22.4" /><ns0:g fill="none" stroke="#f2f2f2" stroke-linecap="round" stroke-miterlimit="10"><ns0:path d="M117.6 287.9l-4.5-15" stroke-width="17.28" /><ns0:path d="M228.8 180.7l-4.4-18" stroke-width="18.36" /><ns0:path d="M682.7 287.9l4.6-15" stroke-width="17.28" /><ns0:path d="M570.4 180.7l4.6-18" stroke-width="18.36" /><ns0:path d="M399.5 108.6V127" stroke-width="20.52" /><ns0:g stroke-linejoin="round" stroke-width="15.12"><ns0:path d="M263.7 255.8c9.7-7.6 15.9-19.4 15.9-32.7 0-23-18.6-41.6-41.6-41.6s-41.6 18.6-41.6 41.6c0 19 12.7 35 30.2 40 12.3 102.1 21.8 215.6 21.5 269.9l-20.4 4.9M420.5 218c14.1-7.5 23.8-22.1 23.8-39.2 0-24.4-19.9-44.3-44.3-44.3s-44.3 19.9-44.3 44.3c0 17.1 9.6 31.9 23.8 39.2-5.1 114-16.8 236.1-26 302.6l-20.4 1.3M573.3 263c17.4-5 30.2-21 30.2-40 0-23-18.6-41.6-41.6-41.6S520.3 200 520.3 223c0 13.3 6.3 25.1 15.9 32.7-18 95.8-51.2 221.4-69.4 266.1l-20.4-1.3m231.5-155.7c16.6-4 29.1-19 29.1-36.9 0-21-17-38-38-38s-38 17-38 38c0 10.8 4.5 20.6 11.8 27.5-20.8 67-50.1 141.4-70.4 182.4l-20.4-4.9" /><ns0:path d="M157.2 355.4c7.2-6.9 11.8-16.6 11.8-27.5 0-21-17-38-38-38-21.1 0-38 17-38 38 0 17.9 12.4 32.9 29.1 36.9 20.8 78 39.5 155 47 199.9-6 5.7-9.4 11.8-9.4 18.1l10.2 60.3c0-28.5 103-51.6 230.1-51.6s230.1 23.1 230.1 51.6l10.2-60.3c0-6.3-3.2-12.3-9.4-18.1" /></ns0:g></ns0:g></g><g id="black-king"><ns0:path d="M694.7 363.2c-9.7-7.5-22.6-11.2-38-11.2h-1.4c-2.1 0-4.2.1-6.5.1-2.7 0-5.6.1-8.5.1 3.3-23.7.6-41.6-8-55.5-6.6-10.6-15.9-18.3-27.8-22.9-9.3-3.7-20.3-5.4-33.6-5.4-12.2 0-25.2 1.4-38.8 3.2-3-14.1-9.3-25.4-18.7-33.5-9.5-8.3-20.6-12.5-33-12.5-24.1 0-47.2 16.3-65.9 29.6v-80.7h49.7v-30.2h-49.7V94.6h-30.2v49.7h-46.4v30.2h46.4v78.9c-18.3-13-40.4-28-63.5-28-12.4 0-23.5 4.2-33 12.5-9.4 8.1-15.6 19.3-18.7 33.5-13.7-1.8-26.7-3.2-38.9-3.2-13.3 0-24.3 1.7-33.7 5.4-11.9 4.6-21.2 12.3-27.8 22.9-8.6 14-11.3 32-8.1 55.5-2.8 0-5.6-.1-8.2-.1-2.5 0-4.9-.1-7-.1H144c-15.2 0-28.4 3.9-38.2 11.1-8.5 6.4-18.6 18.3-18.6 39.4 0 26.1 18.3 53.8 37.5 83.2l5.7 8.7 25.6 53.9c-7.6 8.3-11.3 17.3-11.3 26.8v2.2l.4 2.2 15.7 64.6c1.1 12.9 10.2 24 27 32.9 12.6 6.7 30.1 12.5 52.1 17.5 43.1 9.7 100.1 15 160.6 15 60 0 116.7-5.3 159.7-14.8 21.8-4.9 39.3-10.7 52.1-17.3 17.1-8.9 26.5-19.9 27.9-32.6l14.7-65.7.6-1.9v-2.1c0-9.4-4-18.1-11.6-26.1l23.8-52.6c2.5-3.7 4.9-7.5 7.3-11 19.4-29.2 37.8-56.7 37.8-82.7 0-21.1-9.9-33-18.1-39.3z" /><ns0:g stroke="#f2f2f2" stroke-linecap="round" stroke-miterlimit="10"><ns0:g fill="none" stroke-width="15.12"><ns0:path d="M182 371.5c-11.9.3-25.9-.1-37.5-.3-21.9-.3-39.4 8.7-39.4 32.2 0 39.1 60.6 95.7 73.3 146.7" /><ns0:path d="M284.1 293.5c-45.6-6.3-83.3-13.8-100.3 13.7-27 43.6 35.6 150.7 55.1 222.4" /><ns0:path d="M398.9 286.8c-24.3-9-67.9-61.7-99.8-33.9-43.6 37.9 22.9 173.9 38.1 260.5m280.7-141.9c11.9.3 25.9-.1 37.5-.3 21.9-.3 39.4 8.7 39.4 32.2 0 39.1-60.6 95.7-73.3 146.7" /><ns0:path d="M515.9 293.5c45.6-6.3 83.3-13.8 100.3 13.7 27 43.6-35.6 150.7-55.1 222.4" /><ns0:path d="M401.1 286.8c24.3-9 67.9-61.7 99.8-33.9 43.6 37.9-22.9 173.9-38.1 260.5" /></ns0:g><ns0:path d="M177.9 554c34-23.3 120.6-39.6 222-39.6 102.5 0 190.3 16.3 223.6 40l31.8-78.1c-11.8 13.1-23.7 18.5-33.9 15.3-26.9-8.4-26.5-40.6-24.4-66.5-16.4 29.5-39.3 44.7-63.9 39.5-24.9-5.3-40-40.5-39-68.6-17.5 35.6-49.4 54.1-94.1 54.1s-76.6-18.6-94.1-54.2c1.1 28.1-14 63.3-39 68.6-24.6 5.2-47.4-10-63.9-39.5 1.9 25.9 2.6 58.5-24.4 66.5-9.1 2.7-22.1-3.8-33.9-15.3z" stroke-width="12.96" /><ns0:g fill="none"><ns0:path d="M162.5 575.9c0-34.3 106.3-61.7 237.4-61.7s237.4 27.3 237.4 61.7m-475 1.8l16.2 65.1m459.2-65.1l-16.2 65.1" stroke-width="12.96" /><ns0:path d="M178.6 642.2c0-27.4 99.1-49.7 221.4-49.7s221.4 22.2 221.4 49.7" stroke-width="15.12" /><ns0:path d="M400 286.8v160.9" stroke-width="6.48" /></ns0:g></ns0:g></g><radialGradient id="check_gradient"><stop offset="0%" stop-color="#ff0000" stop-opacity="1.0" /><stop offset="50%" stop-color="#e70000" stop-opacity="1.0" /><stop offset="100%" stop-color="#9e0000" stop-opacity="0.0" /></radialGradient></defs><rect x="3200" y="0" width="533" height="800" stroke="none" fill="#262421" /><rect x="3733" y="0" width="533" height="800" stroke="none" fill="#bababa" /><rect x="4266" y="0" width="533" height="800" stroke="none" fill="#bf811d" /><rect x="4799" y="0" width="533" height="800" stroke="none" fill="#b72fc6" /><rect x="5332" y="0" width="533" height="800" stroke="none" fill="#706f6e" /><rect x="0" y="0" width="800" height="6400" stroke="none" fill="#dee3e6" /><use xlink:href="#black-pawn" transform="translate(0, 800)" /><use xlink:href="#black-knight" transform="translate(0, 1600)" /><use xlink:href="#black-bishop" transform="translate(0, 2400)" /><use xlink:href="#black-rook" transform="translate(0, 3200)" /><use xlink:href="#black-queen" transform="translate(0, 4000)" /><use xlink:href="#black-king" transform="translate(0, 4800)" /><rect x="0" y="5600" width="800" height="800" fill="url(#check_gradient)" /><use xlink:href="#black-king" transform="translate(0, 5600)" /><rect x="800" y="0" width="800" height="6400" stroke="none" fill="#8ca2ad" /><use xlink:href="#black-pawn" transform="translate(800, 800)" /><use xlink:href="#black-knight" transform="translate(800, 1600)" /><use xlink:href="#black-bishop" transform="translate(800, 2400)" /><use xlink:href="#black-rook" transform="translate(800, 3200)" /><use xlink:href="#black-queen" transform="translate(800, 4000)" /><use xlink:href="#black-king" transform="translate(800, 4800)" /><rect x="800" y="5600" width="800" height="800" fill="url(#check_gradient)" /><use xlink:href="#black-king" transform="translate(800, 5600)" /><rect x="1600" y="0" width="800" height="6400" stroke="none" fill="#c3d899" /><use xlink:href="#black-pawn" transform="translate(1600, 800)" /><use xlink:href="#black-knight" transform="translate(1600, 1600)" /><use xlink:href="#black-bishop" transform="translate(1600, 2400)" /><use xlink:href="#black-rook" transform="translate(1600, 3200)" /><use xlink:href="#black-queen" transform="translate(1600, 4000)" /><use xlink:href="#black-king" transform="translate(1600, 4800)" /><rect x="1600" y="5600" width="800" height="800" fill="url(#check_gradient)" /><use xlink:href="#black-king" transform="translate(1600, 5600)" /><rect x="2400" y="0" width="800" height="6400" stroke="none" fill="#92b277" /><use xlink:href="#black-pawn" transform="translate(2400, 800)" /><use xlink:href="#black-knight" transform="translate(2400, 1600)" /><use xlink:href="#black-bishop" transform="translate(2400, 2400)" /><use xlink:href="#black-rook" transform="translate(2400, 3200)" /><use xlink:href="#black-queen" transform="translate(2400, 4000)" /><use xlink:href="#black-king" transform="translate(2400, 4800)" /><rect x="2400" y="5600" width="800" height="800" fill="url(#check_gradient)" /><use xlink:href="#black-king" transform="translate(2400, 5600)" /><rect x="3200" y="800" width="800" height="5600" stroke="none" fill="#dee3e6" /><use xlink:href="#white-pawn" transform="translate(3200, 800)" /><use xlink:href="#white-knight" transform="translate(3200, 1600)" /><use xlink:href="#white-bishop" transform="translate(3200, 2400)" /><use xlink:href="#white-rook" transform="translate(3200, 3200)" /><use xlink:href="#white-queen" transform="translate(3200, 4000)" /><use xlink:href="#white-king" transform="translate(3200, 4800)" /><rect x="3200" y="5600" width="800" height="800" fill="url(#check_gradient)" /><use xlink:href="#white-king" transform="translate(3200, 5600)" /><rect x="4000" y="800" width="800" height="5600" stroke="none" fill="#8ca2ad" /><use xlink:href="#white-pawn" transform="translate(4000, 800)" /><use xlink:href="#white-knight" transform="translate(4000, 1600)" /><use xlink:href="#white-bishop" transform="translate(4000, 2400)" /><use xlink:href="#white-rook" transform="translate(4000, 3200)" /><use xlink:href="#white-queen" transform="translate(4000, 4000)" /><use xlink:href="#white-king" transform="translate(4000, 4800)" /><rect x="4000" y="5600" width="800" height="800" fill="url(#check_gradient)" /><use xlink:href="#white-king" transform="translate(4000, 5600)" /><rect x="4800" y="800" width="800" height="5600" stroke="none" fill="#c3d899" /><use xlink:href="#white-pawn" transform="translate(4800, 800)" /><use xlink:href="#white-knight" transform="translate(4800, 1600)" /><use xlink:href="#white-bishop" transform="translate(4800, 2400)" /><use xlink:href="#white-rook" transform="translate(4800, 3200)" /><use xlink:href="#white-queen" transform="translate(4800, 4000)" /><use xlink:href="#white-king" transform="translate(4800, 4800)" /><rect x="4800" y="5600" width="800" height="800" fill="url(#check_gradient)" /><use xlink:href="#white-king" transform="translate(4800, 5600)" /><rect x="5600" y="800" width="800" height="5600" stroke="none" fill="#92b277" /><use xlink:href="#white-pawn" transform="translate(5600, 800)" /><use xlink:href="#white-knight" transform="translate(5600, 1600)" /><use xlink:href="#white-bishop" transform="translate(5600, 2400)" /><use xlink:href="#white-rook" transform="translate(5600, 3200)" /><use xlink:href="#white-queen" transform="translate(5600, 4000)" /><use xlink:href="#white-king" transform="translate(5600, 4800)" /><rect x="5600" y="5600" width="800" height="800" fill="url(#check_gradient)" /><use xlink:href="#white-king" transform="translate(5600, 5600)" /></svg>