<svg xmlns:ns0="http://www.w3.org/2000/svg" xmlns="http://www.w3.org/2000/svg" version="1.1" xmlns:xlink="http://www.w3.org/1999/xlink" viewBox="0 0 544 544"><defs><g id="white-pawn"><ns0:path d="m22.992 44.752q1.344-.64 2.176-2.496.896-2.176 1.984-4.864 1.088-2.752 2.176-5.632-.256-.192-.512-.32-.192-.128-.256-.256-1.792-1.984 0-3.392l.704-.704 1.152-1.152q-2.24-1.024-3.712-3.136-1.408-2.176-1.408-4.736 0-3.52 2.56-6.144 2.624-2.624 6.08-2.624 3.52 0 6.016 2.624 2.56 2.624 2.56 6.144 0 2.56-1.472 4.736-1.408 2.112-3.584 3.136.576.576 1.088 1.152.512.512.768.704 1.6 1.408 0 3.392-.128.128-.384.256-.192.128-.384.32 1.152 2.88 2.176 5.632 1.024 2.688 1.984 4.864.768 1.856 2.112 2.496 1.408.576 4.16 2.24 2.752 1.6 3.264 2.944.448 1.28.576 3.712.192 2.432.32 5.056h-38.272q0-2.624.128-5.056t.64-3.712q.384-1.344 3.2-2.944 2.816-1.664 4.16-2.24zm10.752-18.496q0 .128-1.344 1.536l-1.536 1.536q.192.384 1.472 1.728 1.344 1.28 1.6 1.472l1.472-1.472 1.728-1.728q-.384-.192-1.856-1.536zm5.696-8.32q0-2.304-1.6-3.904-1.6-1.664-3.904-1.664-2.24 0-3.904 1.728-1.664 1.664-1.664 3.968 0 2.112 1.344 3.648t3.264 1.728q.896.576 1.856 0 1.92-.192 3.264-1.728 1.344-1.536 1.344-3.776zm-21.056 32.896q-.448 1.984-.448 4.8h32q0-2.304-.448-4.8-.384-.768-2.368-1.664-1.984-.96-4.032-1.92-1.984-1.024-3.136-3.904-.96-1.92-1.92-4.288-.896-2.368-1.792-4.8-.256.128-.384.32-.128.128-.256.128-1.664 2.048-3.392 0-.128 0-.256-.128-.128-.192-.32-.32-.96 2.432-1.92 4.8-.896 2.368-1.792 4.288-1.152 2.88-3.2 3.904-2.048.96-4.032 1.92-1.984.896-2.304 1.664z" /><ns0:path d="m17.945 55.138c0-1.018.404-4.003.59-4.35.31-.585.588-.755 3.89-2.386 2.487-1.227 3.273-1.707 3.886-2.373.918-.995 2.147-3.534 4.015-8.288l1.337-3.405.459.422c1.368 1.256 1.978 1.313 3.206.298l.877-.725.222.589c1.246 3.3 2.802 7.071 3.533 8.565 1.305 2.663 1.83 3.132 5.53 4.934 1.7.829 3.278 1.707 3.506 1.952.43.462.625 1.357.853 3.91l.118 1.318h-32.022zm14.425-24.199c-.734-.763-1.334-1.481-1.334-1.596 0-.114.605-.809 1.345-1.544 1.553-1.542 1.28-1.573 3.338.37l1.277 1.205-1.484 1.476c-.816.812-1.557 1.476-1.645 1.476-.09 0-.762-.624-1.497-1.387zm-.224-7.735c-3.73-1.157-4.89-5.878-2.2-8.942 1.007-1.146 2.022-1.623 3.662-1.718 1.759-.102 2.774.235 3.933 1.304 2.059 1.897 2.418 4.973.857 7.331-.703 1.063-1.76 1.772-3.223 2.161-1.218.324-1.603.307-3.029-.136z" fill="#fff" fill-rule="evenodd" /></g><g id="white-knight"><ns0:path d="m24.848 39.728q-.384.704.192 1.28.576.576-.192 1.472-.704 1.024-2.624 2.752-1.856 1.728-3.2 2.304-2.176 1.28-4.48.192-1.152-.576-2.88-2.24-1.664-1.664-2.304-2.688-.768-1.024-.576-1.728.192-.704.064-1.664 0-.768-.384-1.088-.384-.384.384-2.496.768-1.92 3.264-6.336 2.496-4.416 3.2-6.528.704-1.92-.256-1.728-.896.128-.512-.896.384-1.152 1.408-3.072 1.024-1.984 1.856-2.944.896-.896 1.856-.704 1.024.128 1.792-1.152.704-1.216 1.344-3.776.704-2.56 1.472-4.672.96 1.984 2.048 3.776 1.088 1.792 2.24 2.24 2.88-1.088 6.912-.512 5.76.768 8.512 2.304 2.752 1.472 6.592 6.208 1.472 1.856 2.368 3.968.896 2.048 1.6 4.48.704 2.432 1.088 5.568.448 3.136.64 5.632 0 2.688-.192 4.992-.128 2.24 0 4.544v3.776q0 1.408.512 3.776.32 1.984 1.28 4.416.96 2.432 1.792 4.8h-40.192q-.832-1.664-.576-3.648 0-1.28.32-3.136t1.024-3.52q.576-1.472 1.536-2.816.96-1.408 2.048-2.688 2.048-3.2 3.84-5.12 1.536-1.728 3.264-3.2 1.792-1.472 3.328-3.392 1.344-2.112 1.664-3.712.192-.96-.064-2.624-.192-1.728-.512-1.664-.256.128-1.024 2.368-.768 2.24-1.472 3.008-.704 1.088-1.536 1.536-.768.384-1.344.768-.768.384-1.216.384-.384 0-.96.384-.704.512-1.664 1.344-.896.768-1.28 1.472zm2.624 7.488-3.84 5.248 8.448.64 3.84-4.032q1.92-1.92 3.904 0l4.096 4.16 9.408-.64q0-3.264.256-7.744.32-4.544.192-6.976-.128-2.496-.512-5.44-.32-3.008-1.024-5.184-1.28-4.288-3.648-7.424-1.408-1.536-2.624-2.752-1.152-1.216-2.944-2.624-2.112-.896-3.968-1.6-1.792-.704-3.904-.832-3.904-.448-6.592.576-2.112-.768-2.688-1.664-.512-.896-.832-1.856 0 2.752-1.408 4.48-.704.832-1.984 1.216-1.216.32-1.984 1.216-.832.96-1.664 2.496-.768 1.472-1.152 2.432-.192 1.088.64 1.088.832-.064.128 1.856-.704 1.984-3.264 6.528-2.496 4.48-3.2 6.4-.768 1.984-.32 1.92.512-.064.512.512 0 .576-.32 1.088-.256.448.32 1.088.576.832 2.112 2.304 1.536 1.408 2.368 1.856.768.448.96.448.192-.064 1.152-.64.768-.384 2.56-1.92t2.368-2.368q.704-.896.064-1.28-.576-.448-.192-1.152.384-.768 1.6-1.92 1.216-1.216 1.92-1.792.768-.576 1.28-.512.576 0 1.152-.384t1.088-.512q.512-.192 1.088-.896.448-.64 1.088-1.984.704-1.408 1.088-2.496.192-.896.448-1.664.32-.832 0-1.536-.512-.768-2.112-1.664-1.6-.896-1.408-1.28.064-.32 1.792-.32t2.816.768q.768.768 1.792 2.496t1.408 3.072q1.088 3.2.512 5.376-.512 2.304-2.368 4.48-1.28 1.984-3.008 3.584t-3.456 3.328q-1.408 1.408-1.984 2.432zm-5.056 8.512q-.384 1.344-.64 3.008t.32 2.816h33.216l-1.664-5.696-9.728.64-4.096 4.096q-1.984 1.728-3.904 0l-3.968-4.288zm15.552-4.352-3.392 3.392 3.392 3.52 3.392-3.52zm-15.232-28.288q.64.256 1.024.32.448.064.32.768 0 .256-.576.448-.512.128-.96.32-.448.256-1.088.448-.576.192-.768.32-1.088.32-1.536-.192-.256-.256-.256-1.216.064-.32.448-.832.448-.512.896-.512 1.728 0 2.496.128zm-10.304 14.272q.576 0 1.344.192.768.192.96.576 0 .512-.832 1.472-.832.896-1.216.704 0-.192.128-.576.128-.384.064-.768 0-.96-.448-1.6z" /><ns0:g fill="#fff" fill-rule="evenodd"><ns0:path d="m21.995 61.133c-.262-.689-.216-2.156.12-3.85l.297-1.5 1.203.096c1.915.15 6.953.448 7.654.45.586.003.814.195 2.73 2.298 1.361 1.493 2.345 2.411 2.819 2.63.72.332.654.335-6.96.339l-7.686.004zm16.914.152c.35-.169 1.659-1.301 2.909-2.517l2.272-2.21 4.707-.303c2.589-.166 4.737-.272 4.773-.236.06.06.6 1.84 1.407 4.626l.276.955-8.49-.004c-8.097-.004-8.461-.019-7.854-.311zm-2.637-4.776-1.632-1.639 1.678-1.678 1.678-1.678 1.63 1.622 1.63 1.623-1.506 1.637c-.828.9-1.583 1.663-1.677 1.694-.094.032-.905-.68-1.802-1.581z" /><ns0:path d="m41.889 51.137c-2.683-2.874-3.76-3.444-5.146-2.727-.281.145-1.445 1.257-2.586 2.47l-2.075 2.206-4.087-.312c-2.247-.172-4.113-.335-4.145-.363-.032-.027.941-1.427 2.163-3.112 1.756-2.421 2.93-3.786 5.61-6.517 5.593-5.7 7.127-8.3 6.868-11.637-.226-2.915-2.306-7.419-4.034-8.737-.717-.547-2.377-.878-3.573-.714-1.341.185-1.191.576.706 1.843 2.03 1.356 2.202 1.68 1.764 3.313-.414 1.542-1.37 3.834-2.134 5.113-.5.836-.805 1.111-1.863 1.677-.697.371-1.471.679-1.721.682-.615.009-1.31.466-2.805 1.844-1.286 1.184-2.286 2.534-2.286 3.084 0 .168.123.407.273.532.715.594 0 1.656-2.549 3.783-.933.78-2.109 1.641-2.612 1.915l-.916.498-.689-.355c-.954-.491-3.326-2.562-4.22-3.684-.78-.98-.86-1.278-.555-2.079.221-.581.075-1.17-.29-1.17a.265.265 0 0 1 -.26-.268c0-.794 1.646-4.286 4.375-9.277 1.726-3.157 2.74-5.475 2.776-6.348.027-.626-.027-.732-.424-.828-.719-.175-.667-.862.194-2.58 1.493-2.977 2.406-3.985 4.177-4.61.432-.152 1.052-.48 1.378-.73.712-.542 1.642-2.387 1.809-3.589l.12-.867.362.685c.53 1.003 1.007 1.457 2.055 1.952.928.44.942.44 2.01.134.81-.231 1.731-.303 3.713-.288 3.114.023 4.19.244 7.44 1.526 1.983.782 2.482 1.069 3.747 2.148 2.841 2.423 5.345 5.58 6.472 8.158 2.343 5.36 3.116 11.525 2.62 20.907-.153 2.882-.278 5.788-.278 6.458v1.22l-.592.093c-.325.051-2.022.178-3.772.282s-3.6.234-4.112.289l-.93.1zm-27.913-11.624c.937-1.016.967-1.478.12-1.832-.347-.144-.881-.263-1.188-.263-.52 0-.543.027-.34.406.119.223.212.877.207 1.454-.012 1.297.187 1.336 1.201.235zm8.205-14.325c1.709-.69 1.91-.818 1.91-1.224 0-.6-.943-.916-2.876-.965-1.357-.034-1.447-.01-1.866.475-.592.685-.61 1.805-.036 2.206.568.398.726.37 2.868-.492z" /></ns0:g></g><g id="white-bishop"><ns0:path d="m27.984 55.472q-2.752-.064-4.544-.064-1.792-.064-1.92-.256-.832-.768-.896-1.856-.064-1.088.768-1.792.064-.128 1.088-1.536 1.024-1.472 2.432-3.584-2.432-3.072-4.608-6.016-2.176-3.008-2.624-3.52-1.408-1.216-1.408-3.008 0-1.856 1.408-3.264.384-.384 2.304-2.944 1.984-2.56 4.224-5.568 2.304-3.008 4.224-5.568 1.984-2.624 2.24-2.88.256-.256.384-.448-.704-.768-1.472-1.472-.704-.704-.832-.96-2.048-1.792 0-3.584.192-.32 1.728-1.792 1.6-1.472 1.856-1.856 1.728-1.664 3.328 0l1.856 1.856q1.472 1.472 1.856 1.792 1.792 1.792 0 3.584-.256.256-1.024.96t-1.408 1.472q.064 0 .064.128.064.064.256.064.448.512 2.368 3.136 1.92 2.56 4.096 5.568 2.24 3.008 4.096 5.568 1.92 2.56 2.304 2.944 1.344 1.408 1.344 3.264 0 1.792-1.344 3.008-.448.512-2.56 3.392-2.048 2.816-4.352 5.888 1.6 2.112 2.688 3.712 1.152 1.536 1.344 1.664 1.728 1.792-.192 3.648-.128.192-2.112.256-1.92 0-4.8.064-.192 1.408-.128 1.408.32.32 2.176.32 1.856-.064 4.096-.128t4.288-.064q2.112-.064 2.944.192 2.112.704 2.944 3.264.832 2.496 1.408 4.864h-17.088q-1.344 0-2.56-.064-1.152-.128-2.368-.704-1.152-.576-1.472-.832-.32-.32-.384-.704 0 .384-.256.704-.256.256-1.408.832-1.344.576-2.56.704-1.216.064-2.368.064h-17.28q.704-2.368 1.664-4.864 1.024-2.56 3.136-3.264.768-.256 2.752-.192 2.048 0 4.16.064 2.176.064 3.904.128 1.792 0 2.112-.32.32-.192.192-.384-.064-.256-.064-1.024zm6.912-.128q0 3.968 1.088 5.056.576.832.576.96t.512.448q2.048.768 3.52.768h13.248q-.128-.32-.384-1.28t-1.152-1.344q-.704-.192-2.816-.128-2.048 0-4.352.128-2.304.064-4.288.064-1.92-.064-2.368-.512-1.088-.896-1.088-1.92 0-1.088.128-2.24zm-1.792 1.92q0-1.92-.064-1.92h-2.56q.064 1.152.064 2.176 0 .96-1.152 1.984-.448.448-2.368.512-1.92 0-4.224-.064-2.304-.128-4.416-.128-2.112-.064-2.816.128-.832.384-1.152 1.344-.32.96-.384 1.28h13.376q1.6 0 3.52-.768.576-.32.512-.448 0-.128.704-.96.96-1.216.96-3.136zm2.432-22.208v11.072h-2.944v-11.072h-3.52v-2.944h3.52v-4.288h2.944v4.288h3.52v2.944zm-6.912 11.328q-1.984 2.944-3.52 4.864-1.472 1.856-1.536 1.92.064.128 3.392.192t7.296.064q3.968 0 7.296-.064 3.392-.064 3.52-.192-.128-.064-1.792-2.048-1.6-1.984-3.712-4.992 2.624-3.648 5.248-7.232 2.688-3.584 3.2-4.16 1.088-.832 0-1.984-.512-.448-2.432-3.008-1.92-2.624-4.16-5.568-2.176-3.008-4.096-5.568-1.856-2.624-2.24-3.136-.448-.448-.96-.448-.704 0-1.024.448-.512.512-2.496 3.136-1.92 2.56-4.224 5.568-2.24 2.944-4.16 5.568-1.92 2.56-2.368 3.008-1.28 1.152 0 1.984.384.576 3.136 4.224 2.816 3.648 5.632 7.424zm5.376-40.768q-.256.384-1.6 1.728-1.28 1.344-1.472 1.536.192.384 1.472 1.728 1.344 1.28 1.6 1.472.192-.192 1.536-1.472l1.728-1.728q-.384-.192-1.728-1.536-1.344-1.344-1.536-1.728z" /><ns0:path d="m14.228 62.048c.313-1.024.632-1.585 1.059-1.865.414-.272 1.132-.297 6.879-.242 7.21.07 7.164.076 7.99-1.252.355-.572.422-.907.398-2.005l-.028-1.318h2.56l-.086 1.775c-.089 1.846-.176 2.121-1.12 3.533-1.113 1.665-1.8 1.78-10.537 1.782l-7.24.001zm24.9.317a43.32 43.32 0 0 0 -1.225-.353c-.959-.267-1.095-.374-1.71-1.332-.813-1.27-1.151-2.467-1.154-4.087l-.002-1.227h2.363v1.41c.001 1.627.336 2.368 1.31 2.9.55.3 1.114.322 7.07.265l6.472-.06.489.424c.269.234.605.813.747 1.288l.258.864-7.219-.014c-3.97-.008-7.3-.043-7.4-.078zm-14.318-9.125c-.575-.04-1.046-.117-1.046-.17s.48-.684 1.067-1.402c1.035-1.267 3.345-4.446 3.675-5.058.127-.236-.75-1.508-4.014-5.819-2.298-3.033-4.424-5.817-4.726-6.185-.3-.369-.547-.757-.547-.863 0-.107.273-.501.606-.876.334-.376 1.618-2.033 2.853-3.683 4.068-5.432 9.132-12.074 9.929-13.022.43-.513.936-.972 1.123-1.021.787-.206 1.325.362 4.689 4.952 5.102 6.963 8.462 11.444 9.311 12.42.749.861.972 1.61.557 1.867-.198.123-6.092 7.978-7.865 10.482-.525.741-.813 1.315-.732 1.455.44.76 2.548 3.57 3.766 5.02.784.935 1.372 1.753 1.306 1.819-.129.13-18.233.205-19.952.084zm10.73-12.556.048-5.5h3.449v-3.091h-3.455v-4.363h-3.091v4.363h-3.454v3.091h3.454v5.425c0 2.983.058 5.482.129 5.552.07.07.745.105 1.5.076l1.371-.053zm-3.124-30.222-1.416-1.457.912-1.047c.501-.575 1.185-1.294 1.519-1.597l.607-.55 1.571 1.6 1.572 1.6-1.54 1.405c-.848.772-1.6 1.427-1.673 1.454s-.77-.607-1.55-1.408z" fill="#fff" fill-rule="evenodd" /></g><g id="white-rook"><ns0:path d="M48.464 25.008l2.432 19.52 2.624 6.016v12.928H14.16V50.544l2.624-6.016 2.432-19.52-4.928-10.752 3.072-9.728H26v8.32h3.712v-8.32h8.768v8.32h3.648v-8.32h8.64l3.072 9.728zm-31.552 27.2v8.64h33.984v-8.64zm.768-2.752H50l-1.408-3.392H19.088zm17.856-19.52l4.16 4.16h7.232l-.96-7.872h-24l-1.024 7.872h6.912l4.416-4.16q1.408-1.792 3.264 0zm-7.36 6.912h-7.552l-.96 6.784h28.352l-.768-6.784h-7.744l-3.968 3.968q-1.856 1.856-3.264 0zM17.04 14.064l4.672 9.536h24.576l4.8-9.536-2.176-6.912h-4.16V15.6h-8.896V7.152h-3.584V15.6h-8.896V7.152h-4.032zm13.248 21.248l3.52 3.712 3.712-3.712-3.712-3.52z" /><ns0:g fill="#fff" fill-rule="evenodd"><ns0:path d="M17.036 56.6v-4.273h33.818v8.546H17.036zm1.117-8.136l.662-1.637.276-.682 14.745.001h14.745l.67 1.636.67 1.636H17.769zm1.61-5.029c0-.09.205-1.571.455-3.29.25-1.718.454-3.158.454-3.198 0-.041 1.689-.074 3.753-.074h3.752l2.495 2.454c2.655 2.612 2.91 2.753 3.964 2.195.27-.143 1.471-1.248 2.67-2.455l2.179-2.194h3.866c2.972 0 3.867.052 3.868.227 0 .125.164 1.577.362 3.227s.362 3.062.363 3.137c0 .075-6.34.136-14.09.136-8.311 0-14.09-.068-14.09-.165z" /><ns0:path d="M32.002 37.076l-1.67-1.779 1.71-1.703 1.71-1.704.506.44a73.023 73.023 0 0 1 1.824 1.715L37.4 35.32l-1.77 1.777c-.974.977-1.813 1.773-1.864 1.768-.052-.005-.847-.81-1.765-1.788z" /><ns0:path d="M21.096 33.373a185.6 185.6 0 0 0 .505-3.819l.404-3.227h11.97c6.583 0 11.97.047 11.97.105 0 .2.727 6.172.834 6.85l.107.682h-7.22l-1.906-1.929c-2.384-2.413-3.136-2.98-3.944-2.98-.664 0-.936.217-4.257 3.404l-1.567 1.505h-6.997zm-1.671-14.546L17.1 14.054l1.12-3.363 1.12-3.364 2.03-.051 2.03-.052V15.6h8.908V7.236h3.454V15.6h9.092V7.224l2.026.052 2.026.051 1.052 3.343 1.052 3.343-2.394 4.793L46.22 23.6H21.75l-2.325-4.773z" /></ns0:g></g><g id="white-queen"><ns0:path d="m21.088 51.312-1.664 5.184 3.648-3.328zm25.088.128-2.176 1.856 3.264 2.752zm-17.728 2.176-2.752.576-3.392 4.16h22.464q-.704-.64-3.392-4.16l-2.304-.448-3.52 3.52q-1.792 1.792-3.52 0zm-9.344-5.568q-2.816-6.08-5.504-12.16-2.624-6.144-5.248-12.16-1.408.384-2.304-.576l-1.408-1.536q-1.92-1.664 0-3.584l1.408-1.344q1.664-2.048 3.52 0l1.536 1.344q1.536 1.92 0 3.584l-.768.768 10.944 8.576-.96-13.824q-.832-.192-1.408-.768l-1.344-1.408q-1.984-1.792 0-3.52l1.344-1.536q1.792-1.664 3.584 0l1.536 1.536q1.536 1.728 0 3.52l-1.536 1.408 6.592 11.264 3.52-12.928q.192 0-.576-.32l-1.408-1.536q-1.728-1.792 0-3.584l1.408-1.536q1.728-1.408 3.52 0l1.408 1.536q1.984 1.792 0 3.584l-1.408 1.536q-.32.32-.64.32l3.584 13.056 6.592-11.072-1.536-1.536q-1.536-1.856 0-3.712l1.408-1.408q1.856-1.536 3.648 0l1.408 1.408q1.856 1.856 0 3.712l-1.408 1.344-1.216.768-.768 13.568 11.264-9.984-.96-.768q-1.536-1.856 0-3.712l1.536-1.408q1.792-1.664 3.584 0l1.344 1.408q1.856 1.856 0 3.712l-1.344 1.344q-1.088 1.088-2.368.768l-11.2 26.304 3.072 12.48h-36.928zm0-7.36q6.592-3.84 14.912-3.84 7.552 0 14.336 4.16l5.376-12.352-9.216 6.848-.64-10.816-6.336 7.872-3.648-10.624-4.352 10.624-5.696-7.872-.512 10.816-9.28-6.208zm14.784 8-3.264 3.2 3.264 3.264 3.072-3.264zm-13.568-5.056q.32.704.64 1.344.384.64.576 1.216 2.688-1.216 5.824-2.304 3.2-1.088 6.656-1.088 3.328 0 5.824.832t6.336 2.752l1.088-2.624q-3.456-1.92-6.528-2.88-3.072-.96-6.72-.96-3.584 0-7.296.96-3.648.896-6.4 2.752zm-12.48-24.832-1.024 1.088 1.024 1.088 1.088-1.088zm12.928-6.72-1.088 1.088 1.088 1.024 1.088-1.024zm13.12-2.048-1.088 1.088 1.088 1.088.896-1.088zm12.928 2.176-1.088 1.088 1.088 1.088 1.024-1.088zm13.376 4.928-1.088 1.088 1.088 1.088 1.088-1.088zm-15.872 31.872q-3.008-1.6-5.184-2.432-2.112-.832-5.12-.832t-5.888 1.088q-2.88 1.024-5.184 2.176l2.304 2.304 2.944-.64 3.84-4.16q1.728-1.408 3.52 0l4.032 4.16 2.56.64z" /><ns0:g fill="#fff" fill-rule="evenodd"><ns0:path d="m19.748 55.859c0-.065.298-1.082.663-2.26l.663-2.144.974.841.974.841-1.5 1.41c-1.409 1.324-1.774 1.594-1.774 1.312zm3.069 1.981a74.71 74.71 0 0 1 1.634-2.043l1.268-1.543 1.333-.295 1.332-.294 2.289 2.246c2.102 2.064 2.343 2.246 2.966 2.246.978 0 1.254-.188 3.473-2.37l2-1.968 1.112.214c1.1.213 1.128.234 2.252 1.67.627.8 1.39 1.72 1.696 2.045l.556.591h-22.278z" /><ns0:path d="m32.233 53.465-1.607-1.618 1.569-1.436c.862-.79 1.656-1.435 1.764-1.435s.807.67 1.554 1.491l1.357 1.492-1.515 1.562-1.516 1.563zm13.279 1.088-1.418-1.214.958-.853c.527-.47 1.002-.811 1.055-.759.151.151 1.052 4.068.931 4.054-.06-.008-.746-.56-1.526-1.228zm-4.822-3.632c-1.117-.28-1.2-.343-3.134-2.41-1.093-1.169-2.254-2.256-2.58-2.417l-.592-.292.546.002c.975.004 3.245.486 4.454.945.99.377 4.486 2.04 4.703 2.238.113.104-1.873 2.254-2.066 2.237-.1-.01-.699-.145-1.33-.303zm-16.477-.751c-.594-.602-1.044-1.127-1-1.166.197-.178 1.391-.725 3.213-1.47 2.043-.838 4.204-1.449 5.777-1.634l.909-.108-.546.336c-.3.186-1.42 1.276-2.49 2.425-1.88 2.019-1.978 2.095-3 2.316-.58.126-1.219.266-1.419.312-.263.06-.664-.221-1.444-1.011z" /><ns0:path d="m44.02 45.334c-4.423-2.152-8.085-2.907-11.985-2.468-2.56.288-4.195.738-7.604 2.09l-2.861 1.134-.549-1.173c-.403-.862-.497-1.235-.354-1.408.31-.372 3.041-1.657 4.59-2.157 3.73-1.206 8.52-1.649 12.102-1.119 2.695.399 4.49.974 7.436 2.383 2.286 1.094 2.4 1.174 2.244 1.574-.352.901-.916 2.148-.965 2.132-.029-.008-.952-.453-2.052-.989z" /><ns0:path d="m46.203 39.811a28.308 28.308 0 0 0 -7-2.504c-2.205-.472-8.862-.476-11.091-.006-2.449.517-5.027 1.366-7.075 2.33-1.041.491-1.92.866-1.951.834-.128-.127-4.787-10.737-4.738-10.786.03-.03 2.034 1.266 4.455 2.878 2.42 1.612 4.442 2.892 4.49 2.843.05-.049.201-2.356.339-5.126s.285-5.074.33-5.118c.044-.044 1.294 1.592 2.778 3.636 1.484 2.045 2.755 3.682 2.825 3.639s1.06-2.366 2.2-5.163c1.14-2.796 2.126-4.988 2.19-4.87.063.118.878 2.444 1.812 5.17s1.753 4.935 1.82 4.91c.068-.027 1.442-1.684 3.054-3.684s2.996-3.658 3.073-3.685c.078-.026.272 2.249.431 5.056.16 2.807.336 5.15.393 5.206.056.057 2.044-1.337 4.417-3.097s4.35-3.165 4.393-3.122c.096.095-4.926 11.728-5.055 11.708-.05-.008-.99-.48-2.09-1.049zm-38.876-19.436-.49-.512.512-.49.511-.49.49.512.49.511-.511.49-.512.49zm12.909-6.727-.49-.512.512-.49.511-.49.49.511.49.512-.511.49-.511.49zm13.088-2.005-.487-.507.513-.491.513-.491.412.439c.327.348.374.512.226.79-.398.743-.66.8-1.177.26zm13.003 2.277c-.5-.533-.498-.696.024-1.185.53-.499.525-.5.988.127l.386.522-.5.48-.5.48zm13.364 4.818-.49-.511.511-.49.512-.49.49.511.49.512-.511.49-.512.49z" /></ns0:g></g><g id="white-king"><ns0:path d="m39.594 57.136q-3.52 3.52-3.84 3.712-1.6 1.472-3.392 0-.384-.192-3.84-3.84l-4.48.256-3.968 4.352h27.84l-4.032-4.16zm6.016-5.056q-.96-.576-1.856-1.024-.896-.448-1.536-.832-1.28-.576-4.096-.768-2.752-.192-3.776-.256-.96.064-3.392.384-2.368.32-5.376 1.216-3.136 1.152-3.84 1.536l2.048 2.048 4.736-.32 3.84-4.032q1.728-1.6 3.392 0l4.032 4.032 3.904.32zm-25.408 2.88-.32 2.496 1.728-1.408zm0-5.184q.704-.384 1.728-.768 1.024-.448 2.752-.96 2.304-.768 4.352-1.152 2.112-.384 3.648-.512l-.128-11.392q-1.152-5.952-2.56-11.2-1.408-5.248-3.904-6.016-2.88-.768-6.72-.448-3.776.32-4.992.896-1.344.704-3.392 2.624-1.984 1.856-2.752 4.16-.832 2.432-1.088 4.352-.192 1.92-.32 3.136 0 2.496 1.088 7.104.64 2.304 1.728 3.968 1.152 1.664 3.328 3.392 1.92 1.664 3.712 2.176 1.792.448 3.52.64zm13.888-21.44q.576-2.688 1.216-5.12.704-2.496 1.664-4.416 0-.64-.576-1.792-.512-.96-1.152-1.792-.576-.832-1.024-1.792-1.6 2.176-2.304 3.584-.576 1.024-.704 1.472-.064.448-.064.832 1.728 3.52 2.944 9.024zm16.256 24.192 1.28 12.16h-35.584l1.408-12.16q-1.536-.32-3.072-.96-1.536-.704-3.392-2.112-2.56-2.112-3.904-4.16-1.344-2.048-2.112-4.928-1.216-4.736-1.216-8 .064-1.344.32-3.52.32-2.176 1.408-4.928.896-2.88 3.456-5.248 2.56-2.368 4.224-3.072 1.472-.768 5.952-1.216 4.48-.448 7.744.448 1.536.64 1.984 1.216.768-1.344 1.792-2.816 1.088-1.536 2.048-2.88v-1.088h-2.944v-3.072h2.944v-2.88h2.944v2.88h2.752v3.072h-2.752v1.088q.896 1.344 1.856 2.816 1.024 1.408 1.792 2.752.448-.32.896-.576.512-.256.96-.512 3.328-.896 7.744-.448 4.48.448 6.144 1.216 1.472.704 4.032 3.072 2.56 2.368 3.648 5.248.896 2.752 1.216 4.928.32 2.176.32 3.52.128 3.2-1.216 8-.768 2.88-2.112 4.928-1.28 2.048-3.904 4.16-1.92 1.536-3.52 2.24-1.6.64-3.136.832zm-16.128-.32-3.2 3.264 3.2 3.2 3.072-3.2zm13.248 2.304-1.536 1.216 1.856 1.728zm-12.032-8.128q1.6 0 4.16.256t3.84.832l2.048 1.024q1.152.576 2.304 1.28 1.728-.128 3.456-.576 1.792-.512 3.904-2.24 3.904-3.264 4.928-7.36 1.216-4.544 1.088-7.104 0-1.216-.256-3.136-.256-1.92-1.152-4.352-.832-2.304-2.88-4.16-2.048-1.92-3.264-2.624-1.344-.576-4.992-.896-3.648-.32-6.528.448-2.56.768-3.968 6.016-1.344 5.248-2.496 11.2z" /><ns0:path d="m22.03 59.555c1.036-1.125 1.952-2.096 2.036-2.158.084-.061 1.107-.156 2.273-.211l2.12-.1 2 1.959c1.1 1.077 2.202 2.093 2.45 2.257.42.279.026.298-6.157.298h-6.606zm-1.966-2.967c.065-.393.119-.903.12-1.133l.002-.419.64.488c.706.539.674.672-.335 1.39l-.545.389zm12.527.417-1.496-1.503 1.591-1.582 1.591-1.58 1.487 1.601 1.487 1.602-1.49 1.483c-.82.816-1.533 1.483-1.583 1.483s-.764-.676-1.587-1.504zm2.798 4.203c.288-.216 1.346-1.2 2.351-2.187l1.827-1.795 2.082.122 2.083.123 1.788 1.747c.983.96 1.866 1.889 1.96 2.064.164.3-.186.318-6.221.318h-6.395zm11.387-4.748-.751-.769.702-.501.703-.502.127 1.192c.07.655.092 1.227.049 1.27s-.417-.267-.83-.69zm-5.638-2.307-1.321-.122-2.359-2.334-2.358-2.333 2.134.123c2.925.167 4.31.496 6.176 1.467.877.456 1.71.903 1.85.993.204.13.073.39-.636 1.262-.993 1.222-.859 1.185-3.486.944zm-18.383-.802-.964-.976 1.334-.551c1.715-.708 2.675-1.027 4.5-1.493 1.259-.321 4.607-.908 5.2-.912.102 0-.84 1.032-2.09 2.294l-2.276 2.295-1.818.152c-2.974.248-2.808.282-3.886-.809zm-4.569-3.955c-.95-.199-2.136-.55-2.636-.78-1.941-.893-5.003-3.69-6.164-5.63-1.14-1.905-2.18-5.88-2.407-9.204-.189-2.775.705-7.742 1.776-9.877.879-1.75 3.235-4.17 5.184-5.325 2.02-1.197 8.74-1.635 11.963-.78 1.13.3 2.444 1.757 3.18 3.524.664 1.594 1.823 6.038 2.816 10.796l.652 3.125v11.066l-.682.104c-4.102.63-8.748 1.89-10.812 2.933-.472.239-.922.428-1 .421-.079-.007-.92-.175-1.87-.373zm27.818-.642c-2.915-1.646-4.44-2.06-8.582-2.338l-1.945-.13.102-5.662.101-5.66.712-3.36c1.958-9.237 3.093-12.292 4.963-13.357.903-.515 1.252-.599 3.409-.824 1.872-.195 5.16.014 7.326.465 1.616.337 2.747 1.086 4.917 3.255 1.844 1.844 2.489 2.965 3.253 5.659 1.222 4.31 1.041 8.943-.533 13.652-.636 1.903-1.783 3.688-3.392 5.28-2.168 2.144-3.756 3.118-5.83 3.577-2.434.538-2.596.518-4.5-.557zm-12.075-21.336c-.342-1.59-1.282-4.613-1.95-6.272-.53-1.318-.708-1.995-.648-2.46.09-.694 1.219-2.829 2.242-4.237l.638-.878.59.97 1.148 1.877c1.046 1.706 1.076 2.038.351 3.857-.589 1.478-1.344 4.037-1.975 6.689l-.26 1.09z" fill="#fff" fill-rule="evenodd" /></g><g id="black-pawn"><ns0:path d="m27.792 29.328q0-1.088.768-1.664.448-.192 1.856-1.792-2.24-1.024-3.712-3.072-1.408-2.112-1.408-4.8 0-3.584 2.56-6.08 2.624-2.56 6.08-2.56 3.52 0 6.016 2.56 2.56 2.496 2.56 6.08 0 2.688-1.472 4.8-1.408 2.048-3.584 3.072 1.344 1.6 1.856 1.792.64.576.64 1.664t-.64 1.728l-.768.768q1.152 2.816 2.176 5.504 1.024 2.688 1.984 4.8.768 1.92 2.112 2.496l1.408.576 2.752 1.664q2.752 1.664 3.264 3.008.448 1.28.576 3.712.192 2.368.32 5.056h-38.272q0-2.688.128-5.056.128-2.432.64-3.712.384-1.344 3.2-3.008l2.816-1.664 1.344-.576q1.344-.576 2.176-2.496.896-2.112 1.984-4.8 1.088-2.688 2.176-5.504l-.768-.768q-.768-.64-.768-1.728zm5.952-3.008q-2.688 2.88-2.88 3.072.192.256 1.472 1.6 1.344 1.28 1.6 1.6.192-.32 1.472-1.6 1.344-1.344 1.728-1.6-.384-.192-1.856-1.6-1.408-1.472-1.536-1.472z" /><ns0:path d="m32.419 30.932-1.436-1.516 1.265-1.396c.695-.769 1.348-1.425 1.452-1.46.103-.034.884.615 1.736 1.443l1.548 1.506-1.565 1.47-1.565 1.469z" fill="#fff" fill-rule="evenodd" /></g><g id="black-knight"><ns0:path d="m42 50.727c-.07 1.972.343 3.9.727 5.818l.364 1.637c.06.06.143.105.182.182.027.054-.054.154 0 .181.108.055.242 0 .363 0h7.637c.303 0 .607.028.909 0 .367-.033.725-.136 1.09-.181.121-.015.245.02.364 0 .247-.041.48-.147.728-.182.247-.036 1.084.047 1.272 0 .06-.015-.06-.182 0-.182s0 .242 0 .182v-2.365c0-.06.034-.131 0-.182-.095-.142-.268-.22-.363-.363-.034-.05 0-.121 0-.182-.121-.121-.269-.221-.364-.364-.034-.05 0-.12 0-.182v-1.09c0-.122.03-.246 0-.364-.033-.132-.149-.232-.182-.364-.03-.117.054-.255 0-.363-.027-.055-.182.06-.182 0 0-.055.603.12 0-.182-.054-.027-.139.043-.181 0-.043-.043-.061-.182 0-.182.112 0 .668.973 0-.364-.039-.076-.243-.12-.182-.181.06-.061.182.267.182.181 0-.191-.076-.386-.182-.545-.034-.05-.121 0-.182 0h-.182c.121 0 .472.054.364 0-.224-.112-.49-.103-.727-.182-.129-.043-.243-.121-.364-.182-.546-.06-1.095-.091-1.636-.182-.19-.031-.355-.16-.546-.181-.361-.04-.727 0-1.09 0h-1.819c-.182 0-.365.025-.545 0-1.788-.256.451-.182-1.637-.182-.931 0 .361.02-1.454-.182-.181-.02-.364 0-.546 0-.06 0-.127-.027-.182 0-.195.098-.345.275-.545.364-.35.155-.9.03-1.091.363-.162.284.31.587.364.91.014.084-.182.095-.182.181 0 .06.121 0 .182 0" fill="#fff" stroke="#000" /><ns0:path d="m24.848 39.728q-.384.704.192 1.28.576.576-.192 1.472-.704 1.024-2.624 2.752-1.856 1.728-3.2 2.304-2.176 1.28-4.48.192-1.152-.576-2.88-2.24-1.664-1.664-2.304-2.688-.768-1.024-.576-1.728.192-.704.064-1.664 0-.768-.384-1.088-.384-.384.384-2.496.768-1.92 3.264-6.336 2.496-4.416 3.2-6.528.704-1.92-.256-1.728-.896.128-.512-.896.384-1.152 1.408-3.072 1.024-1.984 1.856-2.944.896-.896 1.856-.704 1.024.128 1.792-1.152.704-1.216 1.344-3.776.704-2.56 1.472-4.672.96 1.984 2.048 3.776 1.088 1.792 2.24 2.24 2.88-1.088 6.912-.512 5.76.768 8.512 2.304 2.752 1.472 6.592 6.208 1.472 1.856 2.368 3.968.896 2.048 1.6 4.48.704 2.432 1.088 5.568.448 3.136.64 5.632 0 2.688-.192 4.992-.128 2.24 0 4.544v3.776q0 1.408.512 3.776.32 1.984 1.28 4.416.96 2.432 1.792 4.8h-40.192q-.832-1.664-.576-3.648 0-1.28.32-3.136t1.024-3.52q.576-1.472 1.536-2.816.96-1.408 2.048-2.688 2.048-3.2 3.84-5.12 1.536-1.728 3.328-3.264 1.856-1.6 3.392-3.456 1.28-1.856 1.728-3.392.32-1.024-.064-2.752-.384-1.792-.704-1.728-.256.128-1.024 2.368-.768 2.24-1.472 3.008-.704 1.088-1.536 1.536-.768.384-1.344.768-.768.384-1.216.384-.384 0-.96.384-.704.512-1.664 1.344-.896.768-1.28 1.472zm-2.304 16.256q1.6.384 4.928.384 3.392-.064 4.48-.064l.128-3.2q-.96 0-3.968-.128-2.944-.128-4.288-.384zm21.568.512q2.048-.128 4.864-.384 2.88-.256 4.992-.384l-.64-3.264q-1.728.384-5.056.576-3.328.128-4.352.192zm-6.144-5.12-3.392 3.392 3.392 3.52 3.392-3.52zm-15.232-28.288q-.768-.128-2.496-.128-.448 0-.896.512-.384.512-.448.832v.896q.064.64.448.96.128.128 1.344.128.384-.064.96-.32.576-.32 1.088-.576 1.344-.704 1.344-1.216.128-.704-.32-.768-.384-.064-1.024-.32zm-12.16 13.696q1.088 1.088 1.088 2.304.064.256-.128 1.28-.192.96-.192 1.024.192.256 1.344-1.088 1.216-1.344 1.088-1.856 0-.384-1.28-1.088-1.28-.704-1.92-.576zm19.2-25.088q3.84.576 8 1.728 4.16 1.088 6.912 3.84 2.496 2.88 3.392 4.224.896 1.28 2.048 3.904.896 3.008 1.344 6.336.512 3.328.768 6.272.192 2.496.192 4.928 0 2.368 1.536 6.784-.192-3.264 0-6.016.256-2.816.128-5.824-.128-3.328-.832-7.488t-1.472-6.08q-.96-2.368-2.56-4.416-1.536-2.048-3.456-4.16-1.728-1.856-3.776-2.688-2.048-.896-5.312-1.472-2.176-.448-3.648-.192-1.408.256-3.264.32z" /><ns0:path d="m23.78 56.159c-.47-.066-.909-.172-.973-.236-.064-.065.15-.825.477-1.69l.593-1.572.577.109c.475.089 6.123.45 7.227.463.272.003.318.186.318 1.261 0 1.98.303 1.837-3.792 1.809-1.964-.014-3.956-.078-4.427-.144zm12.492.35-1.632-1.639 1.678-1.678 1.678-1.678 1.63 1.622 1.63 1.623-1.506 1.637c-.828.9-1.583 1.663-1.677 1.694-.094.032-.905-.68-1.802-1.581zm10.769-.301c.124-.05.369-.053.546-.007s.076.087-.224.09c-.3.004-.445-.033-.322-.083zm6.163-9.154c-.432-1.574-.552-2.483-.687-5.181-.348-6.944-1.383-13.848-2.516-16.786-.687-1.783-1.855-3.679-3.552-5.77-2.282-2.811-3.939-4.136-6.485-5.186-1.332-.55-5.321-1.602-7.562-1.996-.728-.127-1.255-.301-1.17-.386s1.049-.202 2.143-.261c2.235-.121 4.37.226 7.42 1.207 2.823.908 4.37 2.175 7.585 6.21 2.693 3.38 3.769 5.796 4.6 10.331.985 5.37 1.19 9.441.86 17.091l-.113 2.636zm-33.562-20.888c-.812-.226-.965-1.717-.263-2.552.433-.514.562-.56 1.591-.556 1.67.005 2.924.374 2.998.881.087.598-.258.91-1.868 1.69-1.474.712-1.673.756-2.458.537zm-8.058 13.705c.084-1.533.06-1.677-.378-2.317-.374-.545-.41-.681-.181-.681.41 0 2.45 1.116 2.559 1.4.185.483-.16 1.16-1.111 2.183l-.978 1.05.09-1.635z" fill="#fff" fill-rule="evenodd" /></g><g id="black-bishop"><ns0:path d="M27.984 55.472q-2.752-.064-4.544-.064-1.792-.064-1.92-.256-.832-.768-.896-1.856-.064-1.088.768-1.792.064-.128 1.088-1.536 1.024-1.472 2.432-3.584-2.432-3.072-4.608-6.016-2.176-3.008-2.624-3.52-1.408-1.216-1.408-3.008 0-1.856 1.408-3.264.384-.384 2.304-2.944 1.984-2.56 4.224-5.568 2.304-3.008 4.224-5.568 1.984-2.624 2.24-2.88.256-.256.384-.448-.704-.768-1.472-1.472-.704-.704-.832-.96-2.048-1.792 0-3.584.192-.32 1.728-1.792 1.6-1.472 1.856-1.856 1.728-1.664 3.328 0L37.52 5.36q1.472 1.472 1.856 1.792 1.792 1.792 0 3.584-.256.256-1.024.96t-1.408 1.472q.064 0 .32.192.448.512 2.368 3.136 1.92 2.56 4.096 5.568 2.24 3.008 4.096 5.568 1.92 2.56 2.304 2.944 1.344 1.408 1.344 3.264 0 1.792-1.344 3.008-.448.512-2.56 3.392-2.048 2.816-4.352 5.888 1.6 2.112 2.688 3.712 1.152 1.536 1.344 1.664 1.728 1.792-.192 3.648-.128.192-2.112.256-1.92 0-4.8.064-.192 1.408-.128 1.408.32.32 2.176.32 1.856-.064 4.096-.128t4.288-.064q2.112-.064 2.944.192 2.112.704 2.944 3.264.832 2.496 1.408 4.864H40.784q-1.344 0-2.56-.064-1.152-.128-2.368-.704-1.152-.576-1.472-.832-.32-.32-.384-.704 0 .384-.256.704-.256.256-1.408.832-1.344.576-2.56.704-1.216.064-2.368.064h-17.28q.704-2.368 1.664-4.864 1.024-2.56 3.136-3.264.768-.256 2.752-.192 2.048 0 4.16.064 2.176.064 3.904.128 1.792 0 2.112-.32.32-.192.192-.384-.064-.256-.064-1.024zm7.552-20.416h3.52v-2.944h-3.52v-4.288h-2.944v4.288h-3.52v2.944h3.52v11.072h2.944zM34 5.616q-.256.384-1.6 1.728-1.28 1.344-1.472 1.536.192.384 1.472 1.728 1.344 1.28 1.6 1.472.192-.192 1.536-1.472l1.728-1.728q-.384-.192-1.728-1.536Q34.192 6 34 5.616zm-2.944 49.728h5.888l.576-2.496h-7.04z" /><ns0:path d="M30.886 54.443c-.405-1.758-.67-1.622 3.174-1.622h3.386l-.116.58c-.064.32-.2.893-.303 1.273l-.186.692H31.1zm1.787-13.895v-5.545H29.22v-2.91h3.454v-4.181h2.728v4.181h3.636v2.896l-1.773.052-1.773.052-.048 5.5-.048 5.5h-2.723v-5.545zm-.257-30.086L31 9.005l.912-1.047c.501-.575 1.185-1.294 1.519-1.597l.607-.55 1.571 1.6 1.572 1.6-1.54 1.405c-.848.772-1.6 1.427-1.673 1.454-.073.027-.77-.607-1.55-1.408z" fill="#fff" fill-rule="evenodd" /><ns0:path d="M27.984 55.472q-2.752-.064-4.544-.064-1.792-.064-1.92-.256-.832-.768-.896-1.856-.064-1.088.768-1.792.064-.128 1.088-1.536 1.024-1.472 2.432-3.584-2.432-3.072-4.608-6.016-2.176-3.008-2.624-3.52-1.408-1.216-1.408-3.008 0-1.856 1.408-3.264.384-.384 2.304-2.944 1.984-2.56 4.224-5.568 2.304-3.008 4.224-5.568 1.984-2.624 2.24-2.88.256-.256.384-.448-.704-.768-1.472-1.472-.704-.704-.832-.96-2.048-1.792 0-3.584.192-.32 1.728-1.792 1.6-1.472 1.856-1.856 1.728-1.664 3.328 0L37.52 5.36q1.472 1.472 1.856 1.792 1.792 1.792 0 3.584-.256.256-1.024.96t-1.408 1.472q.064 0 .32.192.448.512 2.368 3.136 1.92 2.56 4.096 5.568 2.24 3.008 4.096 5.568 1.92 2.56 2.304 2.944 1.344 1.408 1.344 3.264 0 1.792-1.344 3.008-.448.512-2.56 3.392-2.048 2.816-4.352 5.888 1.6 2.112 2.688 3.712 1.152 1.536 1.344 1.664 1.728 1.792-.192 3.648-.128.192-2.112.256-1.92 0-4.8.064-.192 1.408-.128 1.408.32.32 2.176.32 1.856-.064 4.096-.128t4.288-.064q2.112-.064 2.944.192 2.112.704 2.944 3.264.832 2.496 1.408 4.864H40.784q-1.344 0-2.56-.064-1.152-.128-2.368-.704-1.152-.576-1.472-.832-.32-.32-.384-.704 0 .384-.256.704-.256.256-1.408.832-1.344.576-2.56.704-1.216.064-2.368.064h-17.28q.704-2.368 1.664-4.864 1.024-2.56 3.136-3.264.768-.256 2.752-.192 2.048 0 4.16.064 2.176.064 3.904.128 1.792 0 2.112-.32.32-.192.192-.384-.064-.256-.064-1.024zm7.552-20.416h3.52v-2.944h-3.52v-4.288h-2.944v4.288h-3.52v2.944h3.52v11.072h2.944zM34 5.616q-.256.384-1.6 1.728-1.28 1.344-1.472 1.536.192.384 1.472 1.728 1.344 1.28 1.6 1.472.192-.192 1.536-1.472l1.728-1.728q-.384-.192-1.728-1.536Q34.192 6 34 5.616zm-2.944 49.728h5.888l.576-2.496h-7.04z" /><ns0:path d="M30.886 54.443c-.405-1.758-.67-1.622 3.174-1.622h3.386l-.116.58c-.064.32-.2.893-.303 1.273l-.186.692H31.1zm1.787-13.895v-5.545H29.22v-2.91h3.454v-4.181h2.728v4.181h3.636v2.896l-1.773.052-1.773.052-.048 5.5-.048 5.5h-2.723v-5.545zm-.257-30.086L31 9.005l.912-1.047c.501-.575 1.185-1.294 1.519-1.597l.607-.55 1.571 1.6 1.572 1.6-1.54 1.405c-.848.772-1.6 1.427-1.673 1.454-.073.027-.77-.607-1.55-1.408z" fill="#fff" fill-rule="evenodd" /></g><g id="black-rook"><ns0:path d="M30.288 35.312l3.52 3.712 3.712-3.712-3.712-3.52zm18.176-10.304l2.432 19.52 2.816 6.016v12.928H14.16V50.544l2.624-6.016 2.432-19.52-4.928-10.752 3.072-9.728H26v8.32h3.712v-8.32h8.768v8.32h3.648v-8.32h8.64l3.072 9.728zM19.088 46.384l-1.408 3.072H50l-1.536-3.072zm27.2-22.784H21.712l.576 2.944h23.68z" /><ns0:path d="M22.132 25.464c-.11-.575-.24-1.23-.289-1.455l-.087-.41h24.371v.612c0 .336-.052.99-.116 1.454l-.116.844h-23.56zm9.87 11.612l-1.67-1.779 1.71-1.703 1.71-1.704.506.44a73.023 73.023 0 0 1 1.824 1.715L37.4 35.32l-1.77 1.777c-.974.977-1.813 1.773-1.864 1.768-.052-.005-.847-.81-1.765-1.788zM18.196 48.464c.236-.525.535-1.18.664-1.455l.234-.5h29.392l.732 1.455.731 1.454H17.768z" fill="#fff" fill-rule="evenodd" /></g><g id="black-queen"><ns0:path d="m21.088 51.312-1.664 5.184 3.648-3.328zm25.088.128-2.176 1.856 3.264 2.752zm-18.176-.768-2.624.64.32 2.88 2.624-.448zm14.144.64-2.56-.64-.512 3.072 2.496.32zm-23.04-3.264-10.752-24.32q-1.408.384-2.304-.576l-1.408-1.536q-1.92-1.664 0-3.584l1.408-1.344q1.664-2.048 3.52 0l1.536 1.344q1.536 1.92 0 3.584l-.768.768 10.944 8.576-.96-13.824q-.832-.192-1.408-.768l-1.344-1.408q-1.984-1.792 0-3.52l1.344-1.536q1.792-1.664 3.584 0l1.536 1.536q1.536 1.728 0 3.52l-1.536 1.408 6.592 11.264 3.52-12.928-.576-.32-1.408-1.536q-1.728-1.792 0-3.584l1.408-1.536q1.728-1.408 3.52 0l1.408 1.536q1.984 1.792 0 3.584l-1.408 1.536-.64.32 3.584 13.056 6.592-11.072-1.536-1.536q-1.536-1.856 0-3.712l1.408-1.408q1.856-1.536 3.648 0l1.408 1.408q1.856 1.856 0 3.712l-1.408 1.344-1.216.768-.768 13.568 11.264-9.984-.96-.768q-1.536-1.856 0-3.712l1.536-1.408q1.792-1.664 3.584 0l1.344 1.408q1.856 1.856 0 3.712l-1.344 1.344q-1.088 1.088-2.368.768l-11.2 26.304 3.072 12.48h-36.928zm14.784.64-3.264 3.2 3.264 3.264 3.072-3.264zm-13.568-5.056 1.216 2.56q2.688-1.216 5.824-2.304 3.2-1.088 6.656-1.088 3.328 0 5.824.832t6.336 2.752l1.088-2.624q-3.456-1.92-6.528-2.88-3.072-.96-6.72-.96-3.584 0-7.296.96-3.648.896-6.4 2.752zm-12.608-24.96-1.408 1.216 1.408 1.408 1.216-1.408zm13.056-6.784-1.344 1.28 1.344 1.344 1.28-1.344zm13.12-2.304-1.536 1.536 1.536 1.536 1.344-1.536zm12.928 2.304-1.408 1.408 1.408 1.408 1.216-1.408zm13.376 4.928-1.28 1.28 1.28 1.344 1.28-1.344z" /><ns0:path d="m19.748 55.859c0-.065.298-1.082.663-2.26l.663-2.144.974.841.974.841-1.5 1.41c-1.409 1.324-1.774 1.594-1.774 1.312zm5.912-2.733c-.064-.583-.132-1.217-.15-1.41-.029-.288.182-.405 1.185-.66l1.22-.309.104.842.188 1.502.084.661-1.027.129c-.565.07-1.13.168-1.257.216-.161.062-.264-.227-.347-.971zm6.573.339-1.607-1.618 1.569-1.436c.862-.79 1.656-1.435 1.764-1.435s.807.67 1.554 1.491l1.357 1.492-1.515 1.562-1.516 1.563zm7.651.378c-.774-.08-.771-.07-.477-1.852l.204-1.237 1.205.308c.814.208 1.194.391 1.172.565a35.11 35.11 0 0 1 -.24 1.303c-.228 1.15-.117 1.096-1.864.913zm5.628.71-1.418-1.214.958-.853c.527-.47 1.002-.811 1.055-.759.151.151 1.052 4.068.931 4.054-.06-.008-.746-.56-1.526-1.228zm-1.492-9.219c-4.423-2.152-8.085-2.907-11.985-2.468-2.563.289-4.195.738-7.627 2.1l-2.886 1.144-.533-1.174c-.401-.886-.482-1.234-.33-1.417.315-.38 3.032-1.66 4.597-2.166 3.73-1.206 8.52-1.649 12.102-1.119 2.695.399 4.49.974 7.436 2.383 2.286 1.094 2.4 1.174 2.244 1.574-.352.901-.916 2.148-.965 2.132-.029-.008-.952-.453-2.052-.989zm15.475-26.674-.461-.59.575-.593.575-.593.589.57.588.57-.488.612c-.269.337-.585.612-.703.612s-.421-.265-.675-.589zm-13.383-4.775-.617-.637.626-.647.627-.646.597.65.597.652-.482.632c-.265.348-.539.632-.607.632-.069 0-.402-.286-.741-.636zm-12.964-2.054-.674-.69.736-.718.736-.718.609.725.61.726-.573.667c-.314.367-.616.674-.67.683-.055.008-.403-.295-.774-.675zm-13.075 1.888-.493-.595.59-.572.59-.571.572.572.572.572-.463.607c-.255.334-.556.601-.67.594-.112-.007-.427-.28-.698-.607zm-13.042 6.907-.625-.649.523-.546c.646-.675.806-.679 1.424-.034l.49.513-.593.682-.593.683z" fill="#fff" fill-rule="evenodd" /></g><g id="black-king"><ns0:path d="m23.914 54.384.32 2.88q1.152 0 2.176-.064 1.024-.064 2.112-.192v-2.944q-2.048 0-4.608.32zm19.968 0q-.96 0-2.112-.128-1.088-.192-1.984-.192v3.072q.96 0 1.856.064.896.064 1.984.064zm-23.68-4.608q.704-.384 1.728-.768 1.024-.448 2.752-.96 2.304-.768 4.352-1.152 2.112-.384 3.648-.512v-11.392q-1.28-5.952-2.688-11.2-1.408-5.248-3.904-6.016-2.88-.768-6.72-.448-3.776.32-4.992.896-1.344.704-3.392 2.624-1.984 1.856-2.752 4.16-.832 2.432-1.088 4.352-.192 1.92-.32 3.136 0 2.496 1.088 7.104.64 2.304 1.728 3.968 1.152 1.664 3.328 3.392 1.92 1.664 3.712 2.176 1.792.448 3.52.64zm13.888-21.44q.576-2.688 1.216-5.12.704-2.496 1.664-4.416 0-.64-.576-1.792-.512-.96-1.152-1.792-.576-.832-1.024-1.792-1.6 2.176-2.304 3.584-.576 1.024-.704 1.472-.064.448-.064.832 1.728 3.52 2.944 9.024zm16.256 24.192q.512 5.504 1.28 12.16h-35.584q.384-3.328.704-6.464.32-3.136.704-5.696-1.536-.32-3.072-.96-1.536-.704-3.392-2.112-2.56-2.112-3.904-4.16-1.344-2.048-2.112-4.928-1.216-4.736-1.216-8 .064-1.344.32-3.52.32-2.176 1.408-4.928.896-2.88 3.456-5.248 2.56-2.368 4.224-3.072 1.472-.768 5.952-1.216 4.48-.448 7.744.448 1.536.64 1.984 1.216.768-1.344 1.792-2.816 1.088-1.536 2.048-2.88v-1.088h-2.944v-3.072h2.944v-2.88h2.944v2.88h2.752v3.072h-2.752v1.088q.896 1.344 1.856 2.816 1.024 1.408 1.792 2.752.448-.32.896-.576.512-.256.96-.512 3.328-.896 7.744-.448 4.48.448 6.144 1.216 1.472.704 4.032 3.072 2.56 2.368 3.648 5.248.896 2.752 1.216 4.928.32 2.176.32 3.52.128 3.2-1.216 8-.768 2.88-2.112 4.928-1.28 2.048-3.904 4.16-1.92 1.536-3.52 2.24-1.6.64-3.136.832zm-16.128-.32-1.728 1.728q-1.28 1.344-1.472 1.536.192.384 1.472 1.728 1.344 1.28 1.728 1.472.064-.192 1.344-1.472l1.728-1.728q-.384-.192-1.728-1.536-1.28-1.344-1.344-1.728zm1.216-5.824q1.6 0 4.16.256t3.84.832l2.048 1.024q1.152.576 2.304 1.28 1.728-.128 3.456-.576 1.792-.512 3.904-2.24 3.904-3.264 4.928-7.36 1.216-4.544 1.088-7.104 0-1.216-.256-3.136-.256-1.92-1.152-4.352-.832-2.304-2.88-4.16-2.048-1.92-3.264-2.624-1.344-.576-4.992-.896-3.648-.32-6.528.448-2.56.768-3.968 6.016-1.344 5.248-2.688 11.2zm-16.32-.192-2.176-.896q-2.112-.896-3.008-2.304-1.344-1.28-2.624-4.16-1.088-2.432-1.216-6.336-.256-2.048.512-4.736.768-2.688 1.6-3.84 1.92-2.688 5.888-3.392 2.048-.192 4.16-.064 2.176.064 2.88.832.384.448 1.024 2.496t1.28 4.48q.704 2.432 1.216 4.736.512 2.24.64 3.072.32 1.728.256 3.712-.064 1.92-.064 3.52zm30.016.32-10.304-2.752q0-1.6-.128-3.52-.064-1.984.32-3.904.064-.832.576-3.072t1.152-4.608q.64-2.432 1.28-4.416.704-2.048 1.088-2.496.704-.768 2.88-.896 2.24-.192 4.224.128 4.096.512 5.824 3.392.768 1.152 1.536 3.84.832 2.688.64 4.8-.192 3.84-1.216 6.144-.512 1.408-1.344 2.56-.832 1.152-1.28 1.728-.96 1.28-3.136 2.176zm-27.072 11.52-.576-3.072-2.176.64-.192 3.392zm23.552-.128 3.072.896-.32-3.2-2.112-.64z" /><ns0:path d="m19.277 57.286v-1.626l1.043-.29c.573-.16 1.063-.27 1.089-.244.137.137.544 2.765.443 2.86-.066.064-.57.26-1.12.436-.55.177-1.103.36-1.228.406-.17.063-.227-.318-.227-1.542zm5.018-.252c-.044-.139-.13-.754-.192-1.366-.089-.886-.057-1.136.155-1.217.146-.056 1.172-.16 2.28-.23l2.012-.127v1.379c0 .758-.063 1.417-.14 1.465-.078.048-1.017.145-2.088.217-1.583.106-1.962.084-2.027-.121zm8.187.007-1.443-1.468 1.525-1.533c.839-.843 1.567-1.512 1.62-1.486.05.025.743.723 1.538 1.551l1.446 1.505-1.441 1.45c-.793.797-1.523 1.45-1.622 1.45-.1 0-.83-.661-1.623-1.469zm8.113.062-.773-.07v-2.933l1.319.124a46.88 46.88 0 0 1 2.02.232c.69.105.699.117.592.762-.06.36-.11.963-.11 1.338l-.002.681-1.137-.031a38.583 38.583 0 0 1 -1.909-.102zm6.355 1.179c-.953-.271-1.299-.447-1.23-.626.053-.138.193-.78.313-1.428.17-.927.278-1.16.503-1.096 1.798.511 1.832.529 1.832.925 0 .22.052.902.117 1.516.065.625.045 1.11-.046 1.102-.089-.009-.759-.186-1.488-.393zm-.946-9.528c-2.917-1.647-4.438-2.06-8.59-2.339l-1.955-.131v-11.19l.824-3.52c2.294-9.8 3.239-12.283 5.072-13.327.903-.515 1.252-.599 3.409-.824 1.872-.195 5.16.014 7.326.465 1.616.337 2.747 1.086 4.917 3.255 1.844 1.844 2.489 2.965 3.253 5.659 1.222 4.31 1.041 8.943-.533 13.652-.636 1.903-1.783 3.688-3.392 5.28-2.168 2.144-3.756 3.118-5.83 3.577-2.434.538-2.596.518-4.5-.557zm4.811-2.881c2.104-.919 2.966-1.58 4.23-3.248 1.898-2.506 2.788-4.94 3.148-8.613.236-2.41.052-4.006-.743-6.44-.945-2.89-2.07-4.56-3.724-5.53-1.708-1.001-5.724-1.58-8.24-1.187-1.694.264-2.301.582-2.73 1.43-.887 1.748-3.196 10.226-3.754 13.78-.195 1.242-.268 2.741-.232 4.79l.052 2.98 4.91 1.325c2.7.729 5.072 1.33 5.272 1.335s1.015-.275 1.811-.622zm-32.629 3.523c-.95-.199-2.136-.55-2.636-.78-1.941-.893-5.003-3.69-6.164-5.63-1.14-1.905-2.18-5.88-2.407-9.204-.189-2.775.705-7.742 1.776-9.877.879-1.75 3.235-4.17 5.184-5.325 2.013-1.192 8.77-1.637 11.934-.784.39.105 1.074.526 1.52.937 1.517 1.399 2.336 3.7 4.239 11.92l.918 3.964v11.694l-.682.104c-4.102.63-8.748 1.89-10.812 2.933-.472.239-.922.428-1 .421-.079-.007-.92-.175-1.87-.373zm6.247-4.604c2.686-.744 4.93-1.398 4.985-1.454.212-.212.258-4.829.062-6.285-.416-3.097-2.898-12.678-3.865-14.927-.306-.71-.537-.955-1.221-1.291-.762-.375-1.102-.416-3.48-.416-2.906 0-3.993.194-5.768 1.028-2.35 1.103-3.752 3.126-4.703 6.791-.434 1.673-.463 2.018-.367 4.362.066 1.593.243 3.114.473 4.065.683 2.82 3.133 6.802 4.83 7.851.976.603 3.74 1.79 3.968 1.705.112-.041 2.4-.684 5.086-1.429zm9.496-17.374c-.342-1.59-1.282-4.613-1.95-6.272-.53-1.318-.708-1.995-.648-2.46.09-.694 1.219-2.829 2.242-4.237l.638-.878.59.97 1.148 1.877c1.046 1.706 1.076 2.038.351 3.857-.589 1.478-1.344 4.037-1.975 6.689l-.26 1.09z" fill="#fff" fill-rule="evenodd" /></g><radialGradient id="check_gradient"><stop offset="0%" stop-color="#ff0000" stop-opacity="1.0" /><stop offset="50%" stop-color="#e70000" stop-opacity="1.0" /><stop offset="100%" stop-color="#9e0000" stop-opacity="0.0" /></radialGradient></defs><rect x="272" y="0" width="45" height="68" stroke="none" fill="#262421" /><rect x="317" y="0" width="45" height="68" stroke="none" fill="#bababa" /><rect x="362" y="0" width="45" height="68" stroke="none" fill="#bf811d" /><rect x="407" y="0" width="45" height="68" stroke="none" fill="#b72fc6" /><rect x="452" y="0" width="45" height="68" stroke="none" fill="#706f6e" /><rect x="0" y="0" width="68" height="544" stroke="none" fill="#f0d9b5" /><use xlink:href="#black-pawn" transform="translate(0, 68)" /><use xlink:href="#black-knight" transform="translate(0, 136)" /><use xlink:href="#black-bishop" transform="translate(0, 204)" /><use xlink:href="#black-rook" transform="translate(0, 272)" /><use xlink:href="#black-queen" transform="translate(0, 340)" /><use xlink:href="#black-king" transform="translate(0, 408)" /><rect x="0" y="476" width="68" height="68" fill="url(#check_gradient)" /><use xlink:href="#black-king" transform="translate(0, 476)" /><rect x="68" y="0" width="68" height="544" stroke="none" fill="#b58863" /><use xlink:href="#black-pawn" transform="translate(68, 68)" /><use xlink:href="#black-knight" transform="translate(68, 136)" /><use xlink:href="#black-bishop" transform="translate(68, 204)" /><use xlink:href="#black-rook" transform="translate(68, 272)" /><use xlink:href="#black-queen" transform="translate(68, 340)" /><use xlink:href="#black-king" transform="translate(68, 408)" /><rect x="68" y="476" width="68" height="68" fill="url(#check_gradient)" /><use xlink:href="#black-king" transform="translate(68, 476)" /><rect x="136" y="0" width="68" height="544" stroke="none" fill="#ced26b" /><use xlink:href="#black-pawn" transform="translate(136, 68)" /><use xlink:href="#black-knight" transform="translate(136, 136)" /><use xlink:href="#black-bishop" transform="translate(136, 204)" /><use xlink:href="#black-rook" transform="translate(136, 272)" /><use xlink:href="#black-queen" transform="translate(136, 340)" /><use xlink:href="#black-king" transform="translate(136, 408)" /><rect x="136" y="476" width="68" height="68" fill="url(#check_gradient)" /><use xlink:href="#black-king" transform="translate(136, 476)" /><rect x="204" y="0" width="68" height="544" stroke="none" fill="#aaa23b" /><use xlink:href="#black-pawn" transform="translate(204, 68)" /><use xlink:href="#black-knight" transform="translate(204, 136)" /><use xlink:href="#black-bishop" transform="translate(204, 204)" /><use xlink:href="#black-rook" transform="translate(204, 272)" /><use xlink:href="#black-queen" transform="translate(204, 340)" /><use xlink:href="#black-king" transform="translate(204, 408)" /><rect x="204" y="476" width="68" height="68" fill="url(#check_gradient)" /><use xlink:href="#black-king" transform="translate(204, 476)" /><rect x="272" y="68" width="68" height="476" stroke="none" fill="#f0d9b5" /><use xlink:href="#white-pawn" transform="translate(272, 68)" /><use xlink:href="#white-knight" transform="translate(272, 136)" /><use xlink:href="#white-bishop" transform="translate(272, 204)" /><use xlink:href="#white-rook" transform="translate(272, 272)" /><use xlink:href="#white-queen" transform="translate(272, 340)" /><use xlink:href="#white-king" transform="translate(272, 408)" /><rect x="272" y="476" width="68" height="68" fill="url(#check_gradient)" /><use xlink:href="#white-king" transform="translate(272, 476)" /><rect x="340" y="68" width="68" height="476" stroke="none" fill="#b58863" /><use xlink:href="#white-pawn" transform="translate(340, 68)" /><use xlink:href="#white-knight" transform="translate(340, 136)" /><use xlink:href="#white-bishop" transform="translate(340, 204)" /><use xlink:href="#white-rook" transform="translate(340, 272)" /><use xlink:href="#white-queen" transform="translate(340, 340)" /><use xlink:href="#white-king" transform="translate(340, 408)" /><rect x="340" y="476" width="68" height="68" fill="url(#check_gradient)" /><use xlink:href="#white-king" transform="translate(340, 476)" /><rect x="408" y="68" width="68" height="476" stroke="none" fill="#ced26b" /><use xlink:href="#white-pawn" transform="translate(408, 68)" /><use xlink:href="#white-knight" transform="translate(408, 136)" /><use xlink:href="#white-bishop" transform="translate(408, 204)" /><use xlink:href="#white-rook" transform="translate(408, 272)" /><use xlink:href="#white-queen" transform="translate(408, 340)" /><use xlink:href="#white-king" transform="translate(408, 408)" /><rect x="408" y="476" width="68" height="68" fill="url(#check_gradient)" /><use xlink:href="#white-king" transform="translate(408, 476)" /><rect x="476" y="68" width="68" height="476" stroke="none" fill="#aaa23b" /><use xlink:href="#white-pawn" transform="translate(476, 68)" /><use xlink:href="#white-knight" transform="translate(476, 136)" /><use xlink:href="#white-bishop" transform="translate(476, 204)" /><use xlink:href="#white-rook" transform="translate(476, 272)" /><use xlink:href="#white-queen" transform="translate(476, 340)" /><use xlink:href="#white-king" transform="translate(476, 408)" /><rect x="476" y="476" width="68" height="68" fill="url(#check_gradient)" /><use xlink:href="#white-king" transform="translate(476, 476)" /></svg>