<svg xmlns:ns0="http://www.w3.org/2000/svg" xmlns="http://www.w3.org/2000/svg" version="1.1" xmlns:xlink="http://www.w3.org/1999/xlink" viewBox="0 0 512 512"><defs><g id="white-pawn"><ns0:g transform="translate(0 -16)"><ns0:path d="m27.705 30.724c1.7133-2.9661 6.3295-3.2428 8.3519-.46017 1.7594 1.8957.92434 4.5486.39717 6.7541 2.809 1.3428 6.099 1.8919 8.4288 4.0858 1.7166 1.5266 1.9092 3.9279 2.2697 6.0461-3.6227.12214-7.2474.05755-10.871.08205.02321 2.0535.19138 4.1388 1.2767 5.9413 1.7383 3.3796 3.0776 7.7199.46472 11.044-.02174.4571-.06521 1.3713-.08694 1.8284 3.1995.26714 6.7701.44416 9.2666 2.7369 1.5369 1.2864 1.8057 3.3677 2.2652 5.193-11.193.16227-22.389.02665-33.583.07112v-4.1198c2.48-3.1111 6.5871-3.6707 10.296-3.8871.01601-.4373.04806-1.3119.06407-1.7492-.72973-1.3979-1.8305-2.7729-1.6767-4.4484-.0058-4.5063 3.7838-8.0275 3.2671-12.61-3.5696-.02257-7.1396.02737-10.708-.06177.4871-2.5803 1.3492-5.3473 3.6307-6.904 2.1973-1.4619 4.6944-2.3896 6.9916-3.679-.47647-1.8922-1.3893-4.094-.04488-5.8634z" fill="#fff" stroke="#000" stroke-miterlimit="10" stroke-width=".078895" /><ns0:path d="m27.705 30.724c1.7133-2.9661 6.3295-3.2428 8.3519-.46017 1.7594 1.8957.92434 4.5486.39717 6.7541 2.809 1.3428 6.099 1.8919 8.4288 4.0858 1.7166 1.5266 1.9092 3.9279 2.2697 6.0461-3.6227.12214-7.2474.05755-10.871.08205.02321 2.0535.19138 4.1388 1.2767 5.9413 1.7383 3.3796 3.0776 7.7199.46472 11.044-.02174.4571-.06521 1.3713-.08694 1.8284 3.1995.26714 7.2462.50884 9.2666 2.7369 2.0481 2.2587 1.8057 3.3677 2.2652 5.193-11.193.16227-23.804.1295-34.998.17398.28821-1.7431.19914-1.7328 1.426-4.3788 1.2161-2.6228 6.5765-3.5146 10.286-3.731.01601-.4373.04806-1.3119.06407-1.7492-.73-1.397-1.831-2.772-1.677-4.447-.0058-4.5063 3.7838-8.0275 3.2671-12.61-3.5696-.02257-7.1396.02737-10.708-.06177.4871-2.5803 1.3492-5.3473 3.6307-6.904 2.1973-1.4619 4.6944-2.3896 6.9916-3.679-.47647-1.8922-1.3893-4.094-.04488-5.8634z" /><ns0:g fill="#fff"><ns0:path d="m30.597 36.878c-1.9656-1.9649-1.7425-6.5302 1.7818-6.2111 3.0927.41023 2.7259 4.2292 1.3232 6.1645 2.98 3.6514 9.2481 2.9565 10.876 7.8811-8.2582.23812-16.538.23218-24.796.000192 1.718-4.8514 7.8139-4.2592 10.815-7.8347z" stroke="#fff" stroke-miterlimit="10" stroke-width=".078895" /><ns0:path d="m30.597 36.878c-1.9656-1.9649-1.7425-6.5302 1.7818-6.2111 3.0927.41023 2.7259 4.2292 1.3232 6.1645 2.98 3.6514 9.2481 2.9565 10.876 7.8811-8.2582.23812-16.538.23218-24.796.000192 1.718-4.8514 7.8139-4.2592 10.815-7.8347z" /><ns0:path d="m30.127 47.223c1.2872-.000096 2.5745-.000096 3.8621-.000144-.93527 4.8565 3.4829 8.4918 3.1551 13.271-.03762 1.1966-.76587 2.1847-1.3223 3.1901.21274 1.3515.4287 2.7025.64182 4.0548 3.5403.24337 8.0231.22968 9.9339 3.8454-9.5955.14226-19.204.19417-28.798-.02751 2.0744-3.5587 6.5785-3.5727 10.188-3.8163.22438-1.3738.45138-2.7465.68305-4.118-.82115-1.1269-1.8191-2.2888-1.7133-3.7862-.07303-4.5685 4.3694-7.9001 3.3692-12.613z" stroke="#fff" stroke-miterlimit="10" stroke-width=".078895" /><ns0:path d="m30.127 47.223c1.2872-.000096 2.5745-.000096 3.8621-.000144-.93527 4.8565 3.4829 8.4918 3.1551 13.271-.03762 1.1966-.76587 2.1847-1.3223 3.1901.21274 1.3515.4287 2.7025.64182 4.0548 3.5403.24337 8.0231.22968 9.9339 3.8454-9.5955.14226-19.204.19417-28.798-.02751 2.0744-3.5587 6.5785-3.5727 10.188-3.8163.22438-1.3738.45138-2.7465.68305-4.118-.82115-1.1269-1.8191-2.2888-1.7133-3.7862-.07303-4.5685 4.3694-7.9001 3.3692-12.613z" /></ns0:g></ns0:g></g><g id="white-knight"><ns0:g transform="translate(0 -16)"><ns0:path d="m21.47 30.004c.33635-2.2724.95623-4.4888 1.8695-6.5971 1.4761 1.7931 2.9474 3.5927 4.5497 5.2769 8.0058-.2836 15.867 3.5829 20.509 10.104 7.1747 10.015 10.034 23.333 6.7065 35.29-11.087.0049-22.174-.0147-33.261.01041-2.2832-2.1192-3.1149-5.7906-.92138-8.2841 3.3938-3.5635 7.8916-6.1562 10.263-10.634-2.5802.27809-5.1748.46872-7.7675.26572-1.5919 2.5429-3.5833 5.9192-7.0467 5.6746-2.319-.29155-4.8802.44423-6.951-.94922-2.0376-1.2401-2.1613-4.037-1.6585-6.1208 1.2327-4.5659 6.3168-6.8071 7.387-11.454.4039-2.2116 2.08-3.7584 3.6076-5.2584-.47388-3.382-.87095-6.7808-.89423-10.2 1.2116.9469 2.4172 1.9027 3.6077 2.8774z" fill="#fff" stroke="#000" stroke-miterlimit="10" stroke-width=".080441" /><ns0:path d="m21.47 30.004c.33635-2.2724.95623-4.4888 1.8695-6.5971 1.4761 1.7931 2.9474 3.5927 4.5497 5.2769 8.0058-.2836 15.867 3.5829 20.509 10.104 7.1747 10.015 10.034 23.333 6.7065 35.29-11.087.0049-22.174-.0147-33.261.01041-2.2832-2.1192-3.1149-5.7906-.92138-8.2841 3.3938-3.5635 7.8916-6.1562 10.263-10.634-2.5802.27809-5.1748.46872-7.7675.26572-1.5919 2.5429-3.5833 5.9192-7.0467 5.6746-2.319-.29155-4.8802.44423-6.951-.94922-2.0376-1.2401-2.1613-4.037-1.6585-6.1208 1.2327-4.5659 6.3168-6.8071 7.387-11.454.4039-2.2116 2.08-3.7584 3.6076-5.2584-.47388-3.382-.87095-6.7808-.89423-10.2 1.2116.9469 2.4172 1.9027 3.6077 2.8774z" /><ns0:g fill="#fff"><ns0:path d="m23.667 28.35c1.642 1.2598 3.2506 2.5653 4.9705 3.7214 1.3849-.2861 2.769-.5741 4.1556-.86181.33579.65379.6725 1.3077 1.0101 1.9617l2.9662-.71497 1.0562 2.2586c.22139.47343 1.4391-.27762 1.9187-.37017.26327.84831.52759 1.6968.79295 2.5454 1.1276.15359 2.2575.30736 3.3878.46086.19876 1.0894.39914 2.1789.60002 3.2688 1.1681.18479 2.3373.36962 3.5077.55449-.28277 1.1253-.56436 2.2508-.84476 3.3765 1.2849.82271 2.5708 1.6449 3.8581 2.4669-.50156 1.2567-1.0041 2.5129-1.5042 3.7699 1.3469.90529 2.6955 1.809 4.0452 2.7132-.70327 1.2067-1.4076 2.4125-2.1091 3.6198.90668.94775 1.8151 1.8949 2.7253 2.8419-.83066 1.3538-1.6607 2.7077-2.489 4.0627.76904.81971 1.5403 1.64 2.3126 2.4602-.50276 1.8122-1.0041 3.6249-1.5057 5.4378-10.267-.38599-20.543-.23003-30.815-.25581-.21399-1.337-.90476-2.9888.26924-4.0862 3.3462-3.0508 7.2729-5.6402 9.6674-9.5914 1.2644-2.0369 1.7228-4.4171 2.319-6.7036-4.0411 2.8064-8.3489 2.3804-12.874 1.5346 1.3999 3.4366-1.8796 5.521-5.0401 6.2727.01305-.75894.03912-2.2768.05217-3.0358-1.2664.95744-2.4941 1.9641-3.7134 2.9797-2.4984-.91873-3.0912-3.8921-1.8553-6.078 1.6223-2.3478 4.1088-4.0362 5.4131-6.6165.80697-2.0921 1.1613-4.4408 2.7091-6.1679 1.5139-1.7211 2.7075-3.6757 3.8009-5.6823 1.1786.73862 2.3574 1.479 3.5787 2.1483-.72271-2.8597-3.4458-5.107-2.3659-8.2911z" /><ns0:path d="m19.828 31.539c1.638-.77762 2.3648.91734 2.2719 2.2742-1.5231 1.5766-3.2169-.75642-2.2719-2.2742z" stroke="#fff" stroke-miterlimit="10" stroke-width=".080441" /><ns0:path d="m19.828 31.539c1.638-.77762 2.3648.91734 2.2719 2.2742-1.5231 1.5766-3.2169-.75642-2.2719-2.2742z" /></ns0:g><ns0:path d="m22.012 42.511c1.5085-1.3602 3.8953.22823 5.6959.76729-1.9923 1.1152-4.8523 3.0353-6.4487 2.0743-.64661-.38926.061-2.2178.75277-2.8416z" /><ns0:path d="m12.64 53.995c.67796-.6443 2.7067-.15409 1.7308.96545-.90369 1.5408-3.9069.21723-1.7308-.96545z" fill="#fff" stroke="#000" stroke-miterlimit="10" stroke-width=".080441" /><ns0:path d="m12.64 53.995c.67796-.6443 2.7067-.15409 1.7308.96545-.90369 1.5408-3.9069.21723-1.7308-.96545z" /></ns0:g></g><g id="white-bishop"><ns0:g transform="translate(0 -16)"><ns0:g fill="#fff"><ns0:path d="m21.47 74.149c.33635-.000045.95623-.000088 1.8695-.00013 1.4761.000035 2.9474.000071 4.5497.000104 8.0058-.000006 15.867.000071 20.509.000199 7.1747.000197 10.034.000459 6.7066.000695-11.087 0-22.174-.000001-33.261 0-2.2832-.000042-3.1149-.000114-.92138-.000163 3.3938-.00007 7.8916-.000121 10.263-.00021-2.5802.000006-5.1748.00001-7.7675.000006-1.5919.00005-3.5833.000116-7.0468.000111-2.319-.000005-4.8802.000009-6.9511-.000018-2.0376-.000025-2.1613-.00008-1.6585-.000121 1.2327-.00009 6.3168-.000134 7.387-.000225.4039-.000044 2.08-.000074 3.6076-.000104-.47388-.000066-.87095-.000133-.89423-.000201 1.2116.000019 2.4172.000038 3.6077.000057z" stroke="#000" stroke-miterlimit="10" stroke-width=".000357" /><ns0:path d="m21.47 74.149c.33635-.000045.95623-.000088 1.8695-.00013 1.4761.000035 2.9474.000071 4.5497.000104 8.0058-.000006 15.867.000071 20.509.000199 7.1747.000197 10.034.000459 6.7066.000695-11.087 0-22.174-.000001-33.261 0-2.2832-.000042-3.1149-.000114-.92138-.000163 3.3938-.00007 7.8916-.000121 10.263-.00021-2.5802.000006-5.1748.00001-7.7675.000006-1.5919.00005-3.5833.000116-7.0468.000111-2.319-.000005-4.8802.000009-6.9511-.000018-2.0376-.000025-2.1613-.00008-1.6585-.000121 1.2327-.00009 6.3168-.000134 7.387-.000225.4039-.000044 2.08-.000074 3.6076-.000104-.47388-.000066-.87095-.000133-.89423-.000201 1.2116.000019 2.4172.000038 3.6077.000057z" /><ns0:path d="m23.667 74.149c1.642.000025 3.2506.000051 4.9705.000074 1.3849-.000006 2.769-.000012 4.1556-.000017.33579.000013.6725.000026 1.0101.000038l2.9662-.000014 1.0562.000045c.22139.000009 1.4391-.000006 1.9187-.000008.26327.000017.52759.000034.79295.000051 1.1276.000003 2.2575.000006 3.3878.000009.19876.000021.39914.000043.60002.000064 1.1681.000004 2.3373.000007 3.5077.000011-.28277.000022-.56436.000044-.84476.000066 1.2849.000017 2.5708.000033 3.8581.000049-.50156.000025-1.0041.000049-1.5042.000074 1.3469.000018 2.6955.000036 4.0452.000054-.70327.000023-1.4076.000047-2.1091.000071.90668.000018 1.8151.000037 2.7254.000056-.83066.000026-1.6607.000053-2.489.00008.76905.000016 1.5403.000032 2.3126.000048-.50276.000036-1.0041.000071-1.5057.000107-10.267-.000007-20.543-.000004-30.815-.000005-.21399-.000026-.90476-.000059.26924-.00008 3.3462-.00006 7.2729-.000111 9.6674-.000189 1.2644-.00004 1.7228-.000087 2.319-.000132-4.0411.000055-8.349.000047-12.874.00003 1.3999.000068-1.8796.000109-5.0401.000124.01305-.000015.03912-.000045.05217-.00006-1.2664.000019-2.4941.000039-3.7134.000059-2.4984-.000019-3.0912-.000077-1.8553-.00012 1.6223-.000046 4.1088-.00008 5.4131-.00013.80697-.000042 1.1613-.000088 2.7091-.000122 1.5139-.000034 2.7075-.000072 3.8009-.000112 1.1786.000015 2.3574.00003 3.5787.000043-.72271-.000057-3.4458-.000101-2.3659-.000164z" /><ns0:path d="m19.828 74.149c1.638-.000015 2.3648.000018 2.2719.000045-1.5231.000031-3.2169-.000015-2.2719-.000045z" stroke="#fff" stroke-miterlimit="10" stroke-width=".000357" /><ns0:path d="m19.828 74.149c1.638-.000015 2.3648.000018 2.2719.000045-1.5231.000031-3.2169-.000015-2.2719-.000045z" /><ns0:path d="m22.012 74.149c1.5085-.000027 3.8953.000005 5.696.000015-1.9923.000022-4.8523.00006-6.4487.000041-.64661-.000008.061-.000043.75277-.000056z" /><ns0:path d="m12.64 74.15c.67796-.000012 2.7067-.000003 1.7308.000019-.90369.000031-3.9069.000005-1.7308-.000019z" stroke="#000" stroke-miterlimit="10" stroke-width=".000357" /><ns0:path d="m12.64 74.15c.67796-.000012 2.7067-.000003 1.7308.000019-.90369.000031-3.9069.000005-1.7308-.000019z" /><ns0:path d="m25.14 24.7c1.2626-2.2003 4.9292-1.866 5.7644.5416.71111 1.5902-.59043 3.0144-1.1513 4.4153.81636.774 1.635 1.5475 2.4566 2.3201.86668-.89447 1.7292-1.7935 2.589-2.6974-.36162-1.4027-1.5261-2.9532-.61528-4.379 1.0525-2.1176 4.4749-2.2948 5.6415-.18781 1.0777 1.4415-.03335 3.1031-.45152 4.556 2.5584 3.4265 4.9674 7.0931 6.0581 11.279 1.4319 5.2183.53572 10.778-1.2446 15.795-1.301 3.1253-.78478 6.5891-1.3883 9.8596 4.5172-.5682 9.6937-1.5664 13.762 1.0832 2.2522 1.5069 2.0141 4.4384 1.9593 6.8015h-.90937c-6.155-1.792-12.602-1.35-18.921-1.192-3.196-4.126-10.023-4.089-13.233 0-6.304-.151-12.745-.607-18.88 1.192h-1.1293c.1648-2.355-.1034-5.295 2.1424-6.797 4.0669-2.65 9.2429-1.659 13.761-1.088-.369-2.533-.541-5.089-.546-7.648-2.351-4.264-4.439-9.134-3.493-14.103 1.168-5.659 4.844-10.32 8.327-14.762-.382-1.593-1.602-3.417-.498-4.99z" stroke="#000" stroke-miterlimit="10" stroke-width=".08022" /></ns0:g><ns0:path d="m25.14 24.7c1.2626-2.2003 4.9292-1.866 5.7644.5416.71111 1.5902-.59043 3.0144-1.1513 4.4153.81636.774 1.635 1.5475 2.4566 2.3201.86668-.89447 1.7292-1.7935 2.589-2.6974-.36162-1.4027-1.5261-2.9532-.61528-4.379 1.0525-2.1176 4.4749-2.2948 5.6415-.18781 1.0777 1.4415-.03335 3.1031-.45152 4.556 2.5584 3.4265 4.9674 7.0931 6.0581 11.279 1.4319 5.2183.53572 10.778-1.2446 15.795-1.301 3.1253-.78478 6.5891-1.3883 9.8596 4.5172-.5682 9.6937-1.5664 13.762 1.0832 2.2522 1.5069 2.0141 4.4384 1.9593 6.8015h-.90937c-6.155-1.792-12.602-1.35-18.921-1.192-3.196-4.126-10.023-4.089-13.233 0-6.304-.151-12.745-.607-18.88 1.192h-1.1293c.1648-2.355-.1034-5.295 2.1424-6.797 4.0669-2.65 9.2429-1.659 13.761-1.088-.369-2.533-.541-5.089-.546-7.648-2.351-4.264-4.439-9.134-3.493-14.103 1.168-5.659 4.844-10.32 8.327-14.762-.382-1.593-1.602-3.417-.498-4.99z" /><ns0:g fill="#fff"><ns0:path d="m26.607 25.475c.86376-.76949 2.5663-.75514 2.4499.74101.06277 2.25-3.3608 1.2949-2.4499-.74101z" stroke="#fff" stroke-miterlimit="10" stroke-width=".08022" /><ns0:path d="m26.607 25.475c.86376-.76949 2.5663-.75514 2.4499.74101.06277 2.25-3.3608 1.2949-2.4499-.74101z" /><ns0:path d="m35.855 25.679c1.3408-1.9382 2.8918.18601 2.4355 1.7895-1.2701.12936-2.9148-.13203-2.4355-1.7895z" stroke="#fff" stroke-miterlimit="10" stroke-width=".08022" /><ns0:path d="m35.855 25.679c1.3408-1.9382 2.8918.18601 2.4355 1.7895-1.2701.12936-2.9148-.13203-2.4355-1.7895z" /><ns0:path d="m33.31 33.793c1.2783-1.3332 2.5461-2.677 3.8081-4.0273 2.8034 4.0211 5.6583 8.2368 6.5564 13.152.66442 3.3296.20573 6.7488-.64009 9.9997-.80419-7.3529-4.5664-13.947-9.7243-19.125z" stroke="#fff" stroke-miterlimit="10" stroke-width=".08022" /><ns0:path d="m33.31 33.793c1.2783-1.3332 2.5461-2.677 3.8081-4.0273 2.8034 4.0211 5.6583 8.2368 6.5564 13.152.66442 3.3296.20573 6.7488-.64009 9.9997-.80419-7.3529-4.5664-13.947-9.7243-19.125z" /><ns0:path d="m27.731 30.43c5.1664 5.0634 9.9236 10.837 12.496 17.677.98829 2.4485.91676 5.1387.21633 7.6498-5.7685-2.1702-12.291-2.0926-18.09-.07179-2.3812-2.8801-3.9922-6.6757-2.9838-10.446 1.4189-5.5326 4.184-10.853 8.3609-14.809z" stroke="#fff" stroke-miterlimit="10" stroke-width=".08022" /><ns0:path d="m27.731 30.43c5.1664 5.0634 9.9236 10.837 12.496 17.677.98829 2.4485.91676 5.1387.21633 7.6498-5.7685-2.1702-12.291-2.0926-18.09-.07179-2.3812-2.8801-3.9922-6.6757-2.9838-10.446 1.4189-5.5326 4.184-10.853 8.3609-14.809z" /><ns0:path d="m23.037 58.009c4.0201-2.105 8.7878-1.695 13.167-1.4383 1.7255.35842 4.2143.24793 4.9876 2.1911-.34105.43372-1.0231 1.3012-1.3642 1.7349.72805 1.0534 1.1084 2.2695 1.4471 3.4932-6.0746-1.0913-12.328-1.09-18.402-.000025.33055-1.2117.71011-2.4167 1.4333-3.459-.69978-.71413-1.1228-1.5547-1.2691-2.5219z" stroke="#fff" stroke-miterlimit="10" stroke-width=".08022" /><ns0:path d="m23.037 58.009c4.0201-2.105 8.7878-1.695 13.167-1.4383 1.7255.35842 4.2143.24793 4.9876 2.1911-.34105.43372-1.0231 1.3012-1.3642 1.7349.72805 1.0534 1.1084 2.2695 1.4471 3.4932-6.0746-1.0913-12.328-1.09-18.402-.000025.33055-1.2117.71011-2.4167 1.4333-3.459-.69978-.71413-1.1228-1.5547-1.2691-2.5219z" /><ns0:path d="m30.711 59.135c1.2687-.48296 3.1757-.43578 3.5315 1.1734-1.2922.82494-2.9015.80195-4.2489.12795.17935-.32534.53806-.976.71741-1.3013z" stroke="#000" stroke-miterlimit="10" stroke-width=".08022" /></ns0:g><ns0:path d="m30.711 59.135c1.2687-.48296 3.1757-.43578 3.5315 1.1734-1.2922.82494-2.9015.80195-4.2489.12795.17935-.32534.53806-.976.71741-1.3013z" /><ns0:g fill="#fff"><ns0:path d="m23.838 66.124c5.2439-1.7342 11.225-1.7357 16.468.0034-2.2402 2.0483-5.4331 1.6374-8.2253 1.7616-2.7997-.12332-6.0029.29145-8.2429-1.7651z" stroke="#fff" stroke-miterlimit="10" stroke-width=".08022" /><ns0:path d="m23.838 66.124c5.2439-1.7342 11.225-1.7357 16.468.0034-2.2402 2.0483-5.4331 1.6374-8.2253 1.7616-2.7997-.12332-6.0029.29145-8.2429-1.7651z" /><ns0:path d="m6.8781 71.331c.63757-1.976 2.2178-3.4197 4.3268-3.5419 5.5923-.67612 11.268.3004 16.693 1.6521-6.7135 2.3769-14.024 1.5629-21.02 1.8898z" stroke="#fff" stroke-miterlimit="10" stroke-width=".08022" /><ns0:path d="m6.8781 71.331c.63757-1.976 2.2178-3.4197 4.3268-3.5419 5.5923-.67612 11.268.3004 16.693 1.6521-6.7135 2.3769-14.024 1.5629-21.02 1.8898z" /><ns0:path d="m36.255 69.428c5.6552-1.3389 11.597-2.4823 17.397-1.4931 1.8876.19969 2.9556 1.7709 3.6226 3.3956-6.9934-.33637-14.318.50994-21.02-1.9025z" stroke="#fff" stroke-miterlimit="10" stroke-width=".08022" /><ns0:path d="m36.255 69.428c5.6552-1.3389 11.597-2.4823 17.397-1.4931 1.8876.19969 2.9556 1.7709 3.6226 3.3956-6.9934-.33637-14.318.50994-21.02-1.9025z" /></ns0:g></ns0:g></g><g id="white-rook"><ns0:g transform="translate(0 -16)"><ns0:path d="m15.039 26.785c2.1037-.000096 4.2088-.000132 6.3154-.000132-.0019 1.579-.0025 3.1578-.000536 4.7369 2.104-.000217 4.2093-.000252 6.3164-.000289-.0021-1.579-.0025-3.1578-.00056-4.7367 2.9306.000145 5.8622.000205 8.7951.000602-.0019 1.5786-.0023 3.157-.000339 4.7357 2.0667.000084 4.1347.000493 6.2046.000876-.0021-1.5792-.0027-3.1581-.00045-4.7371 2.1035.000071 4.2085.000071 6.3154.000059-.0017 3.1776-.0016 6.355 0 9.5326-1.318 1.4775-2.6341 2.9555-3.9491 4.4336.0057 6.2893-.0045 12.579.005 18.868 2.4814 2.7802 3.5595 5.5629 6.2892 8.0722-.000496 2.1523.000546 4.3049.0014 6.4581-12.887.001-25.773.001-38.66.001-.000876-2.1465-.000876-4.2926.000876-6.4383 3.0973-1.9391 3.6227-5.764 6.3093-8.1079.01258-6.2388.0012-12.477.0061-18.716-1.3187-1.4693-2.635-2.9395-3.9501-4.4099.0034-3.2309.002-6.4616.0023-9.6924z" /><ns0:g fill="#fff"><ns0:path d="m17.408 29.152c.50857.00071 1.5257.0021 2.0343.0028-.0027 1.5781-.0033 3.1561-.0013 4.7344 3.5315.000603 7.0638.00012 10.597.000422-.002-1.5791-.0023-3.1579-.000214-4.7368 1.3994.000132 2.7999.000278 4.2043.00071-.0019 1.5785-.0025 3.1569-.000803 4.7356 3.5976.000651 7.196.000362 10.795.00035-.0022-1.5789-.0023-3.1576.000072-4.7363.39471-.000073 1.1841-.000192 1.5788-.000265-.0012 2.2552-.0012 4.5103-.0022 6.7656-1.3095 1.1649-2.6162 2.3305-3.9216 3.497-7.639-.000145-15.277-.00029-22.916.00006-.79143-.88195-1.5814-1.7641-2.3686-2.6461-.000803-2.5393-.0028-5.0784.0003-7.6175z" /><ns0:path d="m21.354 41.784c7.1043-.000012 14.209-.000096 21.314.000036-.000505 5.5259-.000687 11.052.000102 16.578-7.1053-.000241-14.21-.00006-21.314-.000096-.000562-5.526-.000514-11.052-.000041-16.578z" /><ns0:path d="m20.814 60.719c7.4785.02398 14.957.0077 22.437.0086 2.3204 2.1911 3.3433 4.8043 5.7322 6.9844-.0031 1.3561-.0021 2.7128.0022 4.0702-11.316-.000216-22.632-.000325-33.947.000048-.000949-1.3568-.000616-2.7128.0023-4.0684 2.7668-1.6776 3.345-5.0079 5.7738-6.9949z" /></ns0:g></ns0:g></g><g id="white-queen"><ns0:g transform="translate(0 -16)"><ns0:path d="m19.71 26.503c.24866-3.4324 5.2556-4.5464 7.1382-1.7947 1.2789 1.5255.41908 3.4819-.15872 5.0951 1.6948 3.5135 3.4384 7.0035 5.1652 10.502 1.836-3.5187 3.6648-7.0414 5.5061-10.558-.54324-1.4977-1.4333-3.2007-.42734-4.7261 1.6952-3.0877 7.2104-2.1536 7.4314 1.4894.37308 1.984-1.3155 3.2448-2.6379 4.3472 1.263 5.1919 2.5337 10.382 3.8049 15.572 2.4343-1.8774 4.8835-3.7369 7.2958-5.6455-.01415-1.6127-.33144-3.6773 1.3427-4.6249 2.0957-1.5688 5.4141.32574 5.1241 2.9281.08455 2.0143-1.959 2.772-3.4143 3.5432-1.9494 4.3087-4.0852 8.5452-5.817 12.944-.75449 4.8154-.92972 9.7086-1.5318 14.547-6.4408 4.0134-14.336 4.3081-21.688 3.7489-4.018-.277-8.042-1.323-11.351-3.695-.701-4.864-.992-9.789-1.852-14.625-1.655-4.399-3.6788-8.655-5.5495-12.965-1.4644-.718-3.4227-1.486-3.3794-3.452-.3607-2.806 3.4185-4.686 5.4439-2.724 1.4471 1.0131.96589 2.8703.93461 4.3537 2.3654 1.8836 4.7216 3.7792 7.0843 5.6691 1.3674-5.202 2.7465-10.401 4.1058-15.605-1.3225-1.0896-2.9462-2.366-2.5707-4.3225z" fill="#fff" stroke="#000" stroke-miterlimit="10" stroke-width=".084247" /><ns0:path d="m19.71 26.503c.24866-3.4324 5.2556-4.5464 7.1382-1.7947 1.2789 1.5255.41908 3.4819-.15872 5.0951 1.6948 3.5135 3.4384 7.0035 5.1652 10.502 1.836-3.5187 3.6648-7.0414 5.5061-10.558-.54324-1.4977-1.4333-3.2007-.42734-4.7261 1.6952-3.0877 7.2104-2.1536 7.4314 1.4894.37308 1.984-1.3155 3.2448-2.6379 4.3472 1.263 5.1919 2.5337 10.382 3.8049 15.572 2.4343-1.8774 4.8835-3.7369 7.2958-5.6455-.01415-1.6127-.33144-3.6773 1.3427-4.6249 2.0957-1.5688 5.4141.32574 5.1241 2.9281.08455 2.0143-1.959 2.772-3.4143 3.5432-1.9494 4.3087-4.0852 8.5452-5.817 12.944-.75449 4.8154-.92972 9.7086-1.5318 14.547-6.4408 4.0134-14.336 4.3081-21.688 3.7489-4.018-.277-8.042-1.323-11.351-3.695-.701-4.864-.992-9.789-1.852-14.625-1.655-4.399-3.6788-8.655-5.5495-12.965-1.4644-.718-3.4227-1.486-3.3794-3.452-.3607-2.806 3.4185-4.686 5.4439-2.724 1.4471 1.0131.96589 2.8703.93461 4.3537 2.3654 1.8836 4.7216 3.7792 7.0843 5.6691 1.3674-5.202 2.7465-10.401 4.1058-15.605-1.3225-1.0896-2.9462-2.366-2.5707-4.3225z" /><ns0:g fill="#fff"><ns0:path d="m22.953 25.102c2.6522-1.3034 3.9514 3.4503 1.2084 3.8216-2.4537.76436-3.5047-3.0066-1.2084-3.8216z" stroke="#fff" stroke-miterlimit="10" stroke-width=".084247" /><ns0:path d="m22.953 25.102c2.6522-1.3034 3.9514 3.4503 1.2084 3.8216-2.4537.76436-3.5047-3.0066-1.2084-3.8216z" /><ns0:path d="m39.082 25.307c1.4483-.92978 3.7778.0032 3.3544 1.9306-.02808 1.7736-2.2082 2.0874-3.468 1.3485-.64026-.96826-.81487-2.4254.11355-3.2791z" stroke="#fff" stroke-miterlimit="10" stroke-width=".084247" /><ns0:path d="m39.082 25.307c1.4483-.92978 3.7778.0032 3.3544 1.9306-.02808 1.7736-2.2082 2.0874-3.468 1.3485-.64026-.96826-.81487-2.4254.11355-3.2791z" /><ns0:path d="m19.148 49.707c2.034-6.409 3.0639-13.175 5.8222-19.326 2.4495 4.6127 4.5719 9.3891 6.8836 14.072 2.3344-4.6514 4.5284-9.3744 6.9684-13.973 1.0434 1.0938 1.508 2.5263 1.8568 3.9601 1.2761 5.0966 2.6013 10.181 3.9159 15.268 3.1074-2.4386 6.2113-4.8825 9.322-7.3191-1.8257 3.9028-3.6906 7.7866-5.5083 11.693-10.504-4.3175-22.581-4.1407-33.107.0064-1.8761-4.1108-3.7871-8.205-5.67-12.312 3.1764 2.6376 6.3433 5.2875 9.5165 7.9311z" stroke="#fff" stroke-miterlimit="10" stroke-width=".084247" /><ns0:path d="m19.148 49.707c2.034-6.409 3.0639-13.175 5.8222-19.326 2.4495 4.6127 4.5719 9.3891 6.8836 14.072 2.3344-4.6514 4.5284-9.3744 6.9684-13.973 1.0434 1.0938 1.508 2.5263 1.8568 3.9601 1.2761 5.0966 2.6013 10.181 3.9159 15.268 3.1074-2.4386 6.2113-4.8825 9.322-7.3191-1.8257 3.9028-3.6906 7.7866-5.5083 11.693-10.504-4.3175-22.581-4.1407-33.107.0064-1.8761-4.1108-3.7871-8.205-5.67-12.312 3.1764 2.6376 6.3433 5.2875 9.5165 7.9311z" /><ns0:path d="m6.6943 37.614c1.9704-1.0057 3.3533.60185 2.5983 2.4778-1.8219 1.3282-3.8137-.63392-2.5983-2.4778z" stroke="#fff" stroke-miterlimit="10" stroke-width=".084247" /><ns0:path d="m6.6943 37.614c1.9704-1.0057 3.3533.60185 2.5983 2.4778-1.8219 1.3282-3.8137-.63392-2.5983-2.4778z" /><ns0:path d="m54.458 40.599c.0427-1.1914-.24209-3.5117 1.719-3.0215 1.1369-.35164 1.4518 1.221 1.2967 2.0012-.12324 1.454-2.1187.73391-3.0157 1.0203z" stroke="#fff" stroke-miterlimit="10" stroke-width=".084247" /><ns0:path d="m54.458 40.599c.0427-1.1914-.24209-3.5117 1.719-3.0215 1.1369-.35164 1.4518 1.221 1.2967 2.0012-.12324 1.454-2.1187.73391-3.0157 1.0203z" /><ns0:path d="m16.211 56.134c9.8023-4.3584 21.513-4.3755 31.312.0013-.10051 1.3227-.19811 2.6456-.29155 3.9693-1.1432.0018-2.2824.0045-3.4177.0079.98103 1.1107 1.9699 2.2212 2.9551 3.3339.01147.71301.0344 2.139.04588 2.852-3.072-1.4953-6.4202-2.3412-9.8224-2.5812-6.7354-.53158-13.886-.58839-20.049 2.5768.007-.71008.02096-2.1302.02794-2.8403.9834-1.1153 1.9687-2.228 2.9586-3.3413-1.1558-.0034-2.3081-.0059-3.4567-.0076-.09095-1.3242-.17916-2.6477-.2631-3.9709z" stroke="#fff" stroke-miterlimit="10" stroke-width=".084247" /><ns0:path d="m16.211 56.134c9.8023-4.3584 21.513-4.3755 31.312.0013-.10051 1.3227-.19811 2.6456-.29155 3.9693-1.1432.0018-2.2824.0045-3.4177.0079.98103 1.1107 1.9699 2.2212 2.9551 3.3339.01147.71301.0344 2.139.04588 2.852-3.072-1.4953-6.4202-2.3412-9.8224-2.5812-6.7354-.53158-13.886-.58839-20.049 2.5768.007-.71008.02096-2.1302.02794-2.8403.9834-1.1153 1.9687-2.228 2.9586-3.3413-1.1558-.0034-2.3081-.0059-3.4567-.0076-.09095-1.3242-.17916-2.6477-.2631-3.9709z" /><ns0:path d="m29.65 57.316c1.8293-.48261 3.8113-.33065 5.5688.37176.46497 2.173-1.919 2.0217-3.3887 2.1015-1.4582-.076-3.7818.03886-3.3307-2.0921.28764-.0953.86294-.2859 1.1506-.38119z" stroke="#000" stroke-miterlimit="10" stroke-width=".084247" /></ns0:g><ns0:path d="m29.65 57.316c1.8293-.48261 3.8113-.33065 5.5688.37176.46497 2.173-1.919 2.0217-3.3887 2.1015-1.4582-.076-3.7818.03886-3.3307-2.0921.28764-.0953.86294-.2859 1.1506-.38119z" /><ns0:path d="m23.877 65.921c5.7426-.85198 11.621-.79194 17.337.24556 1.6475.33997 3.4145.70546 4.7027 1.8774.77554 1.7592-1.4648 2.3165-2.6957 2.7614-7.4254 1.7365-15.294 1.7218-22.724.02505-1.2824-.46145-3.6233-1.0025-2.7628-2.8348 1.7166-1.4202 4.0206-1.7038 6.1423-2.0746z" fill="#fff" stroke="#fff" stroke-miterlimit="10" stroke-width=".084247" /><ns0:path d="m23.877 65.921c5.7426-.85198 11.621-.79194 17.337.24556 1.6475.33997 3.4145.70546 4.7027 1.8774.77554 1.7592-1.4648 2.3165-2.6957 2.7614-7.4254 1.7365-15.294 1.7218-22.724.02505-1.2824-.46145-3.6233-1.0025-2.7628-2.8348 1.7166-1.4202 4.0206-1.7038 6.1423-2.0746z" fill="#fff" /></ns0:g></g><g id="white-king"><ns0:g transform="translate(0 -16)"><ns0:path d="m24.285 23.139c5.1796-.000861 10.36-.000971 15.542.000063-.0055 3.8628.02408 7.7257-.029 11.588 2.9082-1.8118 6.1597-3.4734 9.7-3.1844 4.4711.06836 9.0945 3.4455 9.3648 8.134.52637 6.8165-3.9305 12.857-8.9862 16.943-.30577 4.2518-.34072 8.528-.81186 12.765-1.0019 2.1883-3.5953 3.0832-5.7541 3.7238-5.6481 1.2659-11.503 1.0289-17.246.7891-3.8078-.3509-8.2373-.84261-10.826-4.0086-.86569-4.344-.599-8.8864-1.0177-13.307-4.9776-3.8285-8.9826-9.6341-9.1252-16.076-.06163-4.996 4.7065-8.9089 9.4904-8.9667 3.5456-.27224 6.8083 1.3749 9.7298 3.1896-.06024-3.8628-.02815-7.7259-.03119-11.589z" fill="#fff" stroke="#000" stroke-miterlimit="10" stroke-width=".082757" /><ns0:path d="m24.293 23.147c.0031 3.863-.03743 7.7259.02281 11.589-2.9215-1.8147-6.1954-3.466-9.7409-3.1938-4.7839.05776-9.5516 3.9693-9.49 8.9653.14264 6.4422 4.1474 12.254 9.125 16.083.41871 4.4208.16087 8.9557 1.0266 13.3 2.5886 3.166 7.0281 3.6641 10.836 4.015 5.7422.23978 11.598.46745 17.246-.79844 2.1588-.64064 4.7468-1.5302 5.7488-3.7184.47114-4.2366.49266-8.5232.79844-12.775 5.0557-4.086 9.5145-10.11 8.9881-16.927-.27032-4.6884-4.882-8.0757-9.3531-8.1441-3.5403-.28901-6.7871 1.3819-9.6953 3.1938.05308-3.8627.0173-7.7259.02281-11.589-5.1818-.001-10.356-.000861-15.535 0zm3.125 15.216c3.0874.01927 6.1705.02086 9.2619 0-1.8437 2.4593-3.3596 5.1452-4.6309 7.9388-1.2715-2.7961-2.7909-5.478-4.6309-7.9388z" /><ns0:g fill="#fff"><ns0:path d="m27.474 25.461c3.0522-.0027 6.1065-.0031 9.1632.000517-1.5285 1.4538-3.0564 2.903-4.5837 4.3533-1.5286-1.4506-3.0581-2.9004-4.5795-4.3538z" stroke="#fff" stroke-miterlimit="10" stroke-width=".082757" /><ns0:path d="m27.474 25.461c3.0522-.0027 6.1065-.0031 9.1632.000517-1.5285 1.4538-3.0564 2.903-4.5837 4.3533-1.5286-1.4506-3.0581-2.9004-4.5795-4.3538z" /><ns0:path d="m26.392 26.626c1.4501 1.4677 2.9003 2.9357 4.3533 4.4047-1.4523 1.4783-2.904 2.9552-4.3533 4.4329-.0014-2.946-.0028-5.8918-.000016-8.8376z" stroke="#fff" stroke-miterlimit="10" stroke-width=".082757" /><ns0:path d="m26.392 26.626c1.4501 1.4677 2.9003 2.9357 4.3533 4.4047-1.4523 1.4783-2.904 2.9552-4.3533 4.4329-.0014-2.946-.0028-5.8918-.000016-8.8376z" /><ns0:path d="m33.362 31.029c1.4498-1.4696 2.9028-2.9386 4.3571-4.4078-.0018 2.9485-.0023 5.8969.000142 8.8456-1.4545-1.4793-2.9076-2.9578-4.3573-4.4378z" stroke="#fff" stroke-miterlimit="10" stroke-width=".082757" /><ns0:path d="m33.362 31.029c1.4498-1.4696 2.9028-2.9386 4.3571-4.4078-.0018 2.9485-.0023 5.8969.000142 8.8456-1.4545-1.4793-2.9076-2.9578-4.3573-4.4378z" /><ns0:path d="m27.594 36.507c1.4807-1.4493 2.9703-2.894 4.4599-4.3385 1.4876 1.4455 2.9749 2.8905 4.4647 4.3388-2.9773.0037-5.9519.0039-8.9246-.000353z" stroke="#fff" stroke-miterlimit="10" stroke-width=".082757" /><ns0:path d="m27.594 36.507c1.4807-1.4493 2.9703-2.894 4.4599-4.3385 1.4876 1.4455 2.9749 2.8905 4.4647 4.3388-2.9773.0037-5.9519.0039-8.9246-.000353z" /><ns0:path d="m7.4521 42.223c-.58155-3.3515 1.6213-6.9409 4.8867-7.9052 3.9594-1.1608 8.3536.21112 11.311 2.9948 3.9347 3.6028 6.0397 8.6627 7.6413 13.642-5.5333.21715-11.254.71616-16.185 3.4666-3.624-3.211-7.0569-7.208-7.6539-12.198z" stroke="#fff" stroke-miterlimit="10" stroke-width=".082757" /><ns0:path d="m7.4521 42.223c-.58155-3.3515 1.6213-6.9409 4.8867-7.9052 3.9594-1.1608 8.3536.21112 11.311 2.9948 3.9347 3.6028 6.0397 8.6627 7.6413 13.642-5.5333.21715-11.254.71616-16.185 3.4666-3.624-3.211-7.0569-7.208-7.6539-12.198z" /><ns0:path d="m40.47 37.301c2.9145-2.7358 7.2117-4.104 11.128-3.028 3.3261.90883 5.5986 4.514 5.0688 7.9108-.50763 5.0297-4.0036 9.0286-7.6449 12.231-4.975-2.6499-10.672-3.2206-16.208-3.4628 1.6033-4.9825 3.7085-10.051 7.6556-13.651z" stroke="#fff" stroke-miterlimit="10" stroke-width=".082757" /><ns0:path d="m40.47 37.301c2.9145-2.7358 7.2117-4.104 11.128-3.028 3.3261.90883 5.5986 4.514 5.0688 7.9108-.50763 5.0297-4.0036 9.0286-7.6449 12.231-4.975-2.6499-10.672-3.2206-16.208-3.4628 1.6033-4.9825 3.7085-10.051 7.6556-13.651z" /><ns0:path d="m16.571 56.377c9.7272-4.2006 21.236-4.2002 30.965-.0019-.08919 1.2914-.17492 2.583-.25598 3.8753-1.1327.0016-2.2609.0039-3.3845.007.93623 1.0941 1.8824 2.1878 2.823 3.2846.02664.67206.07994 2.0162.10659 2.6883-4.4147-2.7079-9.7326-2.9229-14.763-2.9574-5.037.03339-10.356.24783-14.775 2.9524.02652-.67147.07956-2.0144.1061-2.6858.93641-1.0959 1.8756-2.1886 2.8196-3.2822-1.1318-.003-2.2593-.0054-3.3826-.007-.09077-1.2916-.17803-2.5825-.2596-3.8731z" stroke="#fff" stroke-miterlimit="10" stroke-width=".082757" /><ns0:path d="m16.571 56.377c9.7272-4.2006 21.236-4.2002 30.965-.0019-.08919 1.2914-.17492 2.583-.25598 3.8753-1.1327.0016-2.2609.0039-3.3845.007.93623 1.0941 1.8824 2.1878 2.823 3.2846.02664.67206.07994 2.0162.10659 2.6883-4.4147-2.7079-9.7326-2.9229-14.763-2.9574-5.037.03339-10.356.24783-14.775 2.9524.02652-.67147.07956-2.0144.1061-2.6858.93641-1.0959 1.8756-2.1886 2.8196-3.2822-1.1318-.003-2.2593-.0054-3.3826-.007-.09077-1.2916-.17803-2.5825-.2596-3.8731z" /><ns0:path d="m29.765 57.275c1.983-.40463 5.0175-.86837 6.0462 1.4007-1.7568 1.8099-4.6808 1.4816-6.8567.72772-.73301-1.1674-.46287-1.8768.81045-2.1284z" stroke="#000" stroke-miterlimit="10" stroke-width=".082757" /></ns0:g><ns0:path d="m29.765 57.275c1.983-.40463 5.0175-.86837 6.0462 1.4007-1.7568 1.8099-4.6808 1.4816-6.8567.72772-.73301-1.1674-.46287-1.8768.81045-2.1284z" /><ns0:path d="m24.211 65.997c6.3272-.85725 12.843-.78925 19.077.67314 1.2888.42308 3.246.92344 2.8236 2.7011-1.8693 1.4859-4.3098 1.8166-6.5938 2.1559-5.5588.78514-11.232.67766-16.759-.28798-1.6853-.30708-3.4013-.77276-4.7604-1.8596-.09306-2.9862 4.0926-2.8062 6.2122-3.3826z" fill="#fff" stroke="#fff" stroke-miterlimit="10" stroke-width=".082757" /><ns0:path d="m24.211 65.997c6.3272-.85725 12.843-.78925 19.077.67314 1.2888.42308 3.246.92344 2.8236 2.7011-1.8693 1.4859-4.3098 1.8166-6.5938 2.1559-5.5588.78514-11.232.67766-16.759-.28798-1.6853-.30708-3.4013-.77276-4.7604-1.8596-.09306-2.9862 4.0926-2.8062 6.2122-3.3826z" fill="#fff" /></ns0:g></g><g id="black-pawn"><ns0:path d="m49.246 74.14h-34.543c-.09595-3.013 1.0747-5.2007 3.5119-6.5632 1.8999-1.0555 4.4714-1.5736 7.7147-1.5544l.17272-2.4468c-1.1898-.65248-1.7848-1.9479-1.7847-3.8861-.000015-2.4372 1.0363-5.5653 3.1089-9.3843v-3.771h-10.392c-.15353-1.1322.14393-2.418.89237-3.8573 1.8931-4.1115 6.8385-4.1826 9.8736-6.736-.40305-.61408-.65251-1.0267-.74844-1.2378-.24948-.51812-.38381-.9691-.403-1.353-.0384-1.4201.47972-2.6195 1.5545-3.5983 1.0747-.99788 2.3316-1.4968 3.771-1.4969 1.4201.000037 2.6675.499 3.7422 1.4969 1.0938.97876 1.6216 2.1782 1.5832 3.5983-.0384 1.2858-.42225 2.1494-1.1514 2.5908.19186.78685 1.3721 1.4681 3.5407 2.0438 4.8744 1.305 7.3116 3.8574 7.3117 7.6571-.00004.38381-.0288.6813-.0864.89237h-10.392v3.771c2.0918 3.819 3.1376 6.9471 3.1377 9.3843-.00003 1.9383-.60454 3.2336-1.8135 3.8861l.17272 2.4468c4.4138-.0384 7.5707.93074 9.4706 2.9074 1.209 1.2666 1.8135 2.773 1.8135 4.5194-.00004.28786-.0192.51814-.0576.69087" transform="translate(0 -16)" /><ns0:path d="m14.969492 56.893923c0-.56988.318705-1.671057.712154-2.460608 1.223438-2.455118 3.850436-3.771916 8.440388-4.230788l1.966102-.196555v-1.295206c0-.874449-.145791-1.416111-.448788-1.667392-1.784648-1.480044-1.497205-5.44678.742042-10.240235.933867-1.999088 1.062678-2.516812 1.062678-4.271186v-1.99636h-5.152543-5.152542l.000214-.881356c.000325-1.290407 1.385287-4.002857 2.579017-5.050966.570315-.500743 2.446905-1.572948 4.1702-2.382677 1.723296-.809729 3.34176-1.660921 3.596588-1.891537.436211-.394766.43276-.469426-.05898-1.275874-.68696-1.126612-.683084-3.033558.0085-4.167753 1.1713-1.921011 3.972021-2.954157 6.10237-2.251078 2.792413.921579 4.48155 4.145226 3.269773 6.240224-.774535 1.339065-.783557 1.433523-.183333 1.919555.325444.263529 1.732281.859123 3.126304 1.323542 3.056489 1.01827 4.755632 2.049613 5.83769 3.54335.810007 1.118181 1.559767 3.749472 1.277771 4.484342-.123024.320598-1.070652.390228-5.310798.390228h-5.161053v1.905075c0 1.624821.135022 2.173364.917831 3.728814 2.018673 4.01112 2.740035 8.341121 1.664751 9.992725-.279361.429091-.677933.906626-.885714 1.061186-.250806.186565-.348805.687891-.291564 1.491525l.08622 1.210506 2.461337.325152c3.425982.452586 5.361288 1.23436 6.923826 2.796895 1.274159 1.274159 1.864415 2.580166 1.867561 4.13219l.0015.745763h-17.084746-17.084745v-1.031501z" fill="#333" stroke="#000" stroke-width=".987802" /></g><g id="black-knight"><ns0:g transform="translate(0 -16)"><ns0:path d="m11.698 60.852c.92476.92951 3.2346.9524 4.38.12548.90758-1.1176 2.2293-1.6941 2.5839-3.1742.61739-1.9518-1.9179-3.0837-3.222-1.7012-1.4901 1.4104-4.7594 3.8523-3.7418 4.7499z" fill="#fff" stroke="#201917" stroke-width="1.422" /><ns0:path d="m22.245 29.071c.20597-1.9788.3349-3.9646.43123-5.9517 1.9883 3.0016 4.5019 6.2066 8.3762 6.5823 7.7791 1.1731 15.125 5.6456 19.173 12.475 5.8028 9.5313 6.2665 21.372 3.4977 31.968-10.304-.0066-20.607.01636-30.909-.002-1.2234-.03411-3.4531.06056-3.1456-1.8212.74965-3.9733 3.8055-7.1684 7.2969-9.0242 4.4241-2.6506 5.6409-8.114 5.7011-12.912-2.4746 2.2916-6.6059 4.9362-10.314 4.8586-2.1527 3.4628-2.7729 5.6352-7.3428 6.8119-.61116-.67946.0714-1.5008.93898-3.9147-1.0144 1.0616-2.4963 2.4652-4.6153 3.334-2.1847-1.921-3.3993-4.6283-2.2626-7.8439.93823-1.4112.56631-1.7158 1.8382-2.9077 1.6509-1.547 4.0042-5.2911 4.4821-8.1005.46283-3.1574 2.1843-5.8864 4.0421-8.4033-1.2045-2.7992-1.7214-5.8187-1.6461-8.8587 1.4899 1.2297 2.9285 2.5224 4.4579 3.7095z" /><ns0:g fill="#fff"><ns0:path d="m24.355 28.426c.787 1.0721 2.0117 2.1759 3.1393 2.9155.0499.98886.58942 2.762-1.0227 2.6898-2.9763.29354-2.5169-3.8142-2.1166-5.6053z" /><ns0:path d="m32.042 32.324c6.3341-.02973 13.117 6.5315 15.01 9.1944 6.5723 7.9067 6.7916 19.162 5.3087 29.095.32949 1.813-1.6467 1.5827-2.7979 1.9718.11418-8.1758.85073-16.72-2.6863-24.377-3.051-6.365-8.6691-11.317-15.142-14.026.077-.4646.23085-1.3938.3078-1.8584z" /><ns0:path d="m10.878 55.372c.6317-1.0029 1.9787-.98986 2.9778-1.3707-.64846 1.3215-.9535 3.1954-2.5168 3.7202-.45216-.64066-1.0763-1.6031-.46106-2.3495z" /><ns0:path d="m20.434 42.99c1.8061-1.3623 3.5718-.5152 5.5015.06248-2.135 1.1951-4.6929 3.3449-6.4036 2.315-.69292-.41714-.11045-1.6138.90214-2.3775z" /></ns0:g></ns0:g><ns0:path d="m20.588524 57.669031c-.860485-.373535-.906548-.459583-.752891-1.40646.261812-1.613356 1.729975-4.2985 3.14415-5.750381.718506-.73766 2.175191-1.903238 3.23708-2.59017 1.061889-.686934 2.375183-1.700914 2.918432-2.253291 1.94099-1.973605 3.584836-6.657317 3.614566-10.298763l.0095-1.158849-1.381781 1.092235c-2.6789 2.117548-6.404678 3.801733-8.410249 3.801733-.622127 0-.890892.256192-1.635844 1.559322-1.206897 2.1112-2.795761 3.779642-4.348834 4.566644-2.219427 1.124667-2.534792.849047-1.579224-1.380204.756042-1.763774.680454-1.997632-.338983-1.048748-1.174416 1.093136-3.22288 2.54234-3.578848 2.531889-.371301-.0109-1.9296898-2.085093-2.3016776-3.063496-.505137-1.32861-.3440746-3.713651.3516816-5.207764.3494421-.750416.812158-1.543636 1.028257-1.762712 2.483923-2.518145 4.205137-5.612834 5.075638-9.125841.585047-2.361024 1.411672-4.189924 2.921635-6.464094l.931772-1.403349-.657317-2.27879c-.656186-2.274871-1.206142-6.2109928-.867802-6.2109928.0983 0 1.048582.7322038 2.111742 1.6271188 1.063159.894915 2.022626 1.627118 2.132149 1.627118s.287595-1.247772.395716-2.772827c.189089-2.667116.213038-2.7472414.628169-2.1016951.806057 1.2534547 3.417491 3.8432811 4.537226 4.4996861.613317.359535 2.321792.908199 3.796611 1.219255 5.033977 1.061719 8.589101 2.622932 12.243688 5.376746 3.435645 2.588837 5.769933 5.545315 7.789779 9.866099 2.635943 5.638711 3.471007 9.538759 3.494286 16.319516.0163 4.745866-.198652 6.883401-1.083973 10.779661l-.415935 1.830509-16.046058-.0106c-13.489482-.008926-16.192136-.074013-16.962661-.408495zm31.153849-1.583268c.621483-.283309.704065-.53472.991235-3.017749.472084-4.081907.444128-11.806889-.0531-14.673169-1.070066-6.168373-3.131438-10.465529-7.051441-14.699495-3.886335-4.197601-9.315778-7.363329-12.637337-7.368414-.651729-.001-1.043953.144468-1.152543.427447-.426633 1.111788-.167444 1.440413 2.043132 2.590481 6.530284 3.397427 11.6101 9.028172 13.809875 15.307621 1.327984 3.790842 1.646872 6.344231 1.80035 14.415678l.145616 7.65799.713125-.165668c.39222-.09112 1.018211-.304743 1.391092-.474722zm-39.495557-14.878983c.368654-.335594.92368-1.203238 1.233391-1.928098l.56311-1.317928-1.014879.179477c-1.191274.210671-2.3327.963959-2.462623 1.625214-.108579.552624.466829 2.051504.787556 2.051504.12274 0 .52479-.274576.893445-.610169zm11.292167-12.596773c2.704142-1.444056 2.77749-1.587278 1.07223-2.093686-.793022-.235502-1.755302-.427729-2.1384-.427172-.757349.0011-2.384219.888311-2.92041 1.592636-.548019.719863-.422856 1.650518.257766 1.91664.841984.329214 1.674816.108451 3.728814-.988418zm3.742373-10.711702c.178983-.178983.325424-.807521.325424-1.396751 0-.960243-.170171-1.230762-1.641183-2.608974-.902651-.845707-1.683107-1.468016-1.734348-1.382911-.119658.198739-.233512 2.33089-.186312 3.489098.06712 1.647024 2.223373 2.912584 3.236419 1.899538z" fill="#333" stroke="#000" stroke-width=".987802" /></g><g id="black-bishop"><ns0:g transform="translate(0 -16)"><ns0:path d="m25.487 24.483c1.2367-2.1063 4.7206-1.6612 5.4991.6098.86725 1.566-.68557 2.8181-1.4023 4.0429.86334.74804 1.7253 1.498 2.5921 2.2466.8628-.86353 1.7255-1.7289 2.5791-2.6047-1.2344-2.0411-1.0582-5.2311 1.7944-5.629 3.3937-.62093 4.4112 3.6427 2.7746 5.9255 3.042 3.825 5.8144 8.0724 6.7563 12.947 1.0639 5.5837-.35292 11.343-2.7639 16.393.07956 2.5038-.1187 5.0045-.51697 7.4768 4.2681-1.6795 9.5183-2.4813 13.577.13848 2.6417 1.7789 2.5061 5.2613 2.1981 8.0579-6.165-3.306-13.412-2.869-20.092-1.766-3.321-3.589-9.672-3.523-13.012.013-6.688-1.181-13.888-1.456-20.112 1.697-.1954-2.831-.3481-6.362 2.3973-8.091 4.0697-2.497 9.2537-1.736 13.477-.017-.434-2.506-.621-5.046-.535-7.587-2.468-4.365-4.631-9.441-3.474-14.547 1.355-5.53 4.967-10.116 8.48-14.457-.428-1.551-1.319-3.365-.216-4.849z" fill="#fff" stroke="#000" stroke-miterlimit="10" stroke-width=".089633" /><ns0:path d="m25.487 24.483c1.2367-2.1063 4.7206-1.6612 5.4991.6098.86725 1.566-.68557 2.8181-1.4023 4.0429.86334.74804 1.7253 1.498 2.5921 2.2466.8628-.86353 1.7255-1.7289 2.5791-2.6047-1.2344-2.0411-1.0582-5.2311 1.7944-5.629 3.3937-.62093 4.4112 3.6427 2.7746 5.9255 3.042 3.825 5.8144 8.0724 6.7563 12.947 1.0639 5.5837-.35292 11.343-2.7639 16.393.07956 2.5038-.1187 5.0045-.51697 7.4768 4.2681-1.6795 9.5183-2.4813 13.577.13848 2.6417 1.7789 2.5061 5.2613 2.1981 8.0579-6.165-3.306-13.412-2.869-20.092-1.766-3.321-3.589-9.672-3.523-13.012.013-6.688-1.181-13.888-1.456-20.112 1.697-.1954-2.831-.3481-6.362 2.3973-8.091 4.0698-2.4979 9.2538-1.7365 13.477-.01729-.43376-2.5059-.62114-5.0459-.53493-7.587-2.468-4.3654-4.6309-9.4411-3.4734-14.547 1.3544-5.5309 4.966-10.116 8.4799-14.457-.42876-1.551-1.3192-3.3658-.21612-4.8491z" /><ns0:g fill="#fff"><ns0:path d="m32.234 33.193c2.9282-1.5981 5.4117 1.4174 6.7809 3.6532 2.7934 4.5069 5.2038 10.428 2.9606 15.615-2.747-1.974-2.722-5.748-3.854-8.663-.922-4.074-4.532-6.754-5.888-10.605z" stroke="#fff" stroke-miterlimit="10" stroke-width=".089633" /><ns0:path d="m32.234 33.193c2.9282-1.5981 5.4117 1.4174 6.7809 3.6532 2.7934 4.5069 5.2038 10.428 2.9606 15.615-2.747-1.974-2.722-5.748-3.854-8.663-.922-4.074-4.532-6.754-5.888-10.605z" /><ns0:path d="m22.226 56.17c.16947-2.6819 3.2536-2.9726 5.2984-3.3901 3.9761-.46606 8.1554-.60147 12.002.67789.92437.43111 3.3546 1.544 1.6487 2.7324-6.3006-.94867-12.645-.91333-18.949-.02028z" stroke="#fff" stroke-miterlimit="10" stroke-width=".089633" /><ns0:path d="m22.226 56.17c.16947-2.6819 3.2536-2.9726 5.2984-3.3901 3.9761-.46606 8.1554-.60147 12.002.67789.92437.43111 3.3546 1.544 1.6487 2.7324-6.3006-.94867-12.645-.91333-18.949-.02028z" /><ns0:path d="m29.159 57.599c2.0173-.47683 4.1414-.60691 6.0246.44535-1.874.9327-4.6318 1.6278-6.0246-.44535z" stroke="#fff" stroke-miterlimit="10" stroke-width=".089633" /><ns0:path d="m29.159 57.599c2.0173-.47683 4.1414-.60691 6.0246.44535-1.874.9327-4.6318 1.6278-6.0246-.44535z" /><ns0:path d="m23.062 65.119c-.27242-3.0548 3.1646-3.4455 5.3954-4.0282 4.0798-.60768 8.9055-.65532 12.218 2.1614.0053.5192.01591 1.5576.0212 2.0768-5.8077-1.4857-11.775-.96572-17.634-.21006z" stroke="#fff" stroke-miterlimit="10" stroke-width=".089633" /><ns0:path d="m23.062 65.119c-.27242-3.0548 3.1646-3.4455 5.3954-4.0282 4.0798-.60768 8.9055-.65532 12.218 2.1614.0053.5192.01591 1.5576.0212 2.0768-5.8077-1.4857-11.775-.96572-17.634-.21006z" /></ns0:g></ns0:g><ns0:path d="m5.4839219 55.552542c.00978-3.45009 1.3430733-5.42349 4.3760757-6.476992 2.2087684-.767206 6.4942944-.657126 9.2316584.237128l2.088266.682205-.146062-3.695745-.146063-3.695748-1.316593-2.711865c-1.775224-3.656534-2.433134-6.152866-2.428593-9.214888.0063-4.242733 1.710187-8.089192 6.285119-14.188351 1.309037-1.745168 2.326627-3.356083 2.261312-3.579811-.694928-2.380399-.732108-2.9387782-.261689-3.9301122 1.175299-2.4767595 4.502449-2.2066241 5.507741.4471803.27449.7246079.0523 1.3848559-1.063457 3.1601539-.373531.59433-.331239.680628.826668 1.686823.671187.583246 1.347473 1.064089 1.502858 1.06854.155388.0045.811534-.530932 1.458105-1.18974 1.119319-1.140503 1.16096-1.239784.870023-2.074365-.449006-1.288014-.367084-3.0098459.175045-3.6791136 1.131317-1.3966346 2.871973-1.5733783 4.160125-.4224135.685814.6127738.878302 1.0285468.983618 2.1245821.08744.910048-.0048 1.625359-.277728 2.153386-.402318.778384-.383821.824388 1.19014 2.960163 1.865622 2.531542 4.076005 6.68448 4.69098 8.81356 1.438861 4.981417.915658 10.904577-1.455395 16.476472-.661809 1.555227-.824263 2.322842-.828648 3.915444-.003 1.089529-.119431 2.769619-.258736 3.733526-.139306.963911-.227236 1.778612-.195398 1.810449.03184.03184.774728-.184114 1.650863-.479897 6.580909-2.2217 12.800022-.575734 13.967021 3.696548.354937 1.299387.397817 4.474576.06043 4.474576-.131395 0-1.031308-.298261-1.999807-.662804-3.421361-1.287796-5.827455-1.598842-10.909437-1.410305-2.538012.09416-5.102704.266937-5.699314.383954-.979835.192182-1.223376.116065-2.518124-.787021-.78836-.549879-2.052775-1.148372-2.809814-1.329982-2.767076-.663811-6.886955.196848-8.3385 1.741947-.553801.589494-.623599.595832-2.941936.267137-5.543504-.785963-11.836229-.331037-15.7385831 1.137806-.9633337.362598-1.7980036.659268-1.8548218.659268-.056818 0-.1006259-.945762-.09735-2.101695zm35.2482811-7.234554c0-1.428082-.560149-1.979686-2.93776-2.892941-3.181556-1.222059-9.817487-.909793-13.001841.611824-1.187075.567235-1.958704 1.626831-1.958704 2.689684 0 .555772.08424.579601 1.421774.402172 5.091596-.675425 12.226899-.630031 15.120599.09619.522034.131013 1.040678.250699 1.152543.265966.111864.01527.203389-.512537.203389-1.172897zm-6.580333-5.667433c1.221215-.443154 1.202744-.797383-.06373-1.222322-1.093687-.366961-4.569504-.312312-4.958835.07797-.106539.106799.148691.488882.567177.849074.603415.51936 1.052406.650628 2.169492.634265.774732-.01134 1.803389-.163889 2.2859-.338983zm-2.368819-2.75903c3.057627 0 6.535593.06102 7.728813.135594 2.11184.131989 2.171873.118785 2.259081-.496941.197286-1.392917-2.032865-2.508507-6.09546-3.049139-3.876836-.515911-9.818437.09837-12.034171 1.244173-.745623.385576-1.620975 1.627477-1.620975 2.299748 0 .206834.632913.231308 2.101695.08126 1.155932-.118083 4.60339-.214699 7.661017-.214699zm10.803707-4.630923c.250405-.733898.324494-1.947391.238815-3.911449-.138058-3.164788-.825337-5.488451-2.566715-8.677967-2.295918-4.205213-4.153589-5.969025-6.279208-5.961949-1.792483.006-2.059245.240103-1.572529 1.380202.216187.506402 1.426834 2.466675 2.690327 4.356164 2.07053 3.096366 2.383686 3.738733 3.172911 6.508474.481606 1.690173 1.074517 3.655259 1.317581 4.366859.494116 1.446592 1.853104 3.259878 2.326907 3.104775.169885-.05561.472245-.57991.671911-1.165109z" fill="#333" stroke="#000" stroke-width=".987802" /></g><g id="black-rook"><ns0:g transform="translate(0 -16)"><ns0:path d="m14.684 26.694c2.2974-.000525 4.5952-.000525 6.8937-.000118-.001 1.7234-.001 3.4467-.00081 5.1703 2.0104.000316 4.0214.00033 6.0333.000013-.001-1.7236-.001-3.447-.00087-5.1705 2.872.000158 5.7444.000144 8.6175.000052-.001 1.7235-.002 3.4468-.00095 5.1705 2.0103.000289 4.0214.000342 6.0335.000145-.001-1.7236-.002-3.447-.001-5.1704 2.2972-.000382 4.5951-.000382 6.894.000092-.001 3.173-.001 6.3458.0002 9.5189-1.4362 1.4817-2.8737 2.9615-4.3093 4.4428.006 6.2726-.0118 12.545.01 18.818 2.6161 2.3534 3.3796 5.9959 6.1495 8.1932.0393 2.1397.0377 4.2801.0393 6.421-12.695-.000291-25.39-.000876-38.085.000223-.00047-2.136.00013-4.2715.0277-6.4065 2.7129-2.4094 3.8005-6.0772 6.864-8.183.0122-6.2799.002-12.56.006-18.839-1.7241-1.4817-3.4486-2.9622-5.1711-4.4446.00059-3.1736-.00005-6.3469.00045-9.5203z" fill="#fff" stroke="#000" stroke-miterlimit="10" stroke-width=".086171" /><ns0:path d="m14.684 26.694c2.2974-.000525 4.5952-.000525 6.8937-.000118-.001 1.7234-.001 3.4467-.00081 5.1703 2.0104.000316 4.0214.00033 6.0333.000013-.001-1.7236-.001-3.447-.00087-5.1705 2.872.000158 5.7444.000144 8.6175.000052-.001 1.7235-.002 3.4468-.00095 5.1705 2.0103.000289 4.0214.000342 6.0335.000145-.001-1.7236-.002-3.447-.001-5.1704 2.2972-.000382 4.5951-.000382 6.894.000092-.001 3.173-.001 6.3458.0002 9.5189-1.4362 1.4817-2.8737 2.9615-4.3093 4.4428.006 6.2726-.0118 12.545.01 18.818 2.6161 2.3534 3.3796 5.9959 6.1495 8.1932.0393 2.1397.0377 4.2801.0393 6.421-12.695-.000291-25.39-.000876-38.085.000223-.00047-2.136.00013-4.2715.0277-6.4065 2.7129-2.4094 3.8005-6.0772 6.864-8.183.0122-6.2799.002-12.56.006-18.839-1.7241-1.4817-3.4486-2.9622-5.1711-4.4446.00059-3.1736-.00005-6.3469.00045-9.5203z" /><ns0:g fill="#fff"><ns0:path d="m21.578 38.757c7.1806-.00004 14.361-.000066 21.542.000012-.00095 1.436-.00095 2.872.00008 4.3085-7.1811.000054-14.362-.000131-21.543.000093-.001-1.4365-.001-2.8726.00008-4.3086z" stroke="#fff" stroke-miterlimit="10" stroke-width=".086171" /><ns0:path d="m21.578 38.757c7.1806-.00004 14.361-.000066 21.542.000012-.00095 1.436-.00095 2.872.00008 4.3085-7.1811.000054-14.362-.000131-21.543.000093-.001-1.4365-.001-2.8726.00008-4.3086z" /><ns0:path d="m21.578 58.577c7.1807-.000342 14.361-.000119 21.543-.000119-.001 1.1484-.001 2.2974.00007 3.4468-7.1812-.000052-14.362 0-21.543-.000025-.00088-1.1494-.0008-2.2983.00018-3.4467z" stroke="#fff" stroke-miterlimit="10" stroke-width=".086171" /><ns0:path d="m21.578 58.577c7.1807-.000342 14.361-.000119 21.543-.000119-.001 1.1484-.001 2.2974.00007 3.4468-7.1812-.000052-14.362 0-21.543-.000025-.00088-1.1494-.0008-2.2983.00018-3.4467z" /></ns0:g></ns0:g><ns0:path d="m13.071186 54.839984c0-2.473833.08445-3.155528.426061-3.439038.234333-.194478 1.424163-1.753486 2.644067-3.464458 1.219905-1.710975 2.553601-3.359238 2.963771-3.662809l.745762-.551949-.0058-9.643915-.0058-9.643917-2.562099-2.169491-2.562098-2.169492-.0083-4.677966-.0083-4.677966h3.389831 3.38983v2.576271 2.576271h3.118644 3.118644v-2.576271-2.576271h4.20339 4.20339v2.576271 2.576271h3.118644 3.118644v-2.576271-2.576271h3.389831 3.38983v4.684328 4.684328l-2.169491 2.156768-2.169492 2.156767v9.659247c0 9.438993.01285 9.670887.564125 10.169773.31027.280789 1.239129 1.611569 2.064133 2.957285.825003 1.345717 1.899615 2.873877 2.388027 3.395911.868762.928569.892054 1.018251 1.074101 4.135593l.186083 3.186441h-19.002641-19.002642v-3.08544zm30.101695-10.473882v-1.898305h-10.847457-10.847458v1.898305 1.898305h10.847458 10.847457zm0-19.389831v-2.305085h-10.847457-10.847458v2.305085 2.305085h10.847458 10.847457z" fill="#333" stroke="#000" stroke-width=".987802" /></g><g id="black-queen"><ns0:g transform="translate(0 -16)"><ns0:path d="m22.322 27.775c-.16354-3.1879 1.1407-3.6123 3.2344-1.1459 1.971 1.8795.22986 2.5492 1.4432 4.7022 1.4676 3.2199 3.0656 6.3788 4.5599 9.5868 1.6187-3.3115 3.3847-6.5507 4.9538-9.8857 1.0778-2.2462.77818-3.5765 3.127-5.1991 2.2728-1.7606.93681-2.7589.78514.13212.25921 2.0698.57618 2.9663.89099 5.1832 1.3273 5.2652 2.5244 10.562 3.7998 15.84 2.4806-1.9125 4.9646-3.8207 7.4294-5.7538.33575-1.5198 1.5449-.06302 3.1215-.97226 2.167-1.6146.17101-2.5317-.3265.11805-.18283 1.8531 1.7682 1.997.38018 2.7379-1.7902 4.2031-3.961 8.2414-5.6251 12.496-.91114 4.8096-1.0257 9.7414-1.6309 14.599-6.444 3.994-14.343 4.274-21.689 3.722-4.016-.274-8.034-1.323-11.363-3.659-.677-4.813-.981-9.684-1.865-14.462-1.603-4.299-3.6957-8.4-5.4232-12.651-1.7311-.706-.8261-2.595-.4272-4.847.26161-3.2197-.11002-2.272.99945.73124.0387.79118 2.3284 1.5439 2.3672 2.3351 2.3043 1.8828 4.6224 3.7486 6.9389 5.6167 2.1495-7.5629 3.3986-13.066 4.32-19.225z" /><ns0:g fill="#fff"><ns0:path d="m20.903 53.561c8.0738-1.6222 16.822-1.8186 24.622 1.1195 1.5432.32639 1.5363 2.0881 2.0683 3.2539-4.7643-.26967-9.4511-1.4039-14.243-1.3361-5.7691-.26774-11.48.62026-17.171 1.4034-1.4384-3.1483 2.5988-3.7638 4.7243-4.4406z" stroke="#fff" stroke-miterlimit="10" stroke-width=".092496" /><ns0:path d="m20.903 53.561c8.0738-1.6222 16.822-1.8186 24.622 1.1195 1.5432.32639 1.5363 2.0881 2.0683 3.2539-4.7643-.26967-9.4511-1.4039-14.243-1.3361-5.7691-.26774-11.48.62026-17.171 1.4034-1.4384-3.1483 2.5988-3.7638 4.7243-4.4406z" /><ns0:path d="m29.14 58.916c1.8988-.77806 4.8749-.93556 5.771 1.3565-.84163 3.2957-8.5952 2.0251-5.771-1.3565z" stroke="#fff" stroke-miterlimit="10" stroke-width=".092496" /><ns0:path d="m29.14 58.916c1.8988-.77806 4.8749-.93556 5.771 1.3565-.84163 3.2957-8.5952 2.0251-5.771-1.3565z" /><ns0:path d="m16.478 62.118c1.4183-.96308 3.0154-.83363 4.5257-.13786-1.3158.55072-4.461 3.0227-4.5257.13786z" stroke="#fff" stroke-miterlimit="10" stroke-width=".092496" /><ns0:path d="m16.478 62.118c1.4183-.96308 3.0154-.83363 4.5257-.13786-1.3158.55072-4.461 3.0227-4.5257.13786z" /><ns0:path d="m42.378 62.011c1.8997-1.193 3.808-.47688 5.1011 1.1971-1.8479.47047-3.5902-.14153-5.1011-1.1971z" stroke="#fff" stroke-miterlimit="10" stroke-width=".092496" /><ns0:path d="m42.378 62.011c1.8997-1.193 3.808-.47688 5.1011 1.1971-1.8479.47047-3.5902-.14153-5.1011-1.1971z" /><ns0:path d="m20.509 65.256c6.2109-1.712 12.828-1.5053 19.169-.70693 2.4315.39009 6.2399 1.1585 5.4226 4.497-8.6934-3.0797-18.402-3.1077-27.086.01963-.41721-1.8735.66888-3.4229 2.4943-3.8097z" stroke="#fff" stroke-miterlimit="10" stroke-width=".092496" /><ns0:path d="m20.509 65.256c6.2109-1.712 12.828-1.5053 19.169-.70693 2.4315.39009 6.2399 1.1585 5.4226 4.497-8.6934-3.0797-18.402-3.1077-27.086.01963-.41721-1.8735.66888-3.4229 2.4943-3.8097z" /></ns0:g><ns0:g fill-rule="evenodd"><ns0:path d="m12.5 12.5a4.8214 3.75 0 1 1 -.000255-.03857" transform="matrix(.74352 0 0 .90381 2.3267 28.591)" /><ns0:path d="m12.5 12.5a4.8214 3.75 0 1 1 -.000316-.04296" transform="matrix(.74352 0 0 .90381 50.255 28.76)" /><ns0:path d="m12.5 12.5a4.8214 3.75 0 1 1 -.000087-.02254" transform="matrix(.83815 0 0 1.0255 17.263 13.846)" /><ns0:path d="m12.5 12.5a4.8214 3.75 0 1 1 -.000227-.03637" transform="matrix(.83815 0 0 1.0255 33.261 12.877)" /></ns0:g></ns0:g><ns0:path d="m25.131399 57.642877c-2.353135-.30772-4.867921-1.002769-6.756389-1.867362-2.956786-1.353695-2.794824-1.013085-3.555447-7.47721-.942759-8.012-1.040958-8.434896-3.01831-12.998446-.97381-2.247466-2.1482165-4.972933-2.6097927-6.056595-.7655441-1.797302-.9275202-1.99407-1.84481-2.241071-1.3695404-.368778-2.6822435-1.891155-2.6822435-3.110668 0-2.014737 2.6962161-3.795055 4.7306224-3.123641 1.4968398.494002 1.9098938 1.178221 1.9401148 3.213776l.02667 1.796345 3.300513 2.690029c1.815283 1.479517 3.356967 2.633577 3.425965 2.564579.242726-.242726 3.070704-11.783073 3.538915-14.441518l.473814-2.690261-.650509-.526206c-1.721097-1.392219-2.061861-3.129485-.887584-4.5250348 1.589551-1.8890739 4.646556-2.5393404 5.925469-1.2604276 1.303227 1.3032268 1.493581 4.0760414.38771 5.6476384-.50901.723374-.508962.755843.003 2.033898.28613.714334 1.458772 3.251332 2.60587 5.637773l2.085632 4.338983 2.532046-5.01695c1.392627-2.759322 2.737245-5.613617 2.988041-6.342879.420339-1.222247.421499-1.345234.01486-1.5728-.663989-.371588-1.25468-1.696682-1.25468-2.8146221 0-.7893386.21184-1.2063643 1.02678-2.0213043 2.391195-2.391195 5.771173-1.8628091 6.548431 1.0237043.520524 1.9330781-.134291 3.7788031-1.611663 4.5427811-.446053.230664-.811005.61662-.811005.857681 0 .631414 3.852049 16.727804 4.062443 16.975554.09689.11409 1.815694-1.070101 3.819569-2.631536 3.563957-2.777061 3.643957-2.862516 3.66838-3.918486.08038-3.475473 4.955772-4.882914 6.50912-1.879071 1.097716 2.122751-.331086 4.831826-2.548375 4.831826h-1.022676l-1.459292 3.186441c-4.545701 9.925784-4.263743 8.935097-5.14761 18.086516-.601689 6.229809-.377817 5.807829-3.813763 7.188589-2.362478.94938-4.521017 1.520306-7.18644 1.900797-2.196258.313513-10.353646.31299-12.753347-.000814v-.000008zm-.534789-6.148423c1.736311-.328252 3.810282-.457885 7.186441-.449182 4.919612.01269 7.750994.420369 11.79661 1.698582l1.627119.514088.08687-.965869c.170269-1.893114-1.26169-3.009502-4.832635-3.767631-3.342796-.709695-14.307023-.71357-17.627119-.0062-1.267796.270101-2.732203.69722-3.254237.949152-1.106325.533912-2.03754 2.171471-1.791741 3.150812l.160495.639466 2.103759-.650885c1.157067-.35798 3.202063-.858517 4.544436-1.112296zm-4.887364-4.608575c.823644-.403951 1.497534-.822318 1.497534-.929703 0-.107384-.643473-.339249-1.42994-.515251-1.197652-.268025-1.59413-.251404-2.440678.102308-1.045572.436867-1.314006 1.122991-.685315 1.751682.510489.51049 1.435873.386726 3.058399-.409036zm27.531432.45123c.340485-.230118.258644-.40215-.50218-1.05559-1.084133-.931114-2.336342-1.218563-3.516391-.807195-1.091452.38048-1.087634.659881.01681 1.231013 1.71933.889101 3.260908 1.132477 4.001754.631772zm-12.819447-1.960499c.614246-.614245.685974-.836398.467433-1.447718-.141985-.397171-.68337-.949413-1.203078-1.227205-2.599399-1.389424-6.348717.354362-5.043838 2.34586.638853.97501 1.375454 1.224003 3.351836 1.133012 1.425353-.06562 1.820019-.19632 2.427647-.803949zm-13.485638-3.885006c1.715254-.23607 5.80339-.493068 9.084746-.57111 5.757887-.136941 8.985928.08351 16.745763 1.143598.559322.07641 1.016949.08105 1.016949.0103 0-.07074-.250449-.798009-.556553-1.616143-.529305-1.414699-.631737-1.515651-2.092353-2.062137-5.703449-2.133937-14.076616-2.713191-21.486687-1.486446-5.665541.937933-7.864407 2.031134-7.864407 3.909917 0 1.260062.154264 1.419642 1.200947 1.242335.458123-.07761 2.236341-.334248 3.951595-.570319z" fill="#333" stroke="#000" stroke-width=".987802" /></g><g id="black-king"><ns0:g transform="translate(0 -16)"><ns0:path d="m24.251 23.212c5.1803-.0034 10.361-.0035 15.543.000028.00073 3.8659-.0012 7.7317-.000504 11.598 3.0216-1.9377 6.4833-3.5925 10.181-3.1705 4.6486.22884 9.001 4.2058 8.9365 8.9979-.05189 6.4587-4.2307 12.079-9.0592 16.001-.29108 4.4114-.52099 8.8265-.77138 13.241-4.122 4.066-10.268 4.083-15.67 4.199-5.039-.058-10.312.187-15.052-1.803-1.454-.735-3.349-1.72-3.425-3.568-.366-4.021-.449-8.063-.747-12.089-4.9104-3.827-8.893-9.555-9.0969-15.94-.12525-4.8497 4.3546-8.797 9.011-9.046 3.6822-.38832 7.133 1.252 10.15 3.1812-.0012-3.8671-.0031-7.7339-.000266-11.601z" fill="#fff" stroke="#000" stroke-miterlimit="10" stroke-width=".091563" /><ns0:path d="m24.247 23.21c-.0028 3.867-.0012 7.7445 0 11.612-3.0171-1.9292-6.4693-3.5821-10.152-3.1938-4.6564.24897-9.1362 4.2068-9.0109 9.0566.20388 6.3846 4.1921 12.097 9.1022 15.923.29804 4.0264.38623 8.0695.75281 12.091.07566 1.8476 1.9684 2.847 3.4219 3.5816 4.74 1.9906 10.017 1.7449 15.056 1.8022 5.4018-.11588 11.55-.13156 15.672-4.1975.25039-4.4141.46173-8.8427.75281-13.254 4.8285-3.9219 9.0275-9.5329 9.0794-15.992.0645-4.7921-4.2939-8.7593-8.9425-8.9881-3.6981-.42192-7.1527 1.2333-10.174 3.1709-.00073-3.8661.00073-7.7456 0-11.612-5.182-.0035-10.378-.0034-15.558 0zm7.414 14.577c1.6991-.14181 3.5643 1.0064 3.6044 2.8288.37721 2.6895-3.3058 4.2914-5.2697 2.6462-1.6987-1.0483-1.6329-3.8839.09125-4.8819.45807-.35819 1.0077-.54585 1.5741-.59312z" /><ns0:g fill="#fff"><ns0:path d="m26.188 26.652c.60675-.77075 1.2178-1.54 1.8332-2.3079 1.3536 1.1234 2.6804 2.2807 3.9979 3.4505 1.3171-1.1691 2.6454-2.3261 4.0048-3.45.60888.76725 1.2188 1.536 1.8297 2.3062-1.1547 1.0497-2.3132 2.0954-3.4676 3.1403 1.2099 1.1044 2.4189 2.2123 3.6138 3.3383-.47912.55045-1.4374 1.6514-1.9165 2.2018-1.3681-1.1422-2.7182-2.3053-4.0577-3.476-1.349 1.1672-2.7002 2.3297-4.0671 3.472-.47882-.5494-1.4365-1.6482-1.9153-2.1976 1.1896-1.1265 2.3984-2.2344 3.6144-3.3369-1.1614-1.0452-2.3169-2.0913-3.4696-3.1409z" stroke="#fff" stroke-miterlimit="10" stroke-width=".091563" /><ns0:path d="m26.188 26.652c.60675-.77075 1.2178-1.54 1.8332-2.3079 1.3536 1.1234 2.6804 2.2807 3.9979 3.4505 1.3171-1.1691 2.6454-2.3261 4.0048-3.45.60888.76725 1.2188 1.536 1.8297 2.3062-1.1547 1.0497-2.3132 2.0954-3.4676 3.1403 1.2099 1.1044 2.4189 2.2123 3.6138 3.3383-.47912.55045-1.4374 1.6514-1.9165 2.2018-1.3681-1.1422-2.7182-2.3053-4.0577-3.476-1.349 1.1672-2.7002 2.3297-4.0671 3.472-.47882-.5494-1.4365-1.6482-1.9153-2.1976 1.1896-1.1265 2.3984-2.2344 3.6144-3.3369-1.1614-1.0452-2.3169-2.0913-3.4696-3.1409z" /><ns0:path d="m11.969 43.425c.12617-3.6967 4.7438-4.7081 7.5949-3.5035 5.2878 1.6878 7.9041 7.0639 9.7471 11.873 1.8226-.02068 3.6489-.0381 5.4765-.07148 1.7471-4.8299 4.5631-9.9668 9.6856-11.798 2.8366-1.2334 7.4771-.18234 7.5989 3.5044-.15087 4.1228-2.7073 7.6549-5.8075 10.171.76614 1.1028 1.308 2.3076 1.2627 3.6862-4.6805-.98837-9.3308-2.3026-14.147-2.3947-5.7315-.30498-11.315 1.1586-16.854 2.3945-.06131-1.38.46414-2.5865 1.2725-3.6716-3.1263-2.5056-5.7089-6.0467-5.83-10.19z" stroke="#fff" stroke-miterlimit="10" stroke-width=".091563" /><ns0:path d="m11.969 43.425c.12617-3.6967 4.7438-4.7081 7.5949-3.5035 5.2878 1.6878 7.9041 7.0639 9.7471 11.873 1.8226-.02068 3.6489-.0381 5.4765-.07148 1.7471-4.8299 4.5631-9.9668 9.6856-11.798 2.8366-1.2334 7.4771-.18234 7.5989 3.5044-.15087 4.1228-2.7073 7.6549-5.8075 10.171.76614 1.1028 1.308 2.3076 1.2627 3.6862-4.6805-.98837-9.3308-2.3026-14.147-2.3947-5.7315-.30498-11.315 1.1586-16.854 2.3945-.06131-1.38.46414-2.5865 1.2725-3.6716-3.1263-2.5056-5.7089-6.0467-5.83-10.19z" /><ns0:path d="m15.989 45.201c-.21739-1.5777 1.2565-2.2198 2.5729-1.6957 3.8606.96406 5.613 4.9743 7.0888 8.2691-1.5422.25536-3.0846.50107-4.6269.72704-1.792-2.3361-4.0877-4.4426-5.0349-7.3004z" stroke="#000" stroke-miterlimit="10" stroke-width=".091563" /></ns0:g><ns0:path d="m15.989 45.201c-.21739-1.5777 1.2565-2.2198 2.5729-1.6957 3.8606.96406 5.613 4.9743 7.0888 8.2691-1.5422.25536-3.0846.50107-4.6269.72704-1.792-2.3361-4.0877-4.4426-5.0349-7.3004z" /><ns0:path d="m38.389 51.757c1.5118-3.4863 3.4545-8.0172 7.811-8.3992 1.5578-.47071 2.2422 1.4176 1.615 2.5473-1.1408 2.51-3.1375 4.4841-4.8416 6.6085-1.5333-.24001-3.0585-.50374-4.5845-.75654z" fill="#fff" stroke="#000" stroke-miterlimit="10" stroke-width=".091563" /><ns0:path d="m38.389 51.757c1.5118-3.4863 3.4545-8.0172 7.811-8.3992 1.5578-.47071 2.2422 1.4176 1.615 2.5473-1.1408 2.51-3.1375 4.4841-4.8416 6.6085-1.5333-.24001-3.0585-.50374-4.5845-.75654z" /><ns0:g fill="#fff"><ns0:path d="m29.166 58.43c1.6649-1.0956 3.9704-1.0813 5.6671-.05217 1.5166 3.4202-6.9885 3.4832-5.6671.05217z" stroke="#fff" stroke-miterlimit="10" stroke-width=".091563" /><ns0:path d="m29.166 58.43c1.6649-1.0956 3.9704-1.0813 5.6671-.05217 1.5166 3.4202-6.9885 3.4832-5.6671.05217z" /><ns0:path d="m16.688 62.62c.3162-2.4013 2.7807-2.1975 4.5567-1.972-1.1173 1.4458-2.8044 1.9299-4.5567 1.972z" stroke="#fff" stroke-miterlimit="10" stroke-width=".091563" /><ns0:path d="m16.688 62.62c.3162-2.4013 2.7807-2.1975 4.5567-1.972-1.1173 1.4458-2.8044 1.9299-4.5567 1.972z" /><ns0:path d="m42.913 61.581c1.2712-1.8245 4.4453-1.2977 4.2345 1.231-1.4313-.35228-2.845-.75434-4.2345-1.231z" stroke="#fff" stroke-miterlimit="10" stroke-width=".091563" /><ns0:path d="m42.913 61.581c1.2712-1.8245 4.4453-1.2977 4.2345 1.231-1.4313-.35228-2.845-.75434-4.2345-1.231z" /><ns0:path d="m17.384 66.302c3.7184-2.1643 8.2128-1.91 12.363-2.2221 5.7726-.002 11.866-.23518 17.23 2.2434-.45755.39137-1.3726 1.1741-1.8302 1.5655-7.6695-1.7778-15.774-2.0866-23.504-.52653-1.5942.23278-4.0333 1.4443-4.2596-1.0603z" stroke="#fff" stroke-miterlimit="10" stroke-width=".091563" /><ns0:path d="m17.384 66.302c3.7184-2.1643 8.2128-1.91 12.363-2.2221 5.7726-.002 11.866-.23518 17.23 2.2434-.45755.39137-1.3726 1.1741-1.8302 1.5655-7.6695-1.7778-15.774-2.0866-23.504-.52653-1.5942.23278-4.0333 1.4443-4.2596-1.0603z" /></ns0:g></ns0:g><ns0:g fill="#333" stroke="#000" stroke-width=".987802"><ns0:path d="m24.31784 57.659317c-3.942478-.555209-6.929626-1.704177-8.367038-3.21827-.884423-.931607-1.041791-2.02377-1.399575-9.713275l-.191368-4.112903-1.487059-1.283834c-4.4438389-3.836532-7.6436502-10.025882-7.6613116-14.819167-.0116107-3.151149 2.1962334-6.277801 5.5349916-7.838413 1.694143-.791881 2.120357-.877067 4.338983-.867223 2.748235.01219 4.451336.500455 7.400987 2.121787.947128.520606 1.778867.946557 1.848309.946557.06944 0 .126258-2.623729.126258-5.830508v-5.8305087h7.59322 7.593221v5.8305087c0 3.206779.05682 5.830508.126259 5.830508.06944 0 .901179-.425951 1.848309-.946557 3.430668-1.885733 6.129103-2.496477 9.002215-2.037495 2.301077.367599 3.719206 1.071672 5.384103 2.673104 2.317023 2.228696 3.093158 4.58324 2.617142 7.939582-.59274 4.179368-2.771458 8.105864-6.617432 11.925972l-2.296754 2.281307-.373505 6.592708-.373502 6.592705-.79401.641983c-1.275769 1.031498-3.345708 1.980333-5.675368 2.601518-1.902937.507404-3.052455.589023-9.355932.664301-3.952542.0472-7.922057-.01776-8.821143-.144387zm-1.077162-6.412865c1.925286-.387827 3.757791-.493316 8.677966-.499556 5.429231-.0069 6.705492.07664 9.851287.644754l3.613998.65267.948928-.948927.948927-.948931-2.136634-.706164c-3.045917-1.006687-5.013134-1.287596-10.243455-1.462706-7.511398-.251485-13.811581.392198-16.750314 1.711363-.836615.375547-.990128.561149-.848166 1.025469.446131 1.459173 1.061211 1.514289 5.937463.532028zm23.330831-6.263605c-.959758-.825551-2.328461-.811454-3.311485.03411l-.756659.650853 2.029674.59319c1.11632.326257 2.151707.624374 2.300859.662487.149153.03811.312459-.244174.362905-.627298.06447-.4897-.12124-.879769-.625294-1.313337zm-26.895584 1.105508c1.002204-.507308 1.802041-1.17002 1.802041-1.493098 0-.345245-2.932362-.275143-3.611048.08633-.772444.411406-1.250933 1.050543-1.261683 1.68528-.0075.445166.131437.486839 1.104588.331224.612267-.0979 1.497013-.372285 1.966102-.609733zm14.154017-1.303425c.962804-.402286 1.491859-1.258446 1.279482-2.070573-.264497-1.011439-3.096911-1.594989-4.802108-.989354-1.366373.485294-1.716707 1.016676-1.289068 1.955241.608215 1.334888 2.965489 1.876079 4.811694 1.104686zm-13.366931-4.193611c9.101731-2.00659 13.548761-2.035935 22.330982-.147349 2.401782.516494 4.512396.939081 4.690256.939081.432852 0 .121742-1.764258-.50212-2.847458l-.468567-.813559 1.828027-1.938435c2.373424-2.516774 3.553969-4.91553 3.7159-7.550356.102099-1.661287.03613-2.020743-.523059-2.850192-.915404-1.357817-2.419154-2.025767-4.570642-2.03023-4.45751-.0092-9.000357 4.105989-11.592667 10.501465l-.740613 1.827168-2.594657.0033-2.594659.0033-.889763-2.155064c-1.118521-2.709132-3.137132-5.803878-4.763593-7.303097-1.440196-1.327528-4.052729-2.648019-5.739399-2.900951-2.651949-.397684-5.506228 1.074808-6.058415 3.125472-.643984 2.391574 1.070286 6.678724 3.806007 9.518296l1.641944 1.704276-.556275 1.293093c-.600759 1.396502-.720007 2.41289-.283094 2.41289.150249 0 1.889232-.356279 3.864407-.791732zm12.8043-12.764828c2.70604-1.028835 2.768841-4.75092.09819-5.819503-2.044424-.818016-4.003833.03851-4.593962 2.008191-.741461 2.474774 1.968519 4.772172 4.495773 3.811312zm-3.167921-10.062957 1.949735-1.653415 1.91631 1.653415c1.053968.909378 2.021136 1.653415 2.149258 1.653415.269169 0 1.905646-2.002997 1.905646-2.332449 0-.121276-.749361-.899116-1.665247-1.728536l-1.665251-1.508034 1.679038-1.622829 1.679037-1.622829-.885383-1.1519836c-.486959-.6335908-1.011808-1.1498621-1.16633-1.1472695-.154522.00259-1.115305.7379417-2.135075 1.634109l-1.854123 1.6293951-1.843188-1.6341089c-1.013753-.8987599-1.958973-1.634109-2.100488-1.634109-.274777 0-1.975193 2.0067279-1.975193 2.3310039 0 .106324.743479.866126 1.652176 1.68845l1.652176 1.495133-1.793538 1.649486-1.793537 1.649486.977411 1.152543c.537577.633898 1.065031 1.152542 1.172121 1.152542s1.07209-.744037 2.144445-1.653415z" /><ns0:path d="m19.159052 34.003417c-1.772711-2.195618-3.104815-4.427573-3.104815-5.20215 0-.658805.801439-1.248725 1.696462-1.248725 2.220101 0 4.766769 2.262054 6.67412 5.928223l1.11956 2.151934-1.716437.298905c-2.76611.481697-2.701711.508293-4.66889-1.928187z" /><ns0:path d="m40.003762 35.909179-1.406407-.256898.53938-1.258321c1.395704-3.256045 3.37323-5.665241 5.316706-6.477277 1.231007-.514347 2.774861-.549455 3.078347-.07.763134 1.205611-.05624 3.022212-2.949449 6.539064-1.668794 2.028513-1.720075 2.045576-4.578577 1.523435z" /></ns0:g></g><radialGradient id="check_gradient"><stop offset="0%" stop-color="#ff0000" stop-opacity="1.0" /><stop offset="50%" stop-color="#e70000" stop-opacity="1.0" /><stop offset="100%" stop-color="#9e0000" stop-opacity="0.0" /></radialGradient></defs><rect x="256" y="0" width="42" height="64" stroke="none" fill="#262421" /><rect x="298" y="0" width="42" height="64" stroke="none" fill="#bababa" /><rect x="340" y="0" width="42" height="64" stroke="none" fill="#bf811d" /><rect x="382" y="0" width="42" height="64" stroke="none" fill="#b72fc6" /><rect x="424" y="0" width="42" height="64" stroke="none" fill="#706f6e" /><rect x="0" y="0" width="64" height="512" stroke="none" fill="#f0d9b5" /><use xlink:href="#black-pawn" transform="translate(0, 64)" /><use xlink:href="#black-knight" transform="translate(0, 128)" /><use xlink:href="#black-bishop" transform="translate(0, 192)" /><use xlink:href="#black-rook" transform="translate(0, 256)" /><use xlink:href="#black-queen" transform="translate(0, 320)" /><use xlink:href="#black-king" transform="translate(0, 384)" /><rect x="0" y="448" width="64" height="64" fill="url(#check_gradient)" /><use xlink:href="#black-king" transform="translate(0, 448)" /><rect x="64" y="0" width="64" height="512" stroke="none" fill="#b58863" /><use xlink:href="#black-pawn" transform="translate(64, 64)" /><use xlink:href="#black-knight" transform="translate(64, 128)" /><use xlink:href="#black-bishop" transform="translate(64, 192)" /><use xlink:href="#black-rook" transform="translate(64, 256)" /><use xlink:href="#black-queen" transform="translate(64, 320)" /><use xlink:href="#black-king" transform="translate(64, 384)" /><rect x="64" y="448" width="64" height="64" fill="url(#check_gradient)" /><use xlink:href="#black-king" transform="translate(64, 448)" /><rect x="128" y="0" width="64" height="512" stroke="none" fill="#ced26b" /><use xlink:href="#black-pawn" transform="translate(128, 64)" /><use xlink:href="#black-knight" transform="translate(128, 128)" /><use xlink:href="#black-bishop" transform="translate(128, 192)" /><use xlink:href="#black-rook" transform="translate(128, 256)" /><use xlink:href="#black-queen" transform="translate(128, 320)" /><use xlink:href="#black-king" transform="translate(128, 384)" /><rect x="128" y="448" width="64" height="64" fill="url(#check_gradient)" /><use xlink:href="#black-king" transform="translate(128, 448)" /><rect x="192" y="0" width="64" height="512" stroke="none" fill="#aaa23b" /><use xlink:href="#black-pawn" transform="translate(192, 64)" /><use xlink:href="#black-knight" transform="translate(192, 128)" /><use xlink:href="#black-bishop" transform="translate(192, 192)" /><use xlink:href="#black-rook" transform="translate(192, 256)" /><use xlink:href="#black-queen" transform="translate(192, 320)" /><use xlink:href="#black-king" transform="translate(192, 384)" /><rect x="192" y="448" width="64" height="64" fill="url(#check_gradient)" /><use xlink:href="#black-king" transform="translate(192, 448)" /><rect x="256" y="64" width="64" height="448" stroke="none" fill="#f0d9b5" /><use xlink:href="#white-pawn" transform="translate(256, 64)" /><use xlink:href="#white-knight" transform="translate(256, 128)" /><use xlink:href="#white-bishop" transform="translate(256, 192)" /><use xlink:href="#white-rook" transform="translate(256, 256)" /><use xlink:href="#white-queen" transform="translate(256, 320)" /><use xlink:href="#white-king" transform="translate(256, 384)" /><rect x="256" y="448" width="64" height="64" fill="url(#check_gradient)" /><use xlink:href="#white-king" transform="translate(256, 448)" /><rect x="320" y="64" width="64" height="448" stroke="none" fill="#b58863" /><use xlink:href="#white-pawn" transform="translate(320, 64)" /><use xlink:href="#white-knight" transform="translate(320, 128)" /><use xlink:href="#white-bishop" transform="translate(320, 192)" /><use xlink:href="#white-rook" transform="translate(320, 256)" /><use xlink:href="#white-queen" transform="translate(320, 320)" /><use xlink:href="#white-king" transform="translate(320, 384)" /><rect x="320" y="448" width="64" height="64" fill="url(#check_gradient)" /><use xlink:href="#white-king" transform="translate(320, 448)" /><rect x="384" y="64" width="64" height="448" stroke="none" fill="#ced26b" /><use xlink:href="#white-pawn" transform="translate(384, 64)" /><use xlink:href="#white-knight" transform="translate(384, 128)" /><use xlink:href="#white-bishop" transform="translate(384, 192)" /><use xlink:href="#white-rook" transform="translate(384, 256)" /><use xlink:href="#white-queen" transform="translate(384, 320)" /><use xlink:href="#white-king" transform="translate(384, 384)" /><rect x="384" y="448" width="64" height="64" fill="url(#check_gradient)" /><use xlink:href="#white-king" transform="translate(384, 448)" /><rect x="448" y="64" width="64" height="448" stroke="none" fill="#aaa23b" /><use xlink:href="#white-pawn" transform="translate(448, 64)" /><use xlink:href="#white-knight" transform="translate(448, 128)" /><use xlink:href="#white-bishop" transform="translate(448, 192)" /><use xlink:href="#white-rook" transform="translate(448, 256)" /><use xlink:href="#white-queen" transform="translate(448, 320)" /><use xlink:href="#white-king" transform="translate(448, 384)" /><rect x="448" y="448" width="64" height="64" fill="url(#check_gradient)" /><use xlink:href="#white-king" transform="translate(448, 448)" /></svg>