<svg xmlns:ns0="http://www.w3.org/2000/svg" xmlns:ns1="http://www.w3.org/1999/xlink" xmlns="http://www.w3.org/2000/svg" version="1.1" xmlns:xlink="http://www.w3.org/1999/xlink" viewBox="0 0 7200 7200"><defs><g id="white-pawn"><ns0:linearGradient id="wP_a">
    <ns0:stop offset="0" stop-color="#fff" />
    <ns0:stop offset="1" stop-color="#d0b090" />
  </ns0:linearGradient>
  <ns0:linearGradient id="wP_b" gradientUnits="userSpaceOnUse" x1="586.526" x2="1126.022" ns1:href="#wP_a" y1="328.043" y2="534.203" />
  <ns0:linearGradient id="wP_d" gradientUnits="userSpaceOnUse" x1="275.244" x2="862.652" ns1:href="#wP_a" y1="458.656" y2="560.747" />
  <ns0:linearGradient id="wP_c" gradientUnits="userSpaceOnUse" x1="300.273" x2="774.046" ns1:href="#wP_a" y1="623.782" y2="764.899" />
  <ns0:g stroke="#000" stroke-linecap="round" stroke-linejoin="round">
    <ns0:g fill-rule="evenodd">
      <ns0:path d="M926.667 373.333a166.667 150 0 11-333.334 0 166.667 150 0 11333.334 0z" fill="url(#wP_b)" stroke-width="21.762" transform="matrix(.73447 0 0 .736 -120.66 30.436)" />
      <ns0:path d="M397.417 467.01c1.469 170.175-86.733 221.098-127.967 250.246-34.192 24.17-25.463 82.342 19.906 85.311 28.113 1.84 276.613 2.361 305.651-.843 51.38-5.67 52.846-66.7 19.688-87.311-52.609-32.703-136.191-69.538-138.498-247.09-.441-33.312-79.042-30.009-78.78-.312z" fill="url(#wP_c)" stroke-width="16" />
      <ns0:path d="M340.353 432.735c-74.195 19.066-100.11 66.019-100.11 66.019H649.09s-43.432-51.835-110.025-66.684c-85.24-19.007-129.173-17.204-198.712.665z" fill="url(#wP_d)" stroke-width="16" />
    </ns0:g>
    <ns0:path d="M339.121 713.675h187.903" fill="none" stroke-width="16" />
  </ns0:g>
</g><g id="white-knight"><ns0:linearGradient id="wK_a">
    <ns0:stop offset="0" stop-color="#fff" />
    <ns0:stop offset="1" stop-color="#d0b090" />
  </ns0:linearGradient>
  <ns0:linearGradient id="wK_f" gradientUnits="userSpaceOnUse" x1="705.291" x2="787.126" ns1:href="#wK_a" y1="382.288" y2="469.624" />
  <ns0:linearGradient id="wK_e" gradientUnits="userSpaceOnUse" x1="671.033" x2="743.154" ns1:href="#wK_a" y1="303.327" y2="352.42" />
  <ns0:linearGradient id="wK_d" gradientUnits="userSpaceOnUse" x1="598.679" x2="705.532" ns1:href="#wK_a" y1="213.761" y2="236.288" />
  <ns0:linearGradient id="wK_c" gradientUnits="userSpaceOnUse" x1="497.792" x2="629.853" ns1:href="#wK_a" y1="155.906" y2="157.489" />
  <ns0:linearGradient id="wK_b" gradientUnits="userSpaceOnUse" x1="265.646" x2="753.208" ns1:href="#wK_a" y1="259.94" y2="858.328" />
  <ns0:g stroke="#000" stroke-linecap="round" stroke-linejoin="round" stroke-width="16">
    <ns0:path d="M528.59 401.808c.214 76.493-88.227 142.653-175.456 109.334-13.36-5.102-134.568 104.803-153.994 89.766-15.325-11.863 16.979-60.769 14.63-54.522-11.181 29.74-60.547 62.844-100.19 20.112-15.503-16.71-10.709-64.776 22.684-103.933 34.777-40.78 70.089-103.577 83.757-139.796 27.492-72.85 16.705-74.44 69.391-140.506 9.898-12.41-16.088-60.595-6.643-92.047 37.307 6.653 51.69 44.162 68.845 59.903 10-23.151 3.281-85.36 21.06-82.462 17.777 2.899 38.227 56.792 67.554 80.462C791.491 256.215 788.62 818.323 690.45 820.144c-121.172 2.248-266.24 1.74-388.105-.202-29.528-.47-43.197-38.672-37.503-61.5 27.155-108.879 141.833-185.087 198.008-222.854 57.697-38.79 68.261-76.91 65.74-133.78z" fill="url(#wK_b)" fill-rule="evenodd" />
    <ns0:path d="M345.006 294.099c-29.073-5.366-54.564 3.078-75.617 24.03m28.749 7.674c10.443 10.64 23.734 11.084 25.923-6.997M150.771 518.29c-13.855-4.786-23.878 17.537-15.038 18.447m181.143-62.433l9.488 11.79m202.389-116.858l.29-24.918M325.879 162.65l-10.113 5.28m63.504-59.056c30.152 42.12 41.04 50.64 5.187 44.597" fill="none" />
    <ns0:g fill-rule="evenodd">
      <ns0:path d="M454.444 131.126c86.572 25.384 71.97 7.062 90.229 36.796 10.23 16.658 24.403-5.678 58.146-3.565 18.223 1.141-50-27.221-58.899-38.563-12.353-15.745-102.178 1.608-89.476 5.332z" fill="url(#wK_c)" />
      <ns0:path d="M579.551 199.723c27.192 20.672 47.11-.325 46.036 35.545-.738 24.63 32.506 8.174 48.65 18.448 14.873 9.465 29.79-28.715 20.33-28.715-14.232 0-38.4 6.677-34.027-9.395 9.598-35.278-88.799-21.821-80.989-15.883z" fill="url(#wK_d)" />
      <ns0:path d="M659.532 277.716c5.292 1.851 34.12 21.37 32.785 30.65-6.884 47.874 28.416 44.77 43.608 49.831 21.288 7.092-.992-18.323-11.734-31.39-10.741-13.068 7.34-18.918 6.074-27.207-4.453-29.156-73.497-22.851-70.733-21.884z" fill="url(#wK_e)" />
      <ns0:path d="M710.39 378.647c5.058 8.82 16.918 18.81 20.677 32.645 3.76 13.836 5.175 26.171 12.694 41.032s37.773 12.923 50.818 8.562c17.578-5.877-42.496-24.127-28.96-51.952 8.567-17.61-57.959-35.047-55.23-30.287z" fill="url(#wK_f)" />
    </ns0:g>
    <ns0:path d="M438.147 729.501l-25.78 61.492" fill="none" />
  </ns0:g>
</g><g id="white-bishop"><ns0:linearGradient id="wB_a">
    <ns0:stop offset="0" stop-color="#fff" />
    <ns0:stop offset="1" stop-color="#d0b090" />
  </ns0:linearGradient>
  <ns0:linearGradient id="wB_e" gradientUnits="userSpaceOnUse" x1="136.097" x2="784.781" ns1:href="#wB_a" y1="629.62" y2="865.103" />
  <ns0:linearGradient id="wB_d" gradientUnits="userSpaceOnUse" x1="321.158" x2="395.432" ns1:href="#wB_a" y1="90.161" y2="128.463" />
  <ns0:linearGradient id="wB_f" gradientUnits="userSpaceOnUse" x1="460.454" x2="534.728" ns1:href="#wB_a" y1="86.269" y2="124.57" />
  <ns0:linearGradient id="wB_c" gradientUnits="userSpaceOnUse" x1="192.3" x2="825.779" ns1:href="#wB_a" y1="446.013" y2="717.336" />
  <ns0:linearGradient id="wB_b" gradientUnits="userSpaceOnUse" x1="721.622" x2="541.266" ns1:href="#wB_a" y1="220.042" y2="599.38" />
  <ns0:g stroke="#000" stroke-linecap="round" stroke-linejoin="round" stroke-width="16">
    <ns0:g fill-rule="evenodd">
      <ns0:path d="M435.906 216.87c10.82-18.258 39.158-50.49 68.378-67.253 36.233 34.056 85.64 113.37 110.08 189.586 19.048 59.401 22.998 86.092 23.99 149.549s-32.381 125.966-52.865 149.09" fill="url(#wB_b)" />
      <ns0:path d="M565.47 687.058c6.038-53.469-294.122-49.522-281.848 3.006 9.917 21.888 2.096 50.035 2.096 50.035s69.277-9.83 146.383-8.605c77.105 1.225 129.29 7.339 129.29 7.339s-1.96-36.018 4.078-51.775z" fill="url(#wB_c)" />
      <ns0:path d="M279.434 682.284c-22.79-8.085-39.382-40.436-53.76-61.07-22.95-32.935-36.48-101.429-23.04-178.234 13.441-76.806 86.488-225.22 161.287-291.053C455.083 217.76 513.873 317.289 560.27 449.91c24.829 70.971 37.153 148.639 14.362 230.064-53.177-10.972-233.25-21.38-295.198 2.31z" fill="url(#wB_c)" />
      <ns0:path d="M350.43 138.719c12.479-21.196-19.732-34.719-2.883-49.522 9.462-8.313 25.649-9.145 34.737 1.638 13.104 15.548-22.745 29.035-5.107 47.677" fill="url(#wB_d)" />
    </ns0:g>
    <ns0:path d="M436.38 712.349c-9.533-2.574-18.102 1.956-21.598-.94-4.289-3.554-4.038-18.34-1.198-22.094 2.428-3.21 33.631-3.61 36.693-.653 2.855 2.751-.082 20.665-2.727 25.197" fill="none" />
    <ns0:g fill-rule="evenodd">
      <ns0:path d="M381.313 348.563c-11.428 1.812-17.116 14.342-15.685 24.968-.197 9.084 3.782 20.788-3.69 27.907-10.11 3.363-21.048-.85-31.349-1.73-8.48-.774-18.706-3.98-26.245 1.48-5.77 6.835.97 17.165 8.406 19.468 14.953 6.505 32.706 3.112 47.094 10.813 4.967 4.582 3.95 12.562 5.469 18.656 4.677 36.302 4.43 73.618 15.406 108.781 2.873 7.72 7.36 18.432 16.969 18.5 7.417-2.538 6.48-12.39 6.875-18.75-.899-39.872-11.964-78.736-13.72-118.531-.197-3.918.154-8.834 5.22-9.25 17.962-5.17 38.949.58 55.28-10.344 6.708-3.634 12.306-17.195 1.438-18.969-19.157-2.819-38.52 5.438-57.562 1.844-5.895-2.087-5.379-10.247-6.063-15.375-1.116-12.08 2.555-24.939-2.031-36.469-1.15-2.01-3.461-3.29-5.813-3z" fill="#fff" />
      <ns0:path d="M317.867 803.289c55.824-.625 82.698-32.382 107.408-32.419 24.709-.038 47.253 31.643 107.352 31.749 32.245.057 201.998 3.445 192.564-22.285s-116.64 8.823-152.536-9.477c-18.79-9.579-24.302-11.849-48.608-15.531-65.569-9.934-132.61-9.538-191.9-.376-26.394 4.08-37.13 8.621-51.997 18.627-25.006 16.832-130.343-18.165-138.634 6.422-8.291 24.586 108.519 24.05 176.351 23.29z" fill="url(#wB_e)" />
      <ns0:path d="M635.688 91.156c-20.586.198-35.943 17.093-44.481 34.265-5.649 10.906-15.61 18.845-21.145 29.735-1.164 6.56 8.19 8.697 13.125 7.281 12.049-2.549 21.592-12.074 25.661-23.522 4.828-11.787 15.73-21.06 28.652-21.915 12.69-2.231 24.413 7.744 26.969 19.875 3.694 12.716 2.022 27.706-8.219 36.938-15.985 16.767-40.232 24.27-53.688 43.718-73.846 145.729-147.58 291.552-220.435 437.782-25.863 53.038-53.192 105.478-75.846 159.968-1.762 6.8-7.052 14.338-4.219 21.407 4.47 3.472 10.1-1.898 13.97-4.25 15.926-14.539 24.756-35.077 35.312-53.594 44.475-86.29 86.157-174.003 129.446-260.9 47.002-94.896 94.008-189.823 142.022-284.194 13.584-20.104 39.365-26.84 54.595-45.41 9.699-10.645 15.904-24.738 14.343-39.34-1-24.298-15.07-50.594-40.219-56.375-5.16-1.308-10.5-1.707-15.843-1.469z" fill="#fff" />
      <ns0:path d="M489.726 134.826c12.48-21.196-19.731-34.718-2.882-49.522 9.461-8.313 25.648-9.144 34.737 1.639 13.103 15.547-22.745 29.035-5.107 47.677" fill="url(#wB_f)" />
    </ns0:g>
  </ns0:g>
</g><g id="white-rook"><ns0:linearGradient id="wR_a">
    <ns0:stop offset="0" stop-color="#fff" />
    <ns0:stop offset="1" stop-color="#d0b090" />
  </ns0:linearGradient>
  <ns0:linearGradient id="wR_b" gradientTransform="matrix(1.04521 0 0 1.0145 -33.829 -11.835)" gradientUnits="userSpaceOnUse" x1="7.338" x2="689.745" ns1:href="#wR_a" y1="207.665" y2="274.331" />
  <ns0:linearGradient id="wR_d" gradientTransform="matrix(1.04521 0 0 1.0145 -33.829 -11.835)" gradientUnits="userSpaceOnUse" x1="218.502" x2="906.095" ns1:href="#wR_a" y1="521.53" y2="643.197" />
  <ns0:linearGradient id="wR_e" gradientTransform="matrix(1.04521 0 0 1.0145 -33.829 -11.835)" gradientUnits="userSpaceOnUse" x1="153.414" x2="966.586" ns1:href="#wR_a" y1="229.068" y2="400.734" />
  <ns0:linearGradient id="wR_c" gradientTransform="matrix(1.04521 0 0 1.0145 -33.829 -11.835)" gradientUnits="userSpaceOnUse" x1="193.15" x2="878.595" ns1:href="#wR_a" y1="715.406" y2="782.072" />
  <ns0:g stroke="#000" stroke-linejoin="round" stroke-width="16">
    <ns0:g stroke-linecap="round">
      <ns0:path d="M200.303 323.355s3.25-117.233 17.655-156.206c30.098-6.498 89.35-9.563 126.156-4.191.412 23.842-5.433 73.99-1.591 96.915 33.445-1.585 101.2 2.477 144.316-2.371.96-27.97-7.27-67.57.893-98.75 27.368-2.056 89.238-4.231 118.047 8.148-3.84 39.89.563 94.73.563 94.73l75.532 2.614-11.247 60c-94.304 35.348-411.33 30.1-470.324-.89z" fill="url(#wR_b)" fill-rule="evenodd" />
      <ns0:path d="M250.717 702.476c-23.988 23.953-74.114 48.056-109.857 55.622-5.184 17.112-10.284 36.898.24 58.174 127.397 1.155 463.79-.324 585.516-.747 6.568-23.731 11.535-40.898 4.967-59.55-37.479-7.42-82.743-18.624-116.25-53.496" fill="url(#wR_c)" fill-rule="evenodd" />
      <ns0:path d="M198.041 768.623c149.458.072 311.664-5.513 471.512.58" fill="none" />
    </ns0:g>
    <ns0:path d="M252.743 310.87c-3.768 44.851-4.854 357.288-3.817 394.504 55.177-4.666 311.612-4.96 368.162-.567-3.202-70.03-2.316-392.952-2.316-392.952" fill="url(#wR_d)" fill-rule="evenodd" />
    <ns0:g stroke-linecap="round">
      <ns0:path d="M291.38 634.833c39.889-2.94 123.47-6.252 215.439-3.295m-216.796-61.39c50.752-4.886 99.848-6.495 171.3-5.752M290.558 504.95c72.268-4.997 74.304-4.466 152.516-5.594m-152.516-58.344c36.685-3.033 58.258-4.61 102.16-3.55m-57.958 20.242c.88 29.932-.175-1.336.704 24.55m54.977 38.996c.88 29.932-.175-1.336.704 24.55m-56.385 39.729c.88 29.931-.175-1.337.704 24.55m116.09-26.579c.879 29.931-.176.692.703 26.579m-61.816 42.154c.88 29.932-.175.693.704 26.58m-99.326-295.609c27.857-3.033 42.052-4.007 65.776-3.55" fill="none" />
      <ns0:path d="M131.748 161.278c5.156 28.223 9.052 54.999 14.048 95.54 32.077 22.366 50.033 30.177 53.468 67.657 96.352-17.361 386.968-13.36 474.353-.352 6.09-33.782 16.053-39.555 63.13-67.91 5.947-44.361 11.169-65.75 11.505-92.273-14.107-3.43-115.468-33.784-127.989-29.424-4.453 26.393 1.844 49.067-4.015 73.888-37.943 1.902-71.745.458-111.013-9.763.195-33.178.146-51.373 1.776-77.052-16.583-5.906-115.208-6.956-133.816-.865-3.207 31.978.847 49.399-1.723 77.83-33.683 9.529-65.627 7.057-105.838 9.316-3.24-33.805 2.743-45.667 1.982-69.396-16.59-4.536-120.204 17.987-135.868 22.804z" fill="url(#wR_e)" fill-rule="evenodd" />
      <ns0:path d="M188.74 262.247c148.654-14.695 368.513-15.61 496.096 3.544" fill="none" />
    </ns0:g>
  </ns0:g>
</g><g id="white-queen"><ns0:linearGradient id="wQ_a">
    <ns0:stop offset="0" stop-color="#fff" />
    <ns0:stop offset="1" stop-color="#d0b090" />
  </ns0:linearGradient>
  <ns0:linearGradient id="wQ_g" gradientUnits="userSpaceOnUse" x1="785.141" x2="840.911" ns1:href="#wQ_a" y1="294.759" y2="363.089" />
  <ns0:linearGradient id="wQ_e" gradientUnits="userSpaceOnUse" x1="649.863" x2="711.117" ns1:href="#wQ_a" y1="171.18" y2="227.749" />
  <ns0:linearGradient id="wQ_c" gradientUnits="userSpaceOnUse" x1="406.012" x2="470.835" ns1:href="#wQ_a" y1="103.532" y2="132.994" />
  <ns0:linearGradient id="wQ_i" gradientUnits="userSpaceOnUse" x1="167.872" x2="234.62" ns1:href="#wQ_a" y1="174.997" y2="174.997" />
  <ns0:linearGradient id="wQ_k" gradientUnits="userSpaceOnUse" x1="23.458" x2="87.371" ns1:href="#wQ_a" y1="337.855" y2="315.463" />
  <ns0:linearGradient id="wQ_j" gradientUnits="userSpaceOnUse" x1="339.471" x2="514.54" ns1:href="#wQ_a" y1="530.606" y2="571.593" />
  <ns0:linearGradient id="wQ_d" gradientUnits="userSpaceOnUse" x1="339.471" x2="495.022" ns1:href="#wQ_a" y1="530.606" y2="584.758" />
  <ns0:linearGradient id="wQ_f" gradientUnits="userSpaceOnUse" x1="339.471" x2="487.215" ns1:href="#wQ_a" y1="530.606" y2="584.758" />
  <ns0:linearGradient id="wQ_h" gradientUnits="userSpaceOnUse" x1="339.471" x2="498.926" ns1:href="#wQ_a" y1="530.606" y2="584.758" />
  <ns0:linearGradient id="wQ_l" gradientUnits="userSpaceOnUse" x1="339.471" x2="510.637" ns1:href="#wQ_a" y1="530.606" y2="584.758" />
  <ns0:linearGradient id="wQ_b" gradientUnits="userSpaceOnUse" x1="153.604" x2="761.364" ns1:href="#wQ_a" y1="380.54" y2="682.207" />
  <ns0:g fill-rule="evenodd">
    <ns0:g fill="url(#wQ_b)">
      <ns0:path d="M243.935 824.89l-50.378-166.212 433.768 1.318-49.519 169.681z" />
      <ns0:g stroke="#000" stroke-linecap="round" stroke-linejoin="round" stroke-width="16">
        <ns0:path d="M612.713 716.28c-122.2-43.669-283.406-43.923-402.394-.104 12.585 30.53 15.919 92.998 15.919 92.998 100.719-28.173 271.954-27.317 371.885 4.188 0 0 2.31-66.707 14.59-97.082z" />
        <ns0:path d="M195.104 697.915c121.85-52.686 312.58-53.52 435.577.41C642.807 593.29 681.03 463.63 753.364 370.627c-54.848 21.462-134.48 158.863-180.775 184.758-36.304-76.263 35.544-274.204 63.478-316.129-46.899 28.219-146.147 203.016-175.47 284.785-42.265-94.445-32.372-271.082-33.383-345.108-31.796 69.553-73.518 229.373-77.788 342.314-81.193-60.864-109.846-225.27-131.501-290.406-11.924 93.798 8.884 257.173 22.623 323.227-52.792-35.593-114.44-113.92-165.611-180.305 65.06 155.574 88.608 202.693 120.167 324.153zm212.659 1.867c-18.998-.098-8.585 14.635-12.318 21.115-8.538 4.949-36.246-3.832-27.327 14.34 6.319 12.874 15.766 6.813 26.377 10.961 5.276 7.267-3.643 29.366 15.037 28.903 15.427-.383 7.018-22.431 10.316-28.372 9.326-6.094 21.562 2.165 27.734-13.452 4.686-11.856-18.512-7.458-27.673-12.564-3.837-5.731 7.62-20.828-12.146-20.931zm-163.19 125.491c88.823 10.599 232.722 14.36 332.958 4.407-56.568-25.281-259.89-25.068-332.958-4.407z" />
      </ns0:g>
    </ns0:g>
    <ns0:g stroke="#000" stroke-linecap="round" stroke-linejoin="round">
      <ns0:path d="M474.62 82.518c-8.56.188-34.943 4.62-50.798 12.528-4.81 12.11-2.312 47.606.131 76.64 15.185-24.37 48.737-66.254 50.667-89.168z" fill="url(#wQ_c)" stroke-width="16" />
      <ns0:path d="M440.763 530.606a45.962 44.783 0 11-91.924 0 45.962 44.783 0 1191.924 0z" fill="url(#wQ_d)" stroke-width="18.737" transform="translate(87.235 -271.506) scale(.85393)" />
      <ns0:path d="M714.902 206.005c-4.717-5.653-1.71-16-40.003-37.055l-48.856 61.029c27.41-8.55 70.764-21.46 88.86-23.974z" fill="url(#wQ_e)" stroke-width="16" />
      <ns0:path d="M440.763 530.606a45.962 44.783 0 11-91.924 0 45.962 44.783 0 1191.924 0z" fill="url(#wQ_f)" stroke-width="18.737" transform="translate(295.235 -211.506) scale(.85393)" />
      <ns0:path d="M845.56 351.891c2.674-13.827-12.17-18.268-26.411-37.324-19.836 8.122-42.817 17.81-59.006 40.522 40.867-8.428 59.444 4.058 85.417-3.198z" fill="url(#wQ_g)" stroke-width="16" />
      <ns0:path d="M440.763 530.606a45.962 44.783 0 11-91.924 0 45.962 44.783 0 1191.924 0z" fill="url(#wQ_h)" stroke-width="18.737" transform="translate(417.85 -85.749) scale(.85393)" />
      <ns0:path d="M226.62 154.518c-10.56-11.812-22.893-10.117-50.748-14.208.972 33.726 21.104 43.135 33.081 69.375 15.185-24.37 12.737-25.253 17.667-55.167z" fill="url(#wQ_i)" stroke-width="16" />
      <ns0:path d="M440.763 530.606a45.962 44.783 0 11-91.924 0 45.962 44.783 0 1191.924 0z" fill="url(#wQ_j)" stroke-width="18.737" transform="translate(-123.765 -219.506) scale(.85393)" />
      <ns0:path d="M50.263 289.782c-13.447 2.8-14.585 30.312-18.805 44.426 15.057 16.595 30.367 26.05 43.52 51.72 14.065-25.033-8.759-76.936-24.715-96.146z" fill="url(#wQ_k)" stroke-width="16" />
      <ns0:path d="M440.763 530.606a45.962 44.783 0 11-91.924 0 45.962 44.783 0 1191.924 0z" fill="url(#wQ_l)" stroke-width="18.737" transform="translate(-249.108 -68.92) scale(.85393)" />
    </ns0:g>
  </ns0:g>
</g><g id="white-king"><ns0:linearGradient id="wK_a">
    <ns0:stop offset="0" stop-color="#fff" />
    <ns0:stop offset="1" stop-color="#d0b090" />
  </ns0:linearGradient>
  <ns0:linearGradient id="wK_b" gradientUnits="userSpaceOnUse" x1="297.554" x2="368.562" ns1:href="#wK_a" y1="427.05" y2="521.216" />
  <ns0:linearGradient id="wK_c" gradientUnits="userSpaceOnUse" x1="495.296" x2="595.971" ns1:href="#wK_a" y1="448.547" y2="528.547" />
  <ns0:linearGradient id="wK_h" gradientUnits="userSpaceOnUse" x1="221.551" x2="633.491" ns1:href="#wK_a" y1="774.937" y2="859.351" />
  <ns0:linearGradient id="wK_d" gradientUnits="userSpaceOnUse" x1="342.53" x2="609.848" ns1:href="#wK_a" y1="145.674" y2="280.674" />
  <ns0:linearGradient id="wK_e" gradientUnits="userSpaceOnUse" x1="379.197" x2="579.848" ns1:href="#wK_a" y1="160.253" y2="286.919" />
  <ns0:linearGradient id="wK_f" gradientUnits="userSpaceOnUse" x1="368.469" x2="494.551" ns1:href="#wK_a" y1="319.275" y2="319.275" />
  <ns0:linearGradient id="wK_g" gradientUnits="userSpaceOnUse" x1="129.962" x2="812.369" ns1:href="#wK_a" y1="428.659" y2="836.313" />
  <ns0:g fill-rule="evenodd">
    <ns0:g stroke="#000" stroke-linecap="round" stroke-linejoin="round" stroke-width="16">
      <ns0:path d="M288.635 612.485c23.192-33.51-7.051-125.839.018-168.052 11.473-68.508 101.49-114.49 113.505-74.771 14.253 47.116-43.612 51.563-59.712 90.893-14.788 36.126-11.624 96.483 17.166 132.81" fill="url(#wK_b)" />
      <ns0:path d="M586.89 617.316c-23.192-33.51 7.052-125.839-.018-168.052-11.473-68.508-101.49-114.49-113.505-74.771-14.253 47.116 43.612 51.563 59.712 90.893 14.788 36.126 11.624 96.483-17.166 132.81" fill="url(#wK_c)" />
      <ns0:g fill="url(#wK_d)">
        <ns0:path d="M401.217 288.115c5.257-15 18.904-70.925 13.916-87.4-22.314-1.766-68.935 18.702-99.152 12.145-8.51-15.386-13.824-48.494-1.6-66.668 27.356-8.324 87.731 6.269 104.42 8.505 5.915-16.853-14.495-67.638-10.541-86.027 18.75-8.963 65.314-8.077 79.153 1.034-.705 19.314-28.895 66.225-29.579 82.264 18.784-.963 77.294-16.875 97.268-12.989 8.616 16.71 10.486 46.565-3.414 65.646-21.295 7.093-77.675-8.93-101.167-4.27-9.9 19.967 5.491 71.523 9.278 86.605" fill="url(#wK_e)" />
        <ns0:path d="M408.41 371.832c-24.735-21.418-35.634-21.596-30.833-75.206 4.1-45.781 106.257-43.42 108.634-1.991 2.981 51.947-14.29 55.837-26.3 80.99" fill="url(#wK_f)" />
      </ns0:g>
    </ns0:g>
    <ns0:g fill="url(#wK_g)">
      <ns0:path d="M270.962 830.3l-63.975-196.244 471.233-2.067-74.89 204.324z" />
      <ns0:g stroke="#000" stroke-linecap="round" stroke-linejoin="round" stroke-width="16">
        <ns0:path d="M643.456 717.11c-93.676-48.015-307.139-50.27-407.606 1.875 14.074 44.473 19.704 93.973 19.704 93.973 91.666-28.464 277.873-29.6 367.873 4.143 0 0 9.28-66.68 20.03-99.992z" />
        <ns0:path d="M553.531 574.031c-28.76-15.547-89.17-53.54-121.964-54.895-25.066-1.037-76.806 32.479-103.41 53.083-115.274-52.467-113.896-152.892-33.25-171.313 13.134-3 52.23.464 78.062-.719-8.226-22.715-17.192-38.823-8.688-69.062-18.228-11.732-42.488-20.144-70.125-21.781a351.023 351.023 0 00-25.031-.594c-81.201 1-165.451 30.536-177.406 105.25C74.27 523.048 170.81 587.315 205.563 702.656c110.307-62.908 364.664-58.902 470.343-4.531 28.048-89.162 139.851-193.36 114.844-284.25-23.158-84.17-135.742-108.801-210.031-104.594-30.109 1.706-59.013 11.453-80.719 24.844 4.202 23.971-4.315 43.57-11.375 64.281 34.345.015 94.602-7.972 118.25 5.406 52.23 29.547 56.212 135.897-53.344 170.22z" />
        <ns0:path d="M328.488 572.528c37.995-26.678 55.998-79.661 54.479-122.435-2.191-61.676-35.18-72.426-16.34-126.414 12.774-36.607 119.163-38.489 131.179 1.23 14.253 47.116-22.343 76.45-16.638 124.145 6.654 55.64 7.067 92.523 72.294 126.573" />
      </ns0:g>
    </ns0:g>
    <ns0:g stroke="#000" stroke-linecap="round" stroke-linejoin="round">
      <ns0:path d="M275.691 832.678c87.865 10.484 228.212 12.205 327.367 2.36-68.597-27.98-256.555-27.677-327.367-2.36z" fill="url(#wK_h)" stroke-width="16" />
      <ns0:g fill="#fff">
        <ns0:path d="M453.622 737.035a16.908 16.103 0 11-33.817 0 16.908 16.103 0 1133.817 0z" stroke-width="16" />
        <ns0:path d="M815 915a17.5 16.667 0 11-35 0 17.5 16.667 0 1135 0z" stroke-width="18.087" transform="matrix(1.06262 -.19244 .12913 .71304 -628.072 249.549)" />
        <ns0:path d="M815 915a17.5 16.667 0 11-35 0 17.5 16.667 0 1135 0z" stroke-width="18.32" transform="matrix(1.03898 .16861 -.11608 .71528 -188.652 -40.445)" />
      </ns0:g>
    </ns0:g>
  </ns0:g>
</g><g id="black-pawn"><ns0:linearGradient id="bP_a">
    <ns0:stop offset="0" />
    <ns0:stop offset="1" stop-color="#505090" />
  </ns0:linearGradient>
  <ns0:linearGradient id="bP_b" gradientUnits="userSpaceOnUse" x1="586.526" x2="1126.022" ns1:href="#bP_a" y1="328.043" y2="534.203" />
  <ns0:linearGradient id="bP_d" gradientUnits="userSpaceOnUse" x1="275.244" x2="862.652" ns1:href="#bP_a" y1="458.656" y2="560.747" />
  <ns0:linearGradient id="bP_c" gradientUnits="userSpaceOnUse" x1="300.273" x2="774.046" ns1:href="#bP_a" y1="623.782" y2="764.899" />
  <ns0:g stroke="gray" stroke-linecap="round" stroke-linejoin="round">
    <ns0:g fill-rule="evenodd">
      <ns0:path d="M926.667 373.333a166.667 150 0 11-333.334 0 166.667 150 0 11333.334 0z" fill="url(#bP_b)" stroke-width="21.762" transform="matrix(.73447 0 0 .736 -120.66 30.436)" />
      <ns0:path d="M397.417 467.01c1.469 170.175-86.733 221.098-127.967 250.246-34.192 24.17-25.463 82.342 19.906 85.311 28.113 1.84 276.613 2.361 305.651-.843 51.38-5.67 52.846-66.7 19.688-87.311-52.609-32.703-136.191-69.538-138.498-247.09-.441-33.312-79.042-30.009-78.78-.312z" fill="url(#bP_c)" stroke-width="16" />
      <ns0:path d="M340.353 432.735c-74.195 19.066-100.11 66.019-100.11 66.019H649.09s-43.432-51.835-110.025-66.684c-85.24-19.007-129.173-17.204-198.712.665z" fill="url(#bP_d)" stroke-width="16" />
    </ns0:g>
    <ns0:path d="M339.121 713.675h187.903" fill="none" stroke-width="16" />
  </ns0:g>
</g><g id="black-knight"><ns0:linearGradient id="bN_a">
    <ns0:stop offset="0" />
    <ns0:stop offset="1" stop-color="#505070" />
  </ns0:linearGradient>
  <ns0:linearGradient id="bN_f" gradientUnits="userSpaceOnUse" x1="705.291" x2="787.126" ns1:href="#bN_a" y1="382.288" y2="469.624" />
  <ns0:linearGradient id="bN_e" gradientUnits="userSpaceOnUse" x1="671.033" x2="743.154" ns1:href="#bN_a" y1="303.327" y2="352.42" />
  <ns0:linearGradient id="bN_d" gradientUnits="userSpaceOnUse" x1="598.679" x2="705.532" ns1:href="#bN_a" y1="213.761" y2="236.288" />
  <ns0:linearGradient id="bN_c" gradientUnits="userSpaceOnUse" x1="497.792" x2="629.853" ns1:href="#bN_a" y1="155.906" y2="157.489" />
  <ns0:linearGradient id="bN_b" gradientUnits="userSpaceOnUse" x1="265.646" x2="753.208" ns1:href="#bN_a" y1="259.94" y2="858.328" />
  <ns0:g stroke="gray" stroke-linecap="round" stroke-linejoin="round" stroke-width="16">
    <ns0:path d="M528.59 401.808c.214 76.493-88.227 142.653-175.456 109.334-13.36-5.102-134.568 104.803-153.994 89.766-15.325-11.863 16.979-60.769 14.63-54.522-11.181 29.74-60.547 62.844-100.19 20.112-15.503-16.71-10.709-64.776 22.684-103.933 34.777-40.78 70.089-103.577 83.757-139.796 27.492-72.85 16.705-74.44 69.391-140.506 9.898-12.41-16.088-60.595-6.643-92.047 37.307 6.653 51.69 44.162 68.845 59.903 10-23.151 3.281-85.36 21.06-82.462 17.777 2.899 38.227 56.792 67.554 80.462C791.491 256.215 788.62 818.323 690.45 820.144c-121.172 2.248-266.24 1.74-388.105-.202-29.528-.47-43.197-38.672-37.503-61.5 27.155-108.879 141.833-185.087 198.008-222.854 57.697-38.79 68.261-76.91 65.74-133.78z" fill="url(#bN_b)" fill-rule="evenodd" />
    <ns0:path d="M345.006 294.099c-29.073-5.366-54.564 3.078-75.617 24.03m28.749 7.674c10.443 10.64 23.734 11.084 25.923-6.997M150.771 518.29c-13.855-4.786-23.878 17.537-15.038 18.447m181.143-62.433l9.488 11.79m202.389-116.858l.29-24.918M325.879 162.65l-10.113 5.28m63.504-59.056c30.152 42.12 41.04 50.64 5.187 44.597" fill="none" />
    <ns0:g fill-rule="evenodd">
      <ns0:path d="M454.444 131.126c86.572 25.384 71.97 7.062 90.229 36.796 10.23 16.658 24.403-5.678 58.146-3.565 18.223 1.141-50-27.221-58.899-38.563-12.353-15.745-102.178 1.608-89.476 5.332z" fill="url(#bN_c)" />
      <ns0:path d="M579.551 199.723c27.192 20.672 47.11-.325 46.036 35.545-.738 24.63 32.506 8.174 48.65 18.448 14.873 9.465 29.79-28.715 20.33-28.715-14.232 0-38.4 6.677-34.027-9.395 9.598-35.278-88.799-21.821-80.989-15.883z" fill="url(#bN_d)" />
      <ns0:path d="M659.532 277.716c5.292 1.851 34.12 21.37 32.785 30.65-6.884 47.874 28.416 44.77 43.608 49.831 21.288 7.092-.992-18.323-11.734-31.39-10.741-13.068 7.34-18.918 6.074-27.207-4.453-29.156-73.497-22.851-70.733-21.884z" fill="url(#bN_e)" />
      <ns0:path d="M710.39 378.647c5.058 8.82 16.918 18.81 20.677 32.645 3.76 13.836 5.175 26.171 12.694 41.032s37.773 12.923 50.818 8.562c17.578-5.877-42.496-24.127-28.96-51.952 8.567-17.61-57.959-35.047-55.23-30.287z" fill="url(#bN_f)" />
    </ns0:g>
    <ns0:path d="M438.147 729.501l-25.78 61.492" fill="none" />
  </ns0:g>
</g><g id="black-bishop"><ns0:linearGradient id="bB_a">
    <ns0:stop offset="0" />
    <ns0:stop offset="1" stop-color="#505090" />
  </ns0:linearGradient>
  <ns0:linearGradient id="bB_e" gradientUnits="userSpaceOnUse" x1="136.097" x2="784.781" ns1:href="#bB_a" y1="629.62" y2="865.103" />
  <ns0:linearGradient id="bB_d" gradientUnits="userSpaceOnUse" x1="321.158" x2="395.432" ns1:href="#bB_a" y1="90.161" y2="128.463" />
  <ns0:linearGradient id="bB_f" gradientUnits="userSpaceOnUse" x1="460.454" x2="534.728" ns1:href="#bB_a" y1="86.269" y2="124.57" />
  <ns0:linearGradient id="bB_c" gradientUnits="userSpaceOnUse" x1="192.3" x2="825.779" ns1:href="#bB_a" y1="446.013" y2="717.336" />
  <ns0:linearGradient id="bB_b" gradientUnits="userSpaceOnUse" x1="721.622" x2="541.266" ns1:href="#bB_a" y1="220.042" y2="599.38" />
  <ns0:g stroke="gray" stroke-linecap="round" stroke-linejoin="round" stroke-width="16">
    <ns0:g fill-rule="evenodd">
      <ns0:path d="M435.906 216.87c10.82-18.258 39.158-50.49 68.378-67.253 36.233 34.056 85.64 113.37 110.08 189.586 19.048 59.401 22.998 86.092 23.99 149.549s-32.381 125.966-52.865 149.09" fill="url(#bB_b)" />
      <ns0:path d="M565.47 687.058c6.038-53.469-294.122-49.522-281.848 3.006 9.917 21.888 2.096 50.035 2.096 50.035s69.277-9.83 146.383-8.605c77.105 1.225 129.29 7.339 129.29 7.339s-1.96-36.018 4.078-51.775z" fill="url(#bB_c)" />
      <ns0:path d="M279.434 682.284c-22.79-8.085-39.382-40.436-53.76-61.07-22.95-32.935-36.48-101.429-23.04-178.234 13.441-76.806 86.488-225.22 161.287-291.053C455.083 217.76 513.873 317.289 560.27 449.91c24.829 70.971 37.153 148.639 14.362 230.064-53.177-10.972-233.25-21.38-295.198 2.31z" fill="url(#bB_c)" />
      <ns0:path d="M350.43 138.719c12.479-21.196-19.732-34.719-2.883-49.522 9.462-8.313 25.649-9.145 34.737 1.638 13.104 15.548-22.745 29.035-5.107 47.677" fill="url(#bB_d)" />
    </ns0:g>
    <ns0:path d="M436.38 712.349c-9.533-2.574-18.102 1.956-21.598-.94-4.289-3.554-4.038-18.34-1.198-22.094 2.428-3.21 33.631-3.61 36.693-.653 2.855 2.751-.082 20.665-2.727 25.197" fill="none" />
    <ns0:g fill-rule="evenodd">
      <ns0:path d="M381.313 348.563c-11.428 1.812-17.116 14.342-15.685 24.968-.197 9.084 3.782 20.788-3.69 27.907-10.11 3.363-21.048-.85-31.349-1.73-8.48-.774-18.706-3.98-26.245 1.48-5.77 6.835.97 17.165 8.406 19.468 14.953 6.505 32.706 3.112 47.094 10.813 4.967 4.582 3.95 12.562 5.469 18.656 4.677 36.302 4.43 73.618 15.406 108.781 2.873 7.72 7.36 18.432 16.969 18.5 7.417-2.538 6.48-12.39 6.875-18.75-.899-39.872-11.964-78.736-13.72-118.531-.197-3.918.154-8.834 5.22-9.25 17.962-5.17 38.949.58 55.28-10.344 6.708-3.634 12.306-17.195 1.438-18.969-19.157-2.819-38.52 5.438-57.562 1.844-5.895-2.087-5.379-10.247-6.063-15.375-1.116-12.08 2.555-24.939-2.031-36.469-1.15-2.01-3.461-3.29-5.813-3z" />
      <ns0:path d="M317.867 803.289c55.824-.625 82.698-32.382 107.408-32.419 24.709-.038 47.253 31.643 107.352 31.749 32.245.057 201.998 3.445 192.564-22.285s-116.64 8.823-152.536-9.477c-18.79-9.579-24.302-11.849-48.608-15.531-65.569-9.934-132.61-9.538-191.9-.376-26.394 4.08-37.13 8.621-51.997 18.627-25.006 16.832-130.343-18.165-138.634 6.422-8.291 24.586 108.519 24.05 176.351 23.29z" fill="url(#bB_e)" />
      <ns0:path d="M635.688 91.156c-20.586.198-35.943 17.093-44.481 34.265-5.649 10.906-15.61 18.845-21.145 29.735-1.164 6.56 8.19 8.697 13.125 7.281 12.049-2.549 21.592-12.074 25.661-23.522 4.828-11.787 15.73-21.06 28.652-21.915 12.69-2.231 24.413 7.744 26.969 19.875 3.694 12.716 2.022 27.706-8.219 36.938-15.985 16.767-40.232 24.27-53.688 43.718-73.846 145.729-147.58 291.552-220.435 437.782-25.863 53.038-53.192 105.478-75.846 159.968-1.762 6.8-7.052 14.338-4.219 21.407 4.47 3.472 10.1-1.898 13.97-4.25 15.926-14.539 24.756-35.077 35.312-53.594 44.475-86.29 86.157-174.003 129.446-260.9 47.002-94.896 94.008-189.823 142.022-284.194 13.584-20.104 39.365-26.84 54.595-45.41 9.699-10.645 15.904-24.738 14.343-39.34-1-24.298-15.07-50.594-40.219-56.375-5.16-1.308-10.5-1.707-15.843-1.469z" />
      <ns0:path d="M489.726 134.826c12.48-21.196-19.731-34.718-2.882-49.522 9.461-8.313 25.648-9.144 34.737 1.639 13.103 15.547-22.745 29.035-5.107 47.677" fill="url(#bB_f)" />
    </ns0:g>
  </ns0:g>
</g><g id="black-rook"><ns0:linearGradient id="bR_a">
    <ns0:stop offset="0" />
    <ns0:stop offset="1" stop-color="#505090" />
  </ns0:linearGradient>
  <ns0:linearGradient id="bR_b" gradientTransform="matrix(1.04521 0 0 1.0145 -33.829 -11.835)" gradientUnits="userSpaceOnUse" x1="7.338" x2="689.745" ns1:href="#bR_a" y1="207.665" y2="274.331" />
  <ns0:linearGradient id="bR_d" gradientTransform="matrix(1.04521 0 0 1.0145 -33.829 -11.835)" gradientUnits="userSpaceOnUse" x1="218.502" x2="906.095" ns1:href="#bR_a" y1="521.53" y2="643.197" />
  <ns0:linearGradient id="bR_e" gradientTransform="matrix(1.04521 0 0 1.0145 -33.829 -11.835)" gradientUnits="userSpaceOnUse" x1="153.414" x2="966.586" ns1:href="#bR_a" y1="229.068" y2="400.734" />
  <ns0:linearGradient id="bR_c" gradientTransform="matrix(1.04521 0 0 1.0145 -33.829 -11.835)" gradientUnits="userSpaceOnUse" x1="193.15" x2="878.595" ns1:href="#bR_a" y1="715.406" y2="782.072" />
  <ns0:g stroke="gray" stroke-linejoin="round" stroke-width="16">
    <ns0:g stroke-linecap="round">
      <ns0:path d="M200.303 323.355s3.25-117.233 17.655-156.206c30.098-6.498 89.35-9.563 126.156-4.191.412 23.842-5.433 73.99-1.591 96.915 33.445-1.585 101.2 2.477 144.316-2.371.96-27.97-7.27-67.57.893-98.75 27.368-2.056 89.238-4.231 118.047 8.148-3.84 39.89.563 94.73.563 94.73l75.532 2.614-11.247 60c-94.304 35.348-411.33 30.1-470.324-.89z" fill="url(#bR_b)" fill-rule="evenodd" />
      <ns0:path d="M250.717 702.476c-23.988 23.953-74.114 48.056-109.857 55.622-5.184 17.112-10.284 36.898.24 58.174 127.397 1.155 463.79-.324 585.516-.747 6.568-23.731 11.535-40.898 4.967-59.55-37.479-7.42-82.743-18.624-116.25-53.496" fill="url(#bR_c)" fill-rule="evenodd" />
      <ns0:path d="M198.041 768.623c149.458.072 311.664-5.513 471.512.58" fill="none" />
    </ns0:g>
    <ns0:path d="M252.743 310.87c-3.768 44.851-4.854 357.288-3.817 394.504 55.177-4.666 311.612-4.96 368.162-.567-3.202-70.03-2.316-392.952-2.316-392.952" fill="url(#bR_d)" fill-rule="evenodd" />
    <ns0:g stroke-linecap="round">
      <ns0:path d="M291.38 634.833c39.889-2.94 123.47-6.252 215.439-3.295m-216.796-61.39c50.752-4.886 99.848-6.495 171.3-5.752M290.558 504.95c72.268-4.997 74.304-4.466 152.516-5.594m-152.516-58.344c36.685-3.033 58.258-4.61 102.16-3.55m-57.958 20.242c.88 29.932-.175-1.336.704 24.55m54.977 38.996c.88 29.932-.175-1.336.704 24.55m-56.385 39.729c.88 29.931-.175-1.337.704 24.55m116.09-26.579c.879 29.931-.176.692.703 26.579m-61.816 42.154c.88 29.932-.175.693.704 26.58m-99.326-295.609c27.857-3.033 42.052-4.007 65.776-3.55" fill="none" />
      <ns0:path d="M131.748 161.278c5.156 28.223 9.052 54.999 14.048 95.54 32.077 22.366 50.033 30.177 53.468 67.657 96.352-17.361 386.968-13.36 474.353-.352 6.09-33.782 16.053-39.555 63.13-67.91 5.947-44.361 11.169-65.75 11.505-92.273-14.107-3.43-115.468-33.784-127.989-29.424-4.453 26.393 1.844 49.067-4.015 73.888-37.943 1.902-71.745.458-111.013-9.763.195-33.178.146-51.373 1.776-77.052-16.583-5.906-115.208-6.956-133.816-.865-3.207 31.978.847 49.399-1.723 77.83-33.683 9.529-65.627 7.057-105.838 9.316-3.24-33.805 2.743-45.667 1.982-69.396-16.59-4.536-120.204 17.987-135.868 22.804z" fill="url(#bR_e)" fill-rule="evenodd" />
      <ns0:path d="M188.74 262.247c148.654-14.695 368.513-15.61 496.096 3.544" fill="none" />
    </ns0:g>
  </ns0:g>
</g><g id="black-queen"><ns0:linearGradient id="bQ_a">
    <ns0:stop offset="0" />
    <ns0:stop offset="1" stop-color="#505090" />
  </ns0:linearGradient>
  <ns0:linearGradient id="bQ_g" gradientUnits="userSpaceOnUse" x1="785.141" x2="840.911" ns1:href="#bQ_a" y1="294.759" y2="363.089" />
  <ns0:linearGradient id="bQ_e" gradientUnits="userSpaceOnUse" x1="649.863" x2="711.117" ns1:href="#bQ_a" y1="171.18" y2="227.749" />
  <ns0:linearGradient id="bQ_c" gradientUnits="userSpaceOnUse" x1="406.012" x2="470.835" ns1:href="#bQ_a" y1="103.532" y2="132.994" />
  <ns0:linearGradient id="bQ_i" gradientUnits="userSpaceOnUse" x1="167.872" x2="234.62" ns1:href="#bQ_a" y1="174.997" y2="174.997" />
  <ns0:linearGradient id="bQ_k" gradientUnits="userSpaceOnUse" x1="23.458" x2="87.371" ns1:href="#bQ_a" y1="337.855" y2="315.463" />
  <ns0:linearGradient id="bQ_j" gradientUnits="userSpaceOnUse" x1="339.471" x2="514.54" ns1:href="#bQ_a" y1="530.606" y2="571.593" />
  <ns0:linearGradient id="bQ_d" gradientUnits="userSpaceOnUse" x1="339.471" x2="495.022" ns1:href="#bQ_a" y1="530.606" y2="584.758" />
  <ns0:linearGradient id="bQ_f" gradientUnits="userSpaceOnUse" x1="339.471" x2="487.215" ns1:href="#bQ_a" y1="530.606" y2="584.758" />
  <ns0:linearGradient id="bQ_h" gradientUnits="userSpaceOnUse" x1="339.471" x2="498.926" ns1:href="#bQ_a" y1="530.606" y2="584.758" />
  <ns0:linearGradient id="bQ_l" gradientUnits="userSpaceOnUse" x1="339.471" x2="510.637" ns1:href="#bQ_a" y1="530.606" y2="584.758" />
  <ns0:linearGradient id="bQ_b" gradientUnits="userSpaceOnUse" x1="153.604" x2="761.364" ns1:href="#bQ_a" y1="380.54" y2="682.207" />
  <ns0:g fill-rule="evenodd">
    <ns0:path d="M243.935 824.89l-50.378-166.212 433.768 1.318-49.519 169.681z" fill="url(#bQ_b)" />
    <ns0:g stroke="gray" stroke-linecap="round" stroke-linejoin="round">
      <ns0:g stroke-width="16">
        <ns0:g fill="url(#bQ_b)">
          <ns0:path d="M612.713 716.28c-122.2-43.669-283.406-43.923-402.394-.104 12.585 30.53 15.919 92.998 15.919 92.998 100.719-28.173 271.954-27.317 371.885 4.188 0 0 2.31-66.707 14.59-97.082z" />
          <ns0:path d="M195.104 697.915c121.85-52.686 312.58-53.52 435.577.41C642.807 593.29 681.03 463.63 753.364 370.627c-54.848 21.462-134.48 158.863-180.775 184.758-36.304-76.263 35.544-274.204 63.478-316.129-46.899 28.219-146.147 203.016-175.47 284.785-42.265-94.445-32.372-271.082-33.383-345.108-31.796 69.553-73.518 229.373-77.788 342.314-81.193-60.864-109.846-225.27-131.501-290.406-11.924 93.798 8.884 257.173 22.623 323.227-52.792-35.593-114.44-113.92-165.611-180.305 65.06 155.574 88.608 202.693 120.167 324.153zm212.659 1.867c-18.998-.098-8.585 14.635-12.318 21.115-8.538 4.949-36.246-3.832-27.327 14.34 6.319 12.874 15.766 6.813 26.377 10.961 5.276 7.267-3.643 29.366 15.037 28.903 15.427-.383 7.018-22.431 10.316-28.372 9.326-6.094 21.562 2.165 27.734-13.452 4.686-11.856-18.512-7.458-27.673-12.564-3.837-5.731 7.62-20.828-12.146-20.931zm-163.19 125.491c88.823 10.599 232.722 14.36 332.958 4.407-56.568-25.281-259.89-25.068-332.958-4.407z" />
        </ns0:g>
        <ns0:path d="M474.62 82.518c-8.56.188-34.943 4.62-50.798 12.528-4.81 12.11-2.312 47.606.131 76.64 15.185-24.37 48.737-66.254 50.667-89.168z" fill="url(#bQ_c)" />
      </ns0:g>
      <ns0:path d="M440.763 530.606a45.962 44.783 0 11-91.924 0 45.962 44.783 0 1191.924 0z" fill="url(#bQ_d)" stroke-width="18.737" transform="translate(87.235 -271.506) scale(.85393)" />
      <ns0:path d="M714.902 206.005c-4.717-5.653-1.71-16-40.003-37.055l-48.856 61.029c27.41-8.55 70.764-21.46 88.86-23.974z" fill="url(#bQ_e)" stroke-width="16" />
      <ns0:path d="M440.763 530.606a45.962 44.783 0 11-91.924 0 45.962 44.783 0 1191.924 0z" fill="url(#bQ_f)" stroke-width="18.737" transform="translate(295.235 -211.506) scale(.85393)" />
      <ns0:path d="M845.56 351.891c2.674-13.827-12.17-18.268-26.411-37.324-19.836 8.122-42.817 17.81-59.006 40.522 40.867-8.428 59.444 4.058 85.417-3.198z" fill="url(#bQ_g)" stroke-width="16" />
      <ns0:path d="M440.763 530.606a45.962 44.783 0 11-91.924 0 45.962 44.783 0 1191.924 0z" fill="url(#bQ_h)" stroke-width="18.737" transform="translate(417.85 -85.749) scale(.85393)" />
      <ns0:path d="M226.62 154.518c-10.56-11.812-22.893-10.117-50.748-14.208.972 33.726 21.104 43.135 33.081 69.375 15.185-24.37 12.737-25.253 17.667-55.167z" fill="url(#bQ_i)" stroke-width="16" />
      <ns0:path d="M440.763 530.606a45.962 44.783 0 11-91.924 0 45.962 44.783 0 1191.924 0z" fill="url(#bQ_j)" stroke-width="18.737" transform="translate(-123.765 -219.506) scale(.85393)" />
      <ns0:path d="M50.263 289.782c-13.447 2.8-14.585 30.312-18.805 44.426 15.057 16.595 30.367 26.05 43.52 51.72 14.065-25.033-8.759-76.936-24.715-96.146z" fill="url(#bQ_k)" stroke-width="16" />
      <ns0:path d="M440.763 530.606a45.962 44.783 0 11-91.924 0 45.962 44.783 0 1191.924 0z" fill="url(#bQ_l)" stroke-width="18.737" transform="translate(-249.108 -68.92) scale(.85393)" />
    </ns0:g>
  </ns0:g>
</g><g id="black-king"><ns0:linearGradient id="bK_a">
    <ns0:stop offset="0" />
    <ns0:stop offset="1" stop-color="#505090" />
  </ns0:linearGradient>
  <ns0:linearGradient id="bK_b" gradientUnits="userSpaceOnUse" x1="297.554" x2="368.562" ns1:href="#bK_a" y1="427.05" y2="521.216" />
  <ns0:linearGradient id="bK_c" gradientUnits="userSpaceOnUse" x1="495.296" x2="595.971" ns1:href="#bK_a" y1="448.547" y2="528.547" />
  <ns0:linearGradient id="bK_g" gradientUnits="userSpaceOnUse" x1="221.551" x2="633.491" ns1:href="#bK_a" y1="774.937" y2="859.351" />
  <ns0:linearGradient id="bK_f" gradientUnits="userSpaceOnUse" x1="129.962" x2="812.369" ns1:href="#bK_a" y1="428.659" y2="836.313" />
  <ns0:linearGradient id="bK_e" gradientUnits="userSpaceOnUse" x1="368.469" x2="494.551" ns1:href="#bK_a" y1="319.275" y2="319.275" />
  <ns0:linearGradient id="bK_d" gradientUnits="userSpaceOnUse" x1="379.197" x2="579.848" ns1:href="#bK_a" y1="160.253" y2="286.919" />
  <ns0:g fill-rule="evenodd">
    <ns0:g stroke="gray" stroke-linecap="round" stroke-linejoin="round" stroke-width="16">
      <ns0:path d="M288.635 612.485c23.192-33.51-7.051-125.839.018-168.052 11.473-68.508 101.49-114.49 113.505-74.771 14.253 47.116-43.612 51.563-59.712 90.893-14.788 36.126-11.624 96.483 17.166 132.81" fill="url(#bK_b)" />
      <ns0:path d="M586.89 617.316c-23.192-33.51 7.052-125.839-.018-168.052-11.473-68.508-101.49-114.49-113.505-74.771-14.253 47.116 43.612 51.563 59.712 90.893 14.788 36.126 11.624 96.483-17.166 132.81" fill="url(#bK_c)" />
      <ns0:path d="M401.217 288.115c5.257-15 18.904-70.925 13.916-87.4-22.314-1.766-68.935 18.702-99.152 12.145-8.51-15.386-13.824-48.494-1.6-66.668 27.356-8.324 87.731 6.269 104.42 8.505 5.915-16.853-14.495-67.638-10.541-86.027 18.75-8.963 65.314-8.077 79.153 1.034-.705 19.314-28.895 66.225-29.579 82.264 18.784-.963 77.294-16.875 97.268-12.989 8.616 16.71 10.486 46.565-3.414 65.646-21.295 7.093-77.675-8.93-101.167-4.27-9.9 19.967 5.491 71.523 9.278 86.605" fill="url(#bK_d)" />
      <ns0:path d="M408.41 371.832c-24.735-21.418-35.634-21.596-30.833-75.206 4.1-45.781 106.257-43.42 108.634-1.991 2.981 51.947-14.29 55.837-26.3 80.99" fill="url(#bK_e)" />
    </ns0:g>
    <ns0:path d="M270.962 830.3l-63.975-196.244 471.233-2.067-74.89 204.324z" fill="url(#bK_f)" />
    <ns0:g stroke="gray" stroke-linecap="round" stroke-linejoin="round">
      <ns0:g stroke-width="16">
        <ns0:g fill="url(#bK_f)">
          <ns0:path d="M643.456 717.11c-93.676-48.015-307.139-50.27-407.606 1.875 14.074 44.473 19.704 93.973 19.704 93.973 91.666-28.464 277.873-29.6 367.873 4.143 0 0 9.28-66.68 20.03-99.992z" />
          <ns0:path d="M553.531 574.031c-36.24-15.313-76.704-58.826-121.978-60.222-43.574 1.01-78.556 38.564-103.397 58.41-115.273-52.467-113.895-152.892-33.25-171.313 13.135-3 52.232.464 78.063-.719-8.226-22.715-17.192-38.823-8.688-69.062-18.228-11.732-42.488-20.144-70.125-21.781a351.023 351.023 0 00-25.031-.594c-81.201 1-165.451 30.536-177.406 105.25C74.27 523.048 170.81 587.315 205.563 702.656c110.307-62.908 364.664-58.902 470.343-4.531 28.048-89.162 139.851-193.36 114.844-284.25-23.158-84.17-135.742-108.801-210.031-104.594-30.109 1.706-59.013 11.453-80.719 24.844 4.202 23.971-4.315 43.57-11.375 64.281 34.345.015 94.602-7.972 118.25 5.406 52.23 29.547 56.212 135.897-53.344 170.22z" />
          <ns0:path d="M328.488 572.528c37.995-26.678 55.998-79.661 54.479-122.435-2.191-61.676-35.18-72.426-16.34-126.414 12.774-36.607 119.163-38.489 131.179 1.23 14.253 47.116-22.343 76.45-16.638 124.145 6.654 55.64 7.067 92.523 72.294 126.573" />
        </ns0:g>
        <ns0:path d="M275.691 832.678c87.865 10.484 228.212 12.205 327.367 2.36-68.597-27.98-256.555-27.677-327.367-2.36z" fill="url(#bK_g)" />
      </ns0:g>
      <ns0:g fill="#fff">
        <ns0:path d="M453.622 737.035a16.908 16.103 0 11-33.817 0 16.908 16.103 0 1133.817 0z" stroke-width="16" />
        <ns0:path d="M815 915a17.5 16.667 0 11-35 0 17.5 16.667 0 1135 0z" stroke-width="18.087" transform="matrix(1.06262 -.19244 .12913 .71304 -628.072 249.549)" />
        <ns0:path d="M815 915a17.5 16.667 0 11-35 0 17.5 16.667 0 1135 0z" stroke-width="18.32" transform="matrix(1.03898 .16861 -.11608 .71528 -188.652 -40.445)" />
      </ns0:g>
    </ns0:g>
  </ns0:g>
</g><radialGradient id="check_gradient"><stop offset="0%" stop-color="#ff0000" stop-opacity="1.0" /><stop offset="50%" stop-color="#e70000" stop-opacity="1.0" /><stop offset="100%" stop-color="#9e0000" stop-opacity="0.0" /></radialGradient></defs><rect x="3600" y="0" width="600" height="900" stroke="none" fill="#262421" /><rect x="4200" y="0" width="600" height="900" stroke="none" fill="#bababa" /><rect x="4800" y="0" width="600" height="900" stroke="none" fill="#bf811d" /><rect x="5400" y="0" width="600" height="900" stroke="none" fill="#b72fc6" /><rect x="6000" y="0" width="600" height="900" stroke="none" fill="#706f6e" /><rect x="0" y="0" width="900" height="7200" stroke="none" fill="#f0d9b5" /><use xlink:href="#black-pawn" transform="translate(0, 900)" /><use xlink:href="#black-knight" transform="translate(0, 1800)" /><use xlink:href="#black-bishop" transform="translate(0, 2700)" /><use xlink:href="#black-rook" transform="translate(0, 3600)" /><use xlink:href="#black-queen" transform="translate(0, 4500)" /><use xlink:href="#black-king" transform="translate(0, 5400)" /><rect x="0" y="6300" width="900" height="900" fill="url(#check_gradient)" /><use xlink:href="#black-king" transform="translate(0, 6300)" /><rect x="900" y="0" width="900" height="7200" stroke="none" fill="#b58863" /><use xlink:href="#black-pawn" transform="translate(900, 900)" /><use xlink:href="#black-knight" transform="translate(900, 1800)" /><use xlink:href="#black-bishop" transform="translate(900, 2700)" /><use xlink:href="#black-rook" transform="translate(900, 3600)" /><use xlink:href="#black-queen" transform="translate(900, 4500)" /><use xlink:href="#black-king" transform="translate(900, 5400)" /><rect x="900" y="6300" width="900" height="900" fill="url(#check_gradient)" /><use xlink:href="#black-king" transform="translate(900, 6300)" /><rect x="1800" y="0" width="900" height="7200" stroke="none" fill="#ced26b" /><use xlink:href="#black-pawn" transform="translate(1800, 900)" /><use xlink:href="#black-knight" transform="translate(1800, 1800)" /><use xlink:href="#black-bishop" transform="translate(1800, 2700)" /><use xlink:href="#black-rook" transform="translate(1800, 3600)" /><use xlink:href="#black-queen" transform="translate(1800, 4500)" /><use xlink:href="#black-king" transform="translate(1800, 5400)" /><rect x="1800" y="6300" width="900" height="900" fill="url(#check_gradient)" /><use xlink:href="#black-king" transform="translate(1800, 6300)" /><rect x="2700" y="0" width="900" height="7200" stroke="none" fill="#aaa23b" /><use xlink:href="#black-pawn" transform="translate(2700, 900)" /><use xlink:href="#black-knight" transform="translate(2700, 1800)" /><use xlink:href="#black-bishop" transform="translate(2700, 2700)" /><use xlink:href="#black-rook" transform="translate(2700, 3600)" /><use xlink:href="#black-queen" transform="translate(2700, 4500)" /><use xlink:href="#black-king" transform="translate(2700, 5400)" /><rect x="2700" y="6300" width="900" height="900" fill="url(#check_gradient)" /><use xlink:href="#black-king" transform="translate(2700, 6300)" /><rect x="3600" y="900" width="900" height="6300" stroke="none" fill="#f0d9b5" /><use xlink:href="#white-pawn" transform="translate(3600, 900)" /><use xlink:href="#white-knight" transform="translate(3600, 1800)" /><use xlink:href="#white-bishop" transform="translate(3600, 2700)" /><use xlink:href="#white-rook" transform="translate(3600, 3600)" /><use xlink:href="#white-queen" transform="translate(3600, 4500)" /><use xlink:href="#white-king" transform="translate(3600, 5400)" /><rect x="3600" y="6300" width="900" height="900" fill="url(#check_gradient)" /><use xlink:href="#white-king" transform="translate(3600, 6300)" /><rect x="4500" y="900" width="900" height="6300" stroke="none" fill="#b58863" /><use xlink:href="#white-pawn" transform="translate(4500, 900)" /><use xlink:href="#white-knight" transform="translate(4500, 1800)" /><use xlink:href="#white-bishop" transform="translate(4500, 2700)" /><use xlink:href="#white-rook" transform="translate(4500, 3600)" /><use xlink:href="#white-queen" transform="translate(4500, 4500)" /><use xlink:href="#white-king" transform="translate(4500, 5400)" /><rect x="4500" y="6300" width="900" height="900" fill="url(#check_gradient)" /><use xlink:href="#white-king" transform="translate(4500, 6300)" /><rect x="5400" y="900" width="900" height="6300" stroke="none" fill="#ced26b" /><use xlink:href="#white-pawn" transform="translate(5400, 900)" /><use xlink:href="#white-knight" transform="translate(5400, 1800)" /><use xlink:href="#white-bishop" transform="translate(5400, 2700)" /><use xlink:href="#white-rook" transform="translate(5400, 3600)" /><use xlink:href="#white-queen" transform="translate(5400, 4500)" /><use xlink:href="#white-king" transform="translate(5400, 5400)" /><rect x="5400" y="6300" width="900" height="900" fill="url(#check_gradient)" /><use xlink:href="#white-king" transform="translate(5400, 6300)" /><rect x="6300" y="900" width="900" height="6300" stroke="none" fill="#aaa23b" /><use xlink:href="#white-pawn" transform="translate(6300, 900)" /><use xlink:href="#white-knight" transform="translate(6300, 1800)" /><use xlink:href="#white-bishop" transform="translate(6300, 2700)" /><use xlink:href="#white-rook" transform="translate(6300, 3600)" /><use xlink:href="#white-queen" transform="translate(6300, 4500)" /><use xlink:href="#white-king" transform="translate(6300, 5400)" /><rect x="6300" y="6300" width="900" height="900" fill="url(#check_gradient)" /><use xlink:href="#white-king" transform="translate(6300, 6300)" /></svg>