<svg xmlns:dc="http://purl.org/dc/elements/1.1/" xmlns:ns0="http://www.w3.org/2000/svg" xmlns:ns2="http://creativecommons.org/ns#" xmlns:rdf="http://www.w3.org/1999/02/22-rdf-syntax-ns#" xmlns="http://www.w3.org/2000/svg" version="1.1" xmlns:xlink="http://www.w3.org/1999/xlink" viewBox="0 0 400 400"><defs><g id="white-pawn"><ns0:metadata>
  <rdf:RDF>
   <ns2:Work rdf:about="">
    <dc:format>image/svg+xml</dc:format>
    <dc:type rdf:resource="http://purl.org/dc/dcmitype/StillImage" />
    <dc:title />
   </ns2:Work>
  </rdf:RDF>
 </ns0:metadata>
 <ns0:g transform="matrix(.99863 0 0 .94184 -3924.7 2004.8)" stroke-width="1.0311">
  <ns0:g transform="matrix(1.1153 0 0 1.1414 4227 -2115.5)" stroke-width=".9672">
   <ns0:path class="st31" d="m-243.8 28.9h-11.075c-2.2-5.4 3.175-11.333 7.275-13.033-4.9-2.9-2.7-9.3673 1.5-9.9673-1-0.7-1.5-1.7-1.5-2.9 0-1 0.4-1.9 1.1-2.6s1.6-1.1 2.7-1.1c1 0 1.9 0.4 2.7 1.1 0.7 0.7 1.1 1.6 1.1 2.6 0 1.2-0.5 2.2-1.5 2.9 4.6 1.9 5.8 7.9673 1.5 9.9673 5.6 2.1 9.075 8.3327 7.275 13.033z" fill="#fafafa" stroke="#3a3a3a" stroke-linejoin="round" stroke-width="1.0967" />
  </ns0:g>
  <ns0:path d="m3955.1-2116.3c-0.9329 0-1.7362 0.2651-2.4112 0.7431 3.3843 0.6247 6.0778 3.5973 2.3305 6.7903 5.1303 2.1687 6.4685 9.0937 1.673 11.376 6.2455 2.397 8.0044 9.5114 5.997 14.876h4.7625c2.0074-5.3647-1.8677-12.479-8.1132-14.876 4.7956-2.2828 3.4568-9.2078-1.6735-11.376 1.1152-0.799 1.6735-1.9407 1.6735-3.3104 0-1.1414-0.4461-2.1688-1.2269-2.9678-0.8921-0.799-1.8965-1.2552-3.0117-1.2552z" opacity=".15" />
 </ns0:g>
</g><g id="white-knight"><ns0:metadata>
  <rdf:RDF>
   <ns2:Work rdf:about="">
    <dc:format>image/svg+xml</dc:format>
    <dc:type rdf:resource="http://purl.org/dc/dcmitype/StillImage" />
    <dc:title />
   </ns2:Work>
  </rdf:RDF>
 </ns0:metadata>
 <ns0:g transform="matrix(.97316 0 0 .9725 223.38 28.246)" stroke-width="1.0279">
  <ns0:path d="m-209.1-20.964c-0.85664 0.39442 0.91011 2.4637 0.41551 3.3628-0.10027 0.12045-0.20231 0.22911-0.30478 0.33318-1.0255 0.01641-4.5973-0.81357-4.5216-0.03263 0.54346 0.93947 2.3657 1.7739 1.8411 3.1491-0.38008 0.55007-0.77069 1.0942-1.1683 1.6353-3.364 4.5789-7.2274 8.9453-9.4483 14.909-0.14226 2.1265 2.1688 3.4164 5.5109 4.532 2.5955-0.38351 3.8767-2.8211 6.4366-4.3898 2.0266-1.255 4.6511-1.1622 7.1755-2.3475-1.0749 7.2389-10.034 8.3609-10.805 15.446h28.448c0.75944-18.31-1.7917-29.955-19.302-33.758-0.82783-1.4212-2.4322-2.9285-4.2773-2.8397z" clip-rule="evenodd" fill="#fafafa" fill-rule="evenodd" image-rendering="optimizeQuality" shape-rendering="geometricPrecision" stroke="#3a3a3a" stroke-width="1.1307" />
  <ns0:g fill="#3a3a3a">
   <ns0:path class="st32" d="m-215.37 2.3182c0.41909-0.41911 0.6985 0.41911 0.41909 1.1175-0.9778 0.55877-2.0592 1.7229-2.7938 2.235-0.5654 0.39418-1.2317 0.6713 2.3747-3.3525z" stroke-width="1.2335" />
   <ns0:path class="st32" d="m-219.1-0.54145c0.55871-0.41902 0.83811 0.27938 0.55871 0.97788-0.2793 0.41902-1.2572 0.97778-1.9556 1.1174-0.6985 0.27937-0.97791 0 1.3969-2.0953z" stroke-width="1.2335" />
   <ns0:path class="st32" d="m-204.49-1.7148c1.7301-0.87459 4.0369-2.1866 2.9989-4.1544-0.34512-0.53307-1.177-1.7549-2.0762-2.2959 1.2688 2.9519 0.69213 3.4984-1.6147 6.669" />
   <ns0:path d="m-212.76-7.0976c0.72927-1.2545 1.7132-2.5028 3.0895-3.1256 2.846-1.1729 0.62652 0.88177 0.0371 1.4541 0.45898 0.73215-0.076 1.774-1.1046 1.5872-0.1416-0.036365 0.22972-0.60863 0.1319-0.60686-0.55803 0.010222-1.0057 1.1209-1.6544 1.33-0.40971 0.27956-0.68635-0.32152-0.49945-0.63884z" />
   <ns0:path class="st32" d="m-189.32 15.061c0.72254-13.26-1.4467-26.578-12.884-28.025 10.464 3.3207 10.026 13.894 9.8095 28.025z" stroke-width="1.0791" />
  </ns0:g>
  <ns0:path d="m-199.83-4.1365c-0.68806 1.3825-1.1995 8.6816-3.5813 7.0174-0.36991-0.38257-0.036-0.93033-9e-3 -1.3772 0.0693-0.29653 0.44987-1.2423 0.30609-1.3077-0.20723-0.094156-1.8315 0.62494-2.4607 0.8386-9.277 3.151-4.0108 1.3549 5.7454-5.1711z" opacity=".15" />
  <ns0:path d="m-209.1-20.964c-0.77334 0.35606 2.8454 2.7462 2.7542 3.739 16.619 4.0239 16.801 14.898 16.056 32.859h4.7689c0.75943-18.31-1.7917-29.955-19.302-33.758-0.82783-1.4212-2.4322-2.9285-4.2773-2.8397z" clip-rule="evenodd" fill-rule="evenodd" image-rendering="optimizeQuality" opacity=".15" shape-rendering="geometricPrecision" />
 </ns0:g>
</g><g id="white-bishop"><ns0:metadata>
  <rdf:RDF>
   <ns2:Work rdf:about="">
    <dc:format>image/svg+xml</dc:format>
    <dc:type rdf:resource="http://purl.org/dc/dcmitype/StillImage" />
    <dc:title />
   </ns2:Work>
  </rdf:RDF>
 </ns0:metadata>
 <ns0:g transform="matrix(.97733 0 0 .97544 430.59 80.521)" stroke-width="1.0242">
  <ns0:path d="m-415.06-74.758v0.0052c-0.79459 0.02794-1.4993 0.30856-2.0562 0.87436-0.62006 0.59683-0.91364 1.3191-0.91364 2.1358 0 1.225 0.55484 2.1048 1.6971 2.7016-0.81588 0.94235-1.7298 1.8529-2.7089 2.6696-1.8602 1.602-4.3403 2.8903-5.1888 5.0891-0.42425 1.068-0.65268 2.0728-0.65268 2.9523 0 0.5026 0.0327 1.0684 0.1633 1.7281 0.0979 0.62824 0.35872 1.3191 0.75034 1.9787 0.29371 0.53401 0.6856 1.005 1.1751 1.4134 0.45689 0.40836 1.2725 0.94284 2.48 1.6025l-2.3823 5.748c0.68533 0.2513 1.4361 0.47155 2.2846 0.69143 0.84851 0.21988 1.6642 0.37653 2.4474 0.47077-3.753 4.5547-9.8883-1.7273-14.163 2.8903l2.2521 3.5491c5.4174-2.9841 8.701 2.7234 14.327-2.2298 0.55968-0.49277 0.55027-0.51529 1.1095 0 5.5123 5.0793 8.9094-0.75427 14.327 2.2298l2.2515-3.5491c-4.2752-4.6175-10.41 1.6644-14.163-2.8903 0.78324-0.09424 1.5989-0.25089 2.4474-0.47077 0.8485-0.21988 1.5993-0.44013 2.2846-0.69143l-2.3823-5.748c1.2075-0.65965 2.0236-1.1941 2.4805-1.6025 0.48952-0.40835 0.88089-0.87935 1.1746-1.4134 0.39162-0.65965 0.65245-1.3505 0.75035-1.9787 0.13058-0.65965 0.16329-1.2255 0.16329-1.7281 0-0.87952-0.22842-1.8843-0.65267-2.9523-0.8485-2.1988-3.3286-3.4871-5.1888-5.0891-0.97904-0.81671-1.893-1.7273-2.7089-2.6696 1.1422-0.59682 1.697-1.4766 1.697-2.7016 0-0.8167-0.29357-1.539-0.91363-2.1358-0.5569-0.56581-1.2616-0.84642-2.0562-0.87436v-0.0052c-0.022 0-0.0432 0.0021-0.0651 0.0026-0.0219-2.65e-4 -0.0431-0.0026-0.0651-0.0026z" fill="#fafafa" stroke="#3a3a3a" stroke-width="1.229" />
  <ns0:path class="st32" d="m-409.38-46.425-0.9003-2.293c-1.4405-0.31412-3.001-0.50259-4.7116-0.50259-1.7106 0-3.2711 0.15706-4.6816 0.50259l-0.9003 2.2616c1.7406-0.47117 3.6012-0.69106 5.5519-0.69106 1.9806 0 3.8413 0.2513 5.6419 0.72247z" fill="#3a3a3a" stroke-width=".27098" />
  <ns0:path class="st32" d="m-415.12-63.45c-0.78324 0-1.1422 0.34552-1.1422 1.0366v2.4815h-2.6761c-0.71796 0-1.077 0.31411-1.077 0.94235h0.48952v-0.15706 0.15706h-0.48952c0 0.62823 0.35899 0.94235 1.077 0.94235h2.6761v2.4815c0 0.69105 0.39162 1.0366 1.1422 1.0366s1.1422-0.34553 1.1422-1.0366v-2.4815h2.774c0.68533 0 1.0443-0.31412 1.0443-0.94235h-0.22844v-0.15706 0.15706h0.22844c0-0.62824-0.35898-0.94235-1.0443-0.94235h-2.774v-2.4815c0-0.69106-0.39162-1.0366-1.1422-1.0366z" fill="#3a3a3a" stroke-width=".27098" />
  <ns0:path d="m-415.06-74.758c-0.78352 0-1.4633 0.22501-2.0175 0.69418 0.069 0.0588 0.1373 0.11899 0.20232 0.18516 4.839 0.71149 3.8639 3.2326 1.3795 4.8377-1.1319 0.96761-0.28485 1.9729 0.54594 2.6699 1.8604 1.602 4.3403 2.8896 5.1883 5.0885 0.4244 1.0679 0.65323 2.0735 0.65323 2.9531 0 0.50255-0.0335 1.0678-0.16381 1.7274-0.0975 0.62821-0.35888 1.3195-0.75026 1.9792-0.29386 0.534-0.68499 1.005-1.1747 1.4133-0.45692 0.40842-1.273 0.94235-2.4804 1.602l2.3826 5.7484c-0.68524 0.25132-1.4358 0.4714-2.2843 0.69125-0.84855 0.21992-1.6646 0.37704-2.4476 0.47127 5.1851 6.6207 11.872 0.50268 17.469 3.9855 0.94983-1.6764-0.67924 1.0704 0.69524-1.0956-1.336-1.443-2.8535-1.8214-4.4233-1.7989-2.6792 0.10244-5.2858 0.81019-7.5174 0.43796h8e-3c-0.80404-0.24468-1.5563-0.70948-2.2303-1.528 0.78303-0.0939 1.5988-0.25135 2.4476-0.47128 0.84855-0.21984 1.5991-0.43992 2.2843-0.69124l-2.3821-5.7484c1.2074-0.65962 2.0235-1.1936 2.4804-1.602 0.48967-0.40829 0.88056-0.87932 1.1742-1.4133 0.39164-0.65961 0.65298-1.3509 0.75076-1.9792 0.1303-0.65962 0.16381-1.2248 0.16381-1.7274 0-0.87955-0.22883-1.8852-0.65323-2.9531-0.8483-2.1989-3.3289-3.4865-5.1893-5.0885-0.97884-0.81671-1.8919-1.7274-2.708-2.6699 1.1424-0.59679 1.6968-1.4763 1.6968-2.7013 0-0.81669-0.29361-1.5396-0.91382-2.1364-0.58746-0.59684-1.3377-0.87934-2.1863-0.87934z" opacity=".15" />
 </ns0:g>
</g><g id="white-rook"><ns0:metadata>
  <rdf:RDF>
   <ns2:Work rdf:about="">
    <dc:format>image/svg+xml</dc:format>
    <dc:type rdf:resource="http://purl.org/dc/dcmitype/StillImage" />
    <dc:title />
   </ns2:Work>
  </rdf:RDF>
 </ns0:metadata>
 <ns0:g transform="translate(497.77 -77.408)">
  <ns0:path d="m-485.39 86.956v7.7333l4.8329 4.0175v10.204l-6.588 6.9652v4.932h28.745v-4.932l-6.5874-6.9652v-10.204l4.8329-4.0175v-7.7333h-5.2993v3.1011h-3.992v-3.1011h-6.6534v3.1011h-3.992v-3.1011z" fill="#fafafa" stroke="#3a3a3a" stroke-width="1.2" />
  <ns0:path class="st32" d="m-472.77 93.863h-8.7496l3.3065 2.5h11.004l3.1887-2.5z" fill="#3a3a3a" stroke-width="1.0042" />
  <ns0:path d="m-463.73 86.956v7.7332l-4.8326 4.0174v10.204l6.5873 6.9653v4.9319h3.5728v-4.9319l-6.5878-6.9653v-10.204l4.8331-4.0174v-7.7332z" opacity=".15" />
  <ns0:g fill="#3a3a3a" stroke-width="1.0042">
   <ns0:path class="st32" d="m-472.77 116.15h-10.027l2.7763-2.5h14.636l2.6422 2.5z" />
   <ns0:path class="st32" d="m-472.71 112.06h-6.7886l1.7622-2.2h10.146l1.6693 2.2z" />
   <ns0:path class="st32" d="m-472.71 97.951h-4.9728l1.7453 2.2h6.525l1.6754-2.2z" />
  </ns0:g>
 </ns0:g>
</g><g id="white-queen"><ns0:metadata>
  <rdf:RDF>
   <ns2:Work rdf:about="">
    <dc:format>image/svg+xml</dc:format>
    <dc:type rdf:resource="http://purl.org/dc/dcmitype/StillImage" />
    <dc:title />
   </ns2:Work>
  </rdf:RDF>
 </ns0:metadata>
 <ns0:g transform="matrix(.92933 0 0 .97435 120.5 27.685)" stroke-width="1.0509">
  <ns0:path d="m-108.88-20.599c-2.1566-2.77e-4 -3.9054 1.7121-3.9054 3.8245 0 1.5779 0.99276 2.9927 2.4951 3.5624l-0.60775 10.413-5.4862-6.3522c0.3139-0.56264 0.47829-1.1935 0.47829-1.8347 0-2.1125-1.7482-3.8251-3.9048-3.8251-2.1569-8.9e-5 -3.9054 1.7126-3.9051 3.8251 0 2.1123 1.7485 3.8246 3.9051 3.8245l3.9006 11.966 2.5279 3.9112v5.6412c0 0.95361 5.3287 1.7299 10.619 1.758 5.2907-0.02824 10.619-0.80434 10.619-1.758v-5.6412l2.5276-3.9112 3.9009-11.966c2.1566 8.93e-5 3.9051-1.7122 3.9051-3.8245 0-2.1126-1.7482-3.8252-3.9051-3.8251-2.1566 6.3e-5 -3.9051 1.7126-3.9048 3.8251 0 0.64114 0.1644 1.272 0.47829 1.8347l-5.4865 6.3522-0.60774-10.413c1.5023-0.56969 2.4933-1.9845 2.4951-3.5624 0-2.1123-1.7485-3.8246-3.9051-3.8245-2.1566 5.3e-5 -3.9048 1.7123-3.9048 3.8245 0 0.97513 0.38379 1.9128 1.0678 2.6212l-3.2803 9.8231-3.2803-9.8231c0.68401-0.70847 1.066-1.6461 1.0678-2.6212 0-2.1122-1.7482-3.8245-3.9048-3.8245z" fill="#fafafa" stroke="#3a3a3a" stroke-linejoin="round" stroke-width="1.2611" />
  <ns0:path d="m-94.135 10.565c-2.1453-0.8839-5.0073-1.33-8.5737-1.33-3.5968 0-6.4884 0.45462-8.6809 1.3573l-1.1e-4 2.6427c2.2051-0.85727 5.2691-1.2865 8.6809-1.2865 3.3935 0 6.4405 0.41967 8.5737 1.2592z" fill="#3a3a3a" stroke-width="1.0509" />
  <ns0:path d="m-102.76 1.7374c-4.0027 0.058876-8.0111 0.78108-10.766 2.0285l1.7514 2.5899c2.0672-0.99921 5.8884-1.4821 9.0144-1.4818 3.126-2.568e-4 6.9474 0.48261 9.0146 1.4818l1.7507-2.5899c-2.7547-1.2475-6.7627-1.9703-10.765-2.0285z" fill="#3a3a3a" stroke-width=".27805" />
  <ns0:path d="m-85.715-14.812c-0.78079 2.1e-5 -1.5065 0.22672-2.1167 0.6134 5.7291 1.0893 3.8969 5.9945 0.34626 6.4801l-6.3638 12.522-2.5275 3.9109v5.6415c-3e-6 0.82573-3.9963 1.5171-8.5028 1.7064 0.69805 0.02931 1.407 0.04739 2.1167 0.05116 5.2907-0.0282 10.62-0.8039 10.62-1.7575v-5.6415l2.5275-3.9109 3.9009-11.966c2.1566 9e-5 3.9052-1.7122 3.9052-3.8246 0-2.1126-1.7483-3.8252-3.9052-3.8251z" opacity=".15" />
 </ns0:g>
</g><g id="white-king"><ns0:metadata>
  <rdf:RDF>
   <ns2:Work rdf:about="">
    <dc:format>image/svg+xml</dc:format>
    <dc:type rdf:resource="http://purl.org/dc/dcmitype/StillImage" />
    <dc:title />
   </ns2:Work>
  </rdf:RDF>
 </ns0:metadata>
 <ns0:g transform="translate(328.12 28.686)">
  <ns0:g stroke="#3a3a3a" stroke-linejoin="round">
   <ns0:path d="m-305.56-23.086v3.5517h-3.693v4.694h3.4946l-0.60488 3.7718c-6.885-2.9852-12.632-1.3926-15.043 3.4588-2.1678 6.0799 1.6722 8.6644 5.7663 12.313v7.7625c3.4682 2.0129 9.657 2.2142 12.52 2.2486 0.0176-1.13e-4 0.0228 0 0.0327 0h0.0176c2.8632-0.03425 9.0522-0.23569 12.52-2.2486v-7.8056c4.0753-3.6249 7.8762-6.2142 5.7173-12.27-2.4106-4.8514-8.1578-6.444-15.043-3.4588l-0.6075-3.7718h3.4975v-4.694h-3.693v-3.5517z" fill="#fafafa" stroke-width="1.2" />
   <ns0:path d="m-305.44 0.26188-8.4024 0.78283s-7.0022-3.5938-3.8718-7.9259c3.1305-4.3325 12.945-1.2283 12.274 7.1431z" fill="none" stroke-width="2" />
   <ns0:path d="m-300.81 0.26188 8.4024 0.78283s7.0023-3.5938 3.8718-7.9259c-3.1305-4.3325-12.945-1.2283-12.274 7.1431z" fill="none" stroke-width="2" />
  </ns0:g>
  <ns0:g>
   <ns0:path d="m-292.7 8.0967c-2.6081-0.99405-6.0878-1.496-10.424-1.496-4.3729 0-7.8885 0.51129-10.554 1.527l-1.1e-4 2.973c2.6809-0.96445 6.406-1.4474 10.554-1.4474 4.1258 0 7.8303 0.47225 10.424 1.4166z" fill="#3a3a3a" />
   <ns0:path d="m-293.27-12.585c-0.88419-0.0011-1.8127 0.09454-2.776 0.28723 2.6266 0.62128 4.6881 2.2373 5.9023 4.6823 2.1583 6.057-1.6416 8.6471-5.7158 12.273v7.2862c-0.54309 1.1268-12.484 1.8347-15.599 1.9976 1.0161 0.05312 7.6351 0.76492 8.3389 0.77337 0.0176-1.2e-4 0.0233 0 0.0332 0h0.017c2.8623-0.03429 9.0495-0.23602 12.517-2.2495v-7.8077c4.0741-3.6259 7.874-6.216 5.7157-12.273-1.5815-3.1846-4.5993-4.9654-8.4327-4.9695z" opacity=".15" />
   <ns0:path d="m-303.12-23.096v4.4913h2.6247v2.7148l0.011 1.0418 0.56516 3.5109-0.56515-3.5109h3.4964v-4.6952h-3.3472l-0.34472-3.5527z" opacity=".15" />
  </ns0:g>
 </ns0:g>
</g><g id="black-pawn"><ns0:metadata>
  <rdf:RDF>
   <ns2:Work rdf:about="">
    <dc:format>image/svg+xml</dc:format>
    <dc:type rdf:resource="http://purl.org/dc/dcmitype/StillImage" />
    <dc:title />
   </ns2:Work>
  </rdf:RDF>
 </ns0:metadata>
 <ns0:g transform="matrix(.99861 0 0 .94185 -3925.1 1957.9)" stroke-width="1.0311">
  <ns0:g transform="matrix(1.1153 0 0 1.1414 4227.5 -2065.7)" stroke-width=".9672">
   <ns0:path class="st31" d="m-243.8 28.9h-11.075c-2.2-5.4 3.175-11.333 7.275-13.033-4.9-2.9-2.7-9.3673 1.5-9.9673-1-0.7-1.5-1.7-1.5-2.9 0-1 0.4-1.9 1.1-2.6s1.6-1.1 2.7-1.1c1 0 1.9 0.4 2.7 1.1 0.7 0.7 1.1 1.6 1.1 2.6 0 1.2-0.5 2.2-1.5 2.9 4.6 1.9 5.8 7.9673 1.5 9.9673 5.6 2.1 9.075 8.3327 7.275 13.033z" fill="#404040" stroke="#141414" stroke-linejoin="round" stroke-width="1.0967" />
  </ns0:g>
  <ns0:path d="m3955.6-2066.5c-0.9329 0-1.7362 0.2651-2.4112 0.7431 3.3843 0.6247 6.0778 3.5973 2.3305 6.7903 5.1303 2.1687 6.4685 9.0937 1.673 11.376 6.2455 2.397 8.0044 9.5114 5.997 14.876h4.7625c2.0074-5.3647-1.8677-12.479-8.1132-14.876 4.7956-2.2828 3.4568-9.2078-1.6735-11.376 1.1152-0.799 1.6735-1.9407 1.6735-3.3104 0-1.1414-0.4461-2.1688-1.2269-2.9678-0.8921-0.799-1.8965-1.2552-3.0117-1.2552z" opacity=".15" />
 </ns0:g>
</g><g id="black-knight"><ns0:metadata>
  <rdf:RDF>
   <ns2:Work rdf:about="">
    <dc:format>image/svg+xml</dc:format>
    <dc:type rdf:resource="http://purl.org/dc/dcmitype/StillImage" />
    <dc:title />
   </ns2:Work>
  </rdf:RDF>
 </ns0:metadata>
 <ns0:g transform="matrix(.9729 0 0 .97289 225.56 -72.835)" stroke-width="1.0279">
  <ns0:path d="m-211.4 82.628c-0.85688 0.39763 0.91037 2.4838 0.41563 3.3902-0.1003 0.12143-0.20237 0.23098-0.30487 0.3359-1.0258 0.01655-4.5986-0.8202-4.5228-0.03294 0.54362 0.94713 2.3664 1.7884 1.8416 3.1748-3.5972 5.2469-8.1354 9.9563-10.62 16.679-0.1423 2.1439 2.1694 3.4443 5.5124 4.5689 2.5962-0.38663 3.8778-2.8441 6.4384-4.4256 2.0271-1.2652 4.6524-1.1717 7.1776-2.3666-1.0752 7.2979-10.037 8.4291-10.809 15.572h28.456c0.75965-18.46-1.7922-30.199-19.308-34.033-0.82805-1.4328-2.4329-2.9524-4.2785-2.8628z" clip-rule="evenodd" fill="#404040" fill-rule="evenodd" image-rendering="optimizeQuality" shape-rendering="geometricPrecision" stroke="#000" stroke-width="1.1306" />
  <ns0:g fill="#e6e6e6">
   <ns0:path class="st32" d="m-217.67 106.1c0.41921-0.42253 0.69869 0.42253 0.41921 1.1266-0.97807 0.56332-2.0598 1.737-2.7946 2.2532-0.56555 0.3974-1.232 0.67678 2.3754-3.3799z" stroke-width="1.2334" />
   <ns0:path class="st32" d="m-221.39 103.22c0.55886-0.42243 0.83834 0.28166 0.55886 0.98585-0.27938 0.42244-1.2576 0.98576-1.9562 1.1265-0.6987 0.28165-0.97818 0 1.3973-2.1124z" stroke-width="1.2334" />
   <ns0:path class="st32" d="m-206.78 102.03c1.7305-0.88172 4.038-2.2044 2.9997-4.1883-0.34522-0.53742-1.1773-1.7692-2.0768-2.3146 1.2692 2.976 0.69233 3.527-1.6151 6.7234" />
   <ns0:path d="m-215.05 96.608c0.72947-1.2648 1.7136-2.5233 3.0903-3.151 2.8468-1.1824 0.62669 0.88896 0.0371 1.466 0.53136 0.82843 0.0485 1.944-1.1049 1.6001-0.14164-0.03666 0.22979-0.61359 0.13194-0.6118-0.55819 0.01031-1.006 1.13-1.6548 1.3408-0.40982 0.28184-0.68654-0.32414-0.49958-0.64405z" />
   <ns0:path class="st32" d="m-191.6 118.95c0.72273-13.368-1.4471-26.795-12.887-28.253 10.467 3.3477 10.028 14.007 9.8123 28.253z" stroke-width="1.0791" />
  </ns0:g>
  <ns0:path d="m-202.12 99.593c-0.68825 1.3938-1.1998 8.7524-3.5823 7.0746-0.37002-0.38569-0.0361-0.93791-9e-3 -1.3884 0.0693-0.29896 0.45-1.2525 0.30618-1.3184-0.20729-0.0949-1.832 0.63004-2.4614 0.84544-9.2796 3.1767-4.0119 1.366 5.747-5.2132z" opacity=".15" />
  <ns0:path d="m-211.4 82.628c-0.77356 0.35897 2.8462 2.7685 2.755 3.7695 16.623 4.0567 16.806 15.02 16.061 33.127h4.7702c0.75964-18.46-1.7922-30.199-19.308-34.033-0.82805-1.4328-2.4329-2.9524-4.2785-2.8628z" clip-rule="evenodd" fill-rule="evenodd" image-rendering="optimizeQuality" opacity=".15" shape-rendering="geometricPrecision" />
 </ns0:g>
</g><g id="black-bishop"><ns0:metadata>
  <rdf:RDF>
   <ns2:Work rdf:about="">
    <dc:format>image/svg+xml</dc:format>
    <dc:type rdf:resource="http://purl.org/dc/dcmitype/StillImage" />
    <dc:title />
   </ns2:Work>
  </rdf:RDF>
 </ns0:metadata>
 <ns0:g transform="matrix(.97734 0 0 .97544 430.59 80.521)" stroke-width="1.0242">
  <ns0:path d="m-415.06-74.758v0.0052c-0.79459 0.02794-1.4993 0.30856-2.0562 0.87436-0.62006 0.59683-0.91364 1.3191-0.91364 2.1358 0 1.225 0.55484 2.1048 1.6971 2.7016-0.81588 0.94235-1.7298 1.8529-2.7089 2.6696-1.8602 1.602-4.3403 2.8903-5.1888 5.0891-0.42425 1.068-0.65268 2.0728-0.65268 2.9523 0 0.5026 0.0327 1.0684 0.1633 1.7281 0.0979 0.62824 0.35872 1.3191 0.75034 1.9787 0.29371 0.53401 0.6856 1.005 1.1751 1.4134 0.45689 0.40836 1.2725 0.94284 2.48 1.6025l-2.3823 5.748c0.68533 0.2513 1.4361 0.47155 2.2846 0.69143 0.84851 0.21988 1.6642 0.37653 2.4474 0.47077-3.753 4.5547-9.8883-1.7273-14.163 2.8903l2.2521 3.5491c5.4174-2.9841 8.701 2.7234 14.327-2.2298 0.55968-0.49277 0.55027-0.51529 1.1095 0 5.5123 5.0793 8.9094-0.75427 14.327 2.2298l2.2515-3.5491c-4.2752-4.6175-10.41 1.6644-14.163-2.8903 0.78324-0.09424 1.5989-0.25089 2.4474-0.47077 0.8485-0.21988 1.5993-0.44013 2.2846-0.69143l-2.3823-5.748c1.2075-0.65965 2.0236-1.1941 2.4805-1.6025 0.48952-0.40835 0.88089-0.87935 1.1746-1.4134 0.39162-0.65965 0.65245-1.3505 0.75035-1.9787 0.13058-0.65965 0.16329-1.2255 0.16329-1.7281 0-0.87952-0.22842-1.8843-0.65267-2.9523-0.8485-2.1988-3.3286-3.4871-5.1888-5.0891-0.97904-0.81671-1.893-1.7273-2.7089-2.6696 1.1422-0.59682 1.697-1.4766 1.697-2.7016 0-0.8167-0.29357-1.539-0.91363-2.1358-0.5569-0.56581-1.2616-0.84642-2.0562-0.87436v-0.0052c-0.022 0-0.0432 0.0021-0.0651 0.0026-0.0219-2.65e-4 -0.0431-0.0026-0.0651-0.0026z" fill="#404040" stroke="#141414" stroke-width="1.229" />
  <ns0:path class="st32" d="m-409.38-46.425-0.9003-2.293c-1.4405-0.31412-3.001-0.50259-4.7116-0.50259-1.7106 0-3.2711 0.15706-4.6816 0.50259l-0.9003 2.2616c1.7406-0.47117 3.6012-0.69106 5.5519-0.69106 1.9806 0 3.8413 0.2513 5.6419 0.72247z" fill="#e6e6e6" stroke-width=".27098" />
  <ns0:path class="st32" d="m-415.12-63.45c-0.78324 0-1.1422 0.34552-1.1422 1.0366v2.4815h-2.6761c-0.71796 0-1.077 0.31411-1.077 0.94235h0.48952v-0.15706 0.15706h-0.48952c0 0.62823 0.35899 0.94235 1.077 0.94235h2.6761v2.4815c0 0.69105 0.39162 1.0366 1.1422 1.0366s1.1422-0.34553 1.1422-1.0366v-2.4815h2.774c0.68533 0 1.0443-0.31412 1.0443-0.94235h-0.22844v-0.15706 0.15706h0.22844c0-0.62824-0.35898-0.94235-1.0443-0.94235h-2.774v-2.4815c0-0.69106-0.39162-1.0366-1.1422-1.0366z" fill="#e6e6e6" stroke-width=".27098" />
  <ns0:path d="m-415.06-74.758c-0.78352 0-1.4633 0.22501-2.0175 0.69418 0.069 0.0588 0.1373 0.11899 0.20232 0.18516 4.839 0.71149 3.8639 3.2326 1.3795 4.8377-1.1319 0.96761-0.28485 1.9729 0.54594 2.6699 1.8604 1.602 4.3403 2.8896 5.1883 5.0885 0.4244 1.0679 0.65323 2.0735 0.65323 2.9531 0 0.50255-0.0335 1.0678-0.16381 1.7274-0.0975 0.62821-0.35888 1.3195-0.75026 1.9792-0.29386 0.534-0.68499 1.005-1.1747 1.4133-0.45692 0.40842-1.273 0.94235-2.4804 1.602l2.3826 5.7484c-0.68524 0.25132-1.4358 0.4714-2.2843 0.69125-0.84855 0.21992-1.6646 0.37704-2.4476 0.47127 5.1851 6.6207 11.872 0.50268 17.469 3.9855 0.94983-1.6764-0.67924 1.0704 0.69524-1.0956-1.336-1.443-2.8535-1.8214-4.4233-1.7989-2.6792 0.10244-5.2858 0.81019-7.5174 0.43796h8e-3c-0.80404-0.24468-1.5563-0.70948-2.2303-1.528 0.78303-0.0939 1.5988-0.25135 2.4476-0.47128 0.84855-0.21984 1.5991-0.43992 2.2843-0.69124l-2.3821-5.7484c1.2074-0.65962 2.0235-1.1936 2.4804-1.602 0.48967-0.40829 0.88056-0.87932 1.1742-1.4133 0.39164-0.65961 0.65298-1.3509 0.75076-1.9792 0.1303-0.65962 0.16381-1.2248 0.16381-1.7274 0-0.87955-0.22883-1.8852-0.65323-2.9531-0.8483-2.1989-3.3289-3.4865-5.1893-5.0885-0.97884-0.81671-1.8919-1.7274-2.708-2.6699 1.1424-0.59679 1.6968-1.4763 1.6968-2.7013 0-0.81669-0.29361-1.5396-0.91382-2.1364-0.58746-0.59684-1.3377-0.87934-2.1863-0.87934z" opacity=".15" />
 </ns0:g>
</g><g id="black-rook"><ns0:metadata>
  <rdf:RDF>
   <ns2:Work rdf:about="">
    <dc:format>image/svg+xml</dc:format>
    <dc:type rdf:resource="http://purl.org/dc/dcmitype/StillImage" />
    <dc:title />
    <ns2:license rdf:resource="http://creativecommons.org/licenses/by-nc-nd/4.0/" />
   </ns2:Work>
   <ns2:License rdf:about="http://creativecommons.org/licenses/by-nc-nd/4.0/">
    <ns2:permits rdf:resource="http://creativecommons.org/ns#Reproduction" />
    <ns2:permits rdf:resource="http://creativecommons.org/ns#Distribution" />
    <ns2:requires rdf:resource="http://creativecommons.org/ns#Notice" />
    <ns2:requires rdf:resource="http://creativecommons.org/ns#Attribution" />
    <ns2:prohibits rdf:resource="http://creativecommons.org/ns#CommercialUse" />
   </ns2:License>
  </rdf:RDF>
 </ns0:metadata>
 <ns0:g transform="translate(535 -76.285)">
  <ns0:path d="m-522.62 85.833v7.7333l4.8329 4.0175v10.204l-6.588 6.9652v4.932h28.745v-4.932l-6.5874-6.9652v-10.204l4.8329-4.0175v-7.7333h-5.2993v3.1011h-3.992v-3.1011h-6.6534v3.1011h-3.992v-3.1011z" fill="#404040" stroke="#141414" stroke-width="1.2" />
  <ns0:path class="st32" d="m-510 92.741h-8.7496l3.3066 2.5h11.004l3.1887-2.5z" fill="#e6e6e6" stroke-width="1.0042" />
  <ns0:path d="m-500.96 85.833v7.7332l-4.8326 4.0174v10.204l6.5873 6.9653v4.9319h3.5728v-4.9319l-6.5878-6.9653v-10.204l4.8331-4.0174v-7.7332z" opacity=".15" />
  <ns0:g fill="#e6e6e6" stroke-width="1.0042">
   <ns0:path class="st32" d="m-510 115.02h-10.027l2.7763-2.5h14.636l2.6422 2.5z" />
   <ns0:path class="st32" d="m-509.94 110.94h-6.7886l1.7622-2.2h10.146l1.6693 2.2z" />
   <ns0:path class="st32" d="m-509.94 96.828h-4.9728l1.7453 2.2h6.525l1.6754-2.2z" />
  </ns0:g>
 </ns0:g>
</g><g id="black-queen"><ns0:metadata>
  <rdf:RDF>
   <ns2:Work rdf:about="">
    <dc:format>image/svg+xml</dc:format>
    <dc:type rdf:resource="http://purl.org/dc/dcmitype/StillImage" />
    <dc:title />
   </ns2:Work>
  </rdf:RDF>
 </ns0:metadata>
 <ns0:g transform="matrix(.92933 0 0 .97435 120.5 27.685)" stroke-width="1.0509">
  <ns0:path d="m-108.88-20.599c-2.1566-2.77e-4 -3.9054 1.7121-3.9054 3.8245 0 1.5779 0.99276 2.9927 2.4951 3.5624l-0.60775 10.413-5.4862-6.3522c0.3139-0.56264 0.47829-1.1935 0.47829-1.8347 0-2.1125-1.7482-3.8251-3.9048-3.8251-2.1569-8.9e-5 -3.9054 1.7126-3.9051 3.8251 0 2.1123 1.7485 3.8246 3.9051 3.8245l3.9006 11.966 2.5279 3.9112v5.6412c0 0.95361 5.3287 1.7299 10.619 1.758 5.2907-0.02824 10.619-0.80434 10.619-1.758v-5.6412l2.5276-3.9112 3.9009-11.966c2.1566 8.93e-5 3.9051-1.7122 3.9051-3.8245 0-2.1126-1.7482-3.8252-3.9051-3.8251-2.1566 6.3e-5 -3.9051 1.7126-3.9048 3.8251 0 0.64114 0.1644 1.272 0.47829 1.8347l-5.4865 6.3522-0.60774-10.413c1.5023-0.56969 2.4933-1.9845 2.4951-3.5624 0-2.1123-1.7485-3.8246-3.9051-3.8245-2.1566 5.3e-5 -3.9048 1.7123-3.9048 3.8245 0 0.97513 0.38379 1.9128 1.0678 2.6212l-3.2803 9.8231-3.2803-9.8231c0.68401-0.70847 1.066-1.6461 1.0678-2.6212 0-2.1122-1.7482-3.8245-3.9048-3.8245z" fill="#404040" stroke="#141414" stroke-linejoin="round" stroke-width="1.2611" />
  <ns0:path d="m-94.135 10.565c-2.1453-0.8839-5.0073-1.33-8.5737-1.33-3.5968 0-6.4884 0.45462-8.6809 1.3573l-1.1e-4 2.6427c2.2051-0.85727 5.2691-1.2865 8.6809-1.2865 3.3935 0 6.4405 0.41967 8.5737 1.2592z" fill="#e6e6e6" stroke-width="1.0509" />
  <ns0:path d="m-102.76 1.7374c-4.0027 0.058876-8.0111 0.78108-10.766 2.0285l1.7514 2.5899c2.0672-0.9992 5.8884-1.4821 9.0144-1.4818 3.126-2.567e-4 6.9474 0.48261 9.0146 1.4818l1.7507-2.5899c-2.7547-1.2474-6.7627-1.9703-10.765-2.0285z" fill="#e6e6e6" stroke-width=".27805" />
  <ns0:path d="m-85.716-14.811c-0.78079 2.1e-5 -1.5065 0.22672-2.1167 0.6134 5.7291 1.0893 3.8969 5.9945 0.34626 6.4801l-6.3627 12.521-2.5275 3.9109v5.6415c-3e-6 0.82573-3.9963 1.5171-8.5028 1.7064 0.69805 0.02931 1.407 0.04739 2.1167 0.05116 5.2907-0.0282 10.62-0.8039 10.62-1.7575v-5.6415l2.5275-3.9109 3.8998-11.965c2.1566 9e-5 3.9052-1.7122 3.9052-3.8246 0-2.1126-1.7483-3.8252-3.9052-3.8251z" opacity=".15" />
 </ns0:g>
</g><g id="black-king"><ns0:metadata>
  <rdf:RDF>
   <ns2:Work rdf:about="">
    <dc:format>image/svg+xml</dc:format>
    <dc:type rdf:resource="http://purl.org/dc/dcmitype/StillImage" />
    <dc:title />
   </ns2:Work>
  </rdf:RDF>
 </ns0:metadata>
 <ns0:g transform="matrix(1.0028 0 0 .98551 329.39 26.504)" stroke-width="1.0059">
  <ns0:g stroke-linejoin="round">
   <ns0:path d="m-305.98-21.216v3.6049h-3.6816v4.7643h3.4839l-0.60303 3.8283c-6.8639-3.0299-12.594-1.4134-14.997 3.5107-2.1612 6.171 1.6671 8.7942 5.7486 12.497v7.8788c3.4575 2.0431 9.6274 2.2474 12.482 2.2823 0.0175-1.14e-4 0.0227 0 0.0326 0h0.0175c2.8544-0.03476 9.0244-0.23922 12.482-2.2823v-7.9225c4.0628-3.6792 7.852-6.3073 5.6997-12.453-2.4032-4.9241-8.1328-6.5406-14.997-3.5107l-0.60564-3.8283h3.4868v-4.7643h-3.6816v-3.6049z" fill="#404040" stroke="#141414" stroke-width="1.2071" />
   <ns0:path d="m-305.85 2.4857-8.3791 0.79434s-6.9828-3.6466-3.8611-8.0425c3.1218-4.3962 12.909-1.2464 12.24 7.2482z" fill="none" stroke="#e6e6e6" stroke-width="2.0119" />
   <ns0:path d="m-301.24 2.4857 8.3791 0.79434s6.9829-3.6466 3.8611-8.0425c-3.1218-4.3962-12.909-1.2464-12.24 7.2482z" fill="none" stroke="#e6e6e6" stroke-width="2.0119" />
  </ns0:g>
  <ns0:g>
   <ns0:path d="m-293.15 10.436c-2.6009-1.0087-6.0709-1.518-10.395-1.518-4.3608 0-7.8667 0.5188-10.525 1.5495l-1.1e-4 3.0167c2.6735-0.97863 6.3882-1.4687 10.525-1.4687 4.1144 0 7.8086 0.47919 10.395 1.4374z" fill="#e6e6e6" stroke-width="1.0059" />
   <ns0:path d="m-293.72-10.551c-0.88174-0.0011-1.8076 0.09593-2.7683 0.29146 2.6193 0.63042 4.6751 2.2702 5.8859 4.7511 2.1523 6.1461-1.6371 8.7743-5.6999 12.454v7.3933c-0.54159 1.1434-12.449 1.8617-15.556 2.027 1.0133 0.0539 7.6139 0.77618 8.3158 0.78475 0.0175-1.22e-4 0.0232 0 0.0331 0h0.017c2.8544-0.0348 9.0244-0.2395 12.482-2.2826v-7.9225c4.0628-3.6792 7.8522-6.3074 5.6999-12.454-1.5771-3.2314-4.5866-5.0385-8.4093-5.0426z" opacity=".15" />
   <ns0:path d="m-303.55-21.216v4.5573h2.6174v2.7547l0.011 1.0571 0.5636 3.5625-0.56359-3.5625h3.4868v-4.7643h-3.3379l-0.34377-3.6049z" opacity=".15" />
  </ns0:g>
 </ns0:g>
</g><radialGradient id="check_gradient"><stop offset="0%" stop-color="#ff0000" stop-opacity="1.0" /><stop offset="50%" stop-color="#e70000" stop-opacity="1.0" /><stop offset="100%" stop-color="#9e0000" stop-opacity="0.0" /></radialGradient></defs><rect x="200" y="0" width="33" height="50" stroke="none" fill="#262421" /><rect x="233" y="0" width="33" height="50" stroke="none" fill="#bababa" /><rect x="266" y="0" width="33" height="50" stroke="none" fill="#bf811d" /><rect x="299" y="0" width="33" height="50" stroke="none" fill="#b72fc6" /><rect x="332" y="0" width="33" height="50" stroke="none" fill="#706f6e" /><rect x="0" y="0" width="50" height="400" stroke="none" fill="#dee3e6" /><use xlink:href="#black-pawn" transform="translate(0, 50)" /><use xlink:href="#black-knight" transform="translate(0, 100)" /><use xlink:href="#black-bishop" transform="translate(0, 150)" /><use xlink:href="#black-rook" transform="translate(0, 200)" /><use xlink:href="#black-queen" transform="translate(0, 250)" /><use xlink:href="#black-king" transform="translate(0, 300)" /><rect x="0" y="350" width="50" height="50" fill="url(#check_gradient)" /><use xlink:href="#black-king" transform="translate(0, 350)" /><rect x="50" y="0" width="50" height="400" stroke="none" fill="#8ca2ad" /><use xlink:href="#black-pawn" transform="translate(50, 50)" /><use xlink:href="#black-knight" transform="translate(50, 100)" /><use xlink:href="#black-bishop" transform="translate(50, 150)" /><use xlink:href="#black-rook" transform="translate(50, 200)" /><use xlink:href="#black-queen" transform="translate(50, 250)" /><use xlink:href="#black-king" transform="translate(50, 300)" /><rect x="50" y="350" width="50" height="50" fill="url(#check_gradient)" /><use xlink:href="#black-king" transform="translate(50, 350)" /><rect x="100" y="0" width="50" height="400" stroke="none" fill="#c3d899" /><use xlink:href="#black-pawn" transform="translate(100, 50)" /><use xlink:href="#black-knight" transform="translate(100, 100)" /><use xlink:href="#black-bishop" transform="translate(100, 150)" /><use xlink:href="#black-rook" transform="translate(100, 200)" /><use xlink:href="#black-queen" transform="translate(100, 250)" /><use xlink:href="#black-king" transform="translate(100, 300)" /><rect x="100" y="350" width="50" height="50" fill="url(#check_gradient)" /><use xlink:href="#black-king" transform="translate(100, 350)" /><rect x="150" y="0" width="50" height="400" stroke="none" fill="#92b277" /><use xlink:href="#black-pawn" transform="translate(150, 50)" /><use xlink:href="#black-knight" transform="translate(150, 100)" /><use xlink:href="#black-bishop" transform="translate(150, 150)" /><use xlink:href="#black-rook" transform="translate(150, 200)" /><use xlink:href="#black-queen" transform="translate(150, 250)" /><use xlink:href="#black-king" transform="translate(150, 300)" /><rect x="150" y="350" width="50" height="50" fill="url(#check_gradient)" /><use xlink:href="#black-king" transform="translate(150, 350)" /><rect x="200" y="50" width="50" height="350" stroke="none" fill="#dee3e6" /><use xlink:href="#white-pawn" transform="translate(200, 50)" /><use xlink:href="#white-knight" transform="translate(200, 100)" /><use xlink:href="#white-bishop" transform="translate(200, 150)" /><use xlink:href="#white-rook" transform="translate(200, 200)" /><use xlink:href="#white-queen" transform="translate(200, 250)" /><use xlink:href="#white-king" transform="translate(200, 300)" /><rect x="200" y="350" width="50" height="50" fill="url(#check_gradient)" /><use xlink:href="#white-king" transform="translate(200, 350)" /><rect x="250" y="50" width="50" height="350" stroke="none" fill="#8ca2ad" /><use xlink:href="#white-pawn" transform="translate(250, 50)" /><use xlink:href="#white-knight" transform="translate(250, 100)" /><use xlink:href="#white-bishop" transform="translate(250, 150)" /><use xlink:href="#white-rook" transform="translate(250, 200)" /><use xlink:href="#white-queen" transform="translate(250, 250)" /><use xlink:href="#white-king" transform="translate(250, 300)" /><rect x="250" y="350" width="50" height="50" fill="url(#check_gradient)" /><use xlink:href="#white-king" transform="translate(250, 350)" /><rect x="300" y="50" width="50" height="350" stroke="none" fill="#c3d899" /><use xlink:href="#white-pawn" transform="translate(300, 50)" /><use xlink:href="#white-knight" transform="translate(300, 100)" /><use xlink:href="#white-bishop" transform="translate(300, 150)" /><use xlink:href="#white-rook" transform="translate(300, 200)" /><use xlink:href="#white-queen" transform="translate(300, 250)" /><use xlink:href="#white-king" transform="translate(300, 300)" /><rect x="300" y="350" width="50" height="50" fill="url(#check_gradient)" /><use xlink:href="#white-king" transform="translate(300, 350)" /><rect x="350" y="50" width="50" height="350" stroke="none" fill="#92b277" /><use xlink:href="#white-pawn" transform="translate(350, 50)" /><use xlink:href="#white-knight" transform="translate(350, 100)" /><use xlink:href="#white-bishop" transform="translate(350, 150)" /><use xlink:href="#white-rook" transform="translate(350, 200)" /><use xlink:href="#white-queen" transform="translate(350, 250)" /><use xlink:href="#white-king" transform="translate(350, 300)" /><rect x="350" y="350" width="50" height="50" fill="url(#check_gradient)" /><use xlink:href="#white-king" transform="translate(350, 350)" /></svg>