<svg xmlns:ns0="http://www.w3.org/2000/svg" xmlns="http://www.w3.org/2000/svg" version="1.1" xmlns:xlink="http://www.w3.org/1999/xlink" viewBox="0 0 648 648"><defs><g id="white-pawn"><ns0:path d="M29.7 37.8h21.6l-5.1-6h.7c2.6-1.9 4.3-5.1 4.3-8.6 0-6-4.8-10.7-10.7-10.7s-10.7 4.8-10.7 10.7c0 3.5 1.7 6.7 4.3 8.6h.7l-5.1 6zm19.7 22.7l-4.3-20.7h-10l-3.5 20.7L21 69.9h39z" fill="#fff" />
  <ns0:path d="M40.5 59.7L47.8 71h13.8L51.2 60l-1.4-.9-2.9-20.2h-6.4zM44.4 38h8.1l-5.3-6.5H41zm.6-24.7c3.7 5.5 1.1 17.6-10.2 17.6-.2 0 12.1.6 13.1-.3 1.9-1.9 3.1-4.4 3.1-7.3.1-6-6.2-11.2-6-10z" fill="#cfcecf" />
  <ns0:path d="M31.9 60.6l-10.3 9.1h37.8l-10.2-9-.1-.1L44.9 40h-9.6zM46.1 32H34.9l-4.7 5.9h20.6zm1.4-2.5c1.6-1.7 2.5-4 2.5-6.4 0-5.3-4.2-9.5-9.5-9.5-5.2 0-9.5 4.2-9.5 9.5 0 2.4.9 4.6 2.5 6.4h14z" fill="none" />
  <ns0:path d="M15 72.2h51L51.5 59.4l-4.2-20h8.2l-7.1-8c2.9-2.2 3.6-5.6 3.6-8.1 0-6.4-5-11.4-11.4-11.4-6.3 0-11.4 5.1-11.4 11.4 0 2.5.6 5.9 3.6 8.1l-7.1 8H33l-3.4 20L15 72.2zm16.4-48.9c0-5 4.1-9.1 9.1-9.1 5.1 0 9.1 4 9.1 9.1 0 2.3-.8 4.4-2.4 6.1H33.8c-1.5-1.7-2.4-3.9-2.4-6.1zm3.8 8.4h10.7l4.5 5.6H30.7l4.5-5.6zm.2 7.7h9.4l4.4 21.2v.1l10.2 9H21.6l10.2-9.1 3.6-21.2z" fill="#010101" /></g><g id="white-knight"><ns0:path d="M48 45.1c-3.3 1.6-7.2 1.9-11 .7l-.4-.1-.3.2c-.1.1-12 9.9-15.8 23.7l-.3.9H65L63.2 65v-.1c0-.1-.1-14.8-.1-23.8 0-16.9-7.6-25.6-15-28.6-3.7-1.4-9.2-2.5-12.4-2.5h-1.2l3.2 6.2-24.4 20.3 1 10.8 5 1.4 5.1-3.9H26l-4.3 4.5 1.1.4 6.7 1.9 5.5-6.8c3.5 1.5 7.7 1.3 12.5-.6 2.8-1.2 5.1-3.6 6.5-5.6-.9 2.8-3 5.1-6 6.5z" fill="#fff" />
  <ns0:path d="M38 22.1l-7.7 6.2c-.5.5-.6 1.3-.2 1.9.3.4.7.6 1.1.6.2 0 .4 0 .6-.1l9.1-3.6-2.9-5z" />
  <ns0:path d="M38.7 70.7l17.7.3h8.5s-2.1-5.2-2.1-7.2V28.6c0 8.4-2.7 18-9.5 24.8C40.5 57 38.7 70.7 38.7 70.7zm-4.1-23.4l1.3-1.8 8.8.8 4.8-2.2 3.9-3.4 2.4-6.5c-.8-1.3-2.2-2.1-4-2.8-2 7.7-8.1 12.3-16.3 10.4-.4 1.1-.7 1.9-.7 1.9l-7 .3-5.8 4.8 7 4.5 5.6-6z" fill="#cfcecf" />
  <ns0:path d="M18.2 72.2h49.1l-2.5-7.5V41.1c0-6.8-.9-23.9-16-30.1-5.8-2.4-14.6-2.6-15-2.5l-1.8.1 3.7 7.2-24.2 20 1.3 12.8 14.5 4.2c-3.5 4.5-7.3 10.7-8.9 18l-.2 1.4zm18.5-25.7c1.5.5 3.1.8 4.8.8 2.4 0 4.7-.5 6.8-1.5 4.1-2 6.8-5.6 7.3-10.1l.2-1.4-.6 1.2c0 .1-3 5.8-7.9 8-3.9 1.6-8.4 2.4-12.4.4l-5.6 6.9-5.8-1.7-.4-.1 4.7-4.9h-3.7l-5 3.8-4.1-1.2-.9-9.9 24.6-20.4-2.9-5.6c2.9 0 8.3.9 12.1 2.4 5.7 2.3 14.5 9.6 14.5 27.9 0 9.1.1 23.8.1 23.8v.2l1.5 4.7H21.2c3.6-13.2 14.7-22.7 15.5-23.3z" />
  </g><g id="white-bishop"><ns0:path d="M0 0h81v81H0z" fill="none" />
  <ns0:path d="M61.4 71l-11.9-9.1 10.6-14.6c0-11-4.9-19.9-11.9-26.3l-1.7-.8-7.9 14.3-1.5-1.6 7.8-14.7 2.7-5.1v-.2c0-3.6-2.9-6.6-6.6-6.6-3.6 0-6.6 2.9-6.6 6.6v.2l2.3 4.4C28 24.1 20.9 34.1 20.9 47.3l10.6 14.6L19.6 71h41.8z" fill="#fff" />
  <ns0:path d="M45.6 70.7H60l-10.4-9.5h-6.8zm5.2-45.6C54.7 42.1 36 55.8 36 55.8l7.3 4.7h7.4l10.2-13.2-1.5-8.6-3.6-8.3-2.6-4.4-2.4-.9zM44.5 8.6c.8 2.4-3.4 4.4-3.4 4.4v5.1l3.3.1 3-4.3-.3-3.4L45 8.6h-.5z" fill="#cfcecf" />
  <ns0:path d="M65 72.2L50.9 61.6l10.2-14v-.4c0-14.1-7.6-23.1-12.2-27.3l-2.3-2.3 2.1-3.9.1-.3v-.5c0-4.3-3.5-7.9-7.9-7.9-4.3 0-7.8 3.5-7.8 7.9v.5l1.9 3.7c-5.9 4.6-15.5 14.6-15.5 30.1v.4l10.2 14L16 72.2h49zM22.5 46.9c-.3-14.6 9.3-24 15-28.2l.9-.6-2.7-5.1c0-2.9 2.4-5.3 5.3-5.3s5.3 2.4 5.4 5.3L35.8 34.6v.1l2.2 5.8 9.3-18.8 1.1 1c4.8 4.7 10.4 12.7 10.1 24.1l-9.2 13H31.8l-9.3-12.9zm10.4 15.6H48l9.8 7.3H23.2l9.7-7.3z" />
  <ns0:path d="M36.2 18h4.9l-2.7 2.1h-3.8" /></g><g id="white-rook"><ns0:path d="M58.7 59.4l-3.2-27.3 8.6-8.2V12.8H53v8.1h-6.7v-8.1H34.7v8.1H28v-8.1H16.9v11.1l8.6 8.2-3.2 27.3h-6.6V71h49.6V59.4z" fill="#fff" />
  <ns0:path d="M58.5 59.7l-4.2-27.2h2.2l7.6-8.6V12.8l-5.8 4.6v8.2H32l11.6 6.9h3.2c0 12.1-2.8 21.3-11.7 27.2h13.3L54.5 70h9.9V59.7h-5.9z" fill="#cfcecf" />
  <ns0:path d="M59.1 58.1l-2.6-24.8 8.7-9V11.5H51.8v8.2h-4.2v-8.2H33.5v8.2h-4.2v-8.2H15.6v12.9l8.7 9-2.6 24.8h-7.3v14.1h51.8V72h.2V58.1h-7.3zM36 22.2V14h9v8.2h9.2V14h8.5v9.3L54.4 32H26.5l-8.4-8.6V14h8.6v8.2H36zm18 12.2l2.6 23.7H24.3l2.6-23.7H54zm2.9 26.2H64v9.1H17v-9.1h39.9z" />
  </g><g id="white-queen"><ns0:style>
    .wQ_st1 {
      fill: #fff
    }

    .wQ_st2 {
      fill: #cfcecf
    }
  </ns0:style>
  <ns0:path d="M0 0h81v81H0z" fill="none" />
  <ns0:circle class="wQ_st1" cx="21.9" cy="16.5" r="5.2" />
  <ns0:path class="wQ_st1" d="M59.1 21.8c2.9 0 5.2-2.3 5.2-5.2s-2.3-5.2-5.2-5.2-5.2 2.3-5.2 5.2 2.3 5.2 5.2 5.2z" />
  <ns0:path class="wQ_st1" d="M72.1 26.4c-2.9 0-5.2 2.3-5.2 5.2 0 1.4.6 2.8 1.5 3.7L55.2 50.5l3.3-28.7-2.1-.6-9.8 16.9-5.1-21.7h-2.2l-5.1 21.7-9.8-16.9-2.1.6 3.3 28.7-13-15.2c.9-.9 1.5-2.3 1.5-3.7 0-2.9-2.3-5.2-5.2-5.2s-5.2 2.3-5.2 5.2 2.3 5.2 5.2 5.2c.5 0 1-.1 1.5-.2L19.5 71h42.1l9.1-34.4c.5.1 1 .2 1.5.2 2.9 0 5.2-2.3 5.2-5.2s-2.4-5.2-5.3-5.2z" />
  <ns0:circle class="wQ_st1" cx="40.5" cy="11.3" r="5.2" />
  <ns0:path class="wQ_st2" d="M41.4 20.3l5.3 17.9-5.3 7.3zM27.1 53.6l-3.5 6.8-9.7-22.1zm6.9-3.1l-9.2-27.7 15.7 28.1zm14.2 0l9.3-24.7-3.6 27.8zm4.7 19.9l15.6-33.7 1.5.3-9.3 33.4zm20.4-33.7c3.4-.9 3.9-3.4 4-6.7 0-.6-.9-1.8-1.3-1.8-.4.1-.8.1-1.2.3.3 2.5-1.3 5-3.8 5.7-1.1.3-2.1.2-3.1-.1-.6 1 3.9 3 5.4 2.6zM60 21.3c3.4-.9 3.9-3.4 4-6.7 0-.6-.9-1.8-1.3-1.8-.4.1-.8.1-1.2.3.3 2.5-1.3 5-3.8 5.7-1.1.3-2.1.2-3.1-.1-.6 1 3.9 3 5.4 2.6zM10.1 36.7c3.4-.9 3.9-3.4 4-6.7 0-.6-.9-1.8-1.3-1.8-.4.1-.8.1-1.2.3.3 2.5-1.3 5-3.8 5.7-1.1.3-2.1.2-3.1-.1-.6 1 3.9 3 5.4 2.6zm13-15.4c3.4-.9 3.9-3.4 4-6.7 0-.6-.9-1.8-1.3-1.8-.4.1-.8.1-1.2.3.3 2.5-1.3 5-3.8 5.7-1.1.3-2.1.2-3.1-.1-.6 1 3.9 3 5.4 2.6zm18.5-5.2c3.4-.9 3.9-3.4 4-6.7 0-.6-.9-1.8-1.3-1.8-.4.1-.8.1-1.2.3.3 2.5-1.3 5-3.8 5.7-1.1.3-2.1.2-3.1-.1-.6 1.1 3.9 3 5.4 2.6z" />
  <ns0:path d="M40.5 65.7l-3.9-5.9 3.9-5.8 3.9 5.8z" fill="#231f20" />
  <ns0:circle class="wQ_st1" cx="21.9" cy="16.5" r="5.2" />
  <ns0:path class="wQ_st1" d="M59.1 21.8c2.9 0 5.2-2.3 5.2-5.2s-2.3-5.2-5.2-5.2-5.2 2.3-5.2 5.2 2.3 5.2 5.2 5.2z" />
  <ns0:path class="wQ_st1" d="M72.1 26.4c-2.9 0-5.2 2.3-5.2 5.2 0 1.4.6 2.8 1.5 3.7L55.2 50.5l3.3-28.7-2.1-.6-9.8 16.9-5.1-21.7h-2.2l-5.1 21.7-9.8-16.9-2.1.6 3.3 28.7-13-15.2c.9-.9 1.5-2.3 1.5-3.7 0-2.9-2.3-5.2-5.2-5.2s-5.2 2.3-5.2 5.2 2.3 5.2 5.2 5.2c.5 0 1-.1 1.5-.2L19.5 71h42.1l9.1-34.4c.5.1 1 .2 1.5.2 2.9 0 5.2-2.3 5.2-5.2s-2.4-5.2-5.3-5.2z" />
  <ns0:circle class="wQ_st1" cx="40.5" cy="11.3" r="5.2" />
  <ns0:path class="wQ_st2" d="M41.4 20.3l5.3 17.9-5.3 7.3zM27.1 53.6l-3.5 6.8-9.7-22.1zm6.9-3.1l-9.2-27.7 15.7 28.1zm14.2 0l9.3-24.7-3.6 27.8zm-6.1 19.9C62 65.7 68.5 36.7 68.5 36.7l1.5.3-9.3 33.4H42.1zM73.3 36.7c3.4-.9 3.9-3.4 4-6.7 0-.6-.9-1.8-1.3-1.8-.4.1-.8.1-1.2.3.3 2.5-1.3 5-3.8 5.7-1.1.3-2.1.2-3.1-.1-.6 1 3.9 3 5.4 2.6zM60 21.3c3.4-.9 3.9-3.4 4-6.7 0-.6-.9-1.8-1.3-1.8-.4.1-.8.1-1.2.3.3 2.5-1.3 5-3.8 5.7-1.1.3-2.1.2-3.1-.1-.6 1 3.9 3 5.4 2.6zM10.1 36.7c3.4-.9 3.9-3.4 4-6.7 0-.6-.9-1.8-1.3-1.8-.4.1-.8.1-1.2.3.3 2.5-1.3 5-3.8 5.7-1.1.3-2.1.2-3.1-.1-.6 1 3.9 3 5.4 2.6zm13-15.4c3.4-.9 3.9-3.4 4-6.7 0-.6-.9-1.8-1.3-1.8-.4.1-.8.1-1.2.3.3 2.5-1.3 5-3.8 5.7-1.1.3-2.1.2-3.1-.1-.6 1 3.9 3 5.4 2.6zm18.5-5.2c3.4-.9 3.9-3.4 4-6.7 0-.6-.9-1.8-1.3-1.8-.4.1-.8.1-1.2.3.3 2.5-1.3 5-3.8 5.7-1.1.3-2.1.2-3.1-.1-.6 1.1 3.9 3 5.4 2.6z" />
  <ns0:path d="M40.5 65.7l-3.9-5.9 3.9-5.8 3.9 5.8z" />
  <ns0:path d="M72.1 25.1c-3.6 0-6.4 2.9-6.4 6.5 0 1.3.4 2.6 1.1 3.7l-10.5 13 3.4-25.4c3.3-.3 5.9-3.1 5.9-6.4 0-3.6-2.9-6.5-6.5-6.5s-6.5 2.9-6.5 6.5c0 1.9.8 3.7 2.3 5l-7.8 13.4L43 17.3c2.3-1 3.9-3.4 3.9-6 0-3.6-2.9-6.4-6.4-6.4-3.6 0-6.5 2.9-6.5 6.4 0 2.6 1.5 4.9 3.9 6l-4.1 17.6L26 21.5c1.5-1.2 2.3-3.1 2.3-5 0-3.6-2.9-6.5-6.5-6.5s-6.5 2.9-6.5 6.5c0 3.3 2.6 6.1 5.9 6.4l3.4 25.4-10.4-13c.7-1 1.1-2.3 1.1-3.7 0-3.6-2.9-6.5-6.5-6.5S2.4 28 2.4 31.6 5.3 38 8.8 38h.5l9 34v.2h44l9-34.2h.5c3.6 0 6.4-2.9 6.4-6.4.1-3.6-2.6-6.5-6.1-6.5zm-59 6.5c0 2.3-1.9 4.1-4.2 4.1s-4.1-1.8-4.1-4.1 1.9-4.2 4.1-4.2c2.3 0 4.2 1.9 4.2 4.2zm8.8-10.8c-2.3 0-4.1-1.9-4.1-4.2s1.9-4.2 4.1-4.2c2.3 0 4.2 1.9 4.2 4.2 0 2.2-1.9 4.2-4.2 4.2zM55 16.5c0-2.3 1.9-4.2 4.1-4.2 2.3 0 4.2 1.9 4.2 4.2s-1.9 4.2-4.2 4.2c-2.3.1-4.1-1.8-4.1-4.2zM20.4 69.8l-8.6-32.4c.1-.1.2-.1.3-.1s.2-.1.3-.1l15.1 17.3-3.7-31.6h.1L40.3 51l.2.4 16.6-28.7h.1l-3.7 31.6L68.6 37l.6.3-8.6 32.5H20.4zm55.9-38.2c0 2.3-1.9 4.1-4.2 4.1-2.3 0-4.1-1.8-4.1-4.1s1.9-4.2 4.1-4.2c2.3 0 4.2 1.9 4.2 4.2zM40.5 46.3L35.7 38l4.7-20.2h.3L45.3 38l-4.8 8.3zm0-30.8c-2.3 0-4.2-1.9-4.2-4.2s1.9-4.1 4.2-4.1 4.2 1.9 4.2 4.1c.1 2.3-1.9 4.2-4.2 4.2z" />
</g><g id="white-king"><ns0:style>
    .wK_st1 {
      fill: #fff
    }

    .wK_st2 {
      fill: #cfcecf
    }
  </ns0:style>
  <ns0:path d="M0 0h81v81H0z" fill="none" />
  <ns0:path class="wK_st1" d="M58 25.9c-6 0-9.1 2.6-10.6 4.1l-7 12.2-7-12.2C32 28.5 29 25.9 23 25.9c-9.4 0-14.9 7.7-14.9 15.3 0 8.6 3.7 11.5 8.6 21.7V71h47.6v-8.1c4.9-10.1 8.6-13.1 8.6-21.7 0-7.6-5.5-15.3-14.9-15.3z" />
  <ns0:path class="wK_st1" d="M35.3 32.8l5.2 10.7 5.2-10.7-3.1-11 7.9 2.4v-7.6l-7.9 1 1.7-7.3h-7.6l1.7 7.3-7.9-1v7.6l7.9-2.4z" />
  <ns0:path class="wK_st2" d="M64.7 27.4C71.8 40 58 58.6 45.9 59.9l19.4 2.6 6.6-13.4 1-9.9-1.7-5.2-2.6-3.6-3.9-3zm-31.1 2.7c1.1 5.4-1.6 14.6-5.4 20.5S17.7 61.4 17.7 61.4l22.8-1.6V42.6l-6.9-12.5z" />
  <ns0:path class="wK_st2" d="M53.1 60.6v9.9H64v-7.6zm-3.6-42.9l-1.3 2.8-7.1-.2 8.4 3.3h1zm-6.4-6.4L40.5 13v6.2l1.6-1zm-1.3 10.2v11.7l-1.3 7L45 34zm-1.9-.9h-9.4v3.6z" />
  <ns0:path d="M36.4 51.2l4.1 6 4.1-6-4.1-6z" />
  <ns0:path d="M69.8 29.9c-3-3.4-7.2-5.2-11.8-5.2-4.8 0-8.6 1.5-11.5 4.5l-.5.8-1.9-6.7 7.4 2.2V15.4l-7.6 1 1.7-7.1H35.4l1.7 7.1-7.6-1v10.1l7.4-2.2-1.9 6.8-.4-.7-.1-.2v-.1c-2.9-3-6.7-4.5-11.5-4.5-10.1 0-16.1 8.4-16.1 16.6 0 6.4 2 10 4.8 14.9l.6 1c1 1.7 2.1 3.7 3.2 6v9.1h50.1v-9.1c1.2-2.3 2.2-4.3 3.2-6l.6-1c2.8-4.9 4.8-8.5 4.8-14.9 0-4.1-1.6-8.2-4.4-11.3zm-29.9-9.6l-8.4 2.5v-5.1l8.2 1-1.8-7.4h5.2l-1.8 7.4 8.2-1v5.1l-8.4-2.5 3.5 12.2-4.1 7.2-4.1-7.2 3.5-12.2zM63 69.8H17.8v-6.5C21.6 62.6 31 61 40.5 61c9.3 0 18.6 1.5 22.5 2.2v6.6zm4.2-14.9c-1 1.6-3 4.7-3.8 5.9-4.1-.7-13.4-2.2-23-2.2-9.7 0-19.2 1.5-23.1 2.2-.8-1.2-2.8-4.2-3.7-5.9l-.1-.1C10.8 50 9.1 47 9.1 41.3c0-9.1 7-14 13.6-14 4 0 7.2 1.2 9.6 3.6l8 13.9 8-13.9c2.4-2.4 5.6-3.6 9.6-3.6 8.9 0 13.7 7.2 13.7 14 .1 5.7-1.6 8.7-4.4 13.6z" />
</g><g id="black-pawn"><ns0:style>
    .bP_st1 {
      fill: #010101
    }

    .bP_st2 {
      fill: #6d6e6e
    }

    .bP_st5,
    .bP_st6 {
      display: inline;
      fill: #fff
    }

    .bP_st6 {
      fill: #cfcecf
    }
  </ns0:style>
  <ns0:path d="M0 0h81v81H0z" fill="none" />
  <ns0:path class="bP_st1" d="M40.5 12.5c-6 0-10.7 4.8-10.7 10.7 0 3.6 1.8 6.9 4.6 8.8h12.3c2.8-1.9 4.6-5.2 4.6-8.8-.1-6-4.8-10.7-10.8-10.7" />
  <ns0:path class="bP_st2" d="M43.2 16.4c-1.5-.9-3.3-1.1-5.2-.6-3.6 1-5.6 4.6-4.7 8.2 0 .1.1.2.1.3 5.8.7 10.6-5.2 9.8-7.9z" />
  <ns0:path class="bP_st1" d="M34.5 31.7l-.3 7.7-3.5 21.7L18.3 72h44.3L50.3 61.1 46 39.4l-.3-7.7" />
  <ns0:path class="bP_st2" d="M37.7 39.6l-3.9 22.5-6.6 7.1h7.6l5.2-5.4.1-24.2z" />
  <ns0:path class="bP_st1" d="M26.6 38.8h27.8l-6.7-8H33.3z" />
  <ns0:path class="bP_st2" d="M32.3 36.5h8.8l-2.1-4h-3.8z" />
</g><g id="black-knight"><ns0:path d="M0 0h81v81H0z" fill="none" />
  <ns0:path d="M19.6 72H67l-2-6.1s-.1-17-.1-26.1c0-17.3-8.5-25.3-16-28.4-5.6-2.3-14.6-1.8-14.6-1.8l3.3 6.5L12 36.4l2 12.2 13.4 3.5 6.1-5.1c1.2.5 2.5.8 3.7 1.1v.3S22.9 57 19.6 72zm11.8-40.7c-.6.3-1.1-.5-.6-1l7.2-6.2 2.2 3.7-8.8 3.5z" fill="#010101" />
  <ns0:path d="M15.8 38l1.3 7.9 4.7 1.1-.1-4.6-2.9-.5zm15-4.6l15.6-3.8 2.2-3.8s2.8 1.1 2.1 6.3-6.8 8.3-12.1 7.6c-6.9-.9-7.8-6.3-7.8-6.3zM36 67.9c5.1-16.4 16.4-13 16.8-22.4-3.3 5.9-10.7 5.6-10.7 5.6s-11.6 5.1-15.8 16.8H36z" fill="#6d6e6e" /></g><g id="black-bishop"><ns0:style>
    .bB_st1 {
      fill: #010101
    }
  </ns0:style>
  <ns0:path d="M0 0h81v81H0z" fill="none" />
  <ns0:path class="bB_st1" d="M18.9 72h43.2l-11.8-9.5H30.7zM41 18.9c1.5 0 2.9-.5 4-1.3l2.8-5.2v-.3c0-3.7-3-6.8-6.8-6.8-3.7 0-6.8 3-6.8 6.8v.3l2.8 5.2c1.2.8 2.6 1.3 4 1.3" />
  <ns0:path class="bB_st1" d="M48.4 20.4l-9.7 18.2-1.7-5.9 8.1-15.2c-1-.8-2-1.5-3-2.2H39c-10 6.6-19.1 17.5-19.1 32.2l10.9 15.2h19.4l10.9-15.2c0-11.4-5.5-20.5-12.7-27.1" />
  <ns0:path d="M48.6 27.9l-7.2 13s5 1.3 7.2-1.9c2.2-3.1 1.6-10.1 0-11.1zM31.2 55.1c-1.6-13.9 1.4-28.1 7.9-34.8l-.5-.7c-7.1 6.3-14 15.6-14 26.6l6.6 8.9zM37.9 69v-5.7h-2.5L28.8 69zm4.5-61.1c-.8-.5-1.8-.6-2.7-.3-1.9.5-3 2.5-2.5 4.4 0 .1 0 .1.1.2 3 .2 5.5-2.9 5.1-4.3z" fill="#6d6e6e" />
</g><g id="black-rook"><ns0:style>
    .bR_st1 {
      fill: #010101
    }

    .bR_st2 {
      fill: #6d6e6e
    }
  </ns0:style>
  <ns0:path d="M0 0h81v81H0z" fill="none" />
  <ns0:path class="bR_st1" d="M56.9 31.1H24.1L19.2 72h42.6z" />
  <ns0:path class="bR_st1" d="M14.2 58.5h52.5V72H14.2z" />
  <ns0:path class="bR_st2" d="M41.1 34.1c-.1 7.2-6.6 24.4-14.2 24.4h-2.3l3.8-24.4h12.7zM18.4 62.3h17.9v6.1H18.4z" />
  <ns0:path class="bR_st1" d="M53.4 12v6.9h-6.9V12h-12v6.9h-6.9V12h-12v11.4l9 9.1h31.8l9-9.1V12z" />
  <ns0:path class="bR_st2" d="M62.4 15h-6v7.2zm-18.9 0h-6v7.2zm-18.9 0h-6v7.2z" />
</g><g id="black-queen"><ns0:style>
    .bQ_st1 {
      fill: #010101
    }

    .bQ_st2 {
      fill: #6d6e6e
    }
  </ns0:style>
  <ns0:path d="M0 0h81v81H0z" fill="none" />
  <ns0:path class="bQ_st1" d="M55.7 50.9l4-34.9-19.2 33.2L21.3 16l4.1 34.9L7.9 30.8 18.8 72h43.4l10.9-41.2-17.4 20.1zm-15.2 16l-3.6-6.4 3.6-6.4 3.6 6.4-3.6 6.4z" />
  <ns0:path class="bQ_st1" d="M40.5 11.7l-5.6 23.5 5.6 9.5 5.6-9.5z" />
  <ns0:circle class="bQ_st1" cx="40.5" cy="10.6" r="5.4" />
  <ns0:path class="bQ_st2" d="M41.6 7.2c-.8-.4-1.7-.6-2.6-.3-1.8.5-2.9 2.4-2.4 4.2 0 .1 0 .1.1.2 2.9.3 5.3-2.8 4.9-4.1z" />
  <ns0:circle class="bQ_st1" cx="59.5" cy="16" r="5.4" />
  <ns0:path class="bQ_st2" d="M60.6 12.6c-.8-.4-1.7-.6-2.6-.3-1.8.5-2.9 2.4-2.4 4.2 0 .1 0 .1.1.2 2.9.2 5.3-2.8 4.9-4.1z" />
  <ns0:circle class="bQ_st1" cx="21.5" cy="16" r="5.4" />
  <ns0:path class="bQ_st2" d="M22.6 12.6c-.8-.4-1.7-.6-2.6-.3-1.8.5-2.9 2.4-2.4 4.2 0 .1 0 .1.1.2 2.9.2 5.3-2.8 4.9-4.1z" />
  <ns0:circle class="bQ_st1" cx="73.1" cy="31.4" r="5.4" />
  <ns0:path class="bQ_st2" d="M74.2 28c-.8-.4-1.7-.6-2.6-.3-1.8.5-2.9 2.4-2.4 4.2 0 .1 0 .1.1.2 2.9.2 5.3-2.8 4.9-4.1z" />
  <ns0:circle class="bQ_st1" cx="7.9" cy="31.4" r="5.4" />
  <ns0:path class="bQ_st2" d="M9 28c-.8-.4-1.7-.6-2.6-.3-1.8.4-2.9 2.3-2.4 4.1 0 .1 0 .1.1.2 2.9.3 5.3-2.7 4.9-4zm31.5-7.1l-3.1 13.4 3.1 5.3zm16.1 33.8l1.8 5.6 9.6-22zm-8.7-4.2l8-21.2-12.3 20.8zm-14.6 0L25 29.1 28.1 51zm-10.2 8.2L12.6 40.9l7.9 26.4z" />
</g><g id="black-king"><ns0:style>
    .bK_st1 {
      fill: #010101
    }
  </ns0:style>
  <ns0:path d="M0 0h81v81H0z" fill="none" />
  <ns0:path class="bK_st1" d="M58.6 25.5c-6.2 0-9.3 2.6-10.9 4.2l-7.2 12.6-7.2-12.6c-1.6-1.6-4.7-4.2-10.9-4.2-9.7 0-15.3 8-15.3 15.8 0 8.8 3.8 11.9 8.9 22.3V72h49v-8.4c5.1-10.5 8.9-13.5 8.9-22.3 0-7.8-5.6-15.8-15.3-15.8zM40.5 61.6l-3.6-6.4 3.6-6.4 3.6 6.4-3.6 6.4z" />
  <ns0:path class="bK_st1" d="M50.7 21.4v-7.7l-8 .9 1.7-7.4h-7.8l1.7 7.4-8-.9v7.7l8-2.4-3.1 8.9 5.3 11 5.3-11-3.1-8.9z" />
  <ns0:path d="M40.5 19.9l-2.9 7.6 2.9 6.4zm-17.7 9.2c-7.2 0-11.7 6.4-11.7 12.9 0 4 2.9 8.2 5.8 12 0-12.4 4.6-17.4 12.5-22.6 0 0-2-2.3-6.6-2.3zM43.5 44l7.4-12.7s3.6-2.6 8-2.6 4.5.5 4.5.5L43.5 44zM31.8 15.1l3.8 2.3-3.8 2.3zm17.4 0l-6.4 1.2 4.7 1.1zm-6.6-6.2l-2.1 1.9-2.1-1.9z" fill="#6d6e6e" />
</g><radialGradient id="check_gradient"><stop offset="0%" stop-color="#ff0000" stop-opacity="1.0" /><stop offset="50%" stop-color="#e70000" stop-opacity="1.0" /><stop offset="100%" stop-color="#9e0000" stop-opacity="0.0" /></radialGradient></defs><rect x="324" y="0" width="54" height="81" stroke="none" fill="#262421" /><rect x="378" y="0" width="54" height="81" stroke="none" fill="#bababa" /><rect x="432" y="0" width="54" height="81" stroke="none" fill="#bf811d" /><rect x="486" y="0" width="54" height="81" stroke="none" fill="#b72fc6" /><rect x="540" y="0" width="54" height="81" stroke="none" fill="#706f6e" /><rect x="0" y="0" width="81" height="648" stroke="none" fill="#f0d9b5" /><use xlink:href="#black-pawn" transform="translate(0, 81)" /><use xlink:href="#black-knight" transform="translate(0, 162)" /><use xlink:href="#black-bishop" transform="translate(0, 243)" /><use xlink:href="#black-rook" transform="translate(0, 324)" /><use xlink:href="#black-queen" transform="translate(0, 405)" /><use xlink:href="#black-king" transform="translate(0, 486)" /><rect x="0" y="567" width="81" height="81" fill="url(#check_gradient)" /><use xlink:href="#black-king" transform="translate(0, 567)" /><rect x="81" y="0" width="81" height="648" stroke="none" fill="#b58863" /><use xlink:href="#black-pawn" transform="translate(81, 81)" /><use xlink:href="#black-knight" transform="translate(81, 162)" /><use xlink:href="#black-bishop" transform="translate(81, 243)" /><use xlink:href="#black-rook" transform="translate(81, 324)" /><use xlink:href="#black-queen" transform="translate(81, 405)" /><use xlink:href="#black-king" transform="translate(81, 486)" /><rect x="81" y="567" width="81" height="81" fill="url(#check_gradient)" /><use xlink:href="#black-king" transform="translate(81, 567)" /><rect x="162" y="0" width="81" height="648" stroke="none" fill="#ced26b" /><use xlink:href="#black-pawn" transform="translate(162, 81)" /><use xlink:href="#black-knight" transform="translate(162, 162)" /><use xlink:href="#black-bishop" transform="translate(162, 243)" /><use xlink:href="#black-rook" transform="translate(162, 324)" /><use xlink:href="#black-queen" transform="translate(162, 405)" /><use xlink:href="#black-king" transform="translate(162, 486)" /><rect x="162" y="567" width="81" height="81" fill="url(#check_gradient)" /><use xlink:href="#black-king" transform="translate(162, 567)" /><rect x="243" y="0" width="81" height="648" stroke="none" fill="#aaa23b" /><use xlink:href="#black-pawn" transform="translate(243, 81)" /><use xlink:href="#black-knight" transform="translate(243, 162)" /><use xlink:href="#black-bishop" transform="translate(243, 243)" /><use xlink:href="#black-rook" transform="translate(243, 324)" /><use xlink:href="#black-queen" transform="translate(243, 405)" /><use xlink:href="#black-king" transform="translate(243, 486)" /><rect x="243" y="567" width="81" height="81" fill="url(#check_gradient)" /><use xlink:href="#black-king" transform="translate(243, 567)" /><rect x="324" y="81" width="81" height="567" stroke="none" fill="#f0d9b5" /><use xlink:href="#white-pawn" transform="translate(324, 81)" /><use xlink:href="#white-knight" transform="translate(324, 162)" /><use xlink:href="#white-bishop" transform="translate(324, 243)" /><use xlink:href="#white-rook" transform="translate(324, 324)" /><use xlink:href="#white-queen" transform="translate(324, 405)" /><use xlink:href="#white-king" transform="translate(324, 486)" /><rect x="324" y="567" width="81" height="81" fill="url(#check_gradient)" /><use xlink:href="#white-king" transform="translate(324, 567)" /><rect x="405" y="81" width="81" height="567" stroke="none" fill="#b58863" /><use xlink:href="#white-pawn" transform="translate(405, 81)" /><use xlink:href="#white-knight" transform="translate(405, 162)" /><use xlink:href="#white-bishop" transform="translate(405, 243)" /><use xlink:href="#white-rook" transform="translate(405, 324)" /><use xlink:href="#white-queen" transform="translate(405, 405)" /><use xlink:href="#white-king" transform="translate(405, 486)" /><rect x="405" y="567" width="81" height="81" fill="url(#check_gradient)" /><use xlink:href="#white-king" transform="translate(405, 567)" /><rect x="486" y="81" width="81" height="567" stroke="none" fill="#ced26b" /><use xlink:href="#white-pawn" transform="translate(486, 81)" /><use xlink:href="#white-knight" transform="translate(486, 162)" /><use xlink:href="#white-bishop" transform="translate(486, 243)" /><use xlink:href="#white-rook" transform="translate(486, 324)" /><use xlink:href="#white-queen" transform="translate(486, 405)" /><use xlink:href="#white-king" transform="translate(486, 486)" /><rect x="486" y="567" width="81" height="81" fill="url(#check_gradient)" /><use xlink:href="#white-king" transform="translate(486, 567)" /><rect x="567" y="81" width="81" height="567" stroke="none" fill="#aaa23b" /><use xlink:href="#white-pawn" transform="translate(567, 81)" /><use xlink:href="#white-knight" transform="translate(567, 162)" /><use xlink:href="#white-bishop" transform="translate(567, 243)" /><use xlink:href="#white-rook" transform="translate(567, 324)" /><use xlink:href="#white-queen" transform="translate(567, 405)" /><use xlink:href="#white-king" transform="translate(567, 486)" /><rect x="567" y="567" width="81" height="81" fill="url(#check_gradient)" /><use xlink:href="#white-king" transform="translate(567, 567)" /></svg>