<svg xmlns:ns0="http://www.w3.org/2000/svg" xmlns="http://www.w3.org/2000/svg" version="1.1" xmlns:xlink="http://www.w3.org/1999/xlink" viewBox="0 0 2400 2400"><defs><g id="white-pawn"><ns0:circle cx="150" cy="150" fill="#c8c8c8" opacity=".988" r="44.995" stroke="#000" stroke-linejoin="round" stroke-width="5" /></g><g id="white-knight"><ns0:path d="M214.231 227.858q0 2.563-.897 4.358-.77 1.794-2.179 2.947-1.281 1.154-2.947 1.666-1.666.513-3.332.513h-7.049q-3.332 0-5.895-.64-2.435-.77-4.742-2.564-2.178-1.922-4.485-5.126-2.179-3.204-4.87-8.202l-52.288-94.323q-4.1-7.305-8.33-15.25-4.1-8.074-7.69-15.635h-.255q.256 9.227.384 18.839.128 9.611.128 19.095v100.09q0 .896-.512 1.794-.513.768-1.795 1.281-1.153.385-3.203.64-1.923.385-4.999.385-3.075 0-5.126-.384-1.922-.256-3.076-.64-1.153-.514-1.666-1.282-.512-.898-.512-1.795V80.608q0-5.127 2.82-7.305 2.819-2.179 6.15-2.179h10.51q3.716 0 6.151.641 2.563.64 4.485 2.179 2.05 1.41 3.845 4.1 1.922 2.564 4.101 6.537l40.24 72.792q3.717 6.664 7.178 13.072 3.46 6.28 6.664 12.43 3.204 6.152 6.28 12.176 3.203 5.895 6.279 11.918h.128q-.256-10.124-.384-21.017V74.84q0-.897.512-1.666.513-.77 1.666-1.282 1.282-.64 3.204-.897 2.05-.256 5.255-.256 2.819 0 4.87.256 2.05.256 3.203.897 1.154.513 1.666 1.282.513.769.513 1.666z" fill="#c8c8c8" stroke="#000" stroke-linejoin="round" stroke-width="5" /></g><g id="white-bishop"><ns0:path d="M205.796 189.825q0 7.817-2.05 14.481-1.923 6.536-5.511 11.79-3.589 5.255-8.715 9.228-4.998 3.973-11.406 6.664-6.28 2.691-13.584 4.101-7.177 1.282-16.532 1.282H104.68q-2.947 0-5.639-1.923-2.563-2.05-2.563-7.048V80.508q0-4.998 2.563-6.92 2.692-2.05 5.64-2.05h37.677q14.866 0 24.35 2.819 9.483 2.82 15.763 8.202 6.407 5.382 9.611 13.2 3.204 7.817 3.204 17.685 0 5.895-1.41 11.278-1.41 5.382-4.229 9.996-2.69 4.485-6.92 8.074-4.101 3.588-9.483 5.895 6.792 1.281 12.687 4.742 5.895 3.332 10.252 8.586 4.486 5.254 7.049 12.303 2.563 7.049 2.563 15.507zm-33.192-74.202q0-6.024-1.666-10.893-1.666-4.87-5.255-8.202-3.588-3.46-9.355-5.255-5.767-1.794-15.25-1.794h-22.812v53.697h25.118q8.587 0 13.841-2.178 5.254-2.307 8.715-6.024 3.46-3.844 4.998-8.842 1.666-5.127 1.666-10.51zm9.996 75.483q0-7.433-2.435-13.071-2.307-5.64-6.92-9.484-4.486-3.845-11.406-5.767-6.793-2.05-17.173-2.05h-26.4v58.438h32.039q7.56 0 13.2-1.794 5.639-1.794 9.868-5.254 4.357-3.588 6.792-8.843 2.435-5.254 2.435-12.175z" fill="#c8c8c8" stroke="#000" stroke-linejoin="round" stroke-width="5" /></g><g id="white-rook"><ns0:path d="M208.843 997.63q0 1.025-.385 1.794-.384.769-1.666 1.281-1.281.513-3.588.77-2.307.256-6.152.256-3.332 0-5.51-.257-2.05-.256-3.332-.769-1.282-.64-2.05-1.666-.641-1.025-1.154-2.563l-15.25-39.087q-2.692-6.664-5.639-12.174-2.82-5.639-6.792-9.612-3.973-4.1-9.355-6.28-5.383-2.306-12.944-2.306h-14.738v70.613q0 1.025-.64 1.794-.513.769-1.794 1.281-1.154.385-3.332.641-2.05.385-5.255.385-3.204 0-5.382-.385-2.05-.256-3.332-.64-1.282-.513-1.794-1.282-.513-.77-.513-1.794V844.102q0-4.998 2.563-6.92 2.691-2.051 5.639-2.051h35.242q6.28 0 10.38.384 4.23.257 7.562.641 9.611 1.666 16.916 5.255 7.433 3.588 12.43 9.098 4.999 5.511 7.434 12.688 2.563 7.048 2.563 15.634 0 8.33-2.307 14.994-2.179 6.536-6.408 11.662-4.229 4.998-10.124 8.715-5.895 3.716-13.2 6.28 4.101 1.793 7.433 4.613 3.332 2.691 6.152 6.536 2.947 3.844 5.51 8.842 2.563 4.998 5.126 11.278l14.866 36.523q1.794 4.614 2.307 6.536.513 1.794.513 2.82zM175.65 881.138q0-9.74-4.357-16.404-4.358-6.792-14.61-9.74-3.204-.896-7.305-1.28-3.972-.385-10.508-.385h-18.583v55.875h21.53q8.715 0 14.994-2.05 6.408-2.18 10.637-5.896 4.229-3.844 6.151-8.97 2.05-5.127 2.05-11.15z" fill="#c8c8c8" stroke="#000" stroke-linejoin="round" stroke-width="5" transform="matrix(1.01097 0 0 .98915 -4.269 -754.383)" /></g><g id="white-queen"><ns0:path d="m245.091 248.51q0 2.948-.384 4.87-.257 2.05-.897 3.076-.641 1.153-1.41 1.538-.77.384-1.538.384-2.563 0-8.33-2.178-5.639-2.05-13.072-6.152-7.433-3.973-15.891-9.74-8.459-5.767-16.404-13.456-6.28 3.845-15.891 6.664-9.612 2.82-22.3 2.82-18.71 0-32.423-5.511-13.584-5.51-22.555-16.148-8.843-10.637-13.2-26.4-4.358-15.891-4.358-36.396 0-19.736 4.742-35.627 4.742-16.02 14.225-27.169 9.484-11.278 23.71-17.301 14.225-6.152 33.192-6.152 17.813 0 31.27 5.511 13.584 5.51 22.683 16.148 9.227 10.509 13.84 26.015 4.614 15.507 4.614 35.628 0 10.38-1.281 19.864-1.154 9.483-3.845 17.941-2.563 8.459-6.536 15.635-3.973 7.177-9.355 12.944 9.355 7.69 16.404 12.047 7.048 4.229 11.662 6.408 4.614 2.178 7.177 3.075 2.563 1.026 3.844 2.179 1.282 1.281 1.795 3.46.512 2.307.512 6.023zm-43.573-98.039q0-14.097-2.563-26.143-2.435-12.047-8.33-20.89-5.767-8.97-15.507-13.969-9.74-4.998-24.093-4.998t-24.093 5.383q-9.74 5.254-15.892 14.353-6.023 8.971-8.714 20.89-2.563 11.918-2.563 25.246 0 14.61 2.435 26.913 2.435 12.175 8.202 21.146 5.767 8.97 15.378 13.969 9.74 4.87 24.35 4.87 14.481 0 24.35-5.383 9.867-5.383 15.89-14.482 6.024-9.227 8.587-21.273 2.563-12.175 2.563-25.632z" fill="#c8c8c8" stroke="#000" stroke-linejoin="round" stroke-width="5" /></g><g id="white-king"><ns0:path d="M204.33 233.53q0 1.025-.512 1.922-.385.769-1.666 1.282-1.282.512-3.46.769-2.18.384-5.64.384-4.485 0-7.304-.384-2.82-.385-4.23-1.41-1.409-1.025-2.306-2.307l-61.002-82.917v82.917q0 .897-.513 1.794-.512.77-1.794 1.282-1.281.384-3.46.64-2.05.385-5.254.385-3.076 0-5.255-.384-2.179-.257-3.46-.641-1.282-.513-1.794-1.282-.513-.897-.513-1.794V74.616q0-1.024.513-1.793.512-.77 1.794-1.154 1.281-.512 3.46-.769 2.179-.384 5.255-.384 3.203 0 5.254.384 2.179.257 3.46.77 1.282.384 1.794 1.153.513.769.513 1.794v73.69l58.695-73.69q.769-1.154 1.794-1.922 1.026-.77 2.435-1.154 1.538-.513 3.589-.769 2.178-.256 5.51-.256t5.383.384q2.05.257 3.204.77 1.281.512 1.666 1.28.512.77.512 1.667 0 1.666-.897 3.332-.769 1.666-3.075 4.613l-54.98 65.744 59.209 78.688q2.178 3.332 2.563 4.613.512 1.154.512 1.923z" fill="#c8c8c8" stroke="#000" stroke-linejoin="round" stroke-width="5" /></g><g id="black-pawn"><ns0:circle cx="150" cy="150" opacity=".988" r="44.995" stroke="#000" stroke-linejoin="bevel" stroke-width="10.01" /></g><g id="black-knight"><ns0:path d="M214.231 227.858q0 2.563-.897 4.358-.77 1.794-2.179 2.947-1.281 1.154-2.947 1.666-1.666.513-3.332.513h-7.049q-3.332 0-5.895-.64-2.435-.77-4.742-2.564-2.178-1.922-4.485-5.126-2.179-3.204-4.87-8.202l-52.288-94.323q-4.1-7.305-8.33-15.25-4.1-8.074-7.69-15.635h-.255q.256 9.227.384 18.839.128 9.611.128 19.095v100.09q0 .896-.512 1.794-.513.768-1.795 1.281-1.153.385-3.203.64-1.923.385-4.999.385-3.075 0-5.126-.384-1.922-.256-3.076-.64-1.153-.514-1.666-1.282-.512-.898-.512-1.795V80.608q0-5.127 2.82-7.305 2.819-2.179 6.15-2.179h10.51q3.716 0 6.151.641 2.563.64 4.485 2.179 2.05 1.41 3.845 4.1 1.922 2.564 4.101 6.537l40.24 72.792q3.717 6.664 7.178 13.072 3.46 6.28 6.664 12.43 3.204 6.152 6.28 12.176 3.203 5.895 6.279 11.918h.128q-.256-10.124-.384-21.017V74.84q0-.897.512-1.666.513-.77 1.666-1.282 1.282-.64 3.204-.897 2.05-.256 5.255-.256 2.819 0 4.87.256 2.05.256 3.203.897 1.154.513 1.666 1.282.513.769.513 1.666z" stroke="#000" stroke-linejoin="bevel" stroke-width="10" /></g><g id="black-bishop"><ns0:path d="M205.796 189.825q0 7.817-2.05 14.481-1.923 6.536-5.511 11.79-3.589 5.255-8.715 9.228-4.998 3.973-11.406 6.664-6.28 2.691-13.584 4.101-7.177 1.282-16.532 1.282H104.68q-2.947 0-5.639-1.923-2.563-2.05-2.563-7.048V80.508q0-4.998 2.563-6.92 2.692-2.05 5.64-2.05h37.677q14.866 0 24.35 2.819 9.483 2.82 15.763 8.202 6.407 5.382 9.611 13.2 3.204 7.817 3.204 17.685 0 5.895-1.41 11.278-1.41 5.382-4.229 9.996-2.69 4.485-6.92 8.074-4.101 3.588-9.483 5.895 6.792 1.281 12.687 4.742 5.895 3.332 10.252 8.586 4.486 5.254 7.049 12.303 2.563 7.049 2.563 15.507zm-33.192-74.202q0-6.024-1.666-10.893-1.666-4.87-5.255-8.202-3.588-3.46-9.355-5.255-5.767-1.794-15.25-1.794h-22.812v53.697h25.118q8.587 0 13.841-2.178 5.254-2.307 8.715-6.024 3.46-3.844 4.998-8.842 1.666-5.127 1.666-10.51zm9.996 75.483q0-7.433-2.435-13.071-2.307-5.64-6.92-9.484-4.486-3.845-11.406-5.767-6.793-2.05-17.173-2.05h-26.4v58.438h32.039q7.56 0 13.2-1.794 5.639-1.794 9.868-5.254 4.357-3.588 6.792-8.843 2.435-5.254 2.435-12.175z" stroke="#000" stroke-linejoin="bevel" stroke-width="10" /></g><g id="black-rook"><ns0:path d="M208.843 997.63q0 1.025-.385 1.794-.384.769-1.666 1.281-1.281.513-3.588.77-2.307.256-6.152.256-3.332 0-5.51-.257-2.05-.256-3.332-.769-1.282-.64-2.05-1.666-.641-1.025-1.154-2.563l-15.25-39.087q-2.692-6.664-5.639-12.174-2.82-5.639-6.792-9.612-3.973-4.1-9.355-6.28-5.383-2.306-12.944-2.306h-14.738v70.613q0 1.025-.64 1.794-.513.769-1.794 1.281-1.154.385-3.332.641-2.05.385-5.255.385-3.204 0-5.382-.385-2.05-.256-3.332-.64-1.282-.513-1.794-1.282-.513-.77-.513-1.794V844.102q0-4.998 2.563-6.92 2.691-2.051 5.639-2.051h35.242q6.28 0 10.38.384 4.23.257 7.562.641 9.611 1.666 16.916 5.255 7.433 3.588 12.43 9.098 4.999 5.511 7.434 12.688 2.563 7.048 2.563 15.634 0 8.33-2.307 14.994-2.179 6.536-6.408 11.662-4.229 4.998-10.124 8.715-5.895 3.716-13.2 6.28 4.101 1.793 7.433 4.613 3.332 2.691 6.152 6.536 2.947 3.844 5.51 8.842 2.563 4.998 5.126 11.278l14.866 36.523q1.794 4.614 2.307 6.536.513 1.794.513 2.82zM175.65 881.138q0-9.74-4.357-16.404-4.358-6.792-14.61-9.74-3.204-.896-7.305-1.28-3.972-.385-10.508-.385h-18.583v55.875h21.53q8.715 0 14.994-2.05 6.408-2.18 10.637-5.896 4.229-3.844 6.151-8.97 2.05-5.127 2.05-11.15z" stroke="#000" stroke-linejoin="bevel" stroke-width="10" transform="matrix(1.01097 0 0 .98915 -4.269 -754.383)" /></g><g id="black-queen"><ns0:path d="m245.091 248.51q0 2.948-.384 4.87-.257 2.05-.897 3.076-.641 1.153-1.41 1.538-.77.384-1.538.384-2.563 0-8.33-2.178-5.639-2.05-13.072-6.152-7.433-3.973-15.891-9.74-8.459-5.767-16.404-13.456-6.28 3.845-15.891 6.664-9.612 2.82-22.3 2.82-18.71 0-32.423-5.511-13.584-5.51-22.555-16.148-8.843-10.637-13.2-26.4-4.358-15.891-4.358-36.396 0-19.736 4.742-35.627 4.742-16.02 14.225-27.169 9.484-11.278 23.71-17.301 14.225-6.152 33.192-6.152 17.813 0 31.27 5.511 13.584 5.51 22.683 16.148 9.227 10.509 13.84 26.015 4.614 15.507 4.614 35.628 0 10.38-1.281 19.864-1.154 9.483-3.845 17.941-2.563 8.459-6.536 15.635-3.973 7.177-9.355 12.944 9.355 7.69 16.404 12.047 7.048 4.229 11.662 6.408 4.614 2.178 7.177 3.075 2.563 1.026 3.844 2.179 1.282 1.281 1.795 3.46.512 2.307.512 6.023zm-43.573-98.039q0-14.097-2.563-26.143-2.435-12.047-8.33-20.89-5.767-8.97-15.507-13.969-9.74-4.998-24.093-4.998t-24.093 5.383q-9.74 5.254-15.892 14.353-6.023 8.971-8.714 20.89-2.563 11.918-2.563 25.246 0 14.61 2.435 26.913 2.435 12.175 8.202 21.146 5.767 8.97 15.378 13.969 9.74 4.87 24.35 4.87 14.481 0 24.35-5.383 9.867-5.383 15.89-14.482 6.024-9.227 8.587-21.273 2.563-12.175 2.563-25.632z" stroke="#000" stroke-linejoin="bevel" stroke-width="10" /></g><g id="black-king"><ns0:path d="M204.33 233.53q0 1.025-.512 1.922-.385.769-1.666 1.282-1.282.512-3.46.769-2.18.384-5.64.384-4.485 0-7.304-.384-2.82-.385-4.23-1.41-1.409-1.025-2.306-2.307l-61.002-82.917v82.917q0 .897-.513 1.794-.512.77-1.794 1.282-1.281.384-3.46.64-2.05.385-5.254.385-3.076 0-5.255-.384-2.179-.257-3.46-.641-1.282-.513-1.794-1.282-.513-.897-.513-1.794V74.616q0-1.024.513-1.793.512-.77 1.794-1.154 1.281-.512 3.46-.769 2.179-.384 5.255-.384 3.203 0 5.254.384 2.179.257 3.46.77 1.282.384 1.794 1.153.513.769.513 1.794v73.69l58.695-73.69q.769-1.154 1.794-1.922 1.026-.77 2.435-1.154 1.538-.513 3.589-.769 2.178-.256 5.51-.256t5.383.384q2.05.257 3.204.77 1.281.512 1.666 1.28.512.77.512 1.667 0 1.666-.897 3.332-.769 1.666-3.075 4.613l-54.98 65.744 59.209 78.688q2.178 3.332 2.563 4.613.512 1.154.512 1.923z" stroke="#000" stroke-linejoin="bevel" stroke-width="10" /></g><radialGradient id="check_gradient"><stop offset="0%" stop-color="#ff0000" stop-opacity="1.0" /><stop offset="50%" stop-color="#e70000" stop-opacity="1.0" /><stop offset="100%" stop-color="#9e0000" stop-opacity="0.0" /></radialGradient></defs><rect x="1200" y="0" width="200" height="300" stroke="none" fill="#262421" /><rect x="1400" y="0" width="200" height="300" stroke="none" fill="#bababa" /><rect x="1600" y="0" width="200" height="300" stroke="none" fill="#bf811d" /><rect x="1800" y="0" width="200" height="300" stroke="none" fill="#b72fc6" /><rect x="2000" y="0" width="200" height="300" stroke="none" fill="#706f6e" /><rect x="0" y="0" width="300" height="2400" stroke="none" fill="#f0d9b5" /><use xlink:href="#black-pawn" transform="translate(0, 300)" /><use xlink:href="#black-knight" transform="translate(0, 600)" /><use xlink:href="#black-bishop" transform="translate(0, 900)" /><use xlink:href="#black-rook" transform="translate(0, 1200)" /><use xlink:href="#black-queen" transform="translate(0, 1500)" /><use xlink:href="#black-king" transform="translate(0, 1800)" /><rect x="0" y="2100" width="300" height="300" fill="url(#check_gradient)" /><use xlink:href="#black-king" transform="translate(0, 2100)" /><rect x="300" y="0" width="300" height="2400" stroke="none" fill="#b58863" /><use xlink:href="#black-pawn" transform="translate(300, 300)" /><use xlink:href="#black-knight" transform="translate(300, 600)" /><use xlink:href="#black-bishop" transform="translate(300, 900)" /><use xlink:href="#black-rook" transform="translate(300, 1200)" /><use xlink:href="#black-queen" transform="translate(300, 1500)" /><use xlink:href="#black-king" transform="translate(300, 1800)" /><rect x="300" y="2100" width="300" height="300" fill="url(#check_gradient)" /><use xlink:href="#black-king" transform="translate(300, 2100)" /><rect x="600" y="0" width="300" height="2400" stroke="none" fill="#ced26b" /><use xlink:href="#black-pawn" transform="translate(600, 300)" /><use xlink:href="#black-knight" transform="translate(600, 600)" /><use xlink:href="#black-bishop" transform="translate(600, 900)" /><use xlink:href="#black-rook" transform="translate(600, 1200)" /><use xlink:href="#black-queen" transform="translate(600, 1500)" /><use xlink:href="#black-king" transform="translate(600, 1800)" /><rect x="600" y="2100" width="300" height="300" fill="url(#check_gradient)" /><use xlink:href="#black-king" transform="translate(600, 2100)" /><rect x="900" y="0" width="300" height="2400" stroke="none" fill="#aaa23b" /><use xlink:href="#black-pawn" transform="translate(900, 300)" /><use xlink:href="#black-knight" transform="translate(900, 600)" /><use xlink:href="#black-bishop" transform="translate(900, 900)" /><use xlink:href="#black-rook" transform="translate(900, 1200)" /><use xlink:href="#black-queen" transform="translate(900, 1500)" /><use xlink:href="#black-king" transform="translate(900, 1800)" /><rect x="900" y="2100" width="300" height="300" fill="url(#check_gradient)" /><use xlink:href="#black-king" transform="translate(900, 2100)" /><rect x="1200" y="300" width="300" height="2100" stroke="none" fill="#f0d9b5" /><use xlink:href="#white-pawn" transform="translate(1200, 300)" /><use xlink:href="#white-knight" transform="translate(1200, 600)" /><use xlink:href="#white-bishop" transform="translate(1200, 900)" /><use xlink:href="#white-rook" transform="translate(1200, 1200)" /><use xlink:href="#white-queen" transform="translate(1200, 1500)" /><use xlink:href="#white-king" transform="translate(1200, 1800)" /><rect x="1200" y="2100" width="300" height="300" fill="url(#check_gradient)" /><use xlink:href="#white-king" transform="translate(1200, 2100)" /><rect x="1500" y="300" width="300" height="2100" stroke="none" fill="#b58863" /><use xlink:href="#white-pawn" transform="translate(1500, 300)" /><use xlink:href="#white-knight" transform="translate(1500, 600)" /><use xlink:href="#white-bishop" transform="translate(1500, 900)" /><use xlink:href="#white-rook" transform="translate(1500, 1200)" /><use xlink:href="#white-queen" transform="translate(1500, 1500)" /><use xlink:href="#white-king" transform="translate(1500, 1800)" /><rect x="1500" y="2100" width="300" height="300" fill="url(#check_gradient)" /><use xlink:href="#white-king" transform="translate(1500, 2100)" /><rect x="1800" y="300" width="300" height="2100" stroke="none" fill="#ced26b" /><use xlink:href="#white-pawn" transform="translate(1800, 300)" /><use xlink:href="#white-knight" transform="translate(1800, 600)" /><use xlink:href="#white-bishop" transform="translate(1800, 900)" /><use xlink:href="#white-rook" transform="translate(1800, 1200)" /><use xlink:href="#white-queen" transform="translate(1800, 1500)" /><use xlink:href="#white-king" transform="translate(1800, 1800)" /><rect x="1800" y="2100" width="300" height="300" fill="url(#check_gradient)" /><use xlink:href="#white-king" transform="translate(1800, 2100)" /><rect x="2100" y="300" width="300" height="2100" stroke="none" fill="#aaa23b" /><use xlink:href="#white-pawn" transform="translate(2100, 300)" /><use xlink:href="#white-knight" transform="translate(2100, 600)" /><use xlink:href="#white-bishop" transform="translate(2100, 900)" /><use xlink:href="#white-rook" transform="translate(2100, 1200)" /><use xlink:href="#white-queen" transform="translate(2100, 1500)" /><use xlink:href="#white-king" transform="translate(2100, 1800)" /><rect x="2100" y="2100" width="300" height="300" fill="url(#check_gradient)" /><use xlink:href="#white-king" transform="translate(2100, 2100)" /></svg>