<svg xmlns:dc="http://purl.org/dc/elements/1.1/" xmlns:ns0="http://www.w3.org/2000/svg" xmlns:ns2="http://creativecommons.org/ns#" xmlns:ns4="http://www.w3.org/1999/xlink" xmlns:rdf="http://www.w3.org/1999/02/22-rdf-syntax-ns#" xmlns="http://www.w3.org/2000/svg" version="1.1" xmlns:xlink="http://www.w3.org/1999/xlink" viewBox="0 0 400 400"><defs><g id="white-pawn"><ns0:metadata>
  <rdf:RDF>
   <ns2:Work rdf:about="">
    <dc:format>image/svg+xml</dc:format>
    <dc:type rdf:resource="http://purl.org/dc/dcmitype/StillImage" />
    <dc:title />
   </ns2:Work>
  </rdf:RDF>
 </ns0:metadata>
 <ns0:defs>
  <ns0:linearGradient id="GGG">
   <ns0:stop stop-color="#f5f5f5" offset="0" />
   <ns0:stop stop-color="#7e7e7e" offset="1" />
  </ns0:linearGradient>
  <ns0:linearGradient id="linearGradient7302" x1="1765.8" x2="1790.9" y1="1045.8" y2="1045.8" gradientUnits="userSpaceOnUse" ns4:href="#GGG" />
  <ns0:linearGradient id="linearGradient7306" x1="1771.5" x2="1785.2" y1="1028.2" y2="1028.2" gradientUnits="userSpaceOnUse" ns4:href="#GGG" />
  <ns0:linearGradient id="linearGradient7310" x1="1778.2" x2="1790.7" y1="1045.8" y2="1045.8" gradientUnits="userSpaceOnUse" ns4:href="#linearGradient4089" />
  <ns0:linearGradient id="linearGradient4089">
   <ns0:stop offset="0" />
   <ns0:stop stop-opacity="0" offset="1" />
  </ns0:linearGradient>
  <ns0:linearGradient id="linearGradient7312" x1="6553.9" x2="6615.8" y1="3964.9" y2="3964.9" gradientUnits="userSpaceOnUse" ns4:href="#GGG" />
  <ns0:linearGradient id="linearGradient7316" x1="1776.1" x2="1785.1" y1="1028.2" y2="1028.2" gradientUnits="userSpaceOnUse" ns4:href="#linearGradient4089" />
  <ns0:linearGradient id="linearGradient7318" x1="1772.4" x2="1776.4" y1="1026.7" y2="1026.7" gradientUnits="userSpaceOnUse" ns4:href="#linearGradient4161" />
  <ns0:linearGradient id="linearGradient4161">
   <ns0:stop stop-color="#fff" offset="0" />
   <ns0:stop stop-color="#fff" stop-opacity="0" offset="1" />
  </ns0:linearGradient>
  <ns0:linearGradient id="linearGradient7320" x1="1771" x2="1778.5" y1="1035.9" y2="1035.9" gradientUnits="userSpaceOnUse" ns4:href="#linearGradient4161" />
  <ns0:linearGradient id="linearGradient7322" x1="1766.9" x2="1775.5" y1="1047" y2="1047" gradientUnits="userSpaceOnUse" ns4:href="#linearGradient4161" />
 </ns0:defs>
 <ns0:g transform="matrix(1.0376 0 0 .96964 -1820.1 -977.99)" stroke-width=".99699">
  <ns0:path d="m1774.8 1036.7c0.074 10.306-8.8776 14.505-8.8776 14.505l0.8116 3.6646h23.163l0.8113-3.6646s-8.9511-4.1989-8.8773-14.505z" fill="url(#linearGradient7302)" stroke="url(#linearGradient7302)" stroke-width=".1994" />
  <ns0:path d="m1774.6 1034.5c-1.8746-1.2747-3.0008-3.4235-3.0008-5.7247 0-3.7976 3.0119-6.8763 6.7276-6.8763 3.7154 0 6.7276 3.0787 6.7276 6.8763v0c0 2.3018-1.1266 4.4506-3.0017 5.7253z" fill="url(#linearGradient7306)" stroke="url(#linearGradient7306)" stroke-linecap="round" stroke-linejoin="round" stroke-width=".1994" style="paint-order:normal" />
  <ns0:path d="m1778.2 1036.7c-0.074 10.306 8.8775 14.506 8.8775 14.506l-0.8113 3.6649h3.7047l0.8113-3.6649s-8.9513-4.1991-8.8775-14.506z" fill="url(#linearGradient7310)" opacity=".1" />
  <ns0:path transform="matrix(.26458 0 0 .26458 36.116 -12.303)" d="m6562.8 3956.3c-4.709 0-8.5 3.8465-8.5 8.625s3.791 8.625 8.5 8.625h44.078c4.709 0 8.5-3.8465 8.5-8.625s-3.791-8.625-8.5-8.625z" fill="url(#linearGradient7312)" stroke="url(#linearGradient7312)" stroke-linecap="round" stroke-linejoin="round" stroke-width=".75363" style="paint-order:normal" />
  <ns0:path d="m1778.3 1022c-0.764 0-1.4977 0.127-2.1828 0.358 10.289-2.1017 5.9333 11.932 1.5679 11.932l4.365 5e-4c1.8873-1.2433 3.0217-3.3391 3.0217-5.584 0-3.7037-3.0318-6.706-6.7718-6.706z" fill="url(#linearGradient7316)" opacity=".1" style="paint-order:normal" />
  <ns0:path d="m1772.7 1030.4s-1.6507-5.0823 3.7876-7.4194c-3.2437 2.2898-3.7876 7.4194-3.7876 7.4194z" fill="url(#linearGradient7318)" />
  <ns0:path d="m1771.1 1036.5c0.1343-1.2865 7.4263-1.2265 7.4263-1.2265l-6.1557-0.01c-0.9063 0.096-1.241 0.9611-1.275 1.2348z" fill="url(#linearGradient7320)" />
  <ns0:path d="m1767.4 1054.2-0.5613-2.4906c0 0.4159 8.4567-5.5229 8.556-11.91 1.201 7.0322-7.6906 12.285-7.6906 12.285z" fill="url(#linearGradient7322)" />
 </ns0:g>
 <ns0:path d="m25.169 12.885c-3.8554 0-6.981 2.985-6.981 6.6673 0 2.206 1.1439 4.2662 3.0494 5.5072h-2.113c-1.2928 0-2.3332 0.98687-2.3332 2.2128 0 1.2259 1.0404 2.2128 2.3332 2.2128h2.2324c-1.1822 8.3566-9.0589 11.816-9.0589 11.816l0.84232 3.5533h24.034l0.84181-3.5533s-7.8762-3.4595-9.0584-11.816h2.2676c1.2928 0 2.3337-0.98688 2.3337-2.2128 0-1.2259-1.041-2.2128-2.3337-2.2128h-2.1244c1.9054-1.241 3.0489-3.301 3.0489-5.5072 0-3.6823-3.1254-6.6673-6.9805-6.6673z" fill="none" stroke="#646464" stroke-width=".3" />
</g><g id="white-knight"><ns0:metadata>
  <rdf:RDF>
   <ns2:Work rdf:about="">
    <dc:format>image/svg+xml</dc:format>
    <dc:type rdf:resource="http://purl.org/dc/dcmitype/StillImage" />
    <dc:title />
   </ns2:Work>
  </rdf:RDF>
 </ns0:metadata>
 <ns0:defs>
  <ns0:linearGradient id="GGG">
   <ns0:stop stop-color="#f5f5f5" offset="0" />
   <ns0:stop stop-color="#7e7e7e" offset="1" />
  </ns0:linearGradient>
  <ns0:linearGradient id="linearGradient7384" x1="1605.8" x2="1632.4" y1="1101.5" y2="1101.5" gradientUnits="userSpaceOnUse" ns4:href="#GGG" />
  <ns0:linearGradient id="linearGradient7388" x1="1617" x2="1632.3" y1="1101.5" y2="1101.5" gradientUnits="userSpaceOnUse" ns4:href="#linearGradient4140" />
  <ns0:linearGradient id="linearGradient4140">
   <ns0:stop offset="0" />
   <ns0:stop stop-opacity="0" offset="1" />
  </ns0:linearGradient>
  <ns0:linearGradient id="linearGradient7390" x1="1612.2" x2="1621.6" y1="1108.7" y2="1108.7" gradientUnits="userSpaceOnUse" ns4:href="#linearGradient4161" />
  <ns0:linearGradient id="linearGradient4161">
   <ns0:stop stop-color="#fff" offset="0" />
   <ns0:stop stop-color="#fff" stop-opacity="0" offset="1" />
  </ns0:linearGradient>
  <ns0:linearGradient id="linearGradient7392" x1="1606.9" x2="1619" y1="1095.6" y2="1095.6" gradientUnits="userSpaceOnUse" ns4:href="#linearGradient4161" />
  <ns0:linearGradient id="linearGradient7394" x1="1621.7" x2="1611.7" y1="1101.1" y2="1101.9" gradientUnits="userSpaceOnUse" ns4:href="#linearGradient4140" />
  <ns0:linearGradient id="linearGradient7396" x1="-20.75" x2="6.1016" y1="544.53" y2="544.53" gradientTransform="translate(2017.8 448.59)" gradientUnits="userSpaceOnUse" ns4:href="#GGG" />
  <ns0:linearGradient id="linearGradient7398" x1="1911.6" x2="1938.4" y1="940.86" y2="940.86" gradientTransform="translate(85.454 52.258)" gradientUnits="userSpaceOnUse" ns4:href="#GGG" />
  <ns0:linearGradient id="linearGradient7400" x1="7236" x2="7315.1" y1="3545.9" y2="3545.9" gradientTransform="matrix(.26458 0 0 .26458 85.454 52.258)" gradientUnits="userSpaceOnUse" ns4:href="#linearGradient4161" />
 </ns0:defs>
 <ns0:g transform="translate(-1596.6 -1076.2)">
  <ns0:path d="m1621.9 1089s-1.8958-2.2464-4.818-2.4819c-3e-4 -1e-4 0 0 0 0v6e-4c0 3e-4 0.1169 3.0441 0.1169 3.0441l-11.293 11.584c2.4462 4.5921 5.9158 3.8848 5.9158 3.8848 2.7286-2.3832 5.1239-1.973 8.4987-3.3845 1.7558 2.9383-11.52 8.8479-8.5691 14.758h20.599c-5.6642-8.1509 8.015-21.54-10.45-27.405z" fill="url(#linearGradient7384)" stroke="url(#linearGradient7384)" stroke-linejoin="round" stroke-width=".2" />
  <ns0:path d="m1617.1 1086.5c1.5885 1.1878 3.1116 2.4135 4.0634 3.9698 18.465 5.8646 1.1512 17.766 6.8153 25.917h4.3891c-5.6643-8.151 8.0147-21.541-10.45-27.405 0 0-1.896-2.2465-4.8182-2.482z" fill="url(#linearGradient7388)" opacity=".1" />
  <ns0:path d="m1621.3 1101.8c1.0409 3.5916-10.331 8.2497-8.9701 13.798 0-5.3518 11.25-9.953 8.9701-13.798z" fill="url(#linearGradient7390)" />
  <ns0:path d="m1609.4 1103.8s-1.0546-0.1754-2.5213-2.5256l11.028-11.338-0.058-2.4949c0.2685 0.872 0.3677 1.7055 1.1513 2.6944l-11.459 11.082c0.3876 1.0157 1.2033 1.7455 1.8589 2.5821z" fill="url(#linearGradient7392)" />
  <ns0:path d="m1611.8 1105c2.2453-2.1271 5.6592-2.2676 8.4987-3.3845 0.2521 0.1169-0.027 1.1827 0.075 1.0732 0.7939-0.8552 2.6937-2.5377 1.3726-5.7978-0.1843 5.6429-11.049 5.1937-9.9468 8.1091z" fill="url(#linearGradient7394)" opacity=".1" />
 </ns0:g>
 <ns0:g transform="translate(-1985.4 -950.6)">
  <ns0:path d="m2010.4 989.15s-8.5779 0.048-10.983 1.6192c-1.6227 1.0602-2.0055 2.0639-1.7847 4.7362h25.536c0.2207-2.6723-0.1622-3.6761-1.7849-4.7362-2.4047-1.5711-10.983-1.6192-10.983-1.6192z" clip-rule="evenodd" fill="url(#linearGradient7396)" fill-rule="evenodd" image-rendering="optimizeQuality" shape-rendering="geometricPrecision" stroke="url(#linearGradient7398)" stroke-linejoin="round" stroke-width=".2" />
  <ns0:path d="m2009 989.73c-3.2334 0.0337-5.7858 0.38114-7.7267 0.94774 6.1468-0.43777 12.256-0.49689 18.309 0-2.2181-0.64754-5.2353-1.0087-9.1545-0.94258-0.4899-8e-3 -0.9659-0.01-1.4278-5e-3z" fill="url(#linearGradient7400)" />
 </ns0:g>
 <ns0:path d="m20.482 10.318v5.17e-4c0 3e-4 0.11679 3.0443 0.11679 3.0443l-11.293 11.584c2.4462 4.5921 5.9154 3.885 5.9154 3.885 2.7286-2.3832 5.1239-1.9733 8.4987-3.3848 1.7086 2.8593-10.815 8.5327-8.77 14.282-0.36538 0.13174-0.68404 0.27747-0.93328 0.44028-1.6227 1.0602-2.0052 2.0638-1.7844 4.7361h25.536c0.2207-2.6723-0.1622-3.676-1.7849-4.7361-0.11741-0.07671-0.25381-0.14846-0.39894-0.21808-5.2172-8.1724 7.9908-21.346-10.284-27.151h-5.16e-4s-1.8956-2.2465-4.8178-2.482z" fill="none" stroke="#646464" stroke-linejoin="round" stroke-width=".3" />
</g><g id="white-bishop"><ns0:metadata>
  <rdf:RDF>
   <ns2:Work rdf:about="">
    <dc:format>image/svg+xml</dc:format>
    <dc:type rdf:resource="http://purl.org/dc/dcmitype/StillImage" />
    <dc:title />
   </ns2:Work>
  </rdf:RDF>
 </ns0:metadata>
 <ns0:defs>
  <ns0:linearGradient id="GGG">
   <ns0:stop stop-color="#f5f5f5" offset="0" />
   <ns0:stop stop-color="#7e7e7e" offset="1" />
  </ns0:linearGradient>
  <ns0:linearGradient id="linearGradient7368" x1="719.94" x2="742.36" y1="1208.7" y2="1208.7" gradientUnits="userSpaceOnUse" ns4:href="#GGG" />
  <ns0:linearGradient id="linearGradient7372" x1="854.8" x2="868.03" y1="1429.4" y2="1429.4" gradientUnits="userSpaceOnUse">
   <ns0:stop offset="0" />
   <ns0:stop stop-opacity="0" offset="1" />
  </ns0:linearGradient>
  <ns0:linearGradient id="linearGradient7374" x1="850.54" x2="857.14" y1="1434.1" y2="1434.1" gradientUnits="userSpaceOnUse" ns4:href="#linearGradient4161" />
  <ns0:linearGradient id="linearGradient4161">
   <ns0:stop stop-color="#fff" offset="0" />
   <ns0:stop stop-color="#fff" stop-opacity="0" offset="1" />
  </ns0:linearGradient>
  <ns0:linearGradient id="linearGradient7376" x1="858" x2="859.64" y1="1420.9" y2="1420.9" gradientUnits="userSpaceOnUse" ns4:href="#linearGradient4161" />
  <ns0:linearGradient id="linearGradient7378" x1="-20.75" x2="6.1016" y1="544.53" y2="544.53" gradientTransform="translate(2017.8 448.59)" gradientUnits="userSpaceOnUse" ns4:href="#GGG" />
  <ns0:linearGradient id="linearGradient7380" x1="1911.6" x2="1938.4" y1="940.86" y2="940.86" gradientTransform="translate(85.454 52.258)" gradientUnits="userSpaceOnUse" ns4:href="#GGG" />
  <ns0:linearGradient id="linearGradient7382" x1="7236" x2="7315.1" y1="3545.9" y2="3545.9" gradientTransform="matrix(.26458 0 0 .26458 85.454 52.258)" gradientUnits="userSpaceOnUse" ns4:href="#linearGradient4161" />
 </ns0:defs>
 <ns0:g transform="translate(-1563.6 -1028.3)">
  <ns0:g transform="translate(728.01 -380.43)">
   <ns0:g transform="translate(3.9687 3.9687)">
    <ns0:g transform="translate(125.77 220.63)">
     <ns0:path d="m731.15 1193.6c-2.0344 0-3.6834 0.8388-3.6834 1.8738l1.4653 2.5292c-15.506 13.446-6.0254 25.896-6.0254 25.896h16.487s6.0761-7.9824 0.53846-18.067l-4.3262 6.4065c-0.24139 0.3574-0.73161 0.4563-1.0995 0.2218l-2.6215-1.6715c-0.36791-0.2345-0.46972-0.7108-0.22834-1.0683l5.4091-8.0101c-1.036-1.2212-2.2587-2.4601-3.6974-3.7076l1.4653-2.5292c5e-5 -1.035-1.6494-1.8735-3.6839-1.8738z" fill="url(#linearGradient7368)" stroke="url(#linearGradient7368)" stroke-width=".2" />
    </ns0:g>
    <ns0:path d="m856.92 1414.2c-0.7887 0-1.518 0.1274-2.1172 0.3421 2.4488 0.4546 4.3851 1.4115 4.3851 1.4115s-1.0831 1.6546-1.9115 2.7405l3.1362 3.4037c-3.5328 7.8641-3.1166 8.6465-3.1166 8.6465s2.24-3.5471 5.54-8.4337c-1.036-1.2212-2.2588-2.4603-3.6974-3.7077l1.465-2.5291c5e-5 -1.035-1.6491-1.8735-3.6835-1.8738zm8.7824 12.232-1.3494 1.997c2.4133 8.1829-3.4224 16.07-3.4224 16.07h4.2333s6.0762-7.9823 0.53848-18.066z" fill="url(#linearGradient7372)" opacity=".1" />
   </ns0:g>
   <ns0:path d="m851.04 1443c-0.21166-0.03-2.7726-9.2839 6.0947-17.84-2.2239 1.8085-7.4288 12.507-6.0947 17.84z" fill="url(#linearGradient7374)" />
   <ns0:path d="m859.61 1422.8-1.6123-2.8525s0.24805-0.4879 1.6371-0.8599c-8e-3 0.017-1.0666 0.9095-1.0666 0.9095z" fill="url(#linearGradient7376)" />
  </ns0:g>
 </ns0:g>
 <ns0:g transform="translate(-1985.4 -950.6)">
  <ns0:path d="m2010.4 989.15s-8.5779 0.048-10.983 1.6192c-1.6227 1.0602-2.0055 2.0639-1.7847 4.7362h25.536c0.2207-2.6723-0.1622-3.6761-1.7849-4.7362-2.4047-1.5711-10.983-1.6192-10.983-1.6192z" clip-rule="evenodd" fill="url(#linearGradient7378)" fill-rule="evenodd" image-rendering="optimizeQuality" shape-rendering="geometricPrecision" stroke="url(#linearGradient7380)" stroke-linejoin="round" stroke-width=".2" />
  <ns0:path d="m2009 989.73c-3.2334 0.0337-5.7858 0.38114-7.7267 0.94774 6.1468-0.43777 12.256-0.49689 18.309 0-2.2181-0.64754-5.2353-1.0087-9.1545-0.94258-0.4899-8e-3 -0.9659-0.01-1.4278-5e-3z" fill="url(#linearGradient7382)" />
 </ns0:g>
 <ns0:path d="m25.33 9.405c-2.0342 1.437e-4 -3.683 0.83888-3.683 1.8738l1.465 2.5296c-13.811 11.976-7.812 23.137-6.3329 25.439-1.1552 0.22616-2.155 0.52565-2.7616 0.92191-1.6227 1.0602-2.0057 2.0638-1.7849 4.7361h25.536c0.2207-2.6723-0.1622-3.676-1.7849-4.7361-0.50121-0.32746-1.2783-0.58629-2.1823-0.79478 1.0213-1.5404 5.2196-8.7985 0.31109-17.737l-4.3264 6.4063c-0.24139 0.3574-0.73178 0.45619-1.0997 0.22169l-2.6215-1.6712c-0.36791-0.2345-0.46927-0.71117-0.22789-1.0687l5.409-8.0098c-1.036-1.2212-2.2588-2.4603-3.6974-3.7078l1.465-2.529c5.1e-5 -1.0349-1.6487-1.8733-3.683-1.8738z" fill="none" stroke="#646464" stroke-width=".30004" />
</g><g id="white-rook"><ns0:metadata>
  <rdf:RDF>
   <ns2:Work rdf:about="">
    <dc:format>image/svg+xml</dc:format>
    <dc:type rdf:resource="http://purl.org/dc/dcmitype/StillImage" />
    <dc:title />
   </ns2:Work>
  </rdf:RDF>
 </ns0:metadata>
 <ns0:defs>
  <ns0:linearGradient id="GGG">
   <ns0:stop stop-color="#f5f5f5" offset="0" />
   <ns0:stop stop-color="#7e7e7e" offset="1" />
  </ns0:linearGradient>
  <ns0:linearGradient id="linearGradient7402" x1="2101.1" x2="2123.5" y1="964.98" y2="964.98" gradientTransform="translate(-2087.3 -939.26)" gradientUnits="userSpaceOnUse" ns4:href="#GGG" />
  <ns0:linearGradient id="linearGradient7404" x1="1407.1" x2="1429.6" y1="1310" y2="1310" gradientTransform="translate(-1393.4 -1284.3)" gradientUnits="userSpaceOnUse" ns4:href="#GGG" />
  <ns0:linearGradient id="linearGradient7406" x1="1412.3" x2="1429.5" y1="1309.8" y2="1309.8" gradientTransform="translate(-1393.4 -1284.3)" gradientUnits="userSpaceOnUse">
   <ns0:stop offset="0" />
   <ns0:stop stop-opacity="0" offset="1" />
  </ns0:linearGradient>
  <ns0:linearGradient id="linearGradient7408" x1="1408" x2="1409.1" y1="1300.4" y2="1300.4" gradientTransform="translate(-1393.4 -1284.3)" gradientUnits="userSpaceOnUse" ns4:href="#linearGradient4161" />
  <ns0:linearGradient id="linearGradient4161">
   <ns0:stop stop-color="#fff" offset="0" />
   <ns0:stop stop-color="#fff" stop-opacity="0" offset="1" />
  </ns0:linearGradient>
  <ns0:linearGradient id="linearGradient7410" x1="1416.3" x2="1417.3" y1="1298.4" y2="1298.4" gradientTransform="translate(-1393.4 -1284.3)" gradientUnits="userSpaceOnUse" ns4:href="#linearGradient4161" />
  <ns0:linearGradient id="linearGradient7412" x1="1426.1" x2="1426.8" y1="1297.9" y2="1297.9" gradientTransform="translate(-1393.4 -1284.3)" gradientUnits="userSpaceOnUse" ns4:href="#linearGradient4161" />
  <ns0:linearGradient id="linearGradient7414" x1="1411.1" x2="1413.7" y1="1312.6" y2="1312.6" gradientTransform="translate(-1393.4 -1284.3)" gradientUnits="userSpaceOnUse" ns4:href="#linearGradient4161" />
  <ns0:linearGradient id="linearGradient7416" x1="-20.75" x2="6.1016" y1="544.53" y2="544.53" gradientTransform="translate(32.324 -502.01)" gradientUnits="userSpaceOnUse" ns4:href="#GGG" />
  <ns0:linearGradient id="linearGradient7418" x1="1911.6" x2="1938.4" y1="940.86" y2="940.86" gradientTransform="translate(-1900 -898.34)" gradientUnits="userSpaceOnUse" ns4:href="#GGG" />
  <ns0:linearGradient id="linearGradient7420" x1="7236" x2="7315.1" y1="3545.9" y2="3545.9" gradientTransform="matrix(.26458 0 0 .26458 -1900 -898.34)" gradientUnits="userSpaceOnUse" ns4:href="#linearGradient4161" />
 </ns0:defs>
 <ns0:path d="m14.183 11.845c-1.825 10.607 4.7656 11.275 4.7656 11.275l-3.3734 16.477h18.849l-3.3734-16.477s6.5912-0.6674 4.7661-11.275h-3.8592v2.9724h-4.179v-2.9129h-5.5578v2.9129h-4.1796v-2.9724z" fill="url(#linearGradient7402)" stroke="url(#linearGradient7404)" stroke-width=".2" />
 <ns0:path d="m34.789 11.845c1.6882 11.06-5.0864 10.74-15.84 11.275l-0.09 0.4406c11.24-0.9881 9.4314 5.9153 11.392 15.591h4.2333l-3.4329-16.032s6.5912-0.6674 4.7661-11.275z" fill="url(#linearGradient7406)" opacity=".1" />
 <ns0:path d="m14.835 12.6s-0.6697 4.87 0.6697 7.0694c-1.0831-4.5361 0.2827-7.058 0.2827-7.058z" fill="url(#linearGradient7408)" />
 <ns0:path d="m22.979 15.544v-2.8856l0.926 0.01z" fill="url(#linearGradient7410)" />
 <ns0:path d="m32.726 14.635v-2.0379l0.6725 0.01z" fill="url(#linearGradient7412)" />
 <ns0:path d="m19.603 23.886-1.8475 8.9101 2.6086-8.9335z" fill="url(#linearGradient7414)" />
 <ns0:path d="m25 38.545s-8.5779 0.048-10.983 1.6192c-1.6227 1.0602-2.0055 2.0639-1.7847 4.7362h25.536c0.2207-2.6723-0.1622-3.6761-1.7849-4.7362-2.4047-1.5711-10.983-1.6192-10.983-1.6192z" clip-rule="evenodd" fill="url(#linearGradient7416)" fill-rule="evenodd" image-rendering="optimizeQuality" shape-rendering="geometricPrecision" stroke="url(#linearGradient7418)" stroke-linejoin="round" stroke-width=".2" />
 <ns0:path d="m23.572 39.124c-3.2334 0.034-5.7858 0.3811-7.7267 0.9477 6.1468-0.4378 12.256-0.4969 18.309 0-2.2181-0.6475-5.2353-1.0087-9.1545-0.9426-0.4899-0.01-0.9659-0.01-1.4278-0.01z" fill="url(#linearGradient7420)" />
 <ns0:path d="m14.183 11.845c-1.825 10.607 4.7656 11.275 4.7656 11.275l-3.3574 16.4c-0.64261 0.17974-1.1888 0.39184-1.5746 0.64389-1.6227 1.0602-2.0052 2.0638-1.7844 4.7361h25.536c0.2207-2.6723-0.1622-3.676-1.7849-4.7361-0.38597-0.25217-0.93205-0.46461-1.5751-0.64441l-3.3574-16.4s6.5912-0.66768 4.7661-11.275h-3.8592v2.9724h-4.1791v-2.9125h-5.5578v2.9125h-4.1796v-2.9724z" fill="none" stroke="#646464" stroke-width=".3" />
</g><g id="white-queen"><ns0:metadata>
  <rdf:RDF>
   <ns2:Work rdf:about="">
    <dc:format>image/svg+xml</dc:format>
    <dc:type rdf:resource="http://purl.org/dc/dcmitype/StillImage" />
    <dc:title />
   </ns2:Work>
  </rdf:RDF>
 </ns0:metadata>
 <ns0:defs>
  <ns0:linearGradient id="GGG">
   <ns0:stop stop-color="#f5f5f5" offset="0" />
   <ns0:stop stop-color="#7e7e7e" offset="1" />
  </ns0:linearGradient>
  <ns0:linearGradient id="linearGradient7346" x1="1003.1" x2="1041.1" y1="1382.5" y2="1382.5" gradientUnits="userSpaceOnUse" ns4:href="#GGG" />
  <ns0:linearGradient id="linearGradient7350" x1="823.03" x2="839.36" y1="1432.8" y2="1432.8" gradientUnits="userSpaceOnUse">
   <ns0:stop offset="0" />
   <ns0:stop stop-opacity="0" offset="1" />
  </ns0:linearGradient>
  <ns0:linearGradient id="linearGradient7352" x1="806.63" x2="808.42" y1="1428.2" y2="1428.2" gradientUnits="userSpaceOnUse" ns4:href="#linearGradient4161" />
  <ns0:linearGradient id="linearGradient4161">
   <ns0:stop stop-color="#fff" offset="0" />
   <ns0:stop stop-color="#fff" stop-opacity="0" offset="1" />
  </ns0:linearGradient>
  <ns0:linearGradient id="linearGradient7354" x1="815.89" x2="817.68" y1="1421.3" y2="1421.3" gradientUnits="userSpaceOnUse" ns4:href="#linearGradient4161" />
  <ns0:linearGradient id="linearGradient7356" x1="827.09" x2="829.7" y1="1420.7" y2="1420.7" gradientUnits="userSpaceOnUse" ns4:href="#linearGradient4161" />
  <ns0:linearGradient id="linearGradient7358" x1="836.33" x2="838.69" y1="1427.6" y2="1427.6" gradientUnits="userSpaceOnUse" ns4:href="#linearGradient4161" />
  <ns0:linearGradient id="linearGradient7360" x1="811.18" x2="818.59" y1="1440.1" y2="1440.1" gradientUnits="userSpaceOnUse" ns4:href="#linearGradient4161" />
  <ns0:linearGradient id="linearGradient7362" x1="-20.75" x2="6.1016" y1="544.53" y2="544.53" gradientTransform="translate(2017.8 448.59)" gradientUnits="userSpaceOnUse" ns4:href="#GGG" />
  <ns0:linearGradient id="linearGradient7364" x1="1911.6" x2="1938.4" y1="940.86" y2="940.86" gradientTransform="translate(85.454 52.258)" gradientUnits="userSpaceOnUse" ns4:href="#GGG" />
  <ns0:linearGradient id="linearGradient7366" x1="7236" x2="7315.1" y1="3545.9" y2="3545.9" gradientTransform="matrix(.26458 0 0 .26458 85.454 52.258)" gradientUnits="userSpaceOnUse" ns4:href="#linearGradient4161" />
 </ns0:defs>
 <ns0:g transform="translate(-1527 -1028.5)">
  <ns0:g transform="translate(727.26 -380.68)">
   <ns0:g transform="translate(4.2333 3.9687)">
    <ns0:g transform="translate(-201.59 46.812)" fill="#404040" stroke="#141414">
     <ns0:path d="m1016.5 1367.1c-2.2238 0-4.0261 1.753-4.0259 3.9146 0 1.775 1.2336 3.3262 2.9991 3.7795v8.6787l-4.9363-3.3544c0.4466-0.6453 0.6852-1.4052 0.6856-2.1828 0-2.162-1.8031-3.9149-4.0274-3.9148-2.2237 0-4.026 1.7532-4.0258 3.9148 0 2.1611 1.8027 3.9129 4.0258 3.9132 0.1978 0 0.3951-0.017 0.5907-0.045l6.4187 16.165h15.681l6.4172-16.165c0.1955 0.029 0.3929 0.044 0.5906 0.045 2.2232 0 4.0253-1.7521 4.0258-3.9132 0-2.1616-1.802-3.914-4.0258-3.9148-2.2244 0-4.0276 1.7528-4.0274 3.9148 0 0.7776 0.2391 1.5375 0.6856 2.1828l-4.9363 3.3544v-8.6787c1.7658-0.4533 2.9967-2.0045 2.9991-3.7795 0-2.1616-1.802-3.9142-4.0257-3.9146-2.2243 0-4.0276 1.7524-4.0273 3.9146 0 1.2775 0.6462 2.4737 1.7243 3.2041l-3.2406 7.9654-3.2425-7.9654c1.0783-0.7304 1.7219-1.9266 1.7245-3.2041 0-2.1622-1.803-3.915-4.0273-3.9146z" fill="url(#linearGradient7346)" stroke="url(#linearGradient7346)" stroke-linejoin="round" stroke-width=".2" />
    </ns0:g>
    <ns0:path d="m835.33 1420.8c-0.7779 0-1.5014 0.2178-2.1172 0.5891 6.4103 1.3409 3.3502 6.8195 0.33928 6.3258l-10.522 17.033h5.2917l6.4177-16.165c0.1955 0.029 0.39246 0.044 0.59015 0.045 2.2232 0 4.0256-1.7524 4.0261-3.9135 0-2.1615-1.8023-3.9136-4.0261-3.9144z" fill="url(#linearGradient7350)" opacity=".1" />
   </ns0:g>
   <ns0:path d="m807.18 1430.5s-1.8356-2.5962 1.2402-4.6136c-0.66254 1.4187-1.273 2.8107-1.2402 4.6136z" fill="url(#linearGradient7352)" />
   <ns0:path d="m816.44 1423.6s-1.8356-2.5962 1.2402-4.6136c-0.82301 1.1663-1.5385 2.6631-1.2402 4.6136z" fill="url(#linearGradient7354)" />
   <ns0:path d="m827.24 1422.7s-1.0496-3.0013 2.4628-4.0937c-1.5759 1.211-2.4975 2.3767-2.4628 4.0937z" fill="url(#linearGradient7356)" />
   <ns0:path d="m836.44 1429.6c0.058 0.029-0.98681-2.6411 2.2456-3.8614-1.116 0.89-2.069 1.4843-2.2456 3.8614z" fill="url(#linearGradient7358)" />
   <ns0:path d="m811.18 1432.3 6.2508 15.676h1.1576z" fill="url(#linearGradient7360)" />
  </ns0:g>
 </ns0:g>
 <ns0:g transform="translate(-1985.4 -950.6)">
  <ns0:path d="m2010.4 989.15s-8.5779 0.048-10.983 1.6192c-1.6227 1.0602-2.0055 2.0639-1.7847 4.7362h25.536c0.2207-2.6723-0.1622-3.6761-1.7849-4.7362-2.4047-1.5711-10.983-1.6192-10.983-1.6192z" clip-rule="evenodd" fill="url(#linearGradient7362)" fill-rule="evenodd" image-rendering="optimizeQuality" shape-rendering="geometricPrecision" stroke="url(#linearGradient7364)" stroke-linejoin="round" stroke-width=".2" />
  <ns0:path d="m2009 989.73c-3.2334 0.0337-5.7858 0.38114-7.7267 0.94774 6.1468-0.43777 12.256-0.49689 18.309 0-2.2181-0.64754-5.2353-1.0087-9.1545-0.94258-0.4899-8e-3 -0.9659-0.01-1.4278-5e-3z" fill="url(#linearGradient7366)" />
 </ns0:g>
 <ns0:path d="m19.403 8.7009c-2.2238 0-4.0258 1.7529-4.0256 3.9145 0 1.775 1.2333 3.3263 2.9988 3.7796v8.6785l-4.9361-3.3543c0.4466-0.6453 0.68535-1.4052 0.68575-2.1828 0-2.162-1.8034-3.9151-4.0277-3.915-2.2237 0-4.0258 1.7534-4.0256 3.915 0 2.1611 1.8025 3.9126 4.0256 3.9129 0.1978 0 0.39506-0.01696 0.59066-0.04496l6.2777 15.81c-1.2328 0.23002-2.3111 0.53729-2.9497 0.95446-1.6227 1.0602-2.0057 2.0638-1.7849 4.7361h25.536c0.2207-2.6723-0.1622-3.676-1.7849-4.7361-0.65502-0.42796-1.7738-0.73976-3.0468-0.97152l6.2694-15.793c0.1955 0.029 0.39296 0.04396 0.59066 0.04496 2.2232 0 4.0251-1.7518 4.0256-3.9129 0-2.1616-1.8018-3.9142-4.0256-3.915-2.2244 0-4.0279 1.753-4.0277 3.915 0 0.7776 0.23925 1.5375 0.68575 2.1828l-4.9361 3.3543v-8.6785c1.7658-0.4533 2.9964-2.0046 2.9988-3.7796 0-2.1616-1.8019-3.9141-4.0256-3.9145-2.2243 0-4.0274 1.7523-4.0271 3.9145 0 1.2775 0.64582 2.4735 1.7239 3.2039l-3.2406 7.9654-3.2422-7.9654c1.0783-0.7304 1.7218-1.9264 1.7244-3.2039 0-2.1622-1.8028-3.9149-4.0271-3.9145z" fill="none" stroke="#646464" stroke-linejoin="round" stroke-width=".3" />
</g><g id="white-king"><ns0:metadata>
  <rdf:RDF>
   <ns2:Work rdf:about="">
    <dc:format>image/svg+xml</dc:format>
    <dc:type rdf:resource="http://purl.org/dc/dcmitype/StillImage" />
    <dc:title />
   </ns2:Work>
  </rdf:RDF>
 </ns0:metadata>
 <ns0:defs>
  <ns0:linearGradient id="GGG">
   <ns0:stop stop-color="#f5f5f5" offset="0" />
   <ns0:stop stop-color="#7e7e7e" offset="1" />
  </ns0:linearGradient>
  <ns0:linearGradient id="linearGradient7324" x1="775.31" x2="794.19" y1="1466.4" y2="1466.4" gradientUnits="userSpaceOnUse" ns4:href="#GGG" />
  <ns0:linearGradient id="linearGradient7328" x1="770.2" x2="799.3" y1="1481.1" y2="1481.1" gradientUnits="userSpaceOnUse" ns4:href="#GGG" />
  <ns0:linearGradient id="linearGradient7332" x1="776.23" x2="778.02" y1="1465.4" y2="1465.4" gradientUnits="userSpaceOnUse" ns4:href="#linearGradient4161" />
  <ns0:linearGradient id="linearGradient4161">
   <ns0:stop stop-color="#fff" offset="0" />
   <ns0:stop stop-color="#fff" stop-opacity="0" offset="1" />
  </ns0:linearGradient>
  <ns0:linearGradient id="linearGradient7334" x1="771.12" x2="780.35" y1="1480.3" y2="1480.3" gradientUnits="userSpaceOnUse" ns4:href="#linearGradient4161" />
  <ns0:linearGradient id="linearGradient7336" x1="783.13" x2="784.49" y1="1460.9" y2="1460.9" gradientUnits="userSpaceOnUse" ns4:href="#linearGradient4161" />
  <ns0:linearGradient id="linearGradient7338" x1="784.72" x2="799.08" y1="1481.2" y2="1481.2" gradientUnits="userSpaceOnUse">
   <ns0:stop offset="0" />
   <ns0:stop stop-opacity="0" offset="1" />
  </ns0:linearGradient>
  <ns0:linearGradient id="linearGradient7340" x1="-20.75" x2="6.1016" y1="544.53" y2="544.53" gradientTransform="translate(1946 433.19)" gradientUnits="userSpaceOnUse" ns4:href="#GGG" />
  <ns0:linearGradient id="linearGradient7342" x1="1911.6" x2="1938.4" y1="940.86" y2="940.86" gradientTransform="translate(13.657 36.856)" gradientUnits="userSpaceOnUse" ns4:href="#GGG" />
  <ns0:linearGradient id="linearGradient7344" x1="7236" x2="7315.1" y1="3545.9" y2="3545.9" gradientTransform="matrix(.26458 0 0 .26458 13.657 36.856)" gradientUnits="userSpaceOnUse" ns4:href="#linearGradient4161" />
 </ns0:defs>
 <ns0:g transform="translate(-1487.5 -1028.6)">
  <ns0:g transform="translate(727.76 -422.05)">
   <ns0:path d="m784.75 1457.7c-0.98972 0-2.3763 0.7433-2.3763 1.6668v3.8062h-5.13c-0.98972 0-1.7864 1.2939-1.7864 2.2175 0 0.9234 0.80318 2.3235 1.7864 2.2179h5.13l-1.0583 5.7672c-0.16669 0.9083 2.4449 1.6668 3.4346 1.6668 0.98973 0 3.6015-0.7579 3.4347-1.6668l-1.0583-5.7672h5.1306c0.98974 0 1.7864-1.2945 1.7864-2.2179s-0.80318-2.3228-1.7864-2.2175h-5.1306v-3.8062c0-0.9235-1.3866-1.6668-2.3763-1.6668z" fill="url(#linearGradient7324)" stroke="url(#linearGradient7324)" stroke-linecap="round" stroke-linejoin="round" stroke-width=".3" style="paint-order:normal" />
   <ns0:path d="m784.75 1470.3c-8.7725 0-16.117 2.8408-14.044 8.2765l4.8803 9.4687c1.2297 2.6758 2.5416 3.7114 5.6984 3.7114h3.4654v5e-4h3.4654c3.1568 0 4.4686-1.0361 5.6984-3.7119l4.8803-9.4687c2.073-5.4357-5.2716-8.2765-14.044-8.2765z" fill="url(#linearGradient7328)" stroke="url(#linearGradient7328)" stroke-linecap="round" stroke-linejoin="round" stroke-width=".3" style="paint-order:normal" />
   <ns0:path d="m777.05 1466.9c-0.11681-0.036-0.85532-0.6448-0.82267-1.443 0.0326-0.7982 0.49966-1.3344 0.98493-1.4864h0.80682c-1.4901 0.6056-1.8806 1.6712-0.96908 2.9294z" fill="url(#linearGradient7332)" />
   <ns0:path d="m776.63 1489.2-5.25-11.076c-0.10183-0.2222-1.0605-2.4284 1.5317-4.4051 1.2805-0.9362 3.3499-1.7795 7.4431-2.4058-4.0652 0.9402-9.3108 3.4772-8.1479 6.7944s4.4232 11.093 4.4232 11.093z" fill="url(#linearGradient7334)" />
   <ns0:path d="m783.13 1463.3v-3.9605s0.26458-0.6119 1.3643-0.8516c-1.2988 0.3131-1.3476 4.7396-1.3643 4.8121z" fill="url(#linearGradient7336)" />
   <ns0:path d="m788.5 1470.5c11.556 3.3271 6.3241 8.0792 1.9161 17.672-1.2297 2.6758-2.5421 3.7114-5.6989 3.7114h3.1755c3.1568 0 4.4686-1.0356 5.6984-3.7114l5.1978-9.5437c1.0533-7.9822-9.1376-8.1848-10.289-8.1279z" fill="url(#linearGradient7338)" opacity=".1" style="paint-order:normal" />
  </ns0:g>
 </ns0:g>
 <ns0:g transform="translate(-1913.7 -935.2)">
  <ns0:path d="m1938.6 973.75s-8.5779 0.048-10.983 1.6192c-1.6227 1.0602-2.0055 2.0639-1.7847 4.7362h25.536c0.2207-2.6723-0.1622-3.6761-1.7849-4.7362-2.4047-1.5711-10.983-1.6192-10.983-1.6192z" clip-rule="evenodd" fill="url(#linearGradient7340)" fill-rule="evenodd" image-rendering="optimizeQuality" shape-rendering="geometricPrecision" stroke="url(#linearGradient7342)" stroke-linejoin="round" stroke-width=".2" />
  <ns0:path d="m1937.2 974.32c-3.2334 0.0337-5.7858 0.38114-7.7267 0.94774 6.1468-0.43777 12.256-0.49689 18.309 0-2.2181-0.64754-5.2353-1.0087-9.1545-0.94258-0.4899-8e-3 -0.9659-0.01-1.4278-5e-3z" fill="url(#linearGradient7344)" />
 </ns0:g>
 <ns0:path d="m25.01 7.0503c-0.98972 0-2.3761 0.74306-2.3761 1.6666v3.8065h-5.1304c-0.98972 0-1.7865 1.2938-1.7865 2.2174 0 0.9234 0.80323 2.3236 1.7865 2.218h5.1304l-0.51418 2.8009c-7.4123 0.56396-12.994 3.3421-11.154 8.1669l4.8803 9.4687c0.33146 0.72125 0.67059 1.3196 1.0485 1.8144-1.2444 0.23054-2.3342 0.53933-2.9776 0.95963-1.6227 1.0602-2.0057 2.0638-1.7849 4.7361h25.536c0.2207-2.6723-0.1622-3.676-1.7849-4.7361-0.61032-0.39875-1.6198-0.69835-2.7843-0.92501 0.38876-0.50127 0.7356-1.1108 1.0749-1.849l4.8803-9.4687c1.84-4.8248-3.7413-7.6029-11.153-8.1669l-0.51418-2.8009h5.1304c0.98974 0 1.7865-1.2946 1.7865-2.218s-0.80323-2.3227-1.7865-2.2174h-5.1304v-3.8065c0-0.9235-1.3869-1.6666-2.3766-1.6666z" fill="none" stroke="#646464" stroke-linecap="round" stroke-linejoin="round" stroke-width=".30004" style="paint-order:normal" />
</g><g id="black-pawn"><ns0:metadata>
  <rdf:RDF>
   <ns2:Work rdf:about="">
    <dc:format>image/svg+xml</dc:format>
    <dc:type rdf:resource="http://purl.org/dc/dcmitype/StillImage" />
    <dc:title />
   </ns2:Work>
  </rdf:RDF>
 </ns0:metadata>
 <ns0:defs>
  <ns0:linearGradient id="FFF">
   <ns0:stop stop-color="#666" offset="0" />
   <ns0:stop stop-color="#323232" offset="1" />
  </ns0:linearGradient>
  <ns0:linearGradient id="linearGradient5891" x1="1765.8" x2="1790.9" y1="1045.8" y2="1045.8" gradientUnits="userSpaceOnUse" ns4:href="#FFF" />
  <ns0:linearGradient id="linearGradient5887" x1="1771.5" x2="1785.2" y1="1028.2" y2="1028.2" gradientUnits="userSpaceOnUse" ns4:href="#FFF" />
  <ns0:linearGradient id="linearGradient5794" x1="1778.2" x2="1790.7" y1="1045.8" y2="1045.8" gradientUnits="userSpaceOnUse" ns4:href="#linearGradient4089" />
  <ns0:linearGradient id="linearGradient4089">
   <ns0:stop offset="0" />
   <ns0:stop stop-opacity="0" offset="1" />
  </ns0:linearGradient>
  <ns0:linearGradient id="linearGradient5889" x1="6553.9" x2="6615.8" y1="3964.9" y2="3964.9" gradientUnits="userSpaceOnUse" ns4:href="#FFF" />
  <ns0:linearGradient id="linearGradient5800" x1="1776.1" x2="1785.1" y1="1028.2" y2="1028.2" gradientUnits="userSpaceOnUse" ns4:href="#linearGradient4089" />
  <ns0:linearGradient id="linearGradient5802" x1="1772.4" x2="1776.4" y1="1026.7" y2="1026.7" gradientUnits="userSpaceOnUse" ns4:href="#linearGradient4161" />
  <ns0:linearGradient id="linearGradient4161">
   <ns0:stop stop-color="#fff" offset="0" />
   <ns0:stop stop-color="#fff" stop-opacity="0" offset="1" />
  </ns0:linearGradient>
  <ns0:linearGradient id="linearGradient5804" x1="1771" x2="1778.5" y1="1035.9" y2="1035.9" gradientUnits="userSpaceOnUse" ns4:href="#linearGradient4161" />
  <ns0:linearGradient id="linearGradient5807" x1="1766.9" x2="1775.5" y1="1047" y2="1047" gradientUnits="userSpaceOnUse" ns4:href="#linearGradient4161" />
 </ns0:defs>
 <ns0:g transform="matrix(1.0376 0 0 .96964 -1820.1 -977.99)" stroke-width=".99699">
  <ns0:path d="m1774.8 1036.7c0.074 10.306-8.8776 14.505-8.8776 14.505l0.8116 3.6646h23.163l0.8113-3.6646s-8.9511-4.1989-8.8773-14.505z" fill="url(#linearGradient5891)" stroke="url(#linearGradient5891)" stroke-width=".1994" />
  <ns0:path d="m1774.6 1034.5c-1.8746-1.2747-3.0008-3.4235-3.0008-5.7247 0-3.7976 3.0119-6.8763 6.7276-6.8763 3.7154 0 6.7276 3.0787 6.7276 6.8763v0c0 2.3018-1.1266 4.4506-3.0017 5.7253z" fill="url(#linearGradient5887)" stroke="url(#linearGradient5887)" stroke-linecap="round" stroke-linejoin="round" stroke-width=".1994" style="paint-order:normal" />
  <ns0:path d="m1778.2 1036.7c-0.074 10.306 8.8775 14.506 8.8775 14.506l-0.8113 3.6649h3.7047l0.8113-3.6649s-8.9513-4.1991-8.8775-14.506z" fill="url(#linearGradient5794)" opacity=".1" />
  <ns0:path transform="matrix(.26458 0 0 .26458 36.116 -12.303)" d="m6562.8 3956.3c-4.709 0-8.5 3.8465-8.5 8.625s3.791 8.625 8.5 8.625h44.078c4.709 0 8.5-3.8465 8.5-8.625s-3.791-8.625-8.5-8.625z" fill="url(#linearGradient5889)" stroke="url(#linearGradient5889)" stroke-linecap="round" stroke-linejoin="round" stroke-width=".75363" style="paint-order:normal" />
  <ns0:path d="m1778.3 1022c-0.764 0-1.4977 0.127-2.1828 0.358 10.289-2.1017 5.9333 11.932 1.5679 11.932l4.365 5e-4c1.8873-1.2433 3.0217-3.3391 3.0217-5.584 0-3.7037-3.0318-6.706-6.7718-6.706z" fill="url(#linearGradient5800)" opacity=".1" style="paint-order:normal" />
  <ns0:path d="m1772.7 1030.4s-1.6507-5.0823 3.7876-7.4194c-3.2437 2.2898-3.7876 7.4194-3.7876 7.4194z" fill="url(#linearGradient5802)" opacity=".5" />
  <ns0:path d="m1771.1 1036.5c0.1343-1.2865 7.4263-1.2265 7.4263-1.2265l-6.1557-0.01c-0.9063 0.096-1.241 0.9611-1.275 1.2348z" fill="url(#linearGradient5804)" opacity=".5" />
  <ns0:path d="m1767.4 1054.2-0.5613-2.4906c0 0.4159 8.4567-5.5229 8.556-11.91 1.201 7.0322-7.6906 12.285-7.6906 12.285z" fill="url(#linearGradient5807)" opacity=".5" />
 </ns0:g>
 <ns0:path d="m25.169 12.885c-3.8554 0-6.9805 2.9855-6.9805 6.6678 0 2.206 1.1434 4.2663 3.0489 5.5072h-2.1125c-1.2928 0-2.3337 0.98687-2.3337 2.2128 0 1.2259 1.041 2.2128 2.3337 2.2128h2.2319c-1.1822 8.3566-9.0589 11.816-9.0589 11.816l0.84232 3.5533h24.034l0.84181-3.5533s-7.8756-3.4592-9.0578-11.816h2.2676c1.2928 0 2.3332-0.98687 2.3332-2.2128 0-1.2259-1.0404-2.2128-2.3332-2.2128h-2.1255c1.9057-1.2409 3.0494-3.3008 3.0494-5.5072 0-3.6823-3.1254-6.6678-6.9805-6.6678z" fill="none" stroke="#828282" stroke-width=".3" />
</g><g id="black-knight"><ns0:metadata>
  <rdf:RDF>
   <ns2:Work rdf:about="">
    <dc:format>image/svg+xml</dc:format>
    <dc:type rdf:resource="http://purl.org/dc/dcmitype/StillImage" />
    <dc:title />
   </ns2:Work>
  </rdf:RDF>
 </ns0:metadata>
 <ns0:defs>
  <ns0:linearGradient id="FFF">
   <ns0:stop stop-color="#666" offset="0" />
   <ns0:stop stop-color="#323232" offset="1" />
  </ns0:linearGradient>
  <ns0:linearGradient id="linearGradient5897" x1="1605.8" x2="1632.4" y1="1101.5" y2="1101.5" gradientUnits="userSpaceOnUse" ns4:href="#FFF" />
  <ns0:linearGradient id="linearGradient5867" x1="1617" x2="1632.3" y1="1101.5" y2="1101.5" gradientUnits="userSpaceOnUse" ns4:href="#linearGradient4140" />
  <ns0:linearGradient id="linearGradient4140">
   <ns0:stop offset="0" />
   <ns0:stop stop-opacity="0" offset="1" />
  </ns0:linearGradient>
  <ns0:linearGradient id="linearGradient5869" x1="1612.2" x2="1621.6" y1="1108.7" y2="1108.7" gradientUnits="userSpaceOnUse" ns4:href="#linearGradient4161" />
  <ns0:linearGradient id="linearGradient4161">
   <ns0:stop stop-color="#fff" offset="0" />
   <ns0:stop stop-color="#fff" stop-opacity="0" offset="1" />
  </ns0:linearGradient>
  <ns0:linearGradient id="linearGradient5871" x1="1606.9" x2="1619" y1="1095.6" y2="1095.6" gradientUnits="userSpaceOnUse" ns4:href="#linearGradient4161" />
  <ns0:linearGradient id="linearGradient5877" x1="1621.7" x2="1611.7" y1="1101.1" y2="1101.9" gradientUnits="userSpaceOnUse" ns4:href="#linearGradient4140" />
  <ns0:linearGradient id="linearGradient6280" x1="-20.75" x2="6.1016" y1="544.53" y2="544.53" gradientTransform="translate(2017.8 448.59)" gradientUnits="userSpaceOnUse" ns4:href="#FFF" />
  <ns0:linearGradient id="linearGradient6282" x1="1911.6" x2="1938.4" y1="940.86" y2="940.86" gradientTransform="translate(85.454 52.258)" gradientUnits="userSpaceOnUse" ns4:href="#FFF" />
  <ns0:linearGradient id="linearGradient6284" x1="7236" x2="7315.1" y1="3545.9" y2="3545.9" gradientTransform="matrix(.26458 0 0 .26458 85.454 52.258)" gradientUnits="userSpaceOnUse" ns4:href="#linearGradient4161" />
 </ns0:defs>
 <ns0:g transform="translate(-1596.6 -1076.2)">
  <ns0:path d="m1621.9 1089s-1.8958-2.2464-4.818-2.4819c-3e-4 -1e-4 0 0 0 0v6e-4c0 3e-4 0.1169 3.0441 0.1169 3.0441l-11.293 11.584c2.4462 4.5921 5.9158 3.8848 5.9158 3.8848 2.7286-2.3832 5.1239-1.973 8.4987-3.3845 1.7558 2.9383-11.52 8.8479-8.5691 14.758h20.599c-5.6642-8.1509 8.015-21.54-10.45-27.405z" fill="url(#linearGradient5897)" stroke="url(#linearGradient5897)" stroke-linejoin="round" stroke-width=".2" />
  <ns0:path d="m1617.1 1086.5c1.5885 1.1878 3.1116 2.4135 4.0634 3.9698 18.465 5.8646 1.1512 17.766 6.8153 25.917h4.3891c-5.6643-8.151 8.0147-21.541-10.45-27.405 0 0-1.896-2.2465-4.8182-2.482z" fill="url(#linearGradient5867)" opacity=".1" />
  <ns0:path d="m1621.3 1101.8c1.0409 3.5916-10.331 8.2497-8.9701 13.798 0-5.3518 11.25-9.953 8.9701-13.798z" fill="url(#linearGradient5869)" opacity=".5" />
  <ns0:path d="m1609.4 1103.8s-1.0546-0.1754-2.5213-2.5256l11.028-11.338-0.058-2.4949c0.2685 0.872 0.3677 1.7055 1.1513 2.6944l-11.459 11.082c0.3876 1.0157 1.2033 1.7455 1.8589 2.5821z" fill="url(#linearGradient5871)" opacity=".5" />
  <ns0:path d="m1611.8 1105c2.2453-2.1271 5.6592-2.2676 8.4987-3.3845 0.2521 0.1169-0.027 1.1827 0.075 1.0732 0.7939-0.8552 2.6937-2.5377 1.3726-5.7978-0.1843 5.6429-11.049 5.1937-9.9468 8.1091z" fill="url(#linearGradient5877)" opacity=".1" />
 </ns0:g>
 <ns0:g transform="translate(-1985.4 -950.6)">
  <ns0:path d="m2010.4 989.15s-8.5779 0.048-10.983 1.6192c-1.6227 1.0602-2.0055 2.0639-1.7847 4.7362h25.536c0.2207-2.6723-0.1622-3.6761-1.7849-4.7362-2.4047-1.5711-10.983-1.6192-10.983-1.6192z" clip-rule="evenodd" fill="url(#linearGradient6280)" fill-rule="evenodd" image-rendering="optimizeQuality" shape-rendering="geometricPrecision" stroke="url(#linearGradient6282)" stroke-linejoin="round" stroke-width=".2" />
  <ns0:path d="m2009 989.73c-3.2334 0.0337-5.7858 0.38114-7.7267 0.94774 6.1468-0.43777 12.256-0.49689 18.309 0-2.2181-0.64754-5.2353-1.0087-9.1545-0.94258-0.4899-8e-3 -0.9659-0.01-1.4278-5e-3z" fill="url(#linearGradient6284)" opacity=".5" />
 </ns0:g>
 <ns0:path d="m20.482 10.318v5.17e-4c0 3e-4 0.11679 3.0437 0.11679 3.0437l-11.293 11.584c2.4462 4.5921 5.9159 3.8845 5.9159 3.8845 2.7286-2.3832 5.1239-1.9728 8.4987-3.3843 1.7087 2.8594-10.816 8.5325-8.77 14.282-0.36556 0.13178-0.68396 0.27741-0.93328 0.44028-1.6227 1.0602-2.0057 2.0638-1.7849 4.7361h25.536c0.2207-2.6723-0.1622-3.676-1.7849-4.7361-0.11741-0.07671-0.25382-0.14846-0.39894-0.21808-5.2173-8.1724 7.9903-21.346-10.285-27.151v-5.17e-4s-1.8956-2.246-4.8178-2.4815z" fill="none" stroke="#828282" stroke-linejoin="round" stroke-width=".3" />
</g><g id="black-bishop"><ns0:metadata>
  <rdf:RDF>
   <ns2:Work rdf:about="">
    <dc:format>image/svg+xml</dc:format>
    <dc:type rdf:resource="http://purl.org/dc/dcmitype/StillImage" />
    <dc:title />
   </ns2:Work>
  </rdf:RDF>
 </ns0:metadata>
 <ns0:defs>
  <ns0:linearGradient id="FFF">
   <ns0:stop stop-color="#666" offset="0" />
   <ns0:stop stop-color="#323232" offset="1" />
  </ns0:linearGradient>
  <ns0:linearGradient id="linearGradient5901" x1="719.94" x2="742.36" y1="1208.7" y2="1208.7" gradientUnits="userSpaceOnUse" ns4:href="#FFF" />
  <ns0:linearGradient id="linearGradient5813" x1="854.8" x2="868.03" y1="1429.4" y2="1429.4" gradientTransform="translate(-831.6 -1404.8)" gradientUnits="userSpaceOnUse">
   <ns0:stop offset="0" />
   <ns0:stop stop-opacity="0" offset="1" />
  </ns0:linearGradient>
  <ns0:linearGradient id="linearGradient5815" x1="850.54" x2="857.14" y1="1434.1" y2="1434.1" gradientTransform="translate(-835.57 -1408.8)" gradientUnits="userSpaceOnUse" ns4:href="#linearGradient4161" />
  <ns0:linearGradient id="linearGradient4161">
   <ns0:stop stop-color="#fff" offset="0" />
   <ns0:stop stop-color="#fff" stop-opacity="0" offset="1" />
  </ns0:linearGradient>
  <ns0:linearGradient id="linearGradient5817" x1="858" x2="859.64" y1="1420.9" y2="1420.9" gradientTransform="translate(-835.57 -1408.8)" gradientUnits="userSpaceOnUse" ns4:href="#linearGradient4161" />
  <ns0:linearGradient id="linearGradient6226" x1="-20.75" x2="6.1016" y1="544.53" y2="544.53" gradientTransform="translate(32.324 -502.01)" gradientUnits="userSpaceOnUse" ns4:href="#FFF" />
  <ns0:linearGradient id="linearGradient6228" x1="1911.6" x2="1938.4" y1="940.86" y2="940.86" gradientTransform="translate(-1900 -898.34)" gradientUnits="userSpaceOnUse" ns4:href="#FFF" />
  <ns0:linearGradient id="linearGradient6230" x1="7236" x2="7315.1" y1="3545.9" y2="3545.9" gradientTransform="matrix(.26458 0 0 .26458 -1900 -898.34)" gradientUnits="userSpaceOnUse" ns4:href="#linearGradient4161" />
 </ns0:defs>
 <ns0:g transform="translate(-705.82 -1184.2)">
  <ns0:path d="m731.15 1193.6c-2.0344 0-3.6834 0.8388-3.6834 1.8738l1.4653 2.5292c-15.506 13.446-6.0254 25.896-6.0254 25.896h16.487s6.0761-7.9824 0.53846-18.067l-4.3262 6.4065c-0.24139 0.3574-0.73161 0.4563-1.0995 0.2218l-2.6215-1.6715c-0.36791-0.2345-0.46972-0.7108-0.22834-1.0683l5.4091-8.0101c-1.036-1.2212-2.2587-2.4601-3.6974-3.7076l1.4653-2.5292c5e-5 -1.035-1.6494-1.8735-3.6839-1.8738z" fill="url(#linearGradient5901)" stroke="url(#linearGradient5901)" stroke-width=".2" />
 </ns0:g>
 <ns0:path d="m25.323 9.4215c-0.7887 0-1.518 0.1274-2.1172 0.3421 2.4488 0.4546 4.3851 1.4115 4.3851 1.4115s-1.0831 1.6546-1.9115 2.7405l3.1362 3.4037c-3.5328 7.8641-3.1166 8.6465-3.1166 8.6465s2.24-3.5471 5.54-8.4337c-1.036-1.2212-2.2588-2.4603-3.6974-3.7077l1.465-2.5291c5e-5 -1.035-1.6491-1.8735-3.6835-1.8738zm8.7824 12.232-1.3494 1.997c2.4133 8.1829-3.4224 16.07-3.4224 16.07h4.2333s6.0762-7.9823 0.53848-18.066z" fill="url(#linearGradient5813)" opacity=".1" />
 <ns0:path d="m15.473 34.212c-0.21166-0.03-2.7726-9.2839 6.0947-17.84-2.2239 1.8085-7.4288 12.507-6.0947 17.84z" fill="url(#linearGradient5815)" opacity=".5" />
 <ns0:path d="m24.048 13.989-1.6123-2.8525s0.24805-0.4879 1.6371-0.8599c-8e-3 0.017-1.0666 0.9095-1.0666 0.9095z" fill="url(#linearGradient5817)" opacity=".5" />
 <ns0:path d="m25 38.545s-8.5779 0.048-10.983 1.6192c-1.6227 1.0602-2.0055 2.0639-1.7847 4.7362h25.536c0.2207-2.6723-0.1622-3.6761-1.7849-4.7362-2.4047-1.5711-10.983-1.6192-10.983-1.6192z" clip-rule="evenodd" fill="url(#linearGradient6226)" fill-rule="evenodd" image-rendering="optimizeQuality" shape-rendering="geometricPrecision" stroke="url(#linearGradient6228)" stroke-linejoin="round" stroke-width=".2" />
 <ns0:path d="m23.572 39.124c-3.2334 0.0337-5.7858 0.38114-7.7267 0.94774 6.1468-0.43777 12.256-0.49689 18.309 0-2.2181-0.64754-5.2353-1.0087-9.1545-0.94258-0.4899-8e-3 -0.9659-0.01-1.4278-5e-3z" fill="url(#linearGradient6230)" opacity=".5" />
 <ns0:path d="m25.33 9.3997c-2.0342 1.437e-4 -3.683 0.83888-3.683 1.8738l1.465 2.5296c-13.811 11.976-7.812 23.137-6.3329 25.439-1.1552 0.22616-2.155 0.52565-2.7616 0.92191-1.6227 1.0602-2.0057 2.0638-1.7849 4.7361h25.536c0.2207-2.6723-0.1622-3.676-1.7849-4.7361-0.50121-0.32746-1.2783-0.58629-2.1823-0.79478 1.0213-1.5404 5.2196-8.7985 0.31109-17.737l-4.3264 6.4063c-0.24139 0.3574-0.73178 0.45619-1.0997 0.22169l-2.6215-1.6712c-0.36791-0.2345-0.46927-0.71117-0.22789-1.0687l5.409-8.0098c-1.036-1.2212-2.2588-2.4603-3.6974-3.7078l1.465-2.529c5.1e-5 -1.0349-1.6487-1.8733-3.683-1.8738z" fill="none" stroke="#828282" stroke-width=".3" />
</g><g id="black-rook"><ns0:metadata>
  <rdf:RDF>
   <ns2:Work rdf:about="">
    <dc:format>image/svg+xml</dc:format>
    <dc:type rdf:resource="http://purl.org/dc/dcmitype/StillImage" />
    <dc:title />
   </ns2:Work>
  </rdf:RDF>
 </ns0:metadata>
 <ns0:defs>
  <ns0:linearGradient id="FFF">
   <ns0:stop stop-color="#666" offset="0" />
   <ns0:stop stop-color="#323232" offset="1" />
  </ns0:linearGradient>
  <ns0:linearGradient id="linearGradient5893" x1="2101.1" x2="2123.5" y1="964.98" y2="964.98" gradientTransform="translate(-2087.3 -939.26)" gradientUnits="userSpaceOnUse" ns4:href="#FFF" />
  <ns0:linearGradient id="linearGradient4132-92" x1="1407.1" x2="1429.6" y1="1310" y2="1310" gradientTransform="translate(-1393.4 -1284.3)" gradientUnits="userSpaceOnUse" ns4:href="#FFF" />
  <ns0:linearGradient id="linearGradient4146-67" x1="1412.3" x2="1429.5" y1="1309.8" y2="1309.8" gradientTransform="translate(-1393.4 -1284.3)" gradientUnits="userSpaceOnUse">
   <ns0:stop offset="0" />
   <ns0:stop stop-opacity="0" offset="1" />
  </ns0:linearGradient>
  <ns0:linearGradient id="linearGradient4181-6" x1="1408" x2="1409.1" y1="1300.4" y2="1300.4" gradientTransform="translate(-1393.4 -1284.3)" gradientUnits="userSpaceOnUse" ns4:href="#linearGradient4161" />
  <ns0:linearGradient id="linearGradient4161">
   <ns0:stop stop-color="#fff" offset="0" />
   <ns0:stop stop-color="#fff" stop-opacity="0" offset="1" />
  </ns0:linearGradient>
  <ns0:linearGradient id="linearGradient4179-4" x1="1416.3" x2="1417.3" y1="1298.4" y2="1298.4" gradientTransform="translate(-1393.4 -1284.3)" gradientUnits="userSpaceOnUse" ns4:href="#linearGradient4161" />
  <ns0:linearGradient id="linearGradient4177-9" x1="1426.1" x2="1426.8" y1="1297.9" y2="1297.9" gradientTransform="translate(-1393.4 -1284.3)" gradientUnits="userSpaceOnUse" ns4:href="#linearGradient4161" />
  <ns0:linearGradient id="linearGradient4175-73" x1="1411.1" x2="1413.7" y1="1312.6" y2="1312.6" gradientTransform="translate(-1393.4 -1284.3)" gradientUnits="userSpaceOnUse" ns4:href="#linearGradient4161" />
  <ns0:linearGradient id="linearGradient6334" x1="-20.75" x2="6.1016" y1="544.53" y2="544.53" gradientTransform="translate(32.324 -502.01)" gradientUnits="userSpaceOnUse" ns4:href="#FFF" />
  <ns0:linearGradient id="linearGradient6336" x1="1911.6" x2="1938.4" y1="940.86" y2="940.86" gradientTransform="translate(-1900 -898.34)" gradientUnits="userSpaceOnUse" ns4:href="#FFF" />
  <ns0:linearGradient id="linearGradient6338" x1="7236" x2="7315.1" y1="3545.9" y2="3545.9" gradientTransform="matrix(.26458 0 0 .26458 -1900 -898.34)" gradientUnits="userSpaceOnUse" ns4:href="#linearGradient4161" />
 </ns0:defs>
 <ns0:path d="m14.183 11.845c-1.825 10.607 4.7656 11.275 4.7656 11.275l-3.3734 16.477h18.849l-3.3734-16.477s6.5912-0.6674 4.7661-11.275h-3.8592v2.9724h-4.179v-2.9129h-5.5578v2.9129h-4.1796v-2.9724z" fill="url(#linearGradient5893)" stroke="url(#linearGradient4132-92)" stroke-width=".2" />
 <ns0:path d="m34.789 11.845c1.6882 11.06-5.0864 10.74-15.84 11.275l-0.09 0.4406c11.24-0.9881 9.4314 5.9153 11.392 15.591h4.2333l-3.4329-16.032s6.5912-0.6674 4.7661-11.275z" fill="url(#linearGradient4146-67)" opacity=".1" />
 <ns0:path d="m14.835 12.6s-0.6697 4.87 0.6697 7.0694c-1.0831-4.5361 0.2827-7.058 0.2827-7.058z" fill="url(#linearGradient4181-6)" opacity=".5" />
 <ns0:path d="m22.979 15.544v-2.8856l0.926 0.01z" fill="url(#linearGradient4179-4)" opacity=".5" />
 <ns0:path d="m32.726 14.635v-2.0379l0.6725 0.01z" fill="url(#linearGradient4177-9)" opacity=".5" />
 <ns0:path d="m19.603 23.886-1.8475 8.9101 2.6086-8.9335z" fill="url(#linearGradient4175-73)" opacity=".5" />
 <ns0:path d="m25 38.545s-8.5779 0.048-10.983 1.6192c-1.6227 1.0602-2.0055 2.0639-1.7847 4.7362h25.536c0.2207-2.6723-0.1622-3.6761-1.7849-4.7362-2.4047-1.5711-10.983-1.6192-10.983-1.6192z" clip-rule="evenodd" fill="url(#linearGradient6334)" fill-rule="evenodd" image-rendering="optimizeQuality" shape-rendering="geometricPrecision" stroke="url(#linearGradient6336)" stroke-linejoin="round" stroke-width=".2" />
 <ns0:path d="m23.572 39.124c-3.2334 0.0337-5.7858 0.38114-7.7266 0.94774 6.1468-0.43777 12.256-0.49689 18.309 0-2.2181-0.64754-5.2352-1.0087-9.1545-0.94258-0.4899-8e-3 -0.9658-0.01-1.4278-5e-3z" fill="url(#linearGradient6338)" opacity=".5" />
 <ns0:path d="m14.183 11.845c-1.825 10.607 4.7656 11.275 4.7656 11.275l-3.3574 16.4c-0.64261 0.17974-1.1882 0.39236-1.5741 0.6444-1.6227 1.0602-2.0057 2.0638-1.7849 4.7361h25.536c0.2207-2.6723-0.1622-3.676-1.7849-4.7361-0.38587-0.2521-0.93174-0.46464-1.5746-0.6444l-3.3579-16.4s6.5912-0.66716 4.7661-11.275h-3.8592v2.9724h-4.1791v-2.913h-5.5578v2.913h-4.1796v-2.9724z" fill="none" stroke="#828282" stroke-width=".3" />
</g><g id="black-queen"><ns0:metadata>
  <rdf:RDF>
   <ns2:Work rdf:about="">
    <dc:format>image/svg+xml</dc:format>
    <dc:type rdf:resource="http://purl.org/dc/dcmitype/StillImage" />
    <dc:title />
   </ns2:Work>
  </rdf:RDF>
 </ns0:metadata>
 <ns0:defs>
  <ns0:linearGradient id="FFF">
   <ns0:stop stop-color="#666" offset="0" />
   <ns0:stop stop-color="#323232" offset="1" />
  </ns0:linearGradient>
  <ns0:linearGradient id="linearGradient5907" x1="1003.1" x2="1041.1" y1="1382.5" y2="1382.5" gradientUnits="userSpaceOnUse" ns4:href="#FFF" />
  <ns0:linearGradient id="linearGradient5827" x1="823.03" x2="839.36" y1="1432.8" y2="1432.8" gradientUnits="userSpaceOnUse">
   <ns0:stop offset="0" />
   <ns0:stop stop-opacity="0" offset="1" />
  </ns0:linearGradient>
  <ns0:linearGradient id="linearGradient5829" x1="806.63" x2="808.42" y1="1428.2" y2="1428.2" gradientUnits="userSpaceOnUse" ns4:href="#linearGradient4161" />
  <ns0:linearGradient id="linearGradient4161">
   <ns0:stop stop-color="#fff" offset="0" />
   <ns0:stop stop-color="#fff" stop-opacity="0" offset="1" />
  </ns0:linearGradient>
  <ns0:linearGradient id="linearGradient5831" x1="815.89" x2="817.68" y1="1421.3" y2="1421.3" gradientUnits="userSpaceOnUse" ns4:href="#linearGradient4161" />
  <ns0:linearGradient id="linearGradient5833" x1="827.09" x2="829.7" y1="1420.7" y2="1420.7" gradientUnits="userSpaceOnUse" ns4:href="#linearGradient4161" />
  <ns0:linearGradient id="linearGradient5835" x1="836.33" x2="838.69" y1="1427.6" y2="1427.6" gradientUnits="userSpaceOnUse" ns4:href="#linearGradient4161" />
  <ns0:linearGradient id="linearGradient5837" x1="811.18" x2="818.59" y1="1440.1" y2="1440.1" gradientUnits="userSpaceOnUse" ns4:href="#linearGradient4161" />
  <ns0:linearGradient id="linearGradient3976-6-0" x1="-20.75" x2="6.1016" y1="544.53" y2="544.53" gradientTransform="translate(2017.8 448.59)" gradientUnits="userSpaceOnUse" ns4:href="#FFF" />
  <ns0:linearGradient id="linearGradient6026-9" x1="1911.6" x2="1938.4" y1="940.86" y2="940.86" gradientTransform="translate(85.454 52.258)" gradientUnits="userSpaceOnUse" ns4:href="#FFF" />
  <ns0:linearGradient id="linearGradient6034-5" x1="7236" x2="7315.1" y1="3545.9" y2="3545.9" gradientTransform="matrix(.26458 0 0 .26458 85.454 52.258)" gradientUnits="userSpaceOnUse" ns4:href="#linearGradient4161" />
 </ns0:defs>
 <ns0:g transform="translate(-1527 -1028.5)">
  <ns0:g transform="translate(727.26 -380.68)">
   <ns0:g transform="translate(4.2333 3.9687)">
    <ns0:g transform="translate(-201.59 46.812)" fill="#404040" stroke="#141414">
     <ns0:path d="m1016.5 1367.1c-2.2238 0-4.0261 1.753-4.0259 3.9146 0 1.775 1.2336 3.3262 2.9991 3.7795v8.6787l-4.9363-3.3544c0.4466-0.6453 0.6852-1.4052 0.6856-2.1828 0-2.162-1.8031-3.9149-4.0274-3.9148-2.2237 0-4.026 1.7532-4.0258 3.9148 0 2.1611 1.8027 3.9129 4.0258 3.9132 0.1978 0 0.3951-0.017 0.5907-0.045l6.4187 16.165h15.681l6.4172-16.165c0.1955 0.029 0.3929 0.044 0.5906 0.045 2.2232 0 4.0253-1.7521 4.0258-3.9132 0-2.1616-1.802-3.914-4.0258-3.9148-2.2244 0-4.0276 1.7528-4.0274 3.9148 0 0.7776 0.2391 1.5375 0.6856 2.1828l-4.9363 3.3544v-8.6787c1.7658-0.4533 2.9967-2.0045 2.9991-3.7795 0-2.1616-1.802-3.9142-4.0257-3.9146-2.2243 0-4.0276 1.7524-4.0273 3.9146 0 1.2775 0.6462 2.4737 1.7243 3.2041l-3.2406 7.9654-3.2425-7.9654c1.0783-0.7304 1.7219-1.9266 1.7245-3.2041 0-2.1622-1.803-3.915-4.0273-3.9146z" fill="url(#linearGradient5907)" stroke="url(#linearGradient5907)" stroke-linejoin="round" stroke-width=".2" />
    </ns0:g>
    <ns0:path d="m835.33 1420.8c-0.7779 0-1.5014 0.2178-2.1172 0.5891 6.4103 1.3409 3.3502 6.8195 0.33928 6.3258l-10.522 17.033h5.2917l6.4177-16.165c0.1955 0.029 0.39246 0.044 0.59015 0.045 2.2232 0 4.0256-1.7524 4.0261-3.9135 0-2.1615-1.8023-3.9136-4.0261-3.9144z" fill="url(#linearGradient5827)" opacity=".1" />
   </ns0:g>
   <ns0:path d="m807.18 1430.5s-1.8356-2.5962 1.2402-4.6136c-0.66254 1.4187-1.273 2.8107-1.2402 4.6136z" fill="url(#linearGradient5829)" opacity=".5" />
   <ns0:path d="m816.44 1423.6s-1.8356-2.5962 1.2402-4.6136c-0.82301 1.1663-1.5385 2.6631-1.2402 4.6136z" fill="url(#linearGradient5831)" opacity=".5" />
   <ns0:path d="m827.24 1422.7s-1.0496-3.0013 2.4628-4.0937c-1.5759 1.211-2.4975 2.3767-2.4628 4.0937z" fill="url(#linearGradient5833)" opacity=".5" />
   <ns0:path d="m836.44 1429.6c0.058 0.029-0.98681-2.6411 2.2456-3.8614-1.116 0.89-2.069 1.4843-2.2456 3.8614z" fill="url(#linearGradient5835)" opacity=".5" />
   <ns0:path d="m811.18 1432.3 6.2508 15.676h1.1576z" fill="url(#linearGradient5837)" opacity=".5" />
  </ns0:g>
 </ns0:g>
 <ns0:g transform="translate(-1985.4 -950.6)">
  <ns0:path d="m2010.4 989.15s-8.5779 0.048-10.983 1.6192c-1.6227 1.0602-2.0055 2.0639-1.7847 4.7362h25.536c0.2207-2.6723-0.1622-3.6761-1.7849-4.7362-2.4047-1.5711-10.983-1.6192-10.983-1.6192z" clip-rule="evenodd" fill="url(#linearGradient3976-6-0)" fill-rule="evenodd" image-rendering="optimizeQuality" shape-rendering="geometricPrecision" stroke="url(#linearGradient6026-9)" stroke-linejoin="round" stroke-width=".2" />
  <ns0:path d="m2009 989.73c-3.2334 0.0337-5.7858 0.38114-7.7267 0.94774 6.1468-0.43777 12.256-0.49689 18.309 0-2.2181-0.64754-5.2353-1.0087-9.1545-0.94258-0.4899-8e-3 -0.9659-0.01-1.4278-5e-3z" fill="url(#linearGradient6034-5)" opacity=".5" />
 </ns0:g>
 <ns0:path d="m19.403 8.7009c-2.2238 0-4.0258 1.7529-4.0256 3.9145 0 1.775 1.2333 3.3263 2.9988 3.7796v8.6785l-4.9361-3.3543c0.4466-0.6453 0.68535-1.4052 0.68575-2.1828 0-2.162-1.8034-3.9151-4.0277-3.915-2.2237 0-4.0258 1.7534-4.0256 3.915 0 2.1611 1.8025 3.9126 4.0256 3.9129 0.1978 0 0.39506-0.01696 0.59066-0.04496l6.2782 15.81c-1.233 0.23003-2.3115 0.53723-2.9502 0.95446-1.6227 1.0602-2.0057 2.0638-1.7849 4.7361h25.536c0.2207-2.6723-0.16221-3.676-1.7849-4.7361-0.65503-0.42796-1.7738-0.73976-3.0468-0.97152l6.2694-15.793c0.1955 0.029 0.39296 0.04396 0.59066 0.04496 2.2232 0 4.0251-1.7518 4.0256-3.9129 0-2.1616-1.8018-3.9142-4.0256-3.915-2.2244 0-4.0279 1.753-4.0277 3.915 0 0.7776 0.23925 1.5375 0.68575 2.1828l-4.9367 3.3543v-8.6785c1.7658-0.4533 2.9969-2.0046 2.9993-3.7796 0-2.1616-1.8019-3.9141-4.0256-3.9145-2.2243 0-4.0274 1.7523-4.0271 3.9145 0 1.2775 0.64583 2.4735 1.7239 3.2039l-3.2406 7.9654-3.2422-7.9654c1.0783-0.7304 1.7218-1.9264 1.7244-3.2039 0-2.1622-1.8028-3.9149-4.0271-3.9145z" fill="none" stroke="#828282" stroke-linejoin="round" stroke-width=".3" />
</g><g id="black-king"><ns0:metadata>
  <rdf:RDF>
   <ns2:Work rdf:about="">
    <dc:format>image/svg+xml</dc:format>
    <dc:type rdf:resource="http://purl.org/dc/dcmitype/StillImage" />
    <dc:title />
   </ns2:Work>
  </rdf:RDF>
 </ns0:metadata>
 <ns0:defs>
  <ns0:linearGradient id="FFF">
   <ns0:stop stop-color="#666" offset="0" />
   <ns0:stop stop-color="#323232" offset="1" />
  </ns0:linearGradient>
  <ns0:linearGradient id="linearGradient5909" x1="775.31" x2="794.19" y1="1466.4" y2="1466.4" gradientUnits="userSpaceOnUse" ns4:href="#FFF" />
  <ns0:linearGradient id="linearGradient5911" x1="770.2" x2="799.3" y1="1481.1" y2="1481.1" gradientUnits="userSpaceOnUse" ns4:href="#FFF" />
  <ns0:linearGradient id="linearGradient5851" x1="776.23" x2="778.02" y1="1465.4" y2="1465.4" gradientUnits="userSpaceOnUse" ns4:href="#linearGradient4161" />
  <ns0:linearGradient id="linearGradient4161">
   <ns0:stop stop-color="#fff" offset="0" />
   <ns0:stop stop-color="#fff" stop-opacity="0" offset="1" />
  </ns0:linearGradient>
  <ns0:linearGradient id="linearGradient5853" x1="771.12" x2="780.35" y1="1480.3" y2="1480.3" gradientUnits="userSpaceOnUse" ns4:href="#linearGradient4161" />
  <ns0:linearGradient id="linearGradient5855" x1="783.13" x2="784.49" y1="1460.9" y2="1460.9" gradientUnits="userSpaceOnUse" ns4:href="#linearGradient4161" />
  <ns0:linearGradient id="linearGradient5857" x1="784.72" x2="799.08" y1="1481.2" y2="1481.2" gradientUnits="userSpaceOnUse">
   <ns0:stop offset="0" />
   <ns0:stop stop-opacity="0" offset="1" />
  </ns0:linearGradient>
  <ns0:linearGradient id="linearGradient3976-6" x1="-20.75" x2="6.1016" y1="544.53" y2="544.53" gradientTransform="translate(32.296 -502.01)" gradientUnits="userSpaceOnUse" ns4:href="#FFF" />
  <ns0:linearGradient id="linearGradient6026" x1="1911.6" x2="1938.4" y1="940.86" y2="940.86" gradientTransform="translate(-1900 -898.34)" gradientUnits="userSpaceOnUse" ns4:href="#FFF" />
  <ns0:linearGradient id="linearGradient6034" x1="7236" x2="7315.1" y1="3545.9" y2="3545.9" gradientTransform="matrix(.26458 0 0 .26458 -1900 -898.34)" gradientUnits="userSpaceOnUse" ns4:href="#linearGradient4161" />
 </ns0:defs>
 <ns0:g transform="translate(-759.75 -1450.7)">
  <ns0:path d="m784.75 1457.7c-0.98972 0-2.3763 0.7433-2.3763 1.6668v3.8062h-5.13c-0.98972 0-1.7864 1.2939-1.7864 2.2175 0 0.9234 0.80318 2.3235 1.7864 2.2179h5.13l-1.0583 5.7672c-0.16669 0.9083 2.4449 1.6668 3.4346 1.6668 0.98973 0 3.6015-0.7579 3.4347-1.6668l-1.0583-5.7672h5.1306c0.98974 0 1.7864-1.2945 1.7864-2.2179s-0.80318-2.3228-1.7864-2.2175h-5.1306v-3.8062c0-0.9235-1.3866-1.6668-2.3763-1.6668z" fill="url(#linearGradient5909)" stroke="url(#linearGradient5909)" stroke-linecap="round" stroke-linejoin="round" stroke-width=".3" style="paint-order:normal" />
  <ns0:path d="m784.75 1470.3c-8.7725 0-16.117 2.8408-14.044 8.2765l4.8803 9.4687c1.2297 2.6758 2.5416 3.7114 5.6984 3.7114h3.4654v5e-4h3.4654c3.1568 0 4.4686-1.0361 5.6984-3.7119l4.8803-9.4687c2.073-5.4357-5.2716-8.2765-14.044-8.2765z" fill="url(#linearGradient5911)" stroke="url(#linearGradient5911)" stroke-linecap="round" stroke-linejoin="round" stroke-width=".3" style="paint-order:normal" />
  <ns0:path d="m777.05 1466.9c-0.11681-0.036-0.85532-0.6448-0.82267-1.443 0.0326-0.7982 0.49966-1.3344 0.98493-1.4864h0.80682c-1.4901 0.6056-1.8806 1.6712-0.96908 2.9294z" fill="url(#linearGradient5851)" opacity=".5" />
  <ns0:path d="m776.63 1489.2-5.25-11.076c-0.10183-0.2222-1.0605-2.4284 1.5317-4.4051 1.2805-0.9362 3.3499-1.7795 7.4431-2.4058-4.0652 0.9402-9.3108 3.4772-8.1479 6.7944s4.4232 11.093 4.4232 11.093z" fill="url(#linearGradient5853)" opacity=".5" />
  <ns0:path d="m783.13 1463.3v-3.9605s0.26458-0.6119 1.3643-0.8516c-1.2988 0.3131-1.3476 4.7396-1.3643 4.8121z" fill="url(#linearGradient5855)" opacity=".5" />
  <ns0:path d="m788.5 1470.5c11.556 3.3271 6.3241 8.0792 1.9161 17.672-1.2297 2.6758-2.5421 3.7114-5.6989 3.7114h3.1755c3.1568 0 4.4686-1.0356 5.6984-3.7114l5.1978-9.5437c1.0533-7.9822-9.1376-8.1848-10.289-8.1279z" fill="url(#linearGradient5857)" opacity=".1" style="paint-order:normal" />
 </ns0:g>
 <ns0:path d="m24.972 38.545s-8.5779 0.048-10.983 1.6192c-1.6227 1.0602-2.0055 2.0639-1.7847 4.7362h25.536c0.2207-2.6723-0.1622-3.6761-1.7849-4.7362-2.4047-1.5711-10.983-1.6192-10.983-1.6192z" clip-rule="evenodd" fill="url(#linearGradient3976-6)" fill-rule="evenodd" image-rendering="optimizeQuality" shape-rendering="geometricPrecision" stroke="url(#linearGradient6026)" stroke-linejoin="round" stroke-width=".2" />
 <ns0:path d="m23.544 39.124c-3.2334 0.0337-5.7858 0.38114-7.7267 0.94774 6.1468-0.43777 12.256-0.49689 18.309 0-2.2181-0.64754-5.2353-1.0087-9.1545-0.94258-0.4899-8e-3 -0.9659-0.01-1.4278-5e-3z" fill="url(#linearGradient6034)" opacity=".5" />
 <ns0:path d="m25 7.0004c-0.98972 0-2.3761 0.74306-2.3761 1.6666v3.806h-5.1304c-0.98972 0-1.7865 1.2944-1.7865 2.218 0 0.9234 0.80324 2.323 1.7865 2.2174h5.1304l-0.51418 2.8014c-7.4123 0.56396-12.994 3.3421-11.154 8.1669l4.8803 9.4687c0.34339 0.74721 0.69474 1.3625 1.0893 1.8671-1.2273 0.22977-2.3005 0.53619-2.9368 0.95188-1.6227 1.0602-2.0052 2.0638-1.7844 4.7361h25.536c0.2207-2.6723-0.1622-3.676-1.7849-4.7361-0.62794-0.41026-1.6805-0.71479-2.8877-0.94361 0.39728-0.50614 0.75074-1.124 1.0961-1.8753l4.8803-9.4687c1.84-4.8248-3.7412-7.603-11.153-8.1669l-0.51418-2.8014h5.1304c0.98974 0 1.7865-1.294 1.7865-2.2174s-0.80324-2.3233-1.7865-2.218h-5.1304v-3.806c0-0.9235-1.3869-1.6666-2.3766-1.6666z" fill="none" stroke="#828282" stroke-linecap="round" stroke-linejoin="round" stroke-width=".30004" style="paint-order:normal" />
</g><radialGradient id="check_gradient"><stop offset="0%" stop-color="#ff0000" stop-opacity="1.0" /><stop offset="50%" stop-color="#e70000" stop-opacity="1.0" /><stop offset="100%" stop-color="#9e0000" stop-opacity="0.0" /></radialGradient></defs><rect x="200" y="0" width="33" height="50" stroke="none" fill="#262421" /><rect x="233" y="0" width="33" height="50" stroke="none" fill="#bababa" /><rect x="266" y="0" width="33" height="50" stroke="none" fill="#bf811d" /><rect x="299" y="0" width="33" height="50" stroke="none" fill="#b72fc6" /><rect x="332" y="0" width="33" height="50" stroke="none" fill="#706f6e" /><rect x="0" y="0" width="50" height="400" stroke="none" fill="#f0d9b5" /><use xlink:href="#black-pawn" transform="translate(0, 50)" /><use xlink:href="#black-knight" transform="translate(0, 100)" /><use xlink:href="#black-bishop" transform="translate(0, 150)" /><use xlink:href="#black-rook" transform="translate(0, 200)" /><use xlink:href="#black-queen" transform="translate(0, 250)" /><use xlink:href="#black-king" transform="translate(0, 300)" /><rect x="0" y="350" width="50" height="50" fill="url(#check_gradient)" /><use xlink:href="#black-king" transform="translate(0, 350)" /><rect x="50" y="0" width="50" height="400" stroke="none" fill="#b58863" /><use xlink:href="#black-pawn" transform="translate(50, 50)" /><use xlink:href="#black-knight" transform="translate(50, 100)" /><use xlink:href="#black-bishop" transform="translate(50, 150)" /><use xlink:href="#black-rook" transform="translate(50, 200)" /><use xlink:href="#black-queen" transform="translate(50, 250)" /><use xlink:href="#black-king" transform="translate(50, 300)" /><rect x="50" y="350" width="50" height="50" fill="url(#check_gradient)" /><use xlink:href="#black-king" transform="translate(50, 350)" /><rect x="100" y="0" width="50" height="400" stroke="none" fill="#ced26b" /><use xlink:href="#black-pawn" transform="translate(100, 50)" /><use xlink:href="#black-knight" transform="translate(100, 100)" /><use xlink:href="#black-bishop" transform="translate(100, 150)" /><use xlink:href="#black-rook" transform="translate(100, 200)" /><use xlink:href="#black-queen" transform="translate(100, 250)" /><use xlink:href="#black-king" transform="translate(100, 300)" /><rect x="100" y="350" width="50" height="50" fill="url(#check_gradient)" /><use xlink:href="#black-king" transform="translate(100, 350)" /><rect x="150" y="0" width="50" height="400" stroke="none" fill="#aaa23b" /><use xlink:href="#black-pawn" transform="translate(150, 50)" /><use xlink:href="#black-knight" transform="translate(150, 100)" /><use xlink:href="#black-bishop" transform="translate(150, 150)" /><use xlink:href="#black-rook" transform="translate(150, 200)" /><use xlink:href="#black-queen" transform="translate(150, 250)" /><use xlink:href="#black-king" transform="translate(150, 300)" /><rect x="150" y="350" width="50" height="50" fill="url(#check_gradient)" /><use xlink:href="#black-king" transform="translate(150, 350)" /><rect x="200" y="50" width="50" height="350" stroke="none" fill="#f0d9b5" /><use xlink:href="#white-pawn" transform="translate(200, 50)" /><use xlink:href="#white-knight" transform="translate(200, 100)" /><use xlink:href="#white-bishop" transform="translate(200, 150)" /><use xlink:href="#white-rook" transform="translate(200, 200)" /><use xlink:href="#white-queen" transform="translate(200, 250)" /><use xlink:href="#white-king" transform="translate(200, 300)" /><rect x="200" y="350" width="50" height="50" fill="url(#check_gradient)" /><use xlink:href="#white-king" transform="translate(200, 350)" /><rect x="250" y="50" width="50" height="350" stroke="none" fill="#b58863" /><use xlink:href="#white-pawn" transform="translate(250, 50)" /><use xlink:href="#white-knight" transform="translate(250, 100)" /><use xlink:href="#white-bishop" transform="translate(250, 150)" /><use xlink:href="#white-rook" transform="translate(250, 200)" /><use xlink:href="#white-queen" transform="translate(250, 250)" /><use xlink:href="#white-king" transform="translate(250, 300)" /><rect x="250" y="350" width="50" height="50" fill="url(#check_gradient)" /><use xlink:href="#white-king" transform="translate(250, 350)" /><rect x="300" y="50" width="50" height="350" stroke="none" fill="#ced26b" /><use xlink:href="#white-pawn" transform="translate(300, 50)" /><use xlink:href="#white-knight" transform="translate(300, 100)" /><use xlink:href="#white-bishop" transform="translate(300, 150)" /><use xlink:href="#white-rook" transform="translate(300, 200)" /><use xlink:href="#white-queen" transform="translate(300, 250)" /><use xlink:href="#white-king" transform="translate(300, 300)" /><rect x="300" y="350" width="50" height="50" fill="url(#check_gradient)" /><use xlink:href="#white-king" transform="translate(300, 350)" /><rect x="350" y="50" width="50" height="350" stroke="none" fill="#aaa23b" /><use xlink:href="#white-pawn" transform="translate(350, 50)" /><use xlink:href="#white-knight" transform="translate(350, 100)" /><use xlink:href="#white-bishop" transform="translate(350, 150)" /><use xlink:href="#white-rook" transform="translate(350, 200)" /><use xlink:href="#white-queen" transform="translate(350, 250)" /><use xlink:href="#white-king" transform="translate(350, 300)" /><rect x="350" y="350" width="50" height="50" fill="url(#check_gradient)" /><use xlink:href="#white-king" transform="translate(350, 350)" /></svg>