<svg xmlns:ns0="http://www.w3.org/2000/svg" xmlns="http://www.w3.org/2000/svg" version="1.1" xmlns:xlink="http://www.w3.org/1999/xlink" viewBox="0 0 30480 30480"><defs><g id="white-pawn"><ns0:g fill="#fff"><ns0:path d="M953 3239h1907v204H953z" /><ns0:path d="M1099 3386h1621v153H1099z" /><ns0:path d="M950 3506h1907v204H950z" /></ns0:g><ns0:path d="M1099 3443h1621v63H1099z" fill="#d1d1d1" /><ns0:g fill="#fff"><ns0:path d="M1659 2059l296-4 1 1282-618-9z" /><ns0:path d="M2140 2059l-264-4v1282l617-9z" /><ns0:path d="M1355 1907h1115v158H1355z" /><ns0:ellipse cx="1890" cy="1549" rx="414" ry="433" /></ns0:g><ns0:g fill="#d1d1d1"><ns0:path d="M1980 1126s195 147 218 349c36 315-162 418-446 351-143-34-244-110-231-82 0 0 21 51 59 90 37 39 82 75 82 75h457s74-41 114-117c40-77 72-137 72-244s-41-199-68-237-56-71-105-114c-48-44-152-71-152-71z" /><ns0:path d="M2074 1907l69 158h326v-158zm-516 158h585l346 1242h-255l-168-1095z" /><ns0:path d="M2466 3239l70 471h321v-204h-137v-63h140v-204z" /></ns0:g></g><g id="white-knight"><ns0:g fill="#fff"><ns0:path d="M828 1378c-183 169-132 155-60 286s195 227 503 77 390-133 517-103 159 91 167 157-186 227-400 433c-214 205-402 243-373 671 30 428 19 525-42 592s1074 263 1221 196c147-68 543-55 465-460-78-406-208-900-10-1238s398-1042-527-1423-558 35-648 83c-90 47-121 57-175 83-98 47-463 485-639 647z" /><ns0:path d="M890 3239h2217v204H890z" /><ns0:path d="M1059 3386h1885v153H1059z" /><ns0:path d="M886 3506h2217v204H886z" /></ns0:g><ns0:g fill="#d1d1d1"><ns0:path d="M1615 1644s85-124 262-131c176-7 75-331 75-331s227 293 227 444-239 217-239 217-30-182-324-200zm1004-900s425 238 221 842-560 915-498 1226 9 364 31 391 93 27 195-4 84 44 93 89c9 44 72 421 72 421h369v-204h-159v-63h163v-204h-277s-95-448-116-728 58-454 170-653c111-200 231-777-265-1113z" /><ns0:path d="M1060 3443h1885v63H1060z" /></ns0:g></g><g id="white-bishop"><ns0:g fill="#fff"><ns0:path d="M1870 482s621 269 458 883-570 260-570 260l113-1142zM798 3238h2217v204H798z" /><ns0:path d="M967 3385h1885v153H967z" /><ns0:path d="M794 3505h2217v204H794zm786-1952h598l501 1704H1124z" /><ns0:path d="M1286 1511h1200v152H1286z" /><ns0:path d="M1885 483s-623 269-459 883 572 260 572 260L1885 484z" /><ns0:ellipse cx="1880" cy="448" rx="174" ry="143" /></ns0:g><ns0:g fill="#d1d1d1"><ns0:path d="M1970 325s38 51 38 113c0 61-14 118-14 118s162-115-24-231zM967 3442h1885v63H967zM1994 556s221 144 300 333 66 259 50 397-68 224-68 224h209v152h-321l-17-152s-2-42-12-77c-10-36 93-85 104-240 10-155 1-253-53-368-53-116-194-269-194-269z" /><ns0:path d="M1541 1663h669l465 1575h341v204h-164v63h160v204h-481v-267l-84-204-312-1429z" /></ns0:g></g><g id="white-rook"><ns0:g fill="#fff"><ns0:path d="M1259 1694l1283 4 209 1590-1688-23z" /><ns0:path d="M1002 1747h1802l217-1151-524 31v282h-307V636h-549v273h-320l-3-272-521-41zM793 3235h2217v204H793z" /><ns0:path d="M962 3382h1885v153H962z" /><ns0:path d="M789 3502h2217v204H789z" /></ns0:g><ns0:g fill="#d1d1d1"><ns0:path d="M2852 606s-146 919-168 986-94 155-94 155h213l217-1151-169 10zM1386 1747h1162l195 1488h266v204l-161-3v63l157 3v204h-316s-24-171-67-269c-42-99-90-78-139-445-49-368-153-1020-153-1020l-945-223z" /><ns0:path d="M964 3436h1885v63H964z" /></ns0:g></g><g id="white-queen"><ns0:g fill="#fff"><ns0:path d="M1445 1626l892 4 419 1658-1688-24z" /><ns0:path d="M798 3235h2217v204H798z" /><ns0:path d="M967 3382h1885v153H967z" /><ns0:path d="M794 3501h2217v204H794z" /></ns0:g><ns0:path d="M1401 1745h965l383 1489h266v204h-161v60l157 3v204h-316s-26-149-71-267c-45-117-85-80-135-448-49-368-253-1117-253-1117l-836-129z" fill="#d1d1d1" /><ns0:path d="M970 3436h1884v63H970z" fill="#d1d1d1" /><ns0:g fill="#fff"><ns0:path d="M1088 1526h1638v220H1088z" /><ns0:path d="M1352 1563L949 798l497 260-40-684 478 557 32 632z" /><ns0:path d="M2416 1563l403-764-498 259 40-683-478 556-18 632z" /><ns0:circle cx="949" cy="798" r="100" /><ns0:circle cx="1406" cy="374" r="100" /><ns0:circle cx="2361" cy="375" r="100" /></ns0:g><ns0:g fill="#d1d1d1"><ns0:circle cx="2819" cy="799" r="100" /><ns0:path d="M2421 295l-97 173-240 1058h351l337-639-42-42-409 213 43-584s182-32 57-180zm-161 1231v219h466v-219z" /></ns0:g></g><g id="white-king"><ns0:path d="M1342 1632l1098 9 316 1653-1688-24z" fill="#fefefe" /><ns0:g fill="#fff"><ns0:path d="M798 3241h2217v204H798z" /><ns0:path d="M967 3387h1885v153H967z" /><ns0:path d="M794 3507h2217v204H794z" /></ns0:g><ns0:path d="M1401 1751h1061l288 1489h266v204l-161-3v63l157 3v204h-316s-26-149-71-267c-45-117-85-80-135-448-49-368-150-1101-150-1101l-939-145z" fill="#d1d1d1" /><ns0:path d="M970 3442h1884v63H970z" fill="#d1d1d1" /><ns0:g fill="#fff"><ns0:path d="M1088 1531h1638v220H1088z" /><ns0:path d="M1278 1611s-241-328-199-572c50-285 382-408 875-435 148-8 98 1007 98 1007z" /><ns0:path d="M2515 1611s241-328 199-572c-50-285-382-408-875-435-148-8-98 1007-98 1007z" /><ns0:path d="M1560 655s253-63 226-169 114-19 114-19l10 146-350 43z" /><ns0:path d="M2172 647s-154-75-159-161-114-19-114-19l-10 147 282 34z" /><ns0:ellipse cx="1755" cy="279" rx="91" ry="89" /><ns0:ellipse cx="1784" cy="417" rx="64" ry="62" /><ns0:ellipse cx="2039" cy="279" rx="91" ry="89" /><ns0:ellipse cx="2010" cy="417" rx="64" ry="62" /><ns0:ellipse cx="1900" cy="200" rx="97" ry="101" /><ns0:path d="M1836 526l-81-247 145-79 139 79-75 251z" /></ns0:g><ns0:path d="M2014 486s-49 94 18 144c66 50 231 81 319 139 89 58 240 120 241 284 2 164-33 236-139 351-107 116-175 126-175 126h288s87-152 110-226 52-167 36-267-90-225-206-280c-116-56-86-51-170-75-83-24-94-26-103-28s-95-27-95-27-45-25-70-51-55-91-55-91zm264 1045l34 220h414v-220z" fill="#d1d1d1" /></g><g id="black-pawn"><ns0:g fill="#383838"><ns0:path d="M953 3239h1907v204H953z" /><ns0:path d="M1099 3386h1621v153H1099z" /><ns0:path d="M950 3506h1907v204H950z" /></ns0:g><ns0:path d="M1099 3443h1621v63H1099z" fill="#111" /><ns0:g fill="#383838"><ns0:path d="M1659 2059l296-4 1 1282-618-9z" /><ns0:path d="M2140 2059l-264-4v1282l617-9z" /><ns0:path d="M1355 1907h1115v158H1355z" /><ns0:ellipse cx="1890" cy="1549" rx="414" ry="433" /></ns0:g><ns0:g fill="#111"><ns0:path d="M1980 1126s195 147 218 349c36 315-162 418-446 351-143-34-244-110-231-82 0 0 21 51 59 90 37 39 82 75 82 75h457s74-41 114-117c40-77 72-137 72-244s-41-199-68-237-56-71-105-114c-48-44-152-71-152-71z" /><ns0:path d="M2074 1907l69 158h326v-158zm-516 158h585l346 1242h-255l-168-1095z" /><ns0:path d="M2466 3239l70 471h321v-204h-137v-63h140v-204z" /></ns0:g></g><g id="black-knight"><ns0:g fill="#383838"><ns0:path d="M829 1378c-165 151-145 140-72 271 72 131 241 188 400 142 158-46 506-183 633-154 127 30 159 91 167 157s-186 227-400 433c-214 205-402 243-373 671 30 428 19 525-42 592s1074 263 1221 196c147-68 543-55 465-460-78-406-208-900-10-1238s398-1042-527-1423-558 35-648 83c-90 47-121 57-175 83-98 47-462 486-639 647z" /><ns0:path d="M890 3239h2217v204H890z" /><ns0:path d="M1059 3386h1885v153H1059z" /><ns0:path d="M886 3506h2217v204H886z" /></ns0:g><ns0:g fill="#111"><ns0:path d="M1615 1644s85-124 262-131c176-7 75-331 75-331s227 293 227 444-239 217-239 217-30-182-324-200zm1004-900s425 238 221 842-560 915-498 1226 9 364 31 391 93 27 195-4 84 44 93 89c9 44 72 421 72 421h369v-204h-159v-63h163v-204h-277s-95-448-116-728 58-454 170-653c111-200 231-777-265-1113z" /><ns0:path d="M1060 3443h1885v63H1060z" /></ns0:g></g><g id="black-bishop"><ns0:path d="M1870 482s621 269 458 883-570 260-570 260l113-1142zM798 3238h2217v204H798z" fill="#383838" /><ns0:path d="M967 3385h1885v153H967z" fill="#2e2e2e" /><ns0:g fill="#383838"><ns0:path d="M794 3505h2217v204H794zm786-1952h598l501 1704H1124z" /><ns0:path d="M1286 1511h1200v152H1286z" /><ns0:path d="M1885 483s-623 269-459 883 572 260 572 260L1885 484z" /><ns0:ellipse cx="1880" cy="448" rx="174" ry="143" /></ns0:g><ns0:g fill="#111"><ns0:path d="M1965 323s43 54 43 115-14 118-14 118 153-118-29-233zM967 3442h1885v63H967zM1994 556s221 144 300 333 66 259 50 397-68 224-68 224h209v152h-321l-17-152s-2-42-12-77c-10-36 93-85 104-240 10-155 1-253-53-368-53-116-194-269-194-269z" /><ns0:path d="M1541 1663h669l465 1575h341v204h-164v63h160v204h-481v-267l-84-204-312-1429z" /></ns0:g></g><g id="black-rook"><ns0:g fill="#383838"><ns0:path d="M1259 1694l1283 4 209 1590-1688-22z" /><ns0:path d="M1002 1747h1802l217-1151-524 31v282h-307V636h-549v273h-320l-3-272-521-41zM793 3235h2217v204H793z" /><ns0:path d="M962 3382h1885v153H962z" /><ns0:path d="M789 3502h2217v204H789z" /></ns0:g><ns0:g fill="#111"><ns0:path d="M2852 606s-146 919-168 986-94 155-94 155h213l217-1151-169 10zM1386 1747h1162l195 1488h266v204l-161-3v63l157 3v204h-316s-24-171-67-269c-42-99-90-78-139-445-49-368-153-1020-153-1020l-945-223z" /><ns0:path d="M964 3436h1885v63H964z" /></ns0:g></g><g id="black-queen"><ns0:g fill="#383838"><ns0:path d="M1445 1626l892 4 419 1658-1688-24z" /><ns0:path d="M798 3235h2217v204H798z" /><ns0:path d="M967 3382h1885v153H967z" /><ns0:path d="M794 3501h2217v204H794z" /></ns0:g><ns0:path d="M1401 1745h965l383 1489h266v204h-161v60l157 3v204h-316s-26-149-71-267c-45-117-85-80-135-448-49-368-253-1117-253-1117l-836-129z" fill="#111" /><ns0:path d="M970 3436h1884v63H970z" fill="#111" /><ns0:g fill="#383838"><ns0:path d="M1088 1526h1638v220H1088z" /><ns0:path d="M1352 1563L949 798l497 260-40-684 478 557 32 632z" /><ns0:path d="M2416 1563l403-765-498 260 40-683-478 556-18 632z" /><ns0:circle cx="949" cy="798" r="100" /><ns0:circle cx="1406" cy="374" r="100" /><ns0:circle cx="2361" cy="375" r="100" /></ns0:g><ns0:g fill="#111"><ns0:circle cx="2819" cy="798" r="100" /><ns0:path d="M2421 295l-97 173-240 1058h351l337-639-42-42-409 213 40-584s173-34 60-180zm-161 1231v219h466v-219z" /></ns0:g></g><g id="black-king"><ns0:g fill="#383838"><ns0:path d="M1342 1632l1098 9 316 1653-1688-24z" /><ns0:path d="M798 3241h2217v204H798z" /><ns0:path d="M967 3388h1885v153H967z" /><ns0:path d="M794 3507h2217v204H794z" /></ns0:g><ns0:path d="M1401 1751h1061l288 1489h266v204l-161-3v63l157 3v204h-316s-26-149-71-267c-45-117-85-80-135-448-49-368-150-1101-150-1101l-939-145z" fill="#111" /><ns0:path d="M970 3442h1884v63H970z" fill="#111" /><ns0:g fill="#383838"><ns0:path d="M1088 1531h1638v220H1088z" /><ns0:path d="M1278 1611s-241-328-199-572c50-285 382-408 875-435 148-8 98 1007 98 1007z" /><ns0:path d="M2515 1611s241-328 199-572c-50-285-382-408-875-435-148-8-98 1007-98 1007z" /><ns0:path d="M1560 655s253-63 226-169 114-19 114-19l10 146-350 43z" /><ns0:path d="M2172 647s-154-75-158-161c-5-86-114-19-114-19l-10 147 282 34z" /><ns0:ellipse cx="1755" cy="279" rx="91" ry="89" /><ns0:ellipse cx="1784" cy="417" rx="64" ry="62" /><ns0:ellipse cx="2039" cy="279" rx="91" ry="89" /><ns0:ellipse cx="2010" cy="417" rx="64" ry="62" /><ns0:ellipse cx="1900" cy="200" rx="97" ry="101" /><ns0:path d="M1836 526l-81-247 145-79 139 79-75 251z" /></ns0:g><ns0:path d="M2014 486s-49 94 18 144c66 50 231 81 319 139 89 58 240 120 241 284 2 164-33 236-139 351-107 116-175 126-175 126h288s87-152 110-226 52-167 36-267-90-225-206-280c-116-56-86-51-170-75-83-24-94-26-103-28s-95-27-95-27-45-25-70-51-55-91-55-91zm264 1045l34 220h414v-220z" fill="#111" /></g><radialGradient id="check_gradient"><stop offset="0%" stop-color="#ff0000" stop-opacity="1.0" /><stop offset="50%" stop-color="#e70000" stop-opacity="1.0" /><stop offset="100%" stop-color="#9e0000" stop-opacity="0.0" /></radialGradient></defs><rect x="15240" y="0" width="2540" height="3810" stroke="none" fill="#262421" /><rect x="17780" y="0" width="2540" height="3810" stroke="none" fill="#bababa" /><rect x="20320" y="0" width="2540" height="3810" stroke="none" fill="#bf811d" /><rect x="22860" y="0" width="2540" height="3810" stroke="none" fill="#b72fc6" /><rect x="25400" y="0" width="2540" height="3810" stroke="none" fill="#706f6e" /><rect x="0" y="0" width="3810" height="30480" stroke="none" fill="#f0d9b5" /><use xlink:href="#black-pawn" transform="translate(0, 3810)" /><use xlink:href="#black-knight" transform="translate(0, 7620)" /><use xlink:href="#black-bishop" transform="translate(0, 11430)" /><use xlink:href="#black-rook" transform="translate(0, 15240)" /><use xlink:href="#black-queen" transform="translate(0, 19050)" /><use xlink:href="#black-king" transform="translate(0, 22860)" /><rect x="0" y="26670" width="3810" height="3810" fill="url(#check_gradient)" /><use xlink:href="#black-king" transform="translate(0, 26670)" /><rect x="3810" y="0" width="3810" height="30480" stroke="none" fill="#b58863" /><use xlink:href="#black-pawn" transform="translate(3810, 3810)" /><use xlink:href="#black-knight" transform="translate(3810, 7620)" /><use xlink:href="#black-bishop" transform="translate(3810, 11430)" /><use xlink:href="#black-rook" transform="translate(3810, 15240)" /><use xlink:href="#black-queen" transform="translate(3810, 19050)" /><use xlink:href="#black-king" transform="translate(3810, 22860)" /><rect x="3810" y="26670" width="3810" height="3810" fill="url(#check_gradient)" /><use xlink:href="#black-king" transform="translate(3810, 26670)" /><rect x="7620" y="0" width="3810" height="30480" stroke="none" fill="#ced26b" /><use xlink:href="#black-pawn" transform="translate(7620, 3810)" /><use xlink:href="#black-knight" transform="translate(7620, 7620)" /><use xlink:href="#black-bishop" transform="translate(7620, 11430)" /><use xlink:href="#black-rook" transform="translate(7620, 15240)" /><use xlink:href="#black-queen" transform="translate(7620, 19050)" /><use xlink:href="#black-king" transform="translate(7620, 22860)" /><rect x="7620" y="26670" width="3810" height="3810" fill="url(#check_gradient)" /><use xlink:href="#black-king" transform="translate(7620, 26670)" /><rect x="11430" y="0" width="3810" height="30480" stroke="none" fill="#aaa23b" /><use xlink:href="#black-pawn" transform="translate(11430, 3810)" /><use xlink:href="#black-knight" transform="translate(11430, 7620)" /><use xlink:href="#black-bishop" transform="translate(11430, 11430)" /><use xlink:href="#black-rook" transform="translate(11430, 15240)" /><use xlink:href="#black-queen" transform="translate(11430, 19050)" /><use xlink:href="#black-king" transform="translate(11430, 22860)" /><rect x="11430" y="26670" width="3810" height="3810" fill="url(#check_gradient)" /><use xlink:href="#black-king" transform="translate(11430, 26670)" /><rect x="15240" y="3810" width="3810" height="26670" stroke="none" fill="#f0d9b5" /><use xlink:href="#white-pawn" transform="translate(15240, 3810)" /><use xlink:href="#white-knight" transform="translate(15240, 7620)" /><use xlink:href="#white-bishop" transform="translate(15240, 11430)" /><use xlink:href="#white-rook" transform="translate(15240, 15240)" /><use xlink:href="#white-queen" transform="translate(15240, 19050)" /><use xlink:href="#white-king" transform="translate(15240, 22860)" /><rect x="15240" y="26670" width="3810" height="3810" fill="url(#check_gradient)" /><use xlink:href="#white-king" transform="translate(15240, 26670)" /><rect x="19050" y="3810" width="3810" height="26670" stroke="none" fill="#b58863" /><use xlink:href="#white-pawn" transform="translate(19050, 3810)" /><use xlink:href="#white-knight" transform="translate(19050, 7620)" /><use xlink:href="#white-bishop" transform="translate(19050, 11430)" /><use xlink:href="#white-rook" transform="translate(19050, 15240)" /><use xlink:href="#white-queen" transform="translate(19050, 19050)" /><use xlink:href="#white-king" transform="translate(19050, 22860)" /><rect x="19050" y="26670" width="3810" height="3810" fill="url(#check_gradient)" /><use xlink:href="#white-king" transform="translate(19050, 26670)" /><rect x="22860" y="3810" width="3810" height="26670" stroke="none" fill="#ced26b" /><use xlink:href="#white-pawn" transform="translate(22860, 3810)" /><use xlink:href="#white-knight" transform="translate(22860, 7620)" /><use xlink:href="#white-bishop" transform="translate(22860, 11430)" /><use xlink:href="#white-rook" transform="translate(22860, 15240)" /><use xlink:href="#white-queen" transform="translate(22860, 19050)" /><use xlink:href="#white-king" transform="translate(22860, 22860)" /><rect x="22860" y="26670" width="3810" height="3810" fill="url(#check_gradient)" /><use xlink:href="#white-king" transform="translate(22860, 26670)" /><rect x="26670" y="3810" width="3810" height="26670" stroke="none" fill="#aaa23b" /><use xlink:href="#white-pawn" transform="translate(26670, 3810)" /><use xlink:href="#white-knight" transform="translate(26670, 7620)" /><use xlink:href="#white-bishop" transform="translate(26670, 11430)" /><use xlink:href="#white-rook" transform="translate(26670, 15240)" /><use xlink:href="#white-queen" transform="translate(26670, 19050)" /><use xlink:href="#white-king" transform="translate(26670, 22860)" /><rect x="26670" y="26670" width="3810" height="3810" fill="url(#check_gradient)" /><use xlink:href="#white-king" transform="translate(26670, 26670)" /></svg>