<svg xmlns:ns0="http://www.w3.org/2000/svg" xmlns="http://www.w3.org/2000/svg" version="1.1" xmlns:xlink="http://www.w3.org/1999/xlink" viewBox="0 0 1600 1600"><defs><g id="white-pawn"><ns0:filter id="a" height="150%" width="150%"><ns0:feGaussianBlur in="SourceAlpha" result="blur" stdDeviation="3" /><ns0:feColorMatrix in="blur" result="blurAlpha" values="2 0 0 0 0 0 2 0 0 0 0 0 2 0 0 0 0 0 0.5 0" /><ns0:feOffset dx="4.5" dy="4.5" in="blurAlpha" result="offsetBlur" /><ns0:feBlend in="SourceGraphic" in2="offsetBlur" /></ns0:filter><ns0:path d="M40 40v120h120V40zm40 40h40v40H80z" fill="#fff" filter="url(#a)" stroke="#000" stroke-linejoin="bevel" stroke-width="6" transform="matrix(.9 0 0 .9 11.8 11.8)" /></g><g id="white-knight"><ns0:filter id="a" height="150%" width="150%"><ns0:feGaussianBlur in="SourceAlpha" result="blur" stdDeviation="3" /><ns0:feColorMatrix in="blur" result="blurAlpha" values="2 0 0 0 0 0 2 0 0 0 0 0 2 0 0 0 0 0 0.5 0" /><ns0:feOffset dx="4.5" dy="4.5" in="blurAlpha" result="offsetBlur" /><ns0:feBlend in="SourceGraphic" in2="offsetBlur" /></ns0:filter><ns0:path d="M35.5 122.839V79.565l112.67-46.508 15.262 36.973-75.515 31.172 75.515 31.171-15.262 36.974z" fill="#fff" fill-rule="evenodd" stroke="#000" stroke-width="6" stroke-linejoin="bevel" filter="url(#a)" /></g><g id="white-bishop"><ns0:filter id="a" height="150%" width="150%"><ns0:feGaussianBlur in="SourceAlpha" result="blur" stdDeviation="3" /><ns0:feColorMatrix in="blur" result="blurAlpha" values="2 0 0 0 0 0 2 0 0 0 0 0 2 0 0 0 0 0 0.5 0" /><ns0:feOffset dx="4.5" dy="4.5" in="blurAlpha" result="offsetBlur" /><ns0:feBlend in="SourceGraphic" in2="offsetBlur" /></ns0:filter><ns0:path d="M68.787 40.503L100 71.716l31.213-31.213 35.356-7.072-7.072 35.356L128.284 100l31.213 31.213 7.072 35.356-35.356-7.072L100 128.284l-31.213 31.213-35.356 7.072 7.072-35.356L71.716 100 40.503 68.787 33.43 33.43z" fill="#fff" fill-rule="evenodd" stroke="#000" stroke-width="6" stroke-linejoin="bevel" filter="url(#a)" /></g><g id="white-rook"><ns0:filter id="a" height="150%" width="150%"><ns0:feGaussianBlur in="SourceAlpha" result="blur" stdDeviation="3" /><ns0:feColorMatrix in="blur" result="blurAlpha" values="2 0 0 0 0 0 2 0 0 0 0 0 2 0 0 0 0 0 0.5 0" /><ns0:feOffset dx="4.5" dy="4.5" in="blurAlpha" result="offsetBlur" /><ns0:feBlend in="SourceGraphic" in2="offsetBlur" /></ns0:filter><ns0:path d="M75 15h50v60h60v50h-60v60H75v-60H15V75h60z" fill="#fff" fill-rule="evenodd" stroke="#000" stroke-width="6" stroke-linejoin="bevel" filter="url(#a)" /></g><g id="white-queen"><ns0:filter id="a" height="150%" width="150%"><ns0:feGaussianBlur in="SourceAlpha" result="blur" stdDeviation="3" /><ns0:feColorMatrix in="blur" result="blurAlpha" values="2 0 0 0 0 0 2 0 0 0 0 0 2 0 0 0 0 0 0.5 0" /><ns0:feOffset dx="4.5" dy="4.5" in="blurAlpha" result="offsetBlur" /><ns0:feBlend in="SourceGraphic" in2="offsetBlur" /></ns0:filter><ns0:path d="M80 20v31.715L57.574 29.289 29.29 57.574 51.715 80H20v40h31.715l-22.426 22.426 28.285 28.285L80 148.285V180h40v-31.715l22.426 22.426 28.285-28.285L148.285 120H180V80h-31.715l22.426-22.426-28.285-28.285L120 51.715V20zm20 58.033A21.966 21.966 0 0 1 121.967 100 21.966 21.966 0 0 1 100 121.967 21.966 21.966 0 0 1 78.033 100 21.966 21.966 0 0 1 100 78.033z" fill="#fff" fill-rule="evenodd" stroke="#000" stroke-width="6" stroke-linejoin="bevel" filter="url(#a)" /></g><g id="white-king"><ns0:filter id="a" height="150%" width="150%"><ns0:feGaussianBlur in="SourceAlpha" result="blur" stdDeviation="3" /><ns0:feColorMatrix in="blur" result="blurAlpha" values="2 0 0 0 0 0 2 0 0 0 0 0 2 0 0 0 0 0 0.5 0" /><ns0:feOffset dx="4.5" dy="4.5" in="blurAlpha" result="offsetBlur" /><ns0:feBlend in="SourceGraphic" in2="offsetBlur" /></ns0:filter><ns0:path d="M68.787 24.645L24.645 68.787v62.426l44.142 44.142h62.426l44.142-44.142V68.787l-44.142-44.142zM88 67.857h24V88h20.143v24H112v20.143H88V112H67.857V88H88z" fill="#fff" fill-rule="evenodd" stroke="#000" stroke-width="6" stroke-linejoin="round" filter="url(#a)" /></g><g id="black-pawn"><ns0:filter id="a" height="150%" width="150%"><ns0:feGaussianBlur in="SourceAlpha" result="blur" stdDeviation="3" /><ns0:feColorMatrix in="blur" result="blurAlpha" values="2 0 0 0 0 0 2 0 0 0 0 0 2 0 0 0 0 0 0.5 0" /><ns0:feOffset dx="4.5" dy="4.5" in="blurAlpha" result="offsetBlur" /><ns0:feBlend in="SourceGraphic" in2="offsetBlur" /></ns0:filter><ns0:path d="M40 40v120h120V40zm40 40h40v40H80z" fill="#333" filter="url(#a)" stroke="#000" stroke-linejoin="bevel" stroke-width="6" transform="matrix(.9 0 0 .9 11.8 11.8)" /></g><g id="black-knight"><ns0:filter id="a" height="150%" width="150%"><ns0:feGaussianBlur in="SourceAlpha" result="blur" stdDeviation="3" /><ns0:feColorMatrix in="blur" result="blurAlpha" values="2 0 0 0 0 0 2 0 0 0 0 0 2 0 0 0 0 0 0.5 0" /><ns0:feOffset dx="4.5" dy="4.5" in="blurAlpha" result="offsetBlur" /><ns0:feBlend in="SourceGraphic" in2="offsetBlur" /></ns0:filter><ns0:path d="M35.5 122.839V79.565l112.67-46.508 15.262 36.973-75.515 31.172 75.515 31.171-15.262 36.974z" fill="#333" fill-rule="evenodd" stroke="#000" stroke-width="6" stroke-linejoin="bevel" filter="url(#a)" /></g><g id="black-bishop"><ns0:filter id="a" height="150%" width="150%"><ns0:feGaussianBlur in="SourceAlpha" result="blur" stdDeviation="3" /><ns0:feColorMatrix in="blur" result="blurAlpha" values="2 0 0 0 0 0 2 0 0 0 0 0 2 0 0 0 0 0 0.5 0" /><ns0:feOffset dx="4.5" dy="4.5" in="blurAlpha" result="offsetBlur" /><ns0:feBlend in="SourceGraphic" in2="offsetBlur" /></ns0:filter><ns0:path d="M68.787 40.503L100 71.716l31.213-31.213 35.356-7.072-7.072 35.356L128.284 100l31.213 31.213 7.072 35.356-35.356-7.072L100 128.284l-31.213 31.213-35.356 7.072 7.072-35.356L71.716 100 40.503 68.787 33.43 33.43z" fill="#333" fill-rule="evenodd" stroke="#000" stroke-width="6" stroke-linejoin="bevel" filter="url(#a)" /></g><g id="black-rook"><ns0:filter id="a" height="150%" width="150%"><ns0:feGaussianBlur in="SourceAlpha" result="blur" stdDeviation="3" /><ns0:feColorMatrix in="blur" result="blurAlpha" values="2 0 0 0 0 0 2 0 0 0 0 0 2 0 0 0 0 0 0.5 0" /><ns0:feOffset dx="4.5" dy="4.5" in="blurAlpha" result="offsetBlur" /><ns0:feBlend in="SourceGraphic" in2="offsetBlur" /></ns0:filter><ns0:path d="M75 15h50v60h60v50h-60v60H75v-60H15V75h60z" fill="#333" fill-rule="evenodd" stroke="#000" stroke-width="6" stroke-linejoin="bevel" filter="url(#a)" /></g><g id="black-queen"><ns0:filter id="a" height="150%" width="150%"><ns0:feGaussianBlur in="SourceAlpha" result="blur" stdDeviation="3" /><ns0:feColorMatrix in="blur" result="blurAlpha" values="2 0 0 0 0 0 2 0 0 0 0 0 2 0 0 0 0 0 0.5 0" /><ns0:feOffset dx="4.5" dy="4.5" in="blurAlpha" result="offsetBlur" /><ns0:feBlend in="SourceGraphic" in2="offsetBlur" /></ns0:filter><ns0:path d="M80 20v31.715L57.574 29.289 29.29 57.574 51.715 80H20v40h31.715l-22.426 22.426 28.285 28.285L80 148.285V180h40v-31.715l22.426 22.426 28.285-28.285L148.285 120H180V80h-31.715l22.426-22.426-28.285-28.285L120 51.715V20zm20 58.033A21.966 21.966 0 0 1 121.967 100 21.966 21.966 0 0 1 100 121.967 21.966 21.966 0 0 1 78.033 100 21.966 21.966 0 0 1 100 78.033z" fill="#333" fill-rule="evenodd" stroke="#000" stroke-width="6" stroke-linejoin="bevel" filter="url(#a)" /></g><g id="black-king"><ns0:filter id="a" height="150%" width="150%"><ns0:feGaussianBlur in="SourceAlpha" result="blur" stdDeviation="3" /><ns0:feColorMatrix in="blur" result="blurAlpha" values="2 0 0 0 0 0 2 0 0 0 0 0 2 0 0 0 0 0 0.5 0" /><ns0:feOffset dx="4.5" dy="4.5" in="blurAlpha" result="offsetBlur" /><ns0:feBlend in="SourceGraphic" in2="offsetBlur" /></ns0:filter><ns0:path d="M68.787 24.645L24.645 68.787v62.426l44.142 44.142h62.426l44.142-44.142V68.787l-44.142-44.142zM88 67.857h24V88h20.143v24H112v20.143H88V112H67.857V88H88z" fill="#333" fill-rule="evenodd" stroke="#000" stroke-width="6" stroke-linejoin="round" filter="url(#a)" /></g><radialGradient id="check_gradient"><stop offset="0%" stop-color="#ff0000" stop-opacity="1.0" /><stop offset="50%" stop-color="#e70000" stop-opacity="1.0" /><stop offset="100%" stop-color="#9e0000" stop-opacity="0.0" /></radialGradient></defs><rect x="800" y="0" width="133" height="200" stroke="none" fill="#262421" /><rect x="933" y="0" width="133" height="200" stroke="none" fill="#bababa" /><rect x="1066" y="0" width="133" height="200" stroke="none" fill="#bf811d" /><rect x="1199" y="0" width="133" height="200" stroke="none" fill="#b72fc6" /><rect x="1332" y="0" width="133" height="200" stroke="none" fill="#706f6e" /><rect x="0" y="0" width="200" height="1600" stroke="none" fill="#f0d9b5" /><use xlink:href="#black-pawn" transform="translate(0, 200)" /><use xlink:href="#black-knight" transform="translate(0, 400)" /><use xlink:href="#black-bishop" transform="translate(0, 600)" /><use xlink:href="#black-rook" transform="translate(0, 800)" /><use xlink:href="#black-queen" transform="translate(0, 1000)" /><use xlink:href="#black-king" transform="translate(0, 1200)" /><rect x="0" y="1400" width="200" height="200" fill="url(#check_gradient)" /><use xlink:href="#black-king" transform="translate(0, 1400)" /><rect x="200" y="0" width="200" height="1600" stroke="none" fill="#b58863" /><use xlink:href="#black-pawn" transform="translate(200, 200)" /><use xlink:href="#black-knight" transform="translate(200, 400)" /><use xlink:href="#black-bishop" transform="translate(200, 600)" /><use xlink:href="#black-rook" transform="translate(200, 800)" /><use xlink:href="#black-queen" transform="translate(200, 1000)" /><use xlink:href="#black-king" transform="translate(200, 1200)" /><rect x="200" y="1400" width="200" height="200" fill="url(#check_gradient)" /><use xlink:href="#black-king" transform="translate(200, 1400)" /><rect x="400" y="0" width="200" height="1600" stroke="none" fill="#ced26b" /><use xlink:href="#black-pawn" transform="translate(400, 200)" /><use xlink:href="#black-knight" transform="translate(400, 400)" /><use xlink:href="#black-bishop" transform="translate(400, 600)" /><use xlink:href="#black-rook" transform="translate(400, 800)" /><use xlink:href="#black-queen" transform="translate(400, 1000)" /><use xlink:href="#black-king" transform="translate(400, 1200)" /><rect x="400" y="1400" width="200" height="200" fill="url(#check_gradient)" /><use xlink:href="#black-king" transform="translate(400, 1400)" /><rect x="600" y="0" width="200" height="1600" stroke="none" fill="#aaa23b" /><use xlink:href="#black-pawn" transform="translate(600, 200)" /><use xlink:href="#black-knight" transform="translate(600, 400)" /><use xlink:href="#black-bishop" transform="translate(600, 600)" /><use xlink:href="#black-rook" transform="translate(600, 800)" /><use xlink:href="#black-queen" transform="translate(600, 1000)" /><use xlink:href="#black-king" transform="translate(600, 1200)" /><rect x="600" y="1400" width="200" height="200" fill="url(#check_gradient)" /><use xlink:href="#black-king" transform="translate(600, 1400)" /><rect x="800" y="200" width="200" height="1400" stroke="none" fill="#f0d9b5" /><use xlink:href="#white-pawn" transform="translate(800, 200)" /><use xlink:href="#white-knight" transform="translate(800, 400)" /><use xlink:href="#white-bishop" transform="translate(800, 600)" /><use xlink:href="#white-rook" transform="translate(800, 800)" /><use xlink:href="#white-queen" transform="translate(800, 1000)" /><use xlink:href="#white-king" transform="translate(800, 1200)" /><rect x="800" y="1400" width="200" height="200" fill="url(#check_gradient)" /><use xlink:href="#white-king" transform="translate(800, 1400)" /><rect x="1000" y="200" width="200" height="1400" stroke="none" fill="#b58863" /><use xlink:href="#white-pawn" transform="translate(1000, 200)" /><use xlink:href="#white-knight" transform="translate(1000, 400)" /><use xlink:href="#white-bishop" transform="translate(1000, 600)" /><use xlink:href="#white-rook" transform="translate(1000, 800)" /><use xlink:href="#white-queen" transform="translate(1000, 1000)" /><use xlink:href="#white-king" transform="translate(1000, 1200)" /><rect x="1000" y="1400" width="200" height="200" fill="url(#check_gradient)" /><use xlink:href="#white-king" transform="translate(1000, 1400)" /><rect x="1200" y="200" width="200" height="1400" stroke="none" fill="#ced26b" /><use xlink:href="#white-pawn" transform="translate(1200, 200)" /><use xlink:href="#white-knight" transform="translate(1200, 400)" /><use xlink:href="#white-bishop" transform="translate(1200, 600)" /><use xlink:href="#white-rook" transform="translate(1200, 800)" /><use xlink:href="#white-queen" transform="translate(1200, 1000)" /><use xlink:href="#white-king" transform="translate(1200, 1200)" /><rect x="1200" y="1400" width="200" height="200" fill="url(#check_gradient)" /><use xlink:href="#white-king" transform="translate(1200, 1400)" /><rect x="1400" y="200" width="200" height="1400" stroke="none" fill="#aaa23b" /><use xlink:href="#white-pawn" transform="translate(1400, 200)" /><use xlink:href="#white-knight" transform="translate(1400, 400)" /><use xlink:href="#white-bishop" transform="translate(1400, 600)" /><use xlink:href="#white-rook" transform="translate(1400, 800)" /><use xlink:href="#white-queen" transform="translate(1400, 1000)" /><use xlink:href="#white-king" transform="translate(1400, 1200)" /><rect x="1400" y="1400" width="200" height="200" fill="url(#check_gradient)" /><use xlink:href="#white-king" transform="translate(1400, 1400)" /></svg>