<svg xmlns:ns0="http://www.w3.org/2000/svg" xmlns="http://www.w3.org/2000/svg" version="1.1" xmlns:xlink="http://www.w3.org/1999/xlink" viewBox="0 0 400 400"><defs><g id="white-pawn"><ns0:path d="m25 11.961c-3.3902 0-6.032 2.5048-6.0318 5.818 0 1.7039 0.71604 3.3334 1.9758 4.5138-3.8962 1.6923-3.6436 2.322-3.2357 6.479h3.776c-1.6602 8.2274-9.0206 6.3377-8.8618 15.471 0 0 24.748 1.3e-4 24.755 0 0.15874-9.1331-7.2016-7.2433-8.8618-15.471h3.776c0.40794-4.1571 0.66002-4.7868-3.2362-6.479 1.2598-1.1804 1.9758-2.8098 1.9758-4.5138 1.9e-4 -3.3132-2.6411-5.818-6.0313-5.818z" style="fill:#e9e9e9;paint-order:normal;stroke-linejoin:round;stroke-width:1.5;stroke:#2a2a2a" />
 <ns0:path d="m24.999 11.96c-0.59417 9.8e-5 -1.164 0.0812-1.7018 0.22639 8.0421 1.2589 6.7309 8.9478 2.3547 10.106 1.8357 0.66327 3.7 1.6055 4.3417 2.4531 0.58043 0.76681 0.14263 2.5335 0.14263 2.5335l-12.555 0.20424 0.12755 1.0195 5.6946 0.02152c1.7109 8.0976 14.126 6.6282 13.968 15.718 0.1581-9.09-7.1186-7.6421-8.8294-15.74h3.7524c0.30853-4.9806 1.0182-3.6047-3.2385-6.2102 1.26-1.1804 1.973-2.8095 1.9759-4.5134 0-3.3137-2.6425-5.8199-6.0326-5.8194z" style="fill:#000000;opacity:.2" />
 <ns0:path d="m23.738 12.775c-0.30115-0.10596-4.2789 1.2445-3.9859 5.2966 0.11988 1.6582 1.2172 3.1759 1.38 3.1417l0.49283 0.55855s-0.94579-1.9951-0.94579-3.7008c0-3.1561 3.0636-5.2995 3.0636-5.2995zm-1.5715 16.489c-1.9673 8.0639-8.2306 6.4704-8.7503 14.133v-0.01565c1.7604-6.2922 7.3951-5.5061 9.1372-14.063z" style="fill:#ffffff;paint-order:normal" />
 <ns0:path d="m22.256 22.461c-1.3967 0.67214-3.8134 1.3694-3.9424 2.7879l1.7618-0.40406c0.14323-0.32022 0.64077-1.4054 2.2088-2.3914z" style="fill:#ffffff" />
</g><g id="white-knight"><ns0:path d="m22.803 5.7681-2.4951 0.46807-0.99475 3.425-2.1691-1.4236-1.4275 0.42473 0.76065 4.9507-9.7021 14.98c-0.35806 5.9558 1.8713 6.0166 6.1429 7.6475 4.9733-7.0194 10.689-5.0167 15.371-10.323 0.56336 6.6219-15.845 9.1995-13.646 18.275l27.09 0.05772c3.811-16.778 1.0194-27.751-14.607-33.796z" style="clip-rule:evenodd;fill-rule:evenodd;fill:#e9e9e9;image-rendering:optimizeQuality;paint-order:normal;shape-rendering:geometricPrecision;stroke-linejoin:round;stroke-width:1.5;stroke:#2a2a2a" />
 <ns0:path d="m21.619 17.718c-0.45045-0.01013-0.83497 0.28487-1.0899 0.60894-0.41403 0.53268-0.62949 1.1779-0.74842 1.8208-0.0434 0.27687-0.0938 0.55759-0.077 0.8376 0.0267 0.09722 0.14479 0.06279 0.21772 0.04355 0.63126-0.11757 1.2892-0.1278 1.9064-0.31596 0.44739-0.13965 0.80151-0.46382 1.0337-0.84074 0.23371-0.35829 0.33389-0.77218 0.47167-1.1671 0.0612-0.13854 0.0444-0.31536-0.0957-0.40741-0.23243-0.16021-0.51391-0.24122-0.77239-0.35617-0.25395-0.09621-0.50543-0.22857-0.7877-0.2234-0.0197-5.06e-4 -0.0385-7.09e-4 -0.0592-5.06e-4z" style="clip-rule:evenodd;fill-rule:evenodd;image-rendering:optimizeQuality;opacity:.5;paint-order:fill markers stroke;shape-rendering:geometricPrecision" />
 <ns0:path d="m22.803 5.7681-1.2472 0.23414 3.8075 5.7019c19.045 8.1245 18.868 24.79 6.8599 32.524l9.5094 0.02127c3.811-16.778 1.0234-27.751-14.604-33.796z" style="clip-rule:evenodd;fill-rule:evenodd;image-rendering:optimizeQuality;opacity:.2;shape-rendering:geometricPrecision" />
 <ns0:path d="m16.586 9.2113c0.14568 1.7055 0.87366 4.4306 0.57125 4.8355l-9.6105 14.731c-0.32313 3.6093 1.0667 4.8874 1.3427 4.8316-0.0878 0.01013-1.4184-2.1288-0.53098-4.6477l9.6706-14.883-1.4317-4.8573c-0.14044-0.13205 0.15841 0.0719-0.0109-0.0101z" style="clip-rule:evenodd;fill-rule:evenodd;fill:#ffffff;image-rendering:optimizeQuality;paint-order:normal;shape-rendering:geometricPrecision" />
 <ns0:path d="m27.442 25.617s2.0209-2.6244 1.9893-3.8231 1.0654 5.553-1.3028 6.363c-0.0977-0.41278 0.27289-1.7089 0.19887-1.9927-0.31948-1.2239-0.88481-0.41713-0.8854-0.54716z" style="clip-rule:evenodd;fill-rule:evenodd;image-rendering:optimizeQuality;opacity:.2;shape-rendering:geometricPrecision;stroke-width:.26458px;stroke:#000000" />
 <ns0:path d="m28.727 28.005c-2.8345 6.2323-14.734 8.1391-13.325 15.542-1.0724-6.5367 13.176-8.8793 13.325-15.542z" style="fill:#ffffff" />
 <ns0:path d="m10.763 28.109s-0.0466 2.3858-1.5613 2.1851c0 0-1.8342-1.0159 1.5613-2.1851z" style="fill:#000000;opacity:.5" />
</g><g id="white-bishop"><ns0:path d="m25 5.75c-1.683 0-3.0472 1.0985-3.047 2.4526 0 0.50298 0.19448 0.99341 0.55392 1.405-2.5407 3.3068-8.7811 9.8002-8.9853 16.336-0.08682 3.3751 3.9331 8.7237 4.1072 9.2597 0.17395 0.53603 1.3328 0.93394 3.2684 1.1767-1.3305 4.5905-10.097-1.0786-14.147 3.3708l1.8417 4.4992c5.5729-3.1223 9.9671 3.1494 16.408-3.4216v0.0011c6.4408 6.5692 10.835 0.29848 16.407 3.4206l1.8423-4.4992c-4.0498-4.4493-12.817 1.2197-14.148-3.3708 1.9355-0.24281 3.0944-0.64072 3.2684-1.1767 0.17404-0.53602 4.1939-5.8846 4.1071-9.2597-0.20424-6.5357-6.4446-13.029-8.9853-16.336 0.35944-0.41155 0.55392-0.90198 0.55392-1.405 1.9e-4 -1.3539-1.3635-2.4522-3.0459-2.4526z" fill="#e9e9e9" stroke="#2a2a2a" stroke-linejoin="round" stroke-width="1.5" style="paint-order:normal" />
 <ns0:path class="st32" d="m25 21.106c-0.69895 0-1.0193 0.34157-1.0193 1.0247v2.4532h-2.3882c-0.64074 0-0.96111 0.31056-0.96111 0.93159 0 0.62102 0.32037 0.93159 0.96111 0.93159h2.3882v2.4531c0 0.68312 0.34938 1.0247 1.0193 1.0247 0.66984 0 1.0193-0.34156 1.0193-1.0247v-2.4531h2.4756c0.61174 0 0.93192-0.31057 0.93192-0.93159 0-0.62103-0.32018-0.93159-0.93192-0.93159h-2.4756v-2.4532c0-0.68312-0.34948-1.0247-1.0193-1.0247z" opacity=".5" stroke-width=".26139" />
 <ns0:path d="m25 5.7499c-0.82726 2.03e-4 -1.6196 0.27079-2.1937 0.75028 3.9365 0.19367 4.0448 2.2614 3.0721 3.4745 1.1014 2.3939 2.8197 4.2002 4.1606 6.4317 0 0 11.604 21.888-13.358 17.253 0 0 0.62919 1.5525 2.0301 2.28 0.69996 0.36358 1.1638 0.39546 2.1852 0.4406 1.3232 0.08092 5.3333 0.5372 6.3058 0.69063 1.9373 7.0557 13.332 0.01127 15.127 4.9301l0.92114-2.2496c-3.7258-4.4524-9.9962 1.0631-14.057-3.3101 1.3791-0.21434 2.3919-0.60348 2.9538-0.89834 0-0.14281 4.4217-6.0649 4.331-9.5988-0.20444-6.5348-6.4431-13.027-8.9845-16.335 0.35926-0.41204 0.55316-0.90342 0.55362-1.4069 0-1.3543-1.3644-2.452-3.0475-2.4521z" opacity=".4" style="opacity:.2;paint-order:normal" />
 <ns0:path d="m23.793 6.8981c-0.71354 0.31972-1.2649 0.95021-1.0015 1.7786 0.08402 0.3206 0.31483 0.50746 0.46568 0.78995 0.06651 0.27839-0.0111 0.53895-0.14309 0.7301-1.5756 1.9467-5.5658 6.4117-7.4138 10.599-0.70466 1.7357-1.5656 3.7459-1.3961 5.6483 0.47446 3.4126 3.388 7.3918 3.388 7.3918s-2.0532-4.357-2.246-7.0213c-0.03231-7.0794 5.7998-12.424 8.3008-17.099-0.37876-1.5773-1.1724-1.4646 0.04601-2.8178z" fill="#fff" />
 <ns0:path d="m9.0065 43.191c0-0.05846-1.3449-3.2618-1.3449-3.2618 2.9204-2.5601 8.369-0.29926 11.229-0.95259-4.2861 0.84733-7.6386-0.50981-10.069 1.0913z" fill="#fff" />
</g><g id="white-rook"><ns0:g transform="matrix(.91877 0 0 .93482 -3036.3 1998.5)" stroke-width="1.079">
  <ns0:path d="m3329.1-2128.5-0.6434 2.6079-3.3883 0.1937-0.5893-2.5924-4.8693 1.0027v7.8708c0.8451 2.1116 1.967 2.4657 3.0267 3.0261h2.1613l-3.1479 17.25c-4.314 2.4558-5.2836 3.5696-5.2836 8.5023h31.034c0-4.9327-0.9699-6.0465-5.2836-8.5023l-3.1477-17.25h2.1611c1.0597-0.5605 2.1816-0.915 3.0267-3.0266v-7.8709l-4.8688-1.0021-0.5898 2.5918-3.388-0.1936-0.6434-2.6085h-2.7834z" style="fill:#e9e9e9;stroke-width:1.6185;stroke:#2a2a2a" />
  <ns0:path d="m3341.8-2127.8c4.1719 12.439-14.069 10.218-21.331 9.7927 0 0 0.085 1.5999 2.2458 1.6048h2.197-0.036l-0.092 0.5028c13.852-1.0454 11.329 3.0473 13.773 15.557l-16.717 0.578-0.1112 0.6132-1.051 0.6127c5.4343 0.5946 23.899-3.1021 22.257 7.8896h4.5434c0.2618-5.0933-1.7668-6.6874-5.2836-8.5023l-2.9623-17.531c0.2997-0.1935 0.9594 0 1.922-0.1608 1.2799-0.2131 2.6239-1.4826 3.0799-2.7472v-7.5546z" opacity=".4" style="opacity:.2" />
  <ns0:g fill="#fff">
   <ns0:path d="m3320.4-2126.7 2.3639-0.4751c-1.3164 0.508-1.7627 3.2567-2.2906 6.8042-0.1582 1.0629-0.074-6.3291-0.074-6.3291z" />
   <ns0:path d="m3329.7-2127.7-0.6236 2.5674 2.1193-2.5754z" />
   <ns0:path d="m3339.9-2127.4-0.5437 2.4634 1.5356-2.2555z" />
   <ns0:path d="m3325.5-2115.8-2.98 16.075 3.7954-15.977z" />
   <ns0:path d="m3317.2-2091.6c-0.014-0.046-0.034-1.082 0.1659-2.048 0.2267-1.0937 0.757-2.1464 1.6195-2.8237 1.5913-1.2497 2.925-1.9566 3.0758-1.9612-2.2901 1.7424-4.4098 3.8733-4.8612 6.8329z" />
  </ns0:g>
 </ns0:g>
</g><g id="white-queen"><ns0:g transform="matrix(.98734 0 0 .96296 -3412.8 2056)" stroke-width="1.0256">
  <ns0:path d="m3475.9-2129.1c-2.4151 0-4.3728 1.9556-4.3728 4.3666 0 1.9799 1.3397 3.7106 3.2575 4.2159v11.159l-5.3614-7.493c0.4851-0.7196 0.7452-1.5674 0.7452-2.4348 0-2.4117-1.9583-4.3665-4.3741-4.3665-2.4152 0-4.3737 1.9554-4.3737 4.3665 0.065 2.1401 1.9355 3.8159 4.3287 4.3651l0.879 4.2366 1.7597 8.4738 2.7656 5.1912 1.1197 6.4702c0 0.8005 4.3188 1.4495 9.6474 1.4495 5.3288 0 9.6486-0.6489 9.6481-1.4495l1.1197-6.4702 2.7655-5.1912 1.7601-8.4738 0.8788-4.2366c2.3929-0.5492 4.2636-2.225 4.3278-4.3651 0-2.4111-1.9572-4.3659-4.3725-4.3665-2.4159 0-4.3744 1.9548-4.3742 4.3665 0 0.8674 0.2596 1.7152 0.7446 2.4348l-5.361 7.493v-11.159c1.9175-0.5053 3.2546-2.236 3.2571-4.2159 0-2.4112-1.9571-4.3661-4.3724-4.3666-2.416 0-4.3751 1.9547-4.3745 4.3666 0 1.425 0.7017 2.7591 1.8728 3.5738l-3.5199 10.364-3.5202-10.364c1.1712-0.8147 1.8739-2.1488 1.8739-3.5738 0-2.4117-1.9583-4.3663-4.374-4.3666z" fill="#e9e9e9" stroke="#2a2a2a" stroke-width="1.5383" style="paint-order:normal" />
  <ns0:path d="m3498.4-2124c0.9506 0.9857 3.2987 5.321-2.0774 8.7326l-5.1907 13.456c-6.9617 1.2558-14.694 1.553-20.32-0.4199l1.9055 3.1248c6.5928 2.2955 17.806 0.4878 17.806 0.4878-1.074 3.5702-2.5789 6.8474-5.6655 9.4251 0 0 4.5197 0.1199 6.6122-1.3763l1.5703-6.7967 2.7646-5.1905 1.7609-8.4741 0.8781-4.2361c2.3928-0.5492 4.2642-2.225 4.3285-4.3651 0-2.4111-1.9571-4.3669-4.3724-4.3675z" opacity=".4" style="opacity:.2" />
  <ns0:g fill="#010101">
   <ns0:path d="m3475.9-2129.1c-0.2653 0-0.5236 0.028-0.7759 0.073 3.03 1.8543 2.4106 6.0001 1.6053 7.3743l5.1917 8.6587-0.7765-1.8013-2.7439-6.3641c1.1712-0.8147 1.8738-2.1488 1.8738-3.5738 0-2.4117-1.9582-4.3663-4.374-4.3666z" opacity=".25" style="paint-order:normal" />
   <ns0:path d="m3487.9-2129.1c-0.2652 0-0.5241 0.028-0.7764 0.073 4.562 1.3181 1.7767 6.5658 0.6545 6.9886l1.2375 10.482-3e-4 -1.5334v-7.4273c1.9173-0.5053 3.2549-2.2359 3.2574-4.2159 0-2.4112-1.9574-4.366-4.3727-4.3666z" opacity=".25" style="paint-order:normal" />
   <ns0:path d="m3465.7-2123.7c-0.2655 0-0.5241 0.027-0.7764 0.073 3.2853 1.2451 3.0603 4.4661 2.3788 6.6464l7.3881 7.5749-5.3616-7.4927c0.4853-0.7197 0.7451-1.5675 0.7451-2.4348 0-2.4118-1.9582-4.3666-4.374-4.3666z" opacity=".25" style="paint-order:normal" />
  </ns0:g>
  <ns0:g fill="#fff">
   <ns0:path d="m3463.5-2122.2s-3.3148 2.7068 0.1229 5.5131c-0.2221-0.5696-0.9176-3.9075-0.1229-5.5131z" />
   <ns0:path d="m3474.1-2127.9c-0.3635-0.1616-3.3454 2.2823-1.1664 5.3464 0.1-0.496-0.8467-3.9097 1.1664-5.3464z" />
   <ns0:path d="m3486.4-2128c-0.3635-0.1616-3.5492 2.2607-1.3243 5.4009-0.1702-0.575-0.7274-4.3957 1.3243-5.4009z" />
   <ns0:path d="m3466.4-2115.5 2.6865 13.055 2.7896 5.2399 1.1015 6.4144 0.7109 0.2341-1.0989-6.6996-2.8406-5.1633z" />
   <ns0:path d="m3496.5-2122.5c-0.3635-0.1616-3.5182 2.3534-1.3088 5.4473-0.2134-1.0213-1.0458-4.5218 1.3088-5.4473z" />
  </ns0:g>
 </ns0:g>
</g><g id="white-king"><ns0:g transform="matrix(.96234 0 0 .9617 -3133.3 2054.9)" stroke-width="1.0395">
  <ns0:path d="m3281.9-2090.7c6.3612 0 11.51-0.5605 11.51-1.2488l1.3415-6.5248c11.336-7.8219 6.6894-19.658-3.3492-19.615-2.0834 0.01-4.8937 0.5303-6.2643 1.3374l-0.8757-4.0994h3.8947c1.1702 0.1305 1.7699-1.6001 1.7699-2.668 0-1.0677-0.5922-2.6676-1.7699-2.6676h-3.3879v-3.0921c0-0.9698-1.8043-1.4548-2.891-1.4548s-2.8908 0.485-2.8908 1.4548v3.0921h-3.3881c-1.1798 0-1.7699 1.5999-1.7699 2.6676 0 1.0678 0.6 2.7985 1.7699 2.668h3.8949l-0.8759 4.0994c-1.3706-0.8071-4.1808-1.3282-6.2643-1.3374-10.038-0.043-14.685 11.794-3.3492 19.615l1.3416 6.5248c0 0.6883 5.1491 1.2461 11.51 1.2488h0.023z" fill="#e9e9e9" stroke="#2a2a2a" stroke-width="1.5592" style="paint-order:normal" />
  <ns0:path d="m3287.7-2126.4c-0.5507-0.01-0.9684 0.097-0.9863 0.1851 0.7384 0.7519 3.7573 4.344-3.7379 3.7916-0.902 0.5064 0.1495 7.329 0.8917 9.2492 0 0 1.2196-0.5467 2.0501-0.977 14.763-4.2534 12.706 12.372 3.9025 15.299-5.255 0.7955-13.114 1.1194-18.294 0.3496l0.413 2.538c6.7439 0.6034 6.5956 0.4642 15.112 0.5902 4.1998 2.8421-11.95 3.965-16.701 3.3965 0.093 0.2632 23.03 1.2251 23.059 0.036l1.3415-6.5595c11.335-7.8217 6.69-19.658-3.3476-19.616-0.8758 0-1.8772 0.1036-2.8489 0.2717l-3.4115 1.065-0.8758-4.0992h3.8944c1.0266 0.2939 1.7428-1.581 1.7698-2.668 0.151-2.2513-1.4303-2.7041-2.2284-2.8526z" opacity=".4" style="opacity:.2" />
  <ns0:path d="m3282.9-2129.8c-0.9418-0.2532-2.572-0.1944-3.1698 0.5507-0.044 0.055-0.034 0.2145-0.033 0.2952l0.028 3.5759h-3.4534c-0.296-1e-4 -0.7873-0.016-0.9702 0.088-0.3702 0.2066-0.7164 0.9405-0.7498 1.7896-0.027 0.6892 0.5007 1.8969 0.8776 1.9299 0.2369 0.021 0.5759-0.028 1.182-0.01-1.8841-0.6985-1.3983-3.5024-0.2002-3.4503l3.6295-0.028-0.046-3.143c-0.014-0.9697 0.6505-1.4712 1.7371-1.4712 0.4268 0 1.4284 0.041 1.924 0.1912-0.5186-0.3013-0.7564-0.3164-0.7564-0.3164z" fill="#fff" style="paint-order:normal" />
  <ns0:path d="m3279.9-2119.2-0.7695 3.6613c-1.3708-0.8072-4.1103-1.7664-6.1937-1.7756-9.4147-0.7528-14.415 10.655-3.2398 18.389l1.3485 6.6205 0.1082 0.015-0.4514-6.7164c-10.51-7.7425-6.8645-17.498 3.1741-17.455 2.0833 0.01 4.2535 0.9782 5.6244 1.7853l0.9083-6.8699z" fill="#fff" style="paint-order:normal" />
 </ns0:g>
</g><g id="black-pawn"><ns0:path d="m25 11.961c-3.3902 0-6.032 2.5048-6.0318 5.818 0 1.7039 0.71604 3.3334 1.9758 4.5138-3.8962 1.6923-3.6436 2.322-3.2357 6.479h3.776c-1.6602 8.2274-9.0206 6.3377-8.8618 15.471 0 0 24.748-2e-6 24.755 0 0.15874-9.1331-7.2016-7.2433-8.8618-15.471h3.776c0.40794-4.1571 0.66002-4.7868-3.2362-6.479 1.2598-1.1804 1.9758-2.8098 1.9758-4.5138 1.9e-4 -3.3132-2.6411-5.818-6.0313-5.818z" style="fill:#545454;paint-order:normal;stroke-linejoin:round;stroke-width:1.5;stroke:#1e1e1e" />
 <ns0:path d="m24.999 11.96c-0.59417 9.8e-5 -1.164 0.08121-1.7018 0.22639 8.0421 1.2589 6.7309 8.9478 2.3547 10.106 1.8357 0.66327 3.7 1.6055 4.3417 2.4531 0.58043 0.76681 0.14263 2.5335 0.14263 2.5335l-12.555 0.20424 0.12755 1.0195 5.6946 0.02152c1.7109 8.0976 14.126 6.6282 13.968 15.718 0.1581-9.09-7.1186-7.6421-8.8294-15.74h3.7524c0.30853-4.9806 1.0182-3.6047-3.2385-6.2102 1.26-1.1804 1.973-2.8095 1.9759-4.5134 0-3.3137-2.6425-5.8199-6.0326-5.8194z" style="fill:#000000;opacity:.25" />
 <ns0:path d="m23.738 12.775c-0.30115-0.10596-4.2789 1.2445-3.9859 5.2966 0.11988 1.6582 1.2172 3.1759 1.38 3.1417l0.49283 0.55855s-0.94579-1.9951-0.94579-3.7008c0-3.1561 3.0636-5.2995 3.0636-5.2995zm-1.5715 16.489c-1.9673 8.0639-8.2306 6.4704-8.7503 14.133v-0.01565c1.7604-6.2922 7.3951-5.5061 9.1372-14.063z" style="fill:#ffffff;opacity:.25;paint-order:normal" />
 <ns0:path d="m22.256 22.461c-1.3967 0.67214-3.8134 1.3694-3.9424 2.7879l1.7618-0.40406c0.14323-0.32022 0.64077-1.4054 2.2088-2.3914z" style="fill:#ffffff;opacity:.25" />
</g><g id="black-knight"><ns0:path d="m22.803 5.7681-2.4951 0.46807-0.99475 3.425-2.1691-1.4236-1.4275 0.42473 0.76065 4.9507-9.7021 14.98c-0.35806 5.9558 1.8713 6.0166 6.1429 7.6475 4.9733-7.0194 10.689-5.0167 15.371-10.323 0.56336 6.6219-15.845 9.1995-13.646 18.275l27.09 0.05772c3.811-16.778 1.0194-27.751-14.607-33.796z" style="clip-rule:evenodd;fill-rule:evenodd;fill:#545454;image-rendering:optimizeQuality;paint-order:normal;shape-rendering:geometricPrecision;stroke-linejoin:round;stroke-width:1.5;stroke:#1e1e1e" />
 <ns0:path d="m21.619 17.718c-0.45045-0.01013-0.83497 0.28487-1.0899 0.60894-0.41403 0.53268-0.62949 1.1779-0.74842 1.8208-0.0434 0.27687-0.0938 0.55759-0.077 0.8376 0.0267 0.09722 0.14479 0.06279 0.21772 0.04355 0.63126-0.11757 1.2892-0.1278 1.9064-0.31596 0.44739-0.13965 0.80151-0.46382 1.0337-0.84074 0.23371-0.35829 0.33389-0.77218 0.47167-1.1671 0.0612-0.13854 0.0444-0.31536-0.0957-0.40741-0.23243-0.16021-0.51391-0.24122-0.77239-0.35617-0.25395-0.09621-0.50543-0.22857-0.7877-0.2234-0.0197-5.06e-4 -0.0385-7.09e-4 -0.0592-5.06e-4z" style="clip-rule:evenodd;fill-rule:evenodd;image-rendering:optimizeQuality;opacity:.5;paint-order:fill markers stroke;shape-rendering:geometricPrecision" />
 <ns0:path d="m22.803 5.7681-1.2472 0.23414 3.8075 5.7019c19.045 8.1245 18.868 24.79 6.8599 32.524l9.5094 0.02127c3.811-16.778 1.0234-27.751-14.604-33.796z" style="clip-rule:evenodd;fill-rule:evenodd;image-rendering:optimizeQuality;opacity:.25;shape-rendering:geometricPrecision" />
 <ns0:path d="m16.586 9.2113c0.14568 1.7055 0.87366 4.4306 0.57125 4.8355l-9.6105 14.731c-0.32313 3.6093 1.0667 4.8874 1.3427 4.8316-0.0878 0.01013-1.4184-2.1288-0.53098-4.6477l9.6706-14.883-1.4317-4.8573c-0.14044-0.13205 0.15841 0.0719-0.0109-0.0101z" style="clip-rule:evenodd;fill-rule:evenodd;fill:#ffffff;image-rendering:optimizeQuality;opacity:.25;paint-order:normal;shape-rendering:geometricPrecision" />
 <ns0:path d="m27.442 25.617s2.0209-2.6244 1.9893-3.8231 1.0654 5.553-1.3028 6.363c-0.0977-0.41278 0.27289-1.7089 0.19887-1.9927-0.31948-1.2239-0.88481-0.41713-0.8854-0.54716z" style="clip-rule:evenodd;fill-rule:evenodd;image-rendering:optimizeQuality;opacity:.25;shape-rendering:geometricPrecision;stroke-width:.26458px;stroke:#000000" />
 <ns0:path d="m28.727 28.005c-2.8345 6.2323-14.734 8.1391-13.325 15.542-1.0724-6.5367 13.176-8.8793 13.325-15.542z" style="fill:#ffffff;opacity:.25" />
 <ns0:path d="m10.763 28.109s-0.0466 2.3858-1.5613 2.1851c0 0-1.8342-1.0159 1.5613-2.1851z" style="fill:#000000;opacity:.5" />
</g><g id="black-bishop"><ns0:path d="m25.004 5.75c-1.683 0-3.0472 1.0985-3.047 2.4526 0 0.50298 0.19448 0.99341 0.55392 1.405-2.5407 3.3068-8.7811 9.8002-8.9854 16.336-0.08682 3.3751 3.9331 8.7237 4.1072 9.2597 0.17395 0.53603 1.3328 0.93394 3.2684 1.1767-1.3305 4.5905-10.098-1.0786-14.147 3.3708l1.8417 4.4992c5.5729-3.1223 9.9671 3.1494 16.409-3.4216v0.0011c6.4409 6.5692 10.835 0.29848 16.407 3.4206l1.8423-4.4992c-4.0498-4.4493-12.817 1.2197-14.148-3.3708 1.9355-0.24281 3.0944-0.64072 3.2684-1.1767 0.17404-0.53602 4.1939-5.8846 4.1072-9.2597-0.20424-6.5357-6.4446-13.029-8.9853-16.336 0.35944-0.41155 0.55392-0.90198 0.55392-1.405 1.9e-4 -1.3539-1.3635-2.4522-3.046-2.4526z" fill="#545454" stroke="#1e1e1e" stroke-linejoin="round" stroke-width="1.5" style="paint-order:normal" />
 <ns0:path class="st32" d="m25.004 21.106c-0.69896 0-1.0193 0.34157-1.0193 1.0247v2.4532h-2.3882c-0.64074 0-0.96112 0.31056-0.96112 0.93159 0 0.62102 0.32037 0.93159 0.96112 0.93159h2.3882v2.4531c0 0.68312 0.34938 1.0247 1.0193 1.0247 0.66984 0 1.0193-0.34156 1.0193-1.0247v-2.4531h2.4756c0.61174 0 0.93192-0.31057 0.93192-0.93159 0-0.62103-0.32018-0.93159-0.93192-0.93159h-2.4756v-2.4532c0-0.68312-0.34948-1.0247-1.0193-1.0247z" opacity=".5" stroke-width=".26139" />
 <ns0:path d="m25.004 5.7499c-0.82726 2.03e-4 -1.6196 0.27079-2.1937 0.75028 3.9366 0.19367 4.0448 2.2614 3.0721 3.4745 1.1014 2.3939 2.8198 4.2002 4.1606 6.4317 0 0 11.604 21.888-13.358 17.253 0 0 0.62919 1.5525 2.0301 2.28 0.69997 0.36358 1.1638 0.39546 2.1852 0.4406 1.3232 0.08091 5.3334 0.5372 6.3058 0.69063 1.9373 7.0557 13.332 0.01127 15.127 4.9301l0.92114-2.2496c-3.7259-4.4524-9.9963 1.0631-14.057-3.3101 1.3791-0.21434 2.3919-0.60348 2.9538-0.89834 0-0.14281 4.4217-6.0649 4.331-9.5988-0.20444-6.5348-6.4431-13.027-8.9846-16.335 0.35926-0.41204 0.55317-0.90342 0.55363-1.4069 0-1.3543-1.3644-2.452-3.0475-2.4521z" opacity=".4" style="opacity:.25;paint-order:normal" />
 <ns0:path d="m23.797 6.8981c-0.71354 0.31972-1.2649 0.95021-1.0015 1.7786 0.08402 0.3206 0.31483 0.50746 0.46568 0.78995 0.06651 0.27839-0.0111 0.53895-0.14309 0.7301-1.5756 1.9467-5.5659 6.4117-7.4138 10.599-0.70467 1.7357-1.5656 3.7459-1.3961 5.6483 0.47446 3.4126 3.388 7.3918 3.388 7.3918s-2.0532-4.357-2.246-7.0213c-0.03231-7.0794 5.7998-12.424 8.3009-17.099-0.37876-1.5773-1.1724-1.4646 0.04601-2.8178z" fill="#fff" opacity=".25" />
 <ns0:path d="m9.01 43.191c0-0.05846-1.345-3.2618-1.345-3.2618 2.9204-2.5601 8.3691-0.29926 11.229-0.95259-4.2861 0.84733-7.6386-0.50981-10.069 1.0913z" fill="#fff" opacity=".25" />
</g><g id="black-rook"><ns0:g transform="matrix(.91877 0 0 .93482 -3036.3 1998.5)" stroke-width="1.079">
  <ns0:path d="m3329.1-2128.5-0.6434 2.6079-3.3883 0.1937-0.5893-2.5924-4.8693 1.0027v7.8708c0.8451 2.1116 1.967 2.4657 3.0267 3.0261h2.1613l-3.1479 17.25c-4.314 2.4558-5.2836 3.5696-5.2836 8.5023h31.034c0-4.9327-0.9699-6.0465-5.2836-8.5023l-3.1477-17.25h2.1611c1.0597-0.5605 2.1816-0.915 3.0267-3.0266v-7.8709l-4.8688-1.0021-0.5898 2.5918-3.388-0.1936-0.6434-2.6085h-2.7834z" style="fill:#545454;stroke-width:1.6185;stroke:#1e1e1e" />
  <ns0:path d="m3341.8-2127.8c4.1719 12.439-14.069 10.218-21.331 9.7927 0 0 0.085 1.5999 2.2458 1.6048h2.197-0.036l-0.092 0.5028c13.852-1.0454 11.329 3.0473 13.773 15.557l-16.717 0.578-0.1112 0.6132-1.051 0.6127c5.4343 0.5946 23.899-3.1021 22.257 7.8896h4.5434c0.2618-5.0933-1.7668-6.6874-5.2836-8.5023l-2.9623-17.531c0.2997-0.1935 0.9594 0 1.922-0.1608 1.2799-0.2131 2.6239-1.4826 3.0799-2.7472v-7.5546z" opacity=".4" style="opacity:.25" />
  <ns0:g fill="#fff">
   <ns0:path d="m3320.4-2126.7 2.3639-0.4751c-1.3164 0.508-1.7627 3.2567-2.2906 6.8042-0.1582 1.0629-0.074-6.3291-0.074-6.3291z" opacity=".25" />
   <ns0:path d="m3329.7-2127.7-0.6236 2.5674 2.1193-2.5754z" opacity=".25" />
   <ns0:path d="m3339.9-2127.4-0.5437 2.4634 1.5356-2.2555z" opacity=".25" />
   <ns0:path d="m3325.5-2115.8-2.98 16.075 3.7954-15.977z" opacity=".25" />
   <ns0:path d="m3317.2-2091.6c-0.014-0.046-0.034-1.082 0.1659-2.048 0.2267-1.0937 0.757-2.1464 1.6195-2.8237 1.5913-1.2497 2.925-1.9566 3.0758-1.9612-2.2901 1.7424-4.4098 3.8733-4.8612 6.8329z" opacity=".25" />
  </ns0:g>
 </ns0:g>
</g><g id="black-queen"><ns0:g transform="matrix(.98735 0 0 .96296 -3412.8 2056)" stroke-width="1.0256">
  <ns0:path d="m3475.9-2129.1c-2.4151 0-4.3728 1.9556-4.3728 4.3666 0 1.9799 1.3397 3.7106 3.2575 4.2159v11.159l-5.3614-7.493c0.4851-0.7196 0.7452-1.5674 0.7452-2.4348 0-2.4117-1.9583-4.3665-4.3741-4.3665-2.4152 0-4.3737 1.9554-4.3737 4.3665 0.065 2.1401 1.9355 3.8159 4.3287 4.3651l0.879 4.2366 1.7597 8.4738 2.7656 5.1912 1.1197 6.4702c0 0.8005 4.3188 1.4495 9.6474 1.4495 5.3288 0 9.6486-0.6489 9.6481-1.4495l1.1197-6.4702 2.7655-5.1912 1.7601-8.4738 0.8788-4.2366c2.3929-0.5492 4.2636-2.225 4.3278-4.3651 0-2.4111-1.9572-4.3659-4.3725-4.3665-2.4159 0-4.3744 1.9548-4.3742 4.3665 0 0.8674 0.2596 1.7152 0.7446 2.4348l-5.361 7.493v-11.159c1.9175-0.5053 3.2546-2.236 3.2571-4.2159 0-2.4112-1.9571-4.3661-4.3724-4.3666-2.416 0-4.3751 1.9547-4.3745 4.3666 0 1.425 0.7017 2.7591 1.8728 3.5738l-3.5199 10.364-3.5202-10.364c1.1712-0.8147 1.8739-2.1488 1.8739-3.5738 0-2.4117-1.9583-4.3663-4.374-4.3666z" fill="#545454" stroke="#1e1e1e" stroke-width="1.5383" style="paint-order:normal" />
  <ns0:path d="m3498.4-2124c0.9506 0.9857 3.2987 5.321-2.0774 8.7326l-5.1907 13.456c-6.9617 1.2558-14.694 1.553-20.32-0.4199l1.9055 3.1248c6.5928 2.2955 17.806 0.4878 17.806 0.4878-1.074 3.5702-2.5789 6.8474-5.6655 9.4251 0 0 4.5197 0.1199 6.6122-1.3763l1.5703-6.7967 2.7646-5.1905 1.7609-8.4741 0.8781-4.2361c2.3928-0.5492 4.2642-2.225 4.3285-4.3651 0-2.4111-1.9571-4.3669-4.3724-4.3675z" opacity=".4" style="opacity:.25" />
  <ns0:g fill="#010101">
   <ns0:path d="m3475.9-2129.1c-0.2653 0-0.5236 0.028-0.7759 0.073 3.03 1.8543 2.4106 6.0001 1.6053 7.3743l5.1917 8.6587-0.7765-1.8013-2.7439-6.3641c1.1712-0.8147 1.8738-2.1488 1.8738-3.5738 0-2.4117-1.9582-4.3663-4.374-4.3666z" opacity=".25" style="paint-order:normal" />
   <ns0:path d="m3487.9-2129.1c-0.2652 0-0.5241 0.028-0.7764 0.073 4.562 1.3181 1.7767 6.5658 0.6545 6.9886l1.2375 10.482-3e-4 -1.5334v-7.4273c1.9173-0.5053 3.2549-2.2359 3.2574-4.2159 0-2.4112-1.9574-4.366-4.3727-4.3666z" opacity=".25" style="paint-order:normal" />
   <ns0:path d="m3465.7-2123.7c-0.2655 0-0.5241 0.027-0.7764 0.073 3.2853 1.2451 3.0603 4.4661 2.3788 6.6464l7.3881 7.5749-5.3616-7.4927c0.4853-0.7197 0.7451-1.5675 0.7451-2.4348 0-2.4118-1.9582-4.3666-4.374-4.3666z" opacity=".25" style="paint-order:normal" />
  </ns0:g>
  <ns0:g fill="#fff">
   <ns0:path d="m3463.5-2122.2s-3.3148 2.7068 0.1229 5.5131c-0.2221-0.5696-0.9176-3.9075-0.1229-5.5131z" opacity=".25" />
   <ns0:path d="m3474.1-2127.9c-0.3635-0.1616-3.3454 2.2823-1.1664 5.3464 0.1-0.496-0.8467-3.9097 1.1664-5.3464z" opacity=".25" />
   <ns0:path d="m3486.4-2128c-0.3635-0.1616-3.5492 2.2607-1.3243 5.4009-0.1702-0.575-0.7274-4.3957 1.3243-5.4009z" opacity=".25" />
   <ns0:path d="m3466.4-2115.5 2.6865 13.055 2.7896 5.2399 1.1015 6.4144 0.7109 0.2341-1.0989-6.6996-2.8406-5.1633z" opacity=".25" />
   <ns0:path d="m3496.5-2122.5c-0.3635-0.1616-3.5182 2.3534-1.3088 5.4473-0.2134-1.0213-1.0458-4.5218 1.3088-5.4473z" opacity=".25" />
  </ns0:g>
 </ns0:g>
</g><g id="black-king"><ns0:g transform="matrix(.96234 0 0 .9617 -3133.3 2054.9)" stroke-width="1.0395">
  <ns0:path d="m3281.9-2090.7c6.3612 0 11.51-0.5605 11.51-1.2488l1.3415-6.5248c11.336-7.8219 6.6894-19.658-3.3492-19.615-2.0834 0.01-4.8937 0.5303-6.2643 1.3374l-0.8757-4.0994h3.8947c1.1702 0.1305 1.7699-1.6001 1.7699-2.668 0-1.0677-0.5922-2.6676-1.7699-2.6676h-3.3879v-3.0921c0-0.9698-1.8043-1.4548-2.891-1.4548s-2.8908 0.485-2.8908 1.4548v3.0921h-3.3881c-1.1798 0-1.7699 1.5999-1.7699 2.6676 0 1.0678 0.6 2.7985 1.7699 2.668h3.8949l-0.8759 4.0994c-1.3706-0.8071-4.1808-1.3282-6.2643-1.3374-10.038-0.043-14.685 11.794-3.3492 19.615l1.3416 6.5248c0 0.6883 5.1491 1.2461 11.51 1.2488h0.023z" fill="#545454" stroke="#141414" stroke-width="1.5592" style="paint-order:normal" />
  <ns0:path d="m3287.7-2126.4c-0.5507-0.01-0.9684 0.097-0.9863 0.1851 0.7384 0.7519 3.7573 4.344-3.7379 3.7916-0.902 0.5064 0.1495 7.329 0.8917 9.2492 0 0 1.2196-0.5467 2.0501-0.977 14.763-4.2534 12.706 12.372 3.9025 15.299-5.255 0.7955-13.114 1.1194-18.294 0.3496l0.413 2.538c6.7439 0.6034 6.5956 0.4642 15.112 0.5902 4.1998 2.8421-11.95 3.965-16.701 3.3965 0.093 0.2632 23.03 1.2251 23.059 0.036l1.3415-6.5595c11.335-7.8217 6.69-19.658-3.3476-19.616-0.8758 0-1.8772 0.1036-2.8489 0.2717l-3.4115 1.065-0.8758-4.0992h3.8944c1.0266 0.2939 1.7428-1.581 1.7698-2.668 0.151-2.2513-1.4303-2.7041-2.2284-2.8526z" opacity=".4" style="opacity:.25" />
  <ns0:path d="m3282.9-2129.8c-0.9418-0.2532-2.572-0.1944-3.1698 0.5507-0.044 0.055-0.034 0.2145-0.033 0.2952l0.028 3.5759h-3.4534c-0.296-1e-4 -0.7873-0.016-0.9702 0.088-0.3702 0.2066-0.7164 0.9405-0.7498 1.7896-0.027 0.6892 0.5007 1.8969 0.8776 1.9299 0.2369 0.021 0.5759-0.028 1.182-0.01-1.8841-0.6985-1.3983-3.5024-0.2002-3.4503l3.6295-0.028-0.046-3.143c-0.014-0.9697 0.6505-1.4712 1.7371-1.4712 0.4268 0 1.4284 0.041 1.924 0.1912-0.5186-0.3013-0.7564-0.3164-0.7564-0.3164z" fill="#fff" opacity=".25" style="paint-order:normal" />
  <ns0:path d="m3279.9-2119.2-0.7695 3.6613c-1.3708-0.8072-4.1103-1.7664-6.1937-1.7756-9.4147-0.7528-14.415 10.655-3.2398 18.389l1.3485 6.6205 0.1082 0.015-0.4514-6.7164c-10.51-7.7425-6.8645-17.498 3.1741-17.455 2.0833 0.01 4.2535 0.9782 5.6244 1.7853l0.9083-6.8699z" fill="#fff" opacity=".25" style="paint-order:normal" />
 </ns0:g>
</g><radialGradient id="check_gradient"><stop offset="0%" stop-color="#ff0000" stop-opacity="1.0" /><stop offset="50%" stop-color="#e70000" stop-opacity="1.0" /><stop offset="100%" stop-color="#9e0000" stop-opacity="0.0" /></radialGradient></defs><rect x="200" y="0" width="33" height="50" stroke="none" fill="#262421" /><rect x="233" y="0" width="33" height="50" stroke="none" fill="#bababa" /><rect x="266" y="0" width="33" height="50" stroke="none" fill="#bf811d" /><rect x="299" y="0" width="33" height="50" stroke="none" fill="#b72fc6" /><rect x="332" y="0" width="33" height="50" stroke="none" fill="#706f6e" /><rect x="0" y="0" width="50" height="400" stroke="none" fill="#f0d9b5" /><use xlink:href="#black-pawn" transform="translate(0, 50)" /><use xlink:href="#black-knight" transform="translate(0, 100)" /><use xlink:href="#black-bishop" transform="translate(0, 150)" /><use xlink:href="#black-rook" transform="translate(0, 200)" /><use xlink:href="#black-queen" transform="translate(0, 250)" /><use xlink:href="#black-king" transform="translate(0, 300)" /><rect x="0" y="350" width="50" height="50" fill="url(#check_gradient)" /><use xlink:href="#black-king" transform="translate(0, 350)" /><rect x="50" y="0" width="50" height="400" stroke="none" fill="#b58863" /><use xlink:href="#black-pawn" transform="translate(50, 50)" /><use xlink:href="#black-knight" transform="translate(50, 100)" /><use xlink:href="#black-bishop" transform="translate(50, 150)" /><use xlink:href="#black-rook" transform="translate(50, 200)" /><use xlink:href="#black-queen" transform="translate(50, 250)" /><use xlink:href="#black-king" transform="translate(50, 300)" /><rect x="50" y="350" width="50" height="50" fill="url(#check_gradient)" /><use xlink:href="#black-king" transform="translate(50, 350)" /><rect x="100" y="0" width="50" height="400" stroke="none" fill="#ced26b" /><use xlink:href="#black-pawn" transform="translate(100, 50)" /><use xlink:href="#black-knight" transform="translate(100, 100)" /><use xlink:href="#black-bishop" transform="translate(100, 150)" /><use xlink:href="#black-rook" transform="translate(100, 200)" /><use xlink:href="#black-queen" transform="translate(100, 250)" /><use xlink:href="#black-king" transform="translate(100, 300)" /><rect x="100" y="350" width="50" height="50" fill="url(#check_gradient)" /><use xlink:href="#black-king" transform="translate(100, 350)" /><rect x="150" y="0" width="50" height="400" stroke="none" fill="#aaa23b" /><use xlink:href="#black-pawn" transform="translate(150, 50)" /><use xlink:href="#black-knight" transform="translate(150, 100)" /><use xlink:href="#black-bishop" transform="translate(150, 150)" /><use xlink:href="#black-rook" transform="translate(150, 200)" /><use xlink:href="#black-queen" transform="translate(150, 250)" /><use xlink:href="#black-king" transform="translate(150, 300)" /><rect x="150" y="350" width="50" height="50" fill="url(#check_gradient)" /><use xlink:href="#black-king" transform="translate(150, 350)" /><rect x="200" y="50" width="50" height="350" stroke="none" fill="#f0d9b5" /><use xlink:href="#white-pawn" transform="translate(200, 50)" /><use xlink:href="#white-knight" transform="translate(200, 100)" /><use xlink:href="#white-bishop" transform="translate(200, 150)" /><use xlink:href="#white-rook" transform="translate(200, 200)" /><use xlink:href="#white-queen" transform="translate(200, 250)" /><use xlink:href="#white-king" transform="translate(200, 300)" /><rect x="200" y="350" width="50" height="50" fill="url(#check_gradient)" /><use xlink:href="#white-king" transform="translate(200, 350)" /><rect x="250" y="50" width="50" height="350" stroke="none" fill="#b58863" /><use xlink:href="#white-pawn" transform="translate(250, 50)" /><use xlink:href="#white-knight" transform="translate(250, 100)" /><use xlink:href="#white-bishop" transform="translate(250, 150)" /><use xlink:href="#white-rook" transform="translate(250, 200)" /><use xlink:href="#white-queen" transform="translate(250, 250)" /><use xlink:href="#white-king" transform="translate(250, 300)" /><rect x="250" y="350" width="50" height="50" fill="url(#check_gradient)" /><use xlink:href="#white-king" transform="translate(250, 350)" /><rect x="300" y="50" width="50" height="350" stroke="none" fill="#ced26b" /><use xlink:href="#white-pawn" transform="translate(300, 50)" /><use xlink:href="#white-knight" transform="translate(300, 100)" /><use xlink:href="#white-bishop" transform="translate(300, 150)" /><use xlink:href="#white-rook" transform="translate(300, 200)" /><use xlink:href="#white-queen" transform="translate(300, 250)" /><use xlink:href="#white-king" transform="translate(300, 300)" /><rect x="300" y="350" width="50" height="50" fill="url(#check_gradient)" /><use xlink:href="#white-king" transform="translate(300, 350)" /><rect x="350" y="50" width="50" height="350" stroke="none" fill="#aaa23b" /><use xlink:href="#white-pawn" transform="translate(350, 50)" /><use xlink:href="#white-knight" transform="translate(350, 100)" /><use xlink:href="#white-bishop" transform="translate(350, 150)" /><use xlink:href="#white-rook" transform="translate(350, 200)" /><use xlink:href="#white-queen" transform="translate(350, 250)" /><use xlink:href="#white-king" transform="translate(350, 300)" /><rect x="350" y="350" width="50" height="50" fill="url(#check_gradient)" /><use xlink:href="#white-king" transform="translate(350, 350)" /></svg>